%TF.GenerationSoftware,KiCad,Pcbnew,10.0.6*%
%TF.CreationDate,2026-09-10T20:17:36+02:00*%
%TF.ProjectId,HomeMy_PMU_RevA,486f6d65-4d79-45f5-904d-555f52657641,A*%
%TF.SameCoordinates,Original*%
%TF.FileFunction,Soldermask,Top*%
%TF.FilePolarity,Negative*%
%FSLAX46Y46*%
G04 Gerber Fmt 4.6, Leading zero omitted, Abs format (unit mm)*
G04 Created by KiCad (PCBNEW 10.0.6) date 2026-09-10 20:17:36*
%MOMM*%
%LPD*%
G01*
G04 APERTURE LIST*
G04 Aperture macros list*
%AMRoundRect*
0 Rectangle with rounded corners*
0 $1 Rounding radius*
0 $2 $3 $4 $5 $6 $7 $8 $9 X,Y pos of 4 corners*
0 Add a 4 corners polygon primitive as box body*
4,1,4,$2,$3,$4,$5,$6,$7,$8,$9,$2,$3,0*
0 Add four circle primitives for the rounded corners*
1,1,$1+$1,$2,$3*
1,1,$1+$1,$4,$5*
1,1,$1+$1,$6,$7*
1,1,$1+$1,$8,$9*
0 Add four rect primitives between the rounded corners*
20,1,$1+$1,$2,$3,$4,$5,0*
20,1,$1+$1,$4,$5,$6,$7,0*
20,1,$1+$1,$6,$7,$8,$9,0*
20,1,$1+$1,$8,$9,$2,$3,0*%
%AMFreePoly0*
4,1,30,0.400000,-4.000000,-0.400000,-4.000000,-2.400000,-4.000000,-2.400000,-3.200000,-0.400000,-3.200000,-0.400000,-2.800000,-2.400000,-2.800000,-2.400000,-2.000000,-0.400000,-2.000000,-0.400000,-1.600000,-2.400000,-1.600000,-2.400000,-0.800000,-0.400000,-0.800000,-0.400000,-0.400000,-2.400000,-0.400000,-2.400000,0.400000,-0.400000,0.400000,-0.400000,0.800000,-2.400000,0.800000,-2.400000,1.600000,
-0.400000,1.600000,-0.400000,2.000000,-2.400000,2.000000,-2.400000,2.800000,-0.400000,2.800000,-0.400000,3.200000,-2.400000,3.200000,-2.400000,4.000000,0.400000,4.000000,0.400000,-4.000000,0.400000,-4.000000,$1*%
%AMFreePoly1*
4,1,13,2.850000,-5.050000,1.450000,-5.050000,1.450000,-4.350000,-1.450000,-4.350000,-1.450000,-4.850000,-5.150000,-4.850000,-5.150000,4.850000,-1.450000,4.850000,-1.450000,4.350000,1.450000,4.350000,1.450000,5.050000,2.850000,5.050000,2.850000,-5.050000,2.850000,-5.050000,$1*%
G04 Aperture macros list end*
%ADD10RoundRect,0.250000X-0.250000X-0.475000X0.250000X-0.475000X0.250000X0.475000X-0.250000X0.475000X0*%
%ADD11RoundRect,0.100000X-5.000000X-5.000000X5.000000X-5.000000X5.000000X5.000000X-5.000000X5.000000X0*%
%ADD12RoundRect,0.150000X-0.512500X-0.150000X0.512500X-0.150000X0.512500X0.150000X-0.512500X0.150000X0*%
%ADD13RoundRect,0.250000X0.450000X-0.262500X0.450000X0.262500X-0.450000X0.262500X-0.450000X-0.262500X0*%
%ADD14RoundRect,0.150000X-0.587500X-0.150000X0.587500X-0.150000X0.587500X0.150000X-0.587500X0.150000X0*%
%ADD15RoundRect,0.150000X-0.675000X-0.150000X0.675000X-0.150000X0.675000X0.150000X-0.675000X0.150000X0*%
%ADD16R,0.600000X0.250000*%
%ADD17R,0.250000X0.600000*%
%ADD18R,2.100000X2.100000*%
%ADD19RoundRect,0.249999X-0.790001X-1.550001X0.790001X-1.550001X0.790001X1.550001X-0.790001X1.550001X0*%
%ADD20O,2.080000X3.600000*%
%ADD21C,2.100000*%
%ADD22RoundRect,0.250000X-0.262500X-0.450000X0.262500X-0.450000X0.262500X0.450000X-0.262500X0.450000X0*%
%ADD23RoundRect,0.250000X1.075000X-0.362500X1.075000X0.362500X-1.075000X0.362500X-1.075000X-0.362500X0*%
%ADD24R,1.880000X1.980000*%
%ADD25RoundRect,0.125000X-0.600000X-0.125000X0.600000X-0.125000X0.600000X0.125000X-0.600000X0.125000X0*%
%ADD26RoundRect,0.250000X-0.312500X-0.625000X0.312500X-0.625000X0.312500X0.625000X-0.312500X0.625000X0*%
%ADD27C,2.000000*%
%ADD28RoundRect,0.112500X-0.187500X-0.112500X0.187500X-0.112500X0.187500X0.112500X-0.187500X0.112500X0*%
%ADD29RoundRect,0.250000X0.262500X0.450000X-0.262500X0.450000X-0.262500X-0.450000X0.262500X-0.450000X0*%
%ADD30C,8.200000*%
%ADD31RoundRect,0.250000X0.475000X-0.250000X0.475000X0.250000X-0.475000X0.250000X-0.475000X-0.250000X0*%
%ADD32RoundRect,0.250001X0.949999X0.949999X-0.949999X0.949999X-0.949999X-0.949999X0.949999X-0.949999X0*%
%ADD33C,2.400000*%
%ADD34RoundRect,0.087500X-0.537500X-0.087500X0.537500X-0.087500X0.537500X0.087500X-0.537500X0.087500X0*%
%ADD35RoundRect,0.249999X-1.550001X0.790001X-1.550001X-0.790001X1.550001X-0.790001X1.550001X0.790001X0*%
%ADD36O,3.600000X2.080000*%
%ADD37RoundRect,0.249999X1.550001X-0.790001X1.550001X0.790001X-1.550001X0.790001X-1.550001X-0.790001X0*%
%ADD38RoundRect,0.250000X0.650000X-0.325000X0.650000X0.325000X-0.650000X0.325000X-0.650000X-0.325000X0*%
%ADD39RoundRect,0.250000X-0.450000X0.262500X-0.450000X-0.262500X0.450000X-0.262500X0.450000X0.262500X0*%
%ADD40R,1.900000X1.200000*%
%ADD41R,7.250000X10.800000*%
%ADD42RoundRect,0.150000X0.512500X0.150000X-0.512500X0.150000X-0.512500X-0.150000X0.512500X-0.150000X0*%
%ADD43RoundRect,0.200000X0.275000X-0.200000X0.275000X0.200000X-0.275000X0.200000X-0.275000X-0.200000X0*%
%ADD44RoundRect,0.250000X1.400000X1.000000X-1.400000X1.000000X-1.400000X-1.000000X1.400000X-1.000000X0*%
%ADD45RoundRect,0.225000X-0.225000X-0.250000X0.225000X-0.250000X0.225000X0.250000X-0.225000X0.250000X0*%
%ADD46C,3.200000*%
%ADD47RoundRect,0.150000X-0.150000X-0.700000X0.150000X-0.700000X0.150000X0.700000X-0.150000X0.700000X0*%
%ADD48RoundRect,0.250000X-0.250000X-1.150000X0.250000X-1.150000X0.250000X1.150000X-0.250000X1.150000X0*%
%ADD49RoundRect,0.225000X0.250000X-0.225000X0.250000X0.225000X-0.250000X0.225000X-0.250000X-0.225000X0*%
%ADD50RoundRect,0.250000X0.250000X0.475000X-0.250000X0.475000X-0.250000X-0.475000X0.250000X-0.475000X0*%
%ADD51RoundRect,0.250000X0.625000X-0.312500X0.625000X0.312500X-0.625000X0.312500X-0.625000X-0.312500X0*%
%ADD52RoundRect,0.250000X-0.475000X0.250000X-0.475000X-0.250000X0.475000X-0.250000X0.475000X0.250000X0*%
%ADD53R,1.700000X1.700000*%
%ADD54C,1.700000*%
%ADD55R,2.000000X2.000000*%
%ADD56RoundRect,0.250000X-0.325000X-0.650000X0.325000X-0.650000X0.325000X0.650000X-0.325000X0.650000X0*%
%ADD57R,0.600000X0.310000*%
%ADD58R,1.500000X1.750000*%
%ADD59RoundRect,0.250000X1.100000X-0.325000X1.100000X0.325000X-1.100000X0.325000X-1.100000X-0.325000X0*%
%ADD60RoundRect,0.150000X0.825000X0.150000X-0.825000X0.150000X-0.825000X-0.150000X0.825000X-0.150000X0*%
%ADD61R,2.550000X5.600000*%
%ADD62R,2.550000X0.800000*%
%ADD63RoundRect,0.100000X-0.637500X-0.100000X0.637500X-0.100000X0.637500X0.100000X-0.637500X0.100000X0*%
%ADD64RoundRect,0.250000X-0.325000X-1.100000X0.325000X-1.100000X0.325000X1.100000X-0.325000X1.100000X0*%
%ADD65R,1.450000X0.300000*%
%ADD66R,1.000000X1.000000*%
%ADD67RoundRect,0.150000X0.150000X-0.587500X0.150000X0.587500X-0.150000X0.587500X-0.150000X-0.587500X0*%
%ADD68RoundRect,0.087500X-0.662500X-0.087500X0.662500X-0.087500X0.662500X0.087500X-0.662500X0.087500X0*%
%ADD69RoundRect,0.112500X0.112500X-0.187500X0.112500X0.187500X-0.112500X0.187500X-0.112500X-0.187500X0*%
%ADD70R,4.930000X1.190000*%
%ADD71R,4.930000X5.040000*%
%ADD72C,2.600000*%
%ADD73RoundRect,0.375000X-0.625000X-0.375000X0.625000X-0.375000X0.625000X0.375000X-0.625000X0.375000X0*%
%ADD74RoundRect,0.500000X-0.500000X-1.400000X0.500000X-1.400000X0.500000X1.400000X-0.500000X1.400000X0*%
%ADD75RoundRect,0.125000X-0.537500X-0.125000X0.537500X-0.125000X0.537500X0.125000X-0.537500X0.125000X0*%
%ADD76RoundRect,0.062500X-0.350000X-0.062500X0.350000X-0.062500X0.350000X0.062500X-0.350000X0.062500X0*%
%ADD77RoundRect,0.062500X-0.062500X-0.350000X0.062500X-0.350000X0.062500X0.350000X-0.062500X0.350000X0*%
%ADD78R,2.700000X2.700000*%
%ADD79RoundRect,0.150000X-0.825000X-0.150000X0.825000X-0.150000X0.825000X0.150000X-0.825000X0.150000X0*%
%ADD80R,2.800000X0.800000*%
%ADD81FreePoly0,0.000000*%
%ADD82FreePoly1,0.000000*%
%ADD83RoundRect,0.250000X-0.750000X-0.750000X0.750000X-0.750000X0.750000X0.750000X-0.750000X0.750000X0*%
%ADD84RoundRect,0.250000X1.000000X-1.400000X1.000000X1.400000X-1.000000X1.400000X-1.000000X-1.400000X0*%
%ADD85RoundRect,0.250000X-0.300000X-0.300000X0.300000X-0.300000X0.300000X0.300000X-0.300000X0.300000X0*%
%ADD86R,1.500000X0.900000*%
%ADD87R,0.900000X1.500000*%
%ADD88C,0.600000*%
%ADD89R,3.900000X3.900000*%
G04 APERTURE END LIST*
D10*
%TO.C,C225*%
X193087500Y-195000000D03*
X194987500Y-195000000D03*
%TD*%
D11*
%TO.C,NT2*%
X230000000Y-127000000D03*
X240000000Y-127000000D03*
%TD*%
D12*
%TO.C,U53*%
X127862500Y-209050000D03*
X127862500Y-210000000D03*
X127862500Y-210950000D03*
X130137500Y-210950000D03*
X130137500Y-209050000D03*
%TD*%
D13*
%TO.C,R59*%
X150000000Y-99912500D03*
X150000000Y-98087500D03*
%TD*%
D14*
%TO.C,Q11*%
X169062500Y-70050000D03*
X169062500Y-71950000D03*
X170937500Y-71000000D03*
%TD*%
D15*
%TO.C,U35*%
X253875000Y-86365000D03*
X253875000Y-87635000D03*
X260125000Y-87635000D03*
X260125000Y-86365000D03*
%TD*%
D16*
%TO.C,U1*%
X63100000Y-96750000D03*
X63100000Y-97250000D03*
X63100000Y-97750000D03*
X63100000Y-98250000D03*
X63100000Y-98750000D03*
X63100000Y-99250000D03*
D17*
X63750000Y-99900000D03*
X64250000Y-99900000D03*
X64750000Y-99900000D03*
X65250000Y-99900000D03*
X65750000Y-99900000D03*
X66250000Y-99900000D03*
D16*
X66900000Y-99250000D03*
X66900000Y-98750000D03*
X66900000Y-98250000D03*
X66900000Y-97750000D03*
X66900000Y-97250000D03*
X66900000Y-96750000D03*
D17*
X66250000Y-96100000D03*
X65750000Y-96100000D03*
X65250000Y-96100000D03*
X64750000Y-96100000D03*
X64250000Y-96100000D03*
X63750000Y-96100000D03*
D18*
X65000000Y-98000000D03*
%TD*%
D13*
%TO.C,R48*%
X50000000Y-176912500D03*
X50000000Y-175087500D03*
%TD*%
%TO.C,R317*%
X272000000Y-88912500D03*
X272000000Y-87087500D03*
%TD*%
%TO.C,R63*%
X198000000Y-96912500D03*
X198000000Y-95087500D03*
%TD*%
D10*
%TO.C,C12*%
X169050000Y-90200000D03*
X170950000Y-90200000D03*
%TD*%
D13*
%TO.C,R230*%
X159000000Y-190912500D03*
X159000000Y-189087500D03*
%TD*%
D19*
%TO.C,J18*%
X110000000Y-285000000D03*
D20*
X115080000Y-285000000D03*
X120160000Y-285000000D03*
%TD*%
D12*
%TO.C,U64*%
X77862500Y-233050000D03*
X77862500Y-234000000D03*
X77862500Y-234950000D03*
X80137500Y-234950000D03*
X80137500Y-233050000D03*
%TD*%
D10*
%TO.C,C303*%
X307050000Y-73000000D03*
X308950000Y-73000000D03*
%TD*%
D21*
%TO.C,J3*%
X216190000Y-16190000D03*
X216190000Y-18730000D03*
X216190000Y-21270000D03*
X216190000Y-23810000D03*
X223810000Y-16190000D03*
X223810000Y-18730000D03*
X223810000Y-21270000D03*
X223810000Y-23810000D03*
%TD*%
D10*
%TO.C,C228*%
X228087500Y-183000000D03*
X229987500Y-183000000D03*
%TD*%
D22*
%TO.C,R245*%
X20087500Y-285000000D03*
X21912500Y-285000000D03*
%TD*%
D23*
%TO.C,R200*%
X17000000Y-209312500D03*
X17000000Y-204687500D03*
%TD*%
D24*
%TO.C,U30*%
X321000000Y-67000000D03*
D25*
X318800000Y-66025000D03*
X318800000Y-66675000D03*
X318800000Y-67325000D03*
X318800000Y-67975000D03*
X323200000Y-67975000D03*
X323200000Y-67325000D03*
X323200000Y-66675000D03*
X323200000Y-66025000D03*
%TD*%
D26*
%TO.C,R243*%
X28537500Y-272000000D03*
X31462500Y-272000000D03*
%TD*%
D27*
%TO.C,TP14*%
X214000000Y-207000000D03*
%TD*%
D13*
%TO.C,R47*%
X50000000Y-171912500D03*
X50000000Y-170087500D03*
%TD*%
D10*
%TO.C,C219*%
X121350000Y-217250000D03*
X123250000Y-217250000D03*
%TD*%
%TO.C,C224*%
X190087500Y-218000000D03*
X191987500Y-218000000D03*
%TD*%
%TO.C,C26*%
X84050000Y-169000000D03*
X85950000Y-169000000D03*
%TD*%
D28*
%TO.C,D64*%
X319950000Y-56000000D03*
X322050000Y-56000000D03*
%TD*%
D29*
%TO.C,R208*%
X84912500Y-250000000D03*
X83087500Y-250000000D03*
%TD*%
D10*
%TO.C,C218*%
X133350000Y-230250000D03*
X135250000Y-230250000D03*
%TD*%
D30*
%TO.C,BC4*%
X70000000Y-74000000D03*
%TD*%
D13*
%TO.C,R35*%
X150000000Y-87912500D03*
X150000000Y-86087500D03*
%TD*%
D10*
%TO.C,C240*%
X339050000Y-274000000D03*
X340950000Y-274000000D03*
%TD*%
D22*
%TO.C,R213*%
X110087500Y-237000000D03*
X111912500Y-237000000D03*
%TD*%
D31*
%TO.C,C6*%
X59000000Y-97950000D03*
X59000000Y-96050000D03*
%TD*%
D13*
%TO.C,R6*%
X78350000Y-67412500D03*
X78350000Y-65587500D03*
%TD*%
D27*
%TO.C,TP11*%
X40000000Y-169000000D03*
%TD*%
D12*
%TO.C,U21*%
X86862500Y-245050000D03*
X86862500Y-246000000D03*
X86862500Y-246950000D03*
X89137500Y-246950000D03*
X89137500Y-246000000D03*
X89137500Y-245050000D03*
%TD*%
D13*
%TO.C,R331*%
X285000000Y-58912500D03*
X285000000Y-57087500D03*
%TD*%
D27*
%TO.C,TP5*%
X79000000Y-59000000D03*
%TD*%
D13*
%TO.C,R52*%
X81000000Y-175912500D03*
X81000000Y-174087500D03*
%TD*%
D22*
%TO.C,R310*%
X267087500Y-68000000D03*
X268912500Y-68000000D03*
%TD*%
D13*
%TO.C,R4*%
X78350000Y-17412500D03*
X78350000Y-15587500D03*
%TD*%
D32*
%TO.C,C313*%
X321000000Y-17000000D03*
D33*
X316000000Y-17000000D03*
%TD*%
D13*
%TO.C,R262*%
X83000000Y-215912500D03*
X83000000Y-214087500D03*
%TD*%
D31*
%TO.C,C202*%
X24000000Y-232950000D03*
X24000000Y-231050000D03*
%TD*%
D27*
%TO.C,TP22*%
X200000000Y-168000000D03*
%TD*%
D13*
%TO.C,R16*%
X74850000Y-67412500D03*
X74850000Y-65587500D03*
%TD*%
D34*
%TO.C,U18*%
X41600000Y-223250000D03*
X41600000Y-223750000D03*
X41600000Y-224250000D03*
X41600000Y-224750000D03*
X44400000Y-224750000D03*
X44400000Y-224250000D03*
X44400000Y-223750000D03*
X44400000Y-223250000D03*
%TD*%
D35*
%TO.C,J11*%
X11000000Y-216000000D03*
D36*
X11000000Y-221080000D03*
%TD*%
D31*
%TO.C,C239*%
X341000000Y-282950000D03*
X341000000Y-281050000D03*
%TD*%
D37*
%TO.C,J7*%
X349000000Y-63000000D03*
D36*
X349000000Y-57920000D03*
%TD*%
D13*
%TO.C,R249*%
X111000000Y-279912500D03*
X111000000Y-278087500D03*
%TD*%
%TO.C,R257*%
X284000000Y-200912500D03*
X284000000Y-199087500D03*
%TD*%
D38*
%TO.C,C300*%
X327000000Y-63475000D03*
X327000000Y-60525000D03*
%TD*%
D12*
%TO.C,U57*%
X131862500Y-247050000D03*
X131862500Y-248000000D03*
X131862500Y-248950000D03*
X134137500Y-248950000D03*
X134137500Y-248000000D03*
X134137500Y-247050000D03*
%TD*%
D39*
%TO.C,R224*%
X37000000Y-71987500D03*
X37000000Y-73812500D03*
%TD*%
D13*
%TO.C,R28*%
X52000000Y-97912500D03*
X52000000Y-96087500D03*
%TD*%
D22*
%TO.C,R211*%
X94087500Y-231000000D03*
X95912500Y-231000000D03*
%TD*%
D10*
%TO.C,C256*%
X108087500Y-218000000D03*
X109987500Y-218000000D03*
%TD*%
D13*
%TO.C,R250*%
X272000000Y-180912500D03*
X272000000Y-179087500D03*
%TD*%
D12*
%TO.C,U29*%
X185862500Y-217050000D03*
X185862500Y-218000000D03*
X185862500Y-218950000D03*
X188137500Y-218950000D03*
X188137500Y-218000000D03*
X188137500Y-217050000D03*
%TD*%
D11*
%TO.C,NT6*%
X60000000Y-122000000D03*
X70000000Y-122000000D03*
%TD*%
D22*
%TO.C,R330*%
X299087500Y-102000000D03*
X300912500Y-102000000D03*
%TD*%
D13*
%TO.C,R255*%
X272000000Y-199912500D03*
X272000000Y-198087500D03*
%TD*%
%TO.C,R54*%
X77000000Y-178912500D03*
X77000000Y-177087500D03*
%TD*%
D27*
%TO.C,TP33*%
X246000000Y-256000000D03*
%TD*%
D30*
%TO.C,BC14*%
X272000000Y-20000000D03*
%TD*%
D27*
%TO.C,TP2*%
X53000000Y-85000000D03*
%TD*%
D12*
%TO.C,U25*%
X138862500Y-243050000D03*
X138862500Y-244000000D03*
X138862500Y-244950000D03*
X141137500Y-244950000D03*
X141137500Y-244000000D03*
X141137500Y-243050000D03*
%TD*%
D14*
%TO.C,U26*%
X303062500Y-244050000D03*
X303062500Y-245950000D03*
X304937500Y-245000000D03*
%TD*%
D10*
%TO.C,C255*%
X92087500Y-217050000D03*
X93987500Y-217050000D03*
%TD*%
D13*
%TO.C,R15*%
X74850000Y-42412500D03*
X74850000Y-40587500D03*
%TD*%
D30*
%TO.C,BC11*%
X195000000Y-42000000D03*
%TD*%
D40*
%TO.C,Q7*%
X155650000Y-35000000D03*
X155650000Y-33000000D03*
X155650000Y-31000000D03*
X155650000Y-29000000D03*
X155650000Y-27000000D03*
X155650000Y-25000000D03*
X144350000Y-25000000D03*
X144350000Y-27000000D03*
X144350000Y-29000000D03*
X144350000Y-31000000D03*
X144350000Y-33000000D03*
X144350000Y-35000000D03*
D41*
X150000000Y-30000000D03*
%TD*%
D13*
%TO.C,R40*%
X36000000Y-183912500D03*
X36000000Y-182087500D03*
%TD*%
D22*
%TO.C,R240*%
X211087500Y-200000000D03*
X212912500Y-200000000D03*
%TD*%
D11*
%TO.C,NT4*%
X310000000Y-122000000D03*
X320000000Y-122000000D03*
%TD*%
D10*
%TO.C,C232*%
X133087500Y-219050000D03*
X134987500Y-219050000D03*
%TD*%
%TO.C,C227*%
X132087500Y-209050000D03*
X133987500Y-209050000D03*
%TD*%
D27*
%TO.C,TP18*%
X136000000Y-178000000D03*
%TD*%
D13*
%TO.C,R9*%
X173350000Y-22412500D03*
X173350000Y-20587500D03*
%TD*%
D22*
%TO.C,R323*%
X262087500Y-83000000D03*
X263912500Y-83000000D03*
%TD*%
D27*
%TO.C,TP12*%
X74000000Y-176000000D03*
%TD*%
D13*
%TO.C,R264*%
X283000000Y-274912500D03*
X283000000Y-273087500D03*
%TD*%
D42*
%TO.C,U33*%
X289137500Y-31950000D03*
X289137500Y-31000000D03*
X289137500Y-30050000D03*
X286862500Y-30050000D03*
X286862500Y-31000000D03*
X286862500Y-31950000D03*
%TD*%
D13*
%TO.C,R45*%
X24000000Y-185912500D03*
X24000000Y-184087500D03*
%TD*%
D43*
%TO.C,TH21*%
X164000000Y-65825000D03*
X164000000Y-64175000D03*
%TD*%
D30*
%TO.C,BC6*%
X100000000Y-55000000D03*
%TD*%
D27*
%TO.C,TP24*%
X161000000Y-108000000D03*
%TD*%
%TO.C,TP16*%
X160000000Y-217000000D03*
%TD*%
D13*
%TO.C,R29*%
X60000000Y-101912500D03*
X60000000Y-100087500D03*
%TD*%
D11*
%TO.C,NT5*%
X30000000Y-122000000D03*
X40000000Y-122000000D03*
%TD*%
D13*
%TO.C,R308*%
X268000000Y-73912500D03*
X268000000Y-72087500D03*
%TD*%
D44*
%TO.C,D60*%
X338000000Y-20400000D03*
X338000000Y-13600000D03*
%TD*%
D27*
%TO.C,TP27*%
X290000000Y-67000000D03*
%TD*%
D21*
%TO.C,J4*%
X216190000Y-111190000D03*
X216190000Y-113730000D03*
X216190000Y-116270000D03*
X216190000Y-118810000D03*
X223810000Y-111190000D03*
X223810000Y-113730000D03*
X223810000Y-116270000D03*
X223810000Y-118810000D03*
%TD*%
D13*
%TO.C,R235*%
X203000000Y-191912500D03*
X203000000Y-190087500D03*
%TD*%
D45*
%TO.C,C308*%
X284225000Y-27000000D03*
X285775000Y-27000000D03*
%TD*%
D30*
%TO.C,BC10*%
X165000000Y-48000000D03*
%TD*%
D10*
%TO.C,C251*%
X299050000Y-198000000D03*
X300950000Y-198000000D03*
%TD*%
D12*
%TO.C,U56*%
X122862500Y-247050000D03*
X122862500Y-248000000D03*
X122862500Y-248950000D03*
X125137500Y-248950000D03*
X125137500Y-247050000D03*
%TD*%
D10*
%TO.C,C215*%
X28087500Y-235050000D03*
X29987500Y-235050000D03*
%TD*%
D46*
%TO.C,H3*%
X292000000Y-292000000D03*
%TD*%
D47*
%TO.C,J17*%
X43125000Y-286950000D03*
X44375000Y-286950000D03*
X45625000Y-286950000D03*
X46875000Y-286950000D03*
D48*
X41275000Y-283600000D03*
X48725000Y-283600000D03*
%TD*%
D10*
%TO.C,C4*%
X65050000Y-93900000D03*
X66950000Y-93900000D03*
%TD*%
D31*
%TO.C,C7*%
X55000000Y-97950000D03*
X55000000Y-96050000D03*
%TD*%
D22*
%TO.C,R328*%
X308087500Y-100000000D03*
X309912500Y-100000000D03*
%TD*%
D31*
%TO.C,C243*%
X265000000Y-241950000D03*
X265000000Y-240050000D03*
%TD*%
D22*
%TO.C,R318*%
X288087500Y-36500000D03*
X289912500Y-36500000D03*
%TD*%
D10*
%TO.C,C257*%
X82087500Y-233050000D03*
X83987500Y-233050000D03*
%TD*%
D22*
%TO.C,R231*%
X165087500Y-184000000D03*
X166912500Y-184000000D03*
%TD*%
D13*
%TO.C,R254*%
X272000000Y-204912500D03*
X272000000Y-203087500D03*
%TD*%
D31*
%TO.C,C25*%
X84000000Y-179950000D03*
X84000000Y-178050000D03*
%TD*%
D12*
%TO.C,U63*%
X103862500Y-217050000D03*
X103862500Y-218000000D03*
X103862500Y-218950000D03*
X106137500Y-218950000D03*
X106137500Y-218000000D03*
X106137500Y-217050000D03*
%TD*%
D13*
%TO.C,R46*%
X28000000Y-185912500D03*
X28000000Y-184087500D03*
%TD*%
D30*
%TO.C,BC15*%
X27000000Y-110000000D03*
%TD*%
D13*
%TO.C,R229*%
X159000000Y-186912500D03*
X159000000Y-185087500D03*
%TD*%
D49*
%TO.C,C307*%
X303000000Y-95775000D03*
X303000000Y-94225000D03*
%TD*%
D30*
%TO.C,BC1*%
X43000000Y-20000000D03*
%TD*%
D10*
%TO.C,C253*%
X165050000Y-79000000D03*
X166950000Y-79000000D03*
%TD*%
D13*
%TO.C,R60*%
X147000000Y-99912500D03*
X147000000Y-98087500D03*
%TD*%
%TO.C,R307*%
X272000000Y-67912500D03*
X272000000Y-66087500D03*
%TD*%
D35*
%TO.C,J13*%
X11000000Y-244000000D03*
D36*
X11000000Y-249080000D03*
%TD*%
D10*
%TO.C,C206*%
X29050000Y-76000000D03*
X30950000Y-76000000D03*
%TD*%
D22*
%TO.C,R220*%
X311087500Y-269000000D03*
X312912500Y-269000000D03*
%TD*%
D40*
%TO.C,Q8*%
X155650000Y-70000000D03*
X155650000Y-68000000D03*
X155650000Y-66000000D03*
X155650000Y-64000000D03*
X155650000Y-62000000D03*
X155650000Y-60000000D03*
X144350000Y-60000000D03*
X144350000Y-62000000D03*
X144350000Y-64000000D03*
X144350000Y-66000000D03*
X144350000Y-68000000D03*
X144350000Y-70000000D03*
D41*
X150000000Y-65000000D03*
%TD*%
D22*
%TO.C,R322*%
X262087500Y-103000000D03*
X263912500Y-103000000D03*
%TD*%
D31*
%TO.C,C5*%
X69200000Y-95850000D03*
X69200000Y-93950000D03*
%TD*%
D12*
%TO.C,U28*%
X163862500Y-189050000D03*
X163862500Y-190000000D03*
X163862500Y-190950000D03*
X166137500Y-190950000D03*
X166137500Y-190000000D03*
X166137500Y-189050000D03*
%TD*%
D13*
%TO.C,R44*%
X27000000Y-178912500D03*
X27000000Y-177087500D03*
%TD*%
D45*
%TO.C,C304*%
X277225000Y-79000000D03*
X278775000Y-79000000D03*
%TD*%
D13*
%TO.C,R58*%
X100000000Y-176912500D03*
X100000000Y-175087500D03*
%TD*%
D22*
%TO.C,R312*%
X285087500Y-82000000D03*
X286912500Y-82000000D03*
%TD*%
D12*
%TO.C,U20*%
X23862500Y-235050000D03*
X23862500Y-236000000D03*
X23862500Y-236950000D03*
X26137500Y-236950000D03*
X26137500Y-235050000D03*
%TD*%
D27*
%TO.C,TP17*%
X86000000Y-228000000D03*
%TD*%
D50*
%TO.C,C236*%
X38475000Y-276635000D03*
X36575000Y-276635000D03*
%TD*%
D22*
%TO.C,R321*%
X295087500Y-26000000D03*
X296912500Y-26000000D03*
%TD*%
D37*
%TO.C,J8*%
X349000000Y-91000000D03*
D36*
X349000000Y-85920000D03*
%TD*%
D13*
%TO.C,R226*%
X314000000Y-263912500D03*
X314000000Y-262087500D03*
%TD*%
D32*
%TO.C,C312*%
X304000000Y-17000000D03*
D33*
X299000000Y-17000000D03*
%TD*%
D10*
%TO.C,C208*%
X47525000Y-277905000D03*
X49425000Y-277905000D03*
%TD*%
D22*
%TO.C,R221*%
X321087500Y-263000000D03*
X322912500Y-263000000D03*
%TD*%
D34*
%TO.C,U23*%
X128600000Y-230250000D03*
X128600000Y-230750000D03*
X128600000Y-231250000D03*
X128600000Y-231750000D03*
X131400000Y-231750000D03*
X131400000Y-231250000D03*
X131400000Y-230750000D03*
X131400000Y-230250000D03*
%TD*%
D27*
%TO.C,TP26*%
X293000000Y-39000000D03*
%TD*%
D13*
%TO.C,R39*%
X156000000Y-92912500D03*
X156000000Y-91087500D03*
%TD*%
D22*
%TO.C,R247*%
X92087500Y-280000000D03*
X93912500Y-280000000D03*
%TD*%
%TO.C,R261*%
X163087500Y-75000000D03*
X164912500Y-75000000D03*
%TD*%
D13*
%TO.C,R305*%
X290000000Y-42912500D03*
X290000000Y-41087500D03*
%TD*%
D40*
%TO.C,Q3*%
X60650000Y-80000000D03*
X60650000Y-78000000D03*
X60650000Y-76000000D03*
X60650000Y-74000000D03*
X60650000Y-72000000D03*
X60650000Y-70000000D03*
X49350000Y-70000000D03*
X49350000Y-72000000D03*
X49350000Y-74000000D03*
X49350000Y-76000000D03*
X49350000Y-78000000D03*
X49350000Y-80000000D03*
D41*
X55000000Y-75000000D03*
%TD*%
D10*
%TO.C,C233*%
X37087500Y-235050000D03*
X38987500Y-235050000D03*
%TD*%
D51*
%TO.C,R332*%
X338000000Y-50462500D03*
X338000000Y-47537500D03*
%TD*%
D13*
%TO.C,R228*%
X23000000Y-81912500D03*
X23000000Y-80087500D03*
%TD*%
D27*
%TO.C,TP20*%
X59000000Y-108000000D03*
%TD*%
D10*
%TO.C,C231*%
X136087500Y-248000000D03*
X137987500Y-248000000D03*
%TD*%
D43*
%TO.C,TH20*%
X68000000Y-50825000D03*
X68000000Y-49175000D03*
%TD*%
D13*
%TO.C,R13*%
X65150000Y-84412500D03*
X65150000Y-82587500D03*
%TD*%
%TO.C,R258*%
X300000000Y-202912500D03*
X300000000Y-201087500D03*
%TD*%
D52*
%TO.C,C11*%
X169000000Y-92550000D03*
X169000000Y-94450000D03*
%TD*%
D37*
%TO.C,J15*%
X349000000Y-169000000D03*
D36*
X349000000Y-163920000D03*
%TD*%
D45*
%TO.C,C310*%
X334225000Y-163000000D03*
X335775000Y-163000000D03*
%TD*%
D53*
%TO.C,J20*%
X16000000Y-246000000D03*
D54*
X16000000Y-248540000D03*
%TD*%
D10*
%TO.C,C235*%
X272087500Y-242050000D03*
X273987500Y-242050000D03*
%TD*%
D55*
%TO.C,D63*%
X331000000Y-42000000D03*
D27*
X325920000Y-42000000D03*
%TD*%
D12*
%TO.C,U15*%
X26862500Y-209050000D03*
X26862500Y-210000000D03*
X26862500Y-210950000D03*
X29137500Y-210950000D03*
X29137500Y-209050000D03*
%TD*%
D13*
%TO.C,R263*%
X283000000Y-266912500D03*
X283000000Y-265087500D03*
%TD*%
D10*
%TO.C,C238*%
X294050000Y-242000000D03*
X295950000Y-242000000D03*
%TD*%
D56*
%TO.C,C29*%
X172525000Y-101000000D03*
X175475000Y-101000000D03*
%TD*%
D10*
%TO.C,C217*%
X106087500Y-233050000D03*
X107987500Y-233050000D03*
%TD*%
D22*
%TO.C,R218*%
X308087500Y-249000000D03*
X309912500Y-249000000D03*
%TD*%
D13*
%TO.C,R56*%
X78000000Y-185912500D03*
X78000000Y-184087500D03*
%TD*%
D27*
%TO.C,TP13*%
X134000000Y-262000000D03*
%TD*%
%TO.C,TP19*%
X152000000Y-177000000D03*
%TD*%
D13*
%TO.C,R14*%
X74850000Y-17412500D03*
X74850000Y-15587500D03*
%TD*%
D57*
%TO.C,U51*%
X223600000Y-223025000D03*
X223600000Y-223675000D03*
X223600000Y-224325000D03*
X223600000Y-224975000D03*
X226400000Y-224975000D03*
X226400000Y-224325000D03*
X226400000Y-223675000D03*
X226400000Y-223025000D03*
D58*
X225000000Y-224000000D03*
%TD*%
D22*
%TO.C,R329*%
X313087500Y-103000000D03*
X314912500Y-103000000D03*
%TD*%
%TO.C,R210*%
X93087500Y-250000000D03*
X94912500Y-250000000D03*
%TD*%
D11*
%TO.C,NT3*%
X280000000Y-122000000D03*
X290000000Y-122000000D03*
%TD*%
D53*
%TO.C,J21*%
X274000000Y-267000000D03*
D54*
X274000000Y-269540000D03*
X274000000Y-272080000D03*
X274000000Y-274620000D03*
X274000000Y-277160000D03*
%TD*%
D22*
%TO.C,R203*%
X27087500Y-219000000D03*
X28912500Y-219000000D03*
%TD*%
D56*
%TO.C,C2*%
X65525000Y-90000000D03*
X68475000Y-90000000D03*
%TD*%
D13*
%TO.C,R306*%
X288000000Y-50912500D03*
X288000000Y-49087500D03*
%TD*%
D30*
%TO.C,BC5*%
X100000000Y-25000000D03*
%TD*%
D31*
%TO.C,C237*%
X280000000Y-250950000D03*
X280000000Y-249050000D03*
%TD*%
D10*
%TO.C,C214*%
X57350000Y-223250000D03*
X59250000Y-223250000D03*
%TD*%
D59*
%TO.C,C22*%
X46000000Y-172475000D03*
X46000000Y-169525000D03*
%TD*%
D13*
%TO.C,R219*%
X338000000Y-278912500D03*
X338000000Y-277087500D03*
%TD*%
D22*
%TO.C,R64*%
X51087500Y-104000000D03*
X52912500Y-104000000D03*
%TD*%
D14*
%TO.C,Q43*%
X266062500Y-102050000D03*
X266062500Y-103950000D03*
X267937500Y-103000000D03*
%TD*%
D13*
%TO.C,R18*%
X160150000Y-74412500D03*
X160150000Y-72587500D03*
%TD*%
%TO.C,R237*%
X229000000Y-189912500D03*
X229000000Y-188087500D03*
%TD*%
D27*
%TO.C,TP29*%
X226000000Y-188000000D03*
%TD*%
D39*
%TO.C,R21*%
X62700000Y-91587500D03*
X62700000Y-93412500D03*
%TD*%
D10*
%TO.C,C242*%
X31050000Y-79000000D03*
X32950000Y-79000000D03*
%TD*%
D22*
%TO.C,R202*%
X31087500Y-215000000D03*
X32912500Y-215000000D03*
%TD*%
D13*
%TO.C,R1*%
X61650000Y-34412500D03*
X61650000Y-32587500D03*
%TD*%
D34*
%TO.C,U24*%
X116600000Y-217250000D03*
X116600000Y-217750000D03*
X116600000Y-218250000D03*
X116600000Y-218750000D03*
X119400000Y-218750000D03*
X119400000Y-218250000D03*
X119400000Y-217750000D03*
X119400000Y-217250000D03*
%TD*%
D53*
%TO.C,J23*%
X133000000Y-278000000D03*
D54*
X133000000Y-280540000D03*
X133000000Y-283080000D03*
%TD*%
D10*
%TO.C,C229*%
X113350000Y-247250000D03*
X115250000Y-247250000D03*
%TD*%
D13*
%TO.C,R326*%
X316000000Y-91912500D03*
X316000000Y-90087500D03*
%TD*%
D60*
%TO.C,U31*%
X304475000Y-74905000D03*
X304475000Y-73635000D03*
X304475000Y-72365000D03*
X304475000Y-71095000D03*
X299525000Y-71095000D03*
X299525000Y-72365000D03*
X299525000Y-73635000D03*
X299525000Y-74905000D03*
%TD*%
D13*
%TO.C,R238*%
X263000000Y-245912500D03*
X263000000Y-244087500D03*
%TD*%
D27*
%TO.C,TP39*%
X85000000Y-175000000D03*
%TD*%
D22*
%TO.C,R34*%
X171087500Y-105000000D03*
X172912500Y-105000000D03*
%TD*%
D27*
%TO.C,TP38*%
X39000000Y-181000000D03*
%TD*%
D30*
%TO.C,BC13*%
X235000000Y-20000000D03*
%TD*%
D37*
%TO.C,J12*%
X349000000Y-35000000D03*
D36*
X349000000Y-29920000D03*
%TD*%
D46*
%TO.C,H1*%
X8000000Y-8000000D03*
%TD*%
D10*
%TO.C,C212*%
X45887500Y-210000000D03*
X47787500Y-210000000D03*
%TD*%
D22*
%TO.C,R302*%
X288087500Y-63000000D03*
X289912500Y-63000000D03*
%TD*%
%TO.C,R320*%
X291587500Y-31600000D03*
X293412500Y-31600000D03*
%TD*%
D27*
%TO.C,TP1*%
X24000000Y-51000000D03*
%TD*%
D13*
%TO.C,R206*%
X72000000Y-239912500D03*
X72000000Y-238087500D03*
%TD*%
%TO.C,R61*%
X144000000Y-99912500D03*
X144000000Y-98087500D03*
%TD*%
D34*
%TO.C,U27*%
X206600000Y-194250000D03*
X206600000Y-194750000D03*
X206600000Y-195250000D03*
X206600000Y-195750000D03*
X209400000Y-195750000D03*
X209400000Y-195250000D03*
X209400000Y-194750000D03*
X209400000Y-194250000D03*
%TD*%
D31*
%TO.C,C244*%
X33000000Y-276950000D03*
X33000000Y-275050000D03*
%TD*%
D21*
%TO.C,J6*%
X246190000Y-111190000D03*
X246190000Y-113730000D03*
X246190000Y-116270000D03*
X246190000Y-118810000D03*
X253810000Y-111190000D03*
X253810000Y-113730000D03*
X253810000Y-116270000D03*
X253810000Y-118810000D03*
%TD*%
D13*
%TO.C,R327*%
X307000000Y-96912500D03*
X307000000Y-95087500D03*
%TD*%
%TO.C,R222*%
X320000000Y-258912500D03*
X320000000Y-257087500D03*
%TD*%
%TO.C,R25*%
X54000000Y-91912500D03*
X54000000Y-90087500D03*
%TD*%
%TO.C,R207*%
X79000000Y-239912500D03*
X79000000Y-238087500D03*
%TD*%
D50*
%TO.C,C211*%
X62912500Y-233025000D03*
X61012500Y-233025000D03*
%TD*%
D22*
%TO.C,R24*%
X62087500Y-105000000D03*
X63912500Y-105000000D03*
%TD*%
D31*
%TO.C,C31*%
X187000000Y-95950000D03*
X187000000Y-94050000D03*
%TD*%
D13*
%TO.C,R215*%
X124000000Y-207912500D03*
X124000000Y-206087500D03*
%TD*%
D35*
%TO.C,J9*%
X11000000Y-160000000D03*
D36*
X11000000Y-165080000D03*
%TD*%
D61*
%TO.C,RSH2*%
X115975000Y-45850000D03*
D62*
X115975000Y-41750000D03*
X124025000Y-41750000D03*
D61*
X124025000Y-45850000D03*
%TD*%
D45*
%TO.C,C305*%
X278225000Y-68000000D03*
X279775000Y-68000000D03*
%TD*%
D13*
%TO.C,R259*%
X301000000Y-189912500D03*
X301000000Y-188087500D03*
%TD*%
%TO.C,R309*%
X273000000Y-77912500D03*
X273000000Y-76087500D03*
%TD*%
D63*
%TO.C,U60*%
X289137500Y-194050000D03*
X289137500Y-194700000D03*
X289137500Y-195350000D03*
X289137500Y-196000000D03*
X289137500Y-196650000D03*
X289137500Y-197300000D03*
X289137500Y-197950000D03*
X294862500Y-197950000D03*
X294862500Y-197300000D03*
X294862500Y-196650000D03*
X294862500Y-196000000D03*
X294862500Y-195350000D03*
X294862500Y-194700000D03*
X294862500Y-194050000D03*
%TD*%
D22*
%TO.C,R319*%
X291587500Y-29000000D03*
X293412500Y-29000000D03*
%TD*%
D11*
%TO.C,NT1*%
X200000000Y-127000000D03*
X210000000Y-127000000D03*
%TD*%
D13*
%TO.C,R303*%
X285000000Y-68912500D03*
X285000000Y-67087500D03*
%TD*%
%TO.C,R234*%
X222000000Y-177912500D03*
X222000000Y-176087500D03*
%TD*%
D64*
%TO.C,C301*%
X313525000Y-61000000D03*
X316475000Y-61000000D03*
%TD*%
D13*
%TO.C,R11*%
X65150000Y-34412500D03*
X65150000Y-32587500D03*
%TD*%
D10*
%TO.C,C209*%
X101087500Y-275050000D03*
X102987500Y-275050000D03*
%TD*%
D53*
%TO.C,J22*%
X257000000Y-234000000D03*
D54*
X257000000Y-236540000D03*
X257000000Y-239080000D03*
%TD*%
D14*
%TO.C,Q41*%
X282062500Y-38050000D03*
X282062500Y-39950000D03*
X283937500Y-39000000D03*
%TD*%
D13*
%TO.C,R20*%
X169850000Y-57412500D03*
X169850000Y-55587500D03*
%TD*%
D10*
%TO.C,C247*%
X279050000Y-190000000D03*
X280950000Y-190000000D03*
%TD*%
D65*
%TO.C,U2*%
X161800000Y-91750000D03*
X161800000Y-92250000D03*
X161800000Y-92750000D03*
X161800000Y-93250000D03*
X161800000Y-93750000D03*
X161800000Y-94250000D03*
X161800000Y-94750000D03*
X161800000Y-95250000D03*
X161800000Y-95750000D03*
X161800000Y-96250000D03*
X166200000Y-96250000D03*
X166200000Y-95750000D03*
X166200000Y-95250000D03*
X166200000Y-94750000D03*
X166200000Y-94250000D03*
X166200000Y-93250000D03*
X166200000Y-92750000D03*
X166200000Y-92250000D03*
X166200000Y-91750000D03*
%TD*%
D13*
%TO.C,R2*%
X61650000Y-59412500D03*
X61650000Y-57587500D03*
%TD*%
D30*
%TO.C,BC7*%
X135000000Y-25000000D03*
%TD*%
D63*
%TO.C,U32*%
X275137500Y-71050000D03*
X275137500Y-71700000D03*
X275137500Y-72350000D03*
X275137500Y-73000000D03*
X275137500Y-73650000D03*
X275137500Y-74300000D03*
X275137500Y-74950000D03*
X280862500Y-74950000D03*
X280862500Y-74300000D03*
X280862500Y-73650000D03*
X280862500Y-73000000D03*
X280862500Y-72350000D03*
X280862500Y-71700000D03*
X280862500Y-71050000D03*
%TD*%
D27*
%TO.C,TP6*%
X97000000Y-108000000D03*
%TD*%
D22*
%TO.C,R260*%
X68087500Y-54000000D03*
X69912500Y-54000000D03*
%TD*%
D13*
%TO.C,R256*%
X276000000Y-197912500D03*
X276000000Y-196087500D03*
%TD*%
D22*
%TO.C,R248*%
X102087500Y-278000000D03*
X103912500Y-278000000D03*
%TD*%
D46*
%TO.C,H4*%
X8000000Y-292000000D03*
%TD*%
D66*
%TO.C,NT10*%
X298500000Y-44000000D03*
X299500000Y-44000000D03*
%TD*%
D39*
%TO.C,R223*%
X33000000Y-70587500D03*
X33000000Y-72412500D03*
%TD*%
D27*
%TO.C,TP30*%
X250000000Y-183000000D03*
%TD*%
D45*
%TO.C,C306*%
X268225000Y-79000000D03*
X269775000Y-79000000D03*
%TD*%
D13*
%TO.C,R316*%
X272000000Y-84912500D03*
X272000000Y-83087500D03*
%TD*%
D10*
%TO.C,C204*%
X70050000Y-231000000D03*
X71950000Y-231000000D03*
%TD*%
D13*
%TO.C,R53*%
X73000000Y-171912500D03*
X73000000Y-170087500D03*
%TD*%
D61*
%TO.C,RSH1*%
X25975000Y-45850000D03*
D62*
X25975000Y-41750000D03*
X34025000Y-41750000D03*
D61*
X34025000Y-45850000D03*
%TD*%
D13*
%TO.C,R324*%
X339000000Y-160912500D03*
X339000000Y-159087500D03*
%TD*%
D67*
%TO.C,D40*%
X24050000Y-276937500D03*
X25950000Y-276937500D03*
X25000000Y-275062500D03*
%TD*%
D27*
%TO.C,TP28*%
X301000000Y-83000000D03*
%TD*%
%TO.C,TP10*%
X281000000Y-52000000D03*
%TD*%
%TO.C,TP25*%
X184000000Y-133000000D03*
%TD*%
D13*
%TO.C,R315*%
X293000000Y-88912500D03*
X293000000Y-87087500D03*
%TD*%
D68*
%TO.C,U11*%
X22900000Y-74000000D03*
X22900000Y-74500000D03*
X22900000Y-75000000D03*
X22900000Y-75500000D03*
X22900000Y-76000000D03*
X27100000Y-76000000D03*
X27100000Y-75500000D03*
X27100000Y-75000000D03*
X27100000Y-74500000D03*
X27100000Y-74000000D03*
%TD*%
D12*
%TO.C,U36*%
X309862500Y-90050000D03*
X309862500Y-91000000D03*
X309862500Y-91950000D03*
X312137500Y-91950000D03*
X312137500Y-91000000D03*
X312137500Y-90050000D03*
%TD*%
D13*
%TO.C,R32*%
X174000000Y-88912500D03*
X174000000Y-87087500D03*
%TD*%
D10*
%TO.C,C21*%
X34050000Y-169000000D03*
X35950000Y-169000000D03*
%TD*%
D12*
%TO.C,U58*%
X128862500Y-219050000D03*
X128862500Y-220000000D03*
X128862500Y-220950000D03*
X131137500Y-220950000D03*
X131137500Y-219050000D03*
%TD*%
D10*
%TO.C,C248*%
X285050000Y-191000000D03*
X286950000Y-191000000D03*
%TD*%
D13*
%TO.C,R41*%
X27000000Y-171912500D03*
X27000000Y-170087500D03*
%TD*%
D21*
%TO.C,J1*%
X11190000Y-41190000D03*
X11190000Y-43730000D03*
X11190000Y-46270000D03*
X11190000Y-48810000D03*
X18810000Y-41190000D03*
X18810000Y-43730000D03*
X18810000Y-46270000D03*
X18810000Y-48810000D03*
%TD*%
D50*
%TO.C,C203*%
X62950000Y-238000000D03*
X61050000Y-238000000D03*
%TD*%
D40*
%TO.C,Q10*%
X174350000Y-60000000D03*
X174350000Y-62000000D03*
X174350000Y-64000000D03*
X174350000Y-66000000D03*
X174350000Y-68000000D03*
X174350000Y-70000000D03*
X185650000Y-70000000D03*
X185650000Y-68000000D03*
X185650000Y-66000000D03*
X185650000Y-64000000D03*
X185650000Y-62000000D03*
X185650000Y-60000000D03*
D41*
X180000000Y-65000000D03*
%TD*%
D22*
%TO.C,R205*%
X19087500Y-236000000D03*
X20912500Y-236000000D03*
%TD*%
D30*
%TO.C,BC12*%
X195000000Y-72000000D03*
%TD*%
D56*
%TO.C,C245*%
X19525000Y-289000000D03*
X22475000Y-289000000D03*
%TD*%
D69*
%TO.C,D65*%
X265000000Y-98050000D03*
X265000000Y-95950000D03*
%TD*%
D70*
%TO.C,D2*%
X103000000Y-82870000D03*
D71*
X103000000Y-79055000D03*
%TD*%
D56*
%TO.C,C9*%
X172525000Y-97000000D03*
X175475000Y-97000000D03*
%TD*%
D13*
%TO.C,R217*%
X299000000Y-245912500D03*
X299000000Y-244087500D03*
%TD*%
D14*
%TO.C,Q42*%
X265062500Y-86050000D03*
X265062500Y-87950000D03*
X266937500Y-87000000D03*
%TD*%
D13*
%TO.C,R26*%
X58000000Y-92912500D03*
X58000000Y-91087500D03*
%TD*%
D10*
%TO.C,C250*%
X287050000Y-202000000D03*
X288950000Y-202000000D03*
%TD*%
D13*
%TO.C,R301*%
X316000000Y-72912500D03*
X316000000Y-71087500D03*
%TD*%
D10*
%TO.C,C234*%
X296812500Y-194050000D03*
X298712500Y-194050000D03*
%TD*%
D12*
%TO.C,U50*%
X188862500Y-194050000D03*
X188862500Y-195000000D03*
X188862500Y-195950000D03*
X191137500Y-195950000D03*
X191137500Y-195000000D03*
X191137500Y-194050000D03*
%TD*%
D10*
%TO.C,C309*%
X284050000Y-24000000D03*
X285950000Y-24000000D03*
%TD*%
D14*
%TO.C,Q21*%
X89062500Y-275050000D03*
X89062500Y-276950000D03*
X90937500Y-276000000D03*
%TD*%
D39*
%TO.C,R23*%
X72000000Y-96087500D03*
X72000000Y-97912500D03*
%TD*%
D30*
%TO.C,BC3*%
X70000000Y-26000000D03*
%TD*%
D50*
%TO.C,C200*%
X23950000Y-209000000D03*
X22050000Y-209000000D03*
%TD*%
D13*
%TO.C,R253*%
X285000000Y-194912500D03*
X285000000Y-193087500D03*
%TD*%
D27*
%TO.C,TP40*%
X89000000Y-171000000D03*
%TD*%
D72*
%TO.C,C10*%
X150250000Y-141000000D03*
X177750000Y-141000000D03*
%TD*%
D23*
%TO.C,R201*%
X17000000Y-218312500D03*
X17000000Y-213687500D03*
%TD*%
D73*
%TO.C,U12*%
X284850000Y-239700000D03*
X284850000Y-242000000D03*
D74*
X291150000Y-242000000D03*
D73*
X284850000Y-244300000D03*
%TD*%
D15*
%TO.C,U34*%
X253875000Y-98365000D03*
X253875000Y-99635000D03*
X260125000Y-99635000D03*
X260125000Y-98365000D03*
%TD*%
D30*
%TO.C,BC8*%
X135000000Y-65000000D03*
%TD*%
D34*
%TO.C,U55*%
X108600000Y-247250000D03*
X108600000Y-247750000D03*
X108600000Y-248250000D03*
X108600000Y-248750000D03*
X111400000Y-248750000D03*
X111400000Y-248250000D03*
X111400000Y-247750000D03*
X111400000Y-247250000D03*
%TD*%
D12*
%TO.C,U59*%
X32862500Y-235050000D03*
X32862500Y-236000000D03*
X32862500Y-236950000D03*
X35137500Y-236950000D03*
X35137500Y-235050000D03*
%TD*%
D13*
%TO.C,R246*%
X95000000Y-272912500D03*
X95000000Y-271087500D03*
%TD*%
D75*
%TO.C,U16*%
X64862500Y-233025000D03*
X64862500Y-233675000D03*
X64862500Y-234325000D03*
X64862500Y-234975000D03*
X67137500Y-234975000D03*
X67137500Y-234325000D03*
X67137500Y-233675000D03*
X67137500Y-233025000D03*
%TD*%
D12*
%TO.C,U22*%
X101862500Y-233050000D03*
X101862500Y-234000000D03*
X101862500Y-234950000D03*
X104137500Y-234950000D03*
X104137500Y-233050000D03*
%TD*%
%TO.C,U61*%
X267862500Y-242050000D03*
X267862500Y-243000000D03*
X267862500Y-243950000D03*
X270137500Y-243950000D03*
X270137500Y-242050000D03*
%TD*%
D13*
%TO.C,R216*%
X140000000Y-251912500D03*
X140000000Y-250087500D03*
%TD*%
D50*
%TO.C,C226*%
X221650000Y-223025000D03*
X219750000Y-223025000D03*
%TD*%
D27*
%TO.C,TP35*%
X16000000Y-241000000D03*
%TD*%
D63*
%TO.C,U65*%
X286137500Y-269050000D03*
X286137500Y-269700000D03*
X286137500Y-270350000D03*
X286137500Y-271000000D03*
X286137500Y-271650000D03*
X286137500Y-272300000D03*
X286137500Y-272950000D03*
X291862500Y-272950000D03*
X291862500Y-272300000D03*
X291862500Y-271650000D03*
X291862500Y-271000000D03*
X291862500Y-270350000D03*
X291862500Y-269700000D03*
X291862500Y-269050000D03*
%TD*%
D27*
%TO.C,TP36*%
X20000000Y-243000000D03*
%TD*%
D22*
%TO.C,R313*%
X279087500Y-84000000D03*
X280912500Y-84000000D03*
%TD*%
D47*
%TO.C,J16*%
X28125000Y-286950000D03*
X29375000Y-286950000D03*
X30625000Y-286950000D03*
X31875000Y-286950000D03*
D48*
X26275000Y-283600000D03*
X33725000Y-283600000D03*
%TD*%
D26*
%TO.C,R244*%
X28537500Y-280000000D03*
X31462500Y-280000000D03*
%TD*%
D31*
%TO.C,C1*%
X72000000Y-92950000D03*
X72000000Y-91050000D03*
%TD*%
D27*
%TO.C,TP9*%
X158000000Y-55000000D03*
%TD*%
D13*
%TO.C,R55*%
X74000000Y-185912500D03*
X74000000Y-184087500D03*
%TD*%
%TO.C,R242*%
X49000000Y-270912500D03*
X49000000Y-269087500D03*
%TD*%
D10*
%TO.C,C30*%
X191050000Y-88000000D03*
X192950000Y-88000000D03*
%TD*%
D13*
%TO.C,R212*%
X98000000Y-234912500D03*
X98000000Y-233087500D03*
%TD*%
D35*
%TO.C,J10*%
X11000000Y-188000000D03*
D36*
X11000000Y-193080000D03*
%TD*%
D13*
%TO.C,R304*%
X280000000Y-65912500D03*
X280000000Y-64087500D03*
%TD*%
%TO.C,R209*%
X93000000Y-242912500D03*
X93000000Y-241087500D03*
%TD*%
D76*
%TO.C,U4*%
X88037500Y-174750000D03*
X88037500Y-175250000D03*
X88037500Y-175750000D03*
X88037500Y-176250000D03*
X88037500Y-176750000D03*
X88037500Y-177250000D03*
D77*
X88750000Y-177962500D03*
X89250000Y-177962500D03*
X89750000Y-177962500D03*
X90250000Y-177962500D03*
X90750000Y-177962500D03*
X91250000Y-177962500D03*
D76*
X91962500Y-177250000D03*
X91962500Y-176750000D03*
X91962500Y-176250000D03*
X91962500Y-175750000D03*
X91962500Y-175250000D03*
X91962500Y-174750000D03*
D77*
X91250000Y-174037500D03*
X90750000Y-174037500D03*
X90250000Y-174037500D03*
X89750000Y-174037500D03*
X89250000Y-174037500D03*
X88750000Y-174037500D03*
D78*
X90000000Y-176000000D03*
%TD*%
D40*
%TO.C,Q4*%
X79350000Y-20000000D03*
X79350000Y-22000000D03*
X79350000Y-24000000D03*
X79350000Y-26000000D03*
X79350000Y-28000000D03*
X79350000Y-30000000D03*
X90650000Y-30000000D03*
X90650000Y-28000000D03*
X90650000Y-26000000D03*
X90650000Y-24000000D03*
X90650000Y-22000000D03*
X90650000Y-20000000D03*
D41*
X85000000Y-25000000D03*
%TD*%
D66*
%TO.C,NT9*%
X119500000Y-128000000D03*
X120500000Y-128000000D03*
%TD*%
D52*
%TO.C,C241*%
X30000000Y-72250000D03*
X30000000Y-74150000D03*
%TD*%
D69*
%TO.C,D66*%
X269000000Y-98050000D03*
X269000000Y-95950000D03*
%TD*%
D13*
%TO.C,R42*%
X31000000Y-175912500D03*
X31000000Y-174087500D03*
%TD*%
D10*
%TO.C,C222*%
X211350000Y-194250000D03*
X213250000Y-194250000D03*
%TD*%
D45*
%TO.C,C311*%
X310225000Y-86000000D03*
X311775000Y-86000000D03*
%TD*%
D13*
%TO.C,R236*%
X230000000Y-226912500D03*
X230000000Y-225087500D03*
%TD*%
D29*
%TO.C,R225*%
X36912500Y-76000000D03*
X35087500Y-76000000D03*
%TD*%
D10*
%TO.C,C210*%
X31087500Y-209050000D03*
X32987500Y-209050000D03*
%TD*%
D13*
%TO.C,R300*%
X316000000Y-68912500D03*
X316000000Y-67087500D03*
%TD*%
%TO.C,R5*%
X78350000Y-42412500D03*
X78350000Y-40587500D03*
%TD*%
D40*
%TO.C,Q6*%
X79350000Y-70000000D03*
X79350000Y-72000000D03*
X79350000Y-74000000D03*
X79350000Y-76000000D03*
X79350000Y-78000000D03*
X79350000Y-80000000D03*
X90650000Y-80000000D03*
X90650000Y-78000000D03*
X90650000Y-76000000D03*
X90650000Y-74000000D03*
X90650000Y-72000000D03*
X90650000Y-70000000D03*
D41*
X85000000Y-75000000D03*
%TD*%
D13*
%TO.C,R251*%
X272000000Y-185912500D03*
X272000000Y-184087500D03*
%TD*%
D34*
%TO.C,U19*%
X52600000Y-223250000D03*
X52600000Y-223750000D03*
X52600000Y-224250000D03*
X52600000Y-224750000D03*
X55400000Y-224750000D03*
X55400000Y-224250000D03*
X55400000Y-223750000D03*
X55400000Y-223250000D03*
%TD*%
D14*
%TO.C,Q20*%
X139062500Y-230050000D03*
X139062500Y-231950000D03*
X140937500Y-231000000D03*
%TD*%
D13*
%TO.C,R50*%
X86000000Y-183912500D03*
X86000000Y-182087500D03*
%TD*%
D10*
%TO.C,C205*%
X335700000Y-283990000D03*
X337600000Y-283990000D03*
%TD*%
D27*
%TO.C,TP3*%
X44000000Y-91000000D03*
%TD*%
D13*
%TO.C,R19*%
X169850000Y-22412500D03*
X169850000Y-20587500D03*
%TD*%
%TO.C,R36*%
X156000000Y-87912500D03*
X156000000Y-86087500D03*
%TD*%
D27*
%TO.C,TP21*%
X193000000Y-139000000D03*
%TD*%
D31*
%TO.C,C20*%
X34000000Y-179950000D03*
X34000000Y-178050000D03*
%TD*%
D14*
%TO.C,Q44*%
X309062500Y-103050000D03*
X309062500Y-104950000D03*
X310937500Y-104000000D03*
%TD*%
D72*
%TO.C,C3*%
X38250000Y-141000000D03*
X65750000Y-141000000D03*
%TD*%
D40*
%TO.C,Q9*%
X174350000Y-25000000D03*
X174350000Y-27000000D03*
X174350000Y-29000000D03*
X174350000Y-31000000D03*
X174350000Y-33000000D03*
X174350000Y-35000000D03*
X185650000Y-35000000D03*
X185650000Y-33000000D03*
X185650000Y-31000000D03*
X185650000Y-29000000D03*
X185650000Y-27000000D03*
X185650000Y-25000000D03*
D41*
X180000000Y-30000000D03*
%TD*%
D11*
%TO.C,NT7*%
X340000000Y-122000000D03*
X350000000Y-122000000D03*
%TD*%
D13*
%TO.C,R12*%
X65150000Y-59412500D03*
X65150000Y-57587500D03*
%TD*%
%TO.C,R17*%
X160150000Y-39412500D03*
X160150000Y-37587500D03*
%TD*%
D50*
%TO.C,C207*%
X282750000Y-244300000D03*
X280850000Y-244300000D03*
%TD*%
D30*
%TO.C,BC2*%
X43000000Y-78000000D03*
%TD*%
D22*
%TO.C,R311*%
X302087500Y-90000000D03*
X303912500Y-90000000D03*
%TD*%
D12*
%TO.C,U62*%
X87862500Y-217050000D03*
X87862500Y-218000000D03*
X87862500Y-218950000D03*
X90137500Y-218950000D03*
X90137500Y-217050000D03*
%TD*%
D10*
%TO.C,C252*%
X68050000Y-57000000D03*
X69950000Y-57000000D03*
%TD*%
%TO.C,C249*%
X279050000Y-199000000D03*
X280950000Y-199000000D03*
%TD*%
D27*
%TO.C,TP4*%
X44000000Y-85800000D03*
%TD*%
D13*
%TO.C,R325*%
X316000000Y-87912500D03*
X316000000Y-86087500D03*
%TD*%
D79*
%TO.C,U13*%
X40525000Y-274095000D03*
X40525000Y-275365000D03*
X40525000Y-276635000D03*
X40525000Y-277905000D03*
X45475000Y-277905000D03*
X45475000Y-276635000D03*
X45475000Y-275365000D03*
X45475000Y-274095000D03*
%TD*%
D13*
%TO.C,R227*%
X316700000Y-263912500D03*
X316700000Y-262087500D03*
%TD*%
D10*
%TO.C,C216*%
X91087500Y-246000000D03*
X92987500Y-246000000D03*
%TD*%
D40*
%TO.C,Q5*%
X79350000Y-45000000D03*
X79350000Y-47000000D03*
X79350000Y-49000000D03*
X79350000Y-51000000D03*
X79350000Y-53000000D03*
X79350000Y-55000000D03*
X90650000Y-55000000D03*
X90650000Y-53000000D03*
X90650000Y-51000000D03*
X90650000Y-49000000D03*
X90650000Y-47000000D03*
X90650000Y-45000000D03*
D41*
X85000000Y-50000000D03*
%TD*%
D12*
%TO.C,U54*%
X223862500Y-182050000D03*
X223862500Y-183000000D03*
X223862500Y-183950000D03*
X226137500Y-183950000D03*
X226137500Y-183000000D03*
X226137500Y-182050000D03*
%TD*%
D13*
%TO.C,R62*%
X198000000Y-91912500D03*
X198000000Y-90087500D03*
%TD*%
D80*
%TO.C,Q40*%
X296750000Y-30800000D03*
D81*
X297750000Y-35600000D03*
D82*
X305800000Y-35000000D03*
%TD*%
D45*
%TO.C,C302*%
X306225000Y-68000000D03*
X307775000Y-68000000D03*
%TD*%
D27*
%TO.C,TP15*%
X102000000Y-133000000D03*
%TD*%
%TO.C,TP23*%
X203000000Y-186000000D03*
%TD*%
D12*
%TO.C,U5*%
X190862500Y-93050000D03*
X190862500Y-94000000D03*
X190862500Y-94950000D03*
X193137500Y-94950000D03*
X193137500Y-94000000D03*
X193137500Y-93050000D03*
%TD*%
D22*
%TO.C,R33*%
X156087500Y-103000000D03*
X157912500Y-103000000D03*
%TD*%
D13*
%TO.C,R3*%
X61650000Y-84412500D03*
X61650000Y-82587500D03*
%TD*%
D27*
%TO.C,TP7*%
X150000000Y-91000000D03*
%TD*%
D30*
%TO.C,BC9*%
X165000000Y-28000000D03*
%TD*%
D13*
%TO.C,R233*%
X230000000Y-221912500D03*
X230000000Y-220087500D03*
%TD*%
D22*
%TO.C,R22*%
X56087500Y-104000000D03*
X57912500Y-104000000D03*
%TD*%
D31*
%TO.C,C28*%
X141000000Y-99950000D03*
X141000000Y-98050000D03*
%TD*%
D12*
%TO.C,U14*%
X96862500Y-275050000D03*
X96862500Y-276000000D03*
X96862500Y-276950000D03*
X99137500Y-276950000D03*
X99137500Y-275050000D03*
%TD*%
D10*
%TO.C,C230*%
X127087500Y-247050000D03*
X128987500Y-247050000D03*
%TD*%
D22*
%TO.C,R232*%
X169087500Y-184000000D03*
X170912500Y-184000000D03*
%TD*%
D21*
%TO.C,J5*%
X246190000Y-16190000D03*
X246190000Y-18730000D03*
X246190000Y-21270000D03*
X246190000Y-23810000D03*
X253810000Y-16190000D03*
X253810000Y-18730000D03*
X253810000Y-21270000D03*
X253810000Y-23810000D03*
%TD*%
D13*
%TO.C,R51*%
X77000000Y-171912500D03*
X77000000Y-170087500D03*
%TD*%
D37*
%TO.C,J14*%
X349000000Y-141000000D03*
D36*
X349000000Y-135920000D03*
%TD*%
D31*
%TO.C,C13*%
X161000000Y-103950000D03*
X161000000Y-102050000D03*
%TD*%
D11*
%TO.C,NT8*%
X90000000Y-122000000D03*
X100000000Y-122000000D03*
%TD*%
D27*
%TO.C,TP31*%
X138000000Y-278000000D03*
%TD*%
D14*
%TO.C,U17*%
X42062500Y-209050000D03*
X42062500Y-210950000D03*
X43937500Y-210000000D03*
%TD*%
D13*
%TO.C,R31*%
X157000000Y-98912500D03*
X157000000Y-97087500D03*
%TD*%
%TO.C,R241*%
X37000000Y-273912500D03*
X37000000Y-272087500D03*
%TD*%
D10*
%TO.C,C223*%
X168087500Y-190000000D03*
X169987500Y-190000000D03*
%TD*%
%TO.C,C220*%
X143087500Y-244000000D03*
X144987500Y-244000000D03*
%TD*%
D13*
%TO.C,R214*%
X116000000Y-235912500D03*
X116000000Y-234087500D03*
%TD*%
D40*
%TO.C,Q1*%
X60650000Y-30000000D03*
X60650000Y-28000000D03*
X60650000Y-26000000D03*
X60650000Y-24000000D03*
X60650000Y-22000000D03*
X60650000Y-20000000D03*
X49350000Y-20000000D03*
X49350000Y-22000000D03*
X49350000Y-24000000D03*
X49350000Y-26000000D03*
X49350000Y-28000000D03*
X49350000Y-30000000D03*
D41*
X55000000Y-25000000D03*
%TD*%
D83*
%TO.C,C246*%
X132000000Y-270000000D03*
D27*
X137000000Y-270000000D03*
%TD*%
D13*
%TO.C,R57*%
X100000000Y-171912500D03*
X100000000Y-170087500D03*
%TD*%
D10*
%TO.C,C8*%
X168050000Y-87000000D03*
X169950000Y-87000000D03*
%TD*%
D22*
%TO.C,R239*%
X261087500Y-239000000D03*
X262912500Y-239000000D03*
%TD*%
D70*
%TO.C,D1*%
X30000000Y-67870000D03*
D71*
X30000000Y-64055000D03*
%TD*%
D27*
%TO.C,TP34*%
X245000000Y-221000000D03*
%TD*%
D10*
%TO.C,C258*%
X293812500Y-269050000D03*
X295712500Y-269050000D03*
%TD*%
D84*
%TO.C,D61*%
X311600000Y-47000000D03*
X318400000Y-47000000D03*
%TD*%
D21*
%TO.C,J2*%
X11190000Y-111190000D03*
X11190000Y-113730000D03*
X11190000Y-116270000D03*
X11190000Y-118810000D03*
X18810000Y-111190000D03*
X18810000Y-113730000D03*
X18810000Y-116270000D03*
X18810000Y-118810000D03*
%TD*%
D10*
%TO.C,C201*%
X34850000Y-212000000D03*
X36750000Y-212000000D03*
%TD*%
D13*
%TO.C,R252*%
X276000000Y-188912500D03*
X276000000Y-187087500D03*
%TD*%
D40*
%TO.C,Q2*%
X60650000Y-55000000D03*
X60650000Y-53000000D03*
X60650000Y-51000000D03*
X60650000Y-49000000D03*
X60650000Y-47000000D03*
X60650000Y-45000000D03*
X49350000Y-45000000D03*
X49350000Y-47000000D03*
X49350000Y-49000000D03*
X49350000Y-51000000D03*
X49350000Y-53000000D03*
X49350000Y-55000000D03*
D41*
X55000000Y-50000000D03*
%TD*%
D13*
%TO.C,R30*%
X174000000Y-94912500D03*
X174000000Y-93087500D03*
%TD*%
D27*
%TO.C,TP32*%
X183000000Y-277000000D03*
%TD*%
D31*
%TO.C,C254*%
X84000000Y-220950000D03*
X84000000Y-219050000D03*
%TD*%
D13*
%TO.C,R314*%
X293000000Y-83912500D03*
X293000000Y-82087500D03*
%TD*%
%TO.C,R7*%
X156650000Y-39412500D03*
X156650000Y-37587500D03*
%TD*%
D27*
%TO.C,TP37*%
X35000000Y-175000000D03*
%TD*%
D13*
%TO.C,R43*%
X23000000Y-171912500D03*
X23000000Y-170087500D03*
%TD*%
%TO.C,R10*%
X173350000Y-57412500D03*
X173350000Y-55587500D03*
%TD*%
%TO.C,R204*%
X20000000Y-230912500D03*
X20000000Y-229087500D03*
%TD*%
D85*
%TO.C,D62*%
X298600000Y-26000000D03*
X301400000Y-26000000D03*
%TD*%
D10*
%TO.C,C213*%
X46350000Y-223250000D03*
X48250000Y-223250000D03*
%TD*%
D59*
%TO.C,C27*%
X96000000Y-172475000D03*
X96000000Y-169525000D03*
%TD*%
D13*
%TO.C,R27*%
X48000000Y-91912500D03*
X48000000Y-90087500D03*
%TD*%
%TO.C,R8*%
X156650000Y-74412500D03*
X156650000Y-72587500D03*
%TD*%
D86*
%TO.C,U10*%
X333750000Y-285260000D03*
X333750000Y-283990000D03*
X333750000Y-282720000D03*
X333750000Y-281450000D03*
X333750000Y-280180000D03*
X333750000Y-278910000D03*
X333750000Y-277640000D03*
X333750000Y-276370000D03*
X333750000Y-275100000D03*
X333750000Y-273830000D03*
X333750000Y-272560000D03*
X333750000Y-271290000D03*
X333750000Y-270020000D03*
X333750000Y-268750000D03*
D87*
X331985000Y-267500000D03*
X330715000Y-267500000D03*
X329445000Y-267500000D03*
X328175000Y-267500000D03*
X326905000Y-267500000D03*
X325635000Y-267500000D03*
X324365000Y-267500000D03*
X323095000Y-267500000D03*
X321825000Y-267500000D03*
X320555000Y-267500000D03*
X319285000Y-267500000D03*
X318015000Y-267500000D03*
D86*
X316250000Y-268750000D03*
X316250000Y-270020000D03*
X316250000Y-271290000D03*
X316250000Y-272560000D03*
X316250000Y-273830000D03*
X316250000Y-275100000D03*
X316250000Y-276370000D03*
X316250000Y-277640000D03*
X316250000Y-278910000D03*
X316250000Y-280180000D03*
X316250000Y-281450000D03*
X316250000Y-282720000D03*
X316250000Y-283990000D03*
X316250000Y-285260000D03*
D88*
X327900000Y-278240000D03*
X327900000Y-276840000D03*
X327200000Y-278940000D03*
X327200000Y-277540000D03*
X327200000Y-276140000D03*
X326500000Y-278240000D03*
D89*
X326500000Y-277540000D03*
D88*
X326500000Y-276840000D03*
X325800000Y-278940000D03*
X325800000Y-277540000D03*
X325800000Y-276140000D03*
X325100000Y-278240000D03*
X325100000Y-276840000D03*
%TD*%
D27*
%TO.C,TP8*%
X146500000Y-85500000D03*
%TD*%
D46*
%TO.C,H2*%
X352000000Y-8000000D03*
%TD*%
D76*
%TO.C,U3*%
X38037500Y-174750000D03*
X38037500Y-175250000D03*
X38037500Y-175750000D03*
X38037500Y-176250000D03*
X38037500Y-176750000D03*
X38037500Y-177250000D03*
D77*
X38750000Y-177962500D03*
X39250000Y-177962500D03*
X39750000Y-177962500D03*
X40250000Y-177962500D03*
X40750000Y-177962500D03*
X41250000Y-177962500D03*
D76*
X41962500Y-177250000D03*
X41962500Y-176750000D03*
X41962500Y-176250000D03*
X41962500Y-175750000D03*
X41962500Y-175250000D03*
X41962500Y-174750000D03*
D77*
X41250000Y-174037500D03*
X40750000Y-174037500D03*
X40250000Y-174037500D03*
X39750000Y-174037500D03*
X39250000Y-174037500D03*
X38750000Y-174037500D03*
D78*
X40000000Y-176000000D03*
%TD*%
D10*
%TO.C,C221*%
X306887500Y-245000000D03*
X308787500Y-245000000D03*
%TD*%
M02*
