%TF.GenerationSoftware,KiCad,Pcbnew,10.0.6*%
%TF.CreationDate,2026-09-10T20:17:36+02:00*%
%TF.ProjectId,HomeMy_PMU_RevA,486f6d65-4d79-45f5-904d-555f52657641,A*%
%TF.SameCoordinates,Original*%
%TF.FileFunction,Legend,Bot*%
%TF.FilePolarity,Positive*%
%FSLAX46Y46*%
G04 Gerber Fmt 4.6, Leading zero omitted, Abs format (unit mm)*
G04 Created by KiCad (PCBNEW 10.0.6) date 2026-09-10 20:17:36*
%MOMM*%
%LPD*%
G01*
G04 APERTURE LIST*
G04 Aperture macros list*
%AMRoundRect*
0 Rectangle with rounded corners*
0 $1 Rounding radius*
0 $2 $3 $4 $5 $6 $7 $8 $9 X,Y pos of 4 corners*
0 Add a 4 corners polygon primitive as box body*
4,1,4,$2,$3,$4,$5,$6,$7,$8,$9,$2,$3,0*
0 Add four circle primitives for the rounded corners*
1,1,$1+$1,$2,$3*
1,1,$1+$1,$4,$5*
1,1,$1+$1,$6,$7*
1,1,$1+$1,$8,$9*
0 Add four rect primitives between the rounded corners*
20,1,$1+$1,$2,$3,$4,$5,0*
20,1,$1+$1,$4,$5,$6,$7,0*
20,1,$1+$1,$6,$7,$8,$9,0*
20,1,$1+$1,$8,$9,$2,$3,0*%
G04 Aperture macros list end*
%ADD10RoundRect,0.100000X-5.000000X-5.000000X5.000000X-5.000000X5.000000X5.000000X-5.000000X5.000000X0*%
%ADD11RoundRect,0.249999X-0.790001X-1.550001X0.790001X-1.550001X0.790001X1.550001X-0.790001X1.550001X0*%
%ADD12O,2.080000X3.600000*%
%ADD13C,2.100000*%
%ADD14C,8.200000*%
%ADD15RoundRect,0.250001X0.949999X0.949999X-0.949999X0.949999X-0.949999X-0.949999X0.949999X-0.949999X0*%
%ADD16C,2.400000*%
%ADD17RoundRect,0.249999X-1.550001X0.790001X-1.550001X-0.790001X1.550001X-0.790001X1.550001X0.790001X0*%
%ADD18O,3.600000X2.080000*%
%ADD19RoundRect,0.249999X1.550001X-0.790001X1.550001X0.790001X-1.550001X0.790001X-1.550001X-0.790001X0*%
%ADD20C,3.200000*%
%ADD21R,1.700000X1.700000*%
%ADD22C,1.700000*%
%ADD23R,2.000000X2.000000*%
%ADD24C,2.000000*%
%ADD25C,2.600000*%
%ADD26RoundRect,0.250000X-0.750000X-0.750000X0.750000X-0.750000X0.750000X0.750000X-0.750000X0.750000X0*%
G04 APERTURE END LIST*
%LPC*%
D10*
%TO.C,NT2*%
X230000000Y-127000000D03*
X240000000Y-127000000D03*
%TD*%
D11*
%TO.C,J18*%
X110000000Y-285000000D03*
D12*
X115080000Y-285000000D03*
X120160000Y-285000000D03*
%TD*%
D13*
%TO.C,J3*%
X216190000Y-16190000D03*
X216190000Y-18730000D03*
X216190000Y-21270000D03*
X216190000Y-23810000D03*
X223810000Y-16190000D03*
X223810000Y-18730000D03*
X223810000Y-21270000D03*
X223810000Y-23810000D03*
%TD*%
D14*
%TO.C,BC4*%
X70000000Y-74000000D03*
%TD*%
D15*
%TO.C,C313*%
X321000000Y-17000000D03*
D16*
X316000000Y-17000000D03*
%TD*%
D17*
%TO.C,J11*%
X11000000Y-216000000D03*
D18*
X11000000Y-221080000D03*
%TD*%
D19*
%TO.C,J7*%
X349000000Y-63000000D03*
D18*
X349000000Y-57920000D03*
%TD*%
D10*
%TO.C,NT6*%
X60000000Y-122000000D03*
X70000000Y-122000000D03*
%TD*%
D14*
%TO.C,BC14*%
X272000000Y-20000000D03*
%TD*%
%TO.C,BC11*%
X195000000Y-42000000D03*
%TD*%
D10*
%TO.C,NT4*%
X310000000Y-122000000D03*
X320000000Y-122000000D03*
%TD*%
D14*
%TO.C,BC6*%
X100000000Y-55000000D03*
%TD*%
D10*
%TO.C,NT5*%
X30000000Y-122000000D03*
X40000000Y-122000000D03*
%TD*%
D13*
%TO.C,J4*%
X216190000Y-111190000D03*
X216190000Y-113730000D03*
X216190000Y-116270000D03*
X216190000Y-118810000D03*
X223810000Y-111190000D03*
X223810000Y-113730000D03*
X223810000Y-116270000D03*
X223810000Y-118810000D03*
%TD*%
D14*
%TO.C,BC10*%
X165000000Y-48000000D03*
%TD*%
D20*
%TO.C,H3*%
X292000000Y-292000000D03*
%TD*%
D14*
%TO.C,BC15*%
X27000000Y-110000000D03*
%TD*%
%TO.C,BC1*%
X43000000Y-20000000D03*
%TD*%
D17*
%TO.C,J13*%
X11000000Y-244000000D03*
D18*
X11000000Y-249080000D03*
%TD*%
D19*
%TO.C,J8*%
X349000000Y-91000000D03*
D18*
X349000000Y-85920000D03*
%TD*%
D15*
%TO.C,C312*%
X304000000Y-17000000D03*
D16*
X299000000Y-17000000D03*
%TD*%
D19*
%TO.C,J15*%
X349000000Y-169000000D03*
D18*
X349000000Y-163920000D03*
%TD*%
D21*
%TO.C,J20*%
X16000000Y-246000000D03*
D22*
X16000000Y-248540000D03*
%TD*%
D23*
%TO.C,D63*%
X331000000Y-42000000D03*
D24*
X325920000Y-42000000D03*
%TD*%
D10*
%TO.C,NT3*%
X280000000Y-122000000D03*
X290000000Y-122000000D03*
%TD*%
D21*
%TO.C,J21*%
X274000000Y-267000000D03*
D22*
X274000000Y-269540000D03*
X274000000Y-272080000D03*
X274000000Y-274620000D03*
X274000000Y-277160000D03*
%TD*%
D14*
%TO.C,BC5*%
X100000000Y-25000000D03*
%TD*%
D21*
%TO.C,J23*%
X133000000Y-278000000D03*
D22*
X133000000Y-280540000D03*
X133000000Y-283080000D03*
%TD*%
D14*
%TO.C,BC13*%
X235000000Y-20000000D03*
%TD*%
D19*
%TO.C,J12*%
X349000000Y-35000000D03*
D18*
X349000000Y-29920000D03*
%TD*%
D20*
%TO.C,H1*%
X8000000Y-8000000D03*
%TD*%
D13*
%TO.C,J6*%
X246190000Y-111190000D03*
X246190000Y-113730000D03*
X246190000Y-116270000D03*
X246190000Y-118810000D03*
X253810000Y-111190000D03*
X253810000Y-113730000D03*
X253810000Y-116270000D03*
X253810000Y-118810000D03*
%TD*%
D17*
%TO.C,J9*%
X11000000Y-160000000D03*
D18*
X11000000Y-165080000D03*
%TD*%
D10*
%TO.C,NT1*%
X200000000Y-127000000D03*
X210000000Y-127000000D03*
%TD*%
D21*
%TO.C,J22*%
X257000000Y-234000000D03*
D22*
X257000000Y-236540000D03*
X257000000Y-239080000D03*
%TD*%
D14*
%TO.C,BC7*%
X135000000Y-25000000D03*
%TD*%
D20*
%TO.C,H4*%
X8000000Y-292000000D03*
%TD*%
D13*
%TO.C,J1*%
X11190000Y-41190000D03*
X11190000Y-43730000D03*
X11190000Y-46270000D03*
X11190000Y-48810000D03*
X18810000Y-41190000D03*
X18810000Y-43730000D03*
X18810000Y-46270000D03*
X18810000Y-48810000D03*
%TD*%
D14*
%TO.C,BC12*%
X195000000Y-72000000D03*
%TD*%
%TO.C,BC3*%
X70000000Y-26000000D03*
%TD*%
D25*
%TO.C,C10*%
X150250000Y-141000000D03*
X177750000Y-141000000D03*
%TD*%
D14*
%TO.C,BC8*%
X135000000Y-65000000D03*
%TD*%
D17*
%TO.C,J10*%
X11000000Y-188000000D03*
D18*
X11000000Y-193080000D03*
%TD*%
D25*
%TO.C,C3*%
X38250000Y-141000000D03*
X65750000Y-141000000D03*
%TD*%
D10*
%TO.C,NT7*%
X340000000Y-122000000D03*
X350000000Y-122000000D03*
%TD*%
D14*
%TO.C,BC2*%
X43000000Y-78000000D03*
%TD*%
%TO.C,BC9*%
X165000000Y-28000000D03*
%TD*%
D13*
%TO.C,J5*%
X246190000Y-16190000D03*
X246190000Y-18730000D03*
X246190000Y-21270000D03*
X246190000Y-23810000D03*
X253810000Y-16190000D03*
X253810000Y-18730000D03*
X253810000Y-21270000D03*
X253810000Y-23810000D03*
%TD*%
D19*
%TO.C,J14*%
X349000000Y-141000000D03*
D18*
X349000000Y-135920000D03*
%TD*%
D10*
%TO.C,NT8*%
X90000000Y-122000000D03*
X100000000Y-122000000D03*
%TD*%
D26*
%TO.C,C246*%
X132000000Y-270000000D03*
D24*
X137000000Y-270000000D03*
%TD*%
D13*
%TO.C,J2*%
X11190000Y-111190000D03*
X11190000Y-113730000D03*
X11190000Y-116270000D03*
X11190000Y-118810000D03*
X18810000Y-111190000D03*
X18810000Y-113730000D03*
X18810000Y-116270000D03*
X18810000Y-118810000D03*
%TD*%
D20*
%TO.C,H2*%
X352000000Y-8000000D03*
%TD*%
%LPD*%
M02*
