%TF.GenerationSoftware,KiCad,Pcbnew,10.0.6*%
%TF.CreationDate,2026-09-10T20:17:36+02:00*%
%TF.ProjectId,HomeMy_PMU_RevA,486f6d65-4d79-45f5-904d-555f52657641,A*%
%TF.SameCoordinates,Original*%
%TF.FileFunction,Copper,L3,Inr*%
%TF.FilePolarity,Positive*%
%FSLAX46Y46*%
G04 Gerber Fmt 4.6, Leading zero omitted, Abs format (unit mm)*
G04 Created by KiCad (PCBNEW 10.0.6) date 2026-09-10 20:17:36*
%MOMM*%
%LPD*%
G01*
G04 APERTURE LIST*
G04 Aperture macros list*
%AMRoundRect*
0 Rectangle with rounded corners*
0 $1 Rounding radius*
0 $2 $3 $4 $5 $6 $7 $8 $9 X,Y pos of 4 corners*
0 Add a 4 corners polygon primitive as box body*
4,1,4,$2,$3,$4,$5,$6,$7,$8,$9,$2,$3,0*
0 Add four circle primitives for the rounded corners*
1,1,$1+$1,$2,$3*
1,1,$1+$1,$4,$5*
1,1,$1+$1,$6,$7*
1,1,$1+$1,$8,$9*
0 Add four rect primitives between the rounded corners*
20,1,$1+$1,$2,$3,$4,$5,0*
20,1,$1+$1,$4,$5,$6,$7,0*
20,1,$1+$1,$6,$7,$8,$9,0*
20,1,$1+$1,$8,$9,$2,$3,0*%
G04 Aperture macros list end*
%TA.AperFunction,ComponentPad*%
%ADD10R,10.000000X10.000000*%
%TD*%
%TA.AperFunction,ComponentPad*%
%ADD11RoundRect,0.249999X-0.790001X-1.550001X0.790001X-1.550001X0.790001X1.550001X-0.790001X1.550001X0*%
%TD*%
%TA.AperFunction,ComponentPad*%
%ADD12O,2.080000X3.600000*%
%TD*%
%TA.AperFunction,ComponentPad*%
%ADD13C,2.100000*%
%TD*%
%TA.AperFunction,HeatsinkPad*%
%ADD14C,0.500000*%
%TD*%
%TA.AperFunction,ComponentPad*%
%ADD15C,8.000000*%
%TD*%
%TA.AperFunction,ComponentPad*%
%ADD16RoundRect,0.250001X0.949999X0.949999X-0.949999X0.949999X-0.949999X-0.949999X0.949999X-0.949999X0*%
%TD*%
%TA.AperFunction,ComponentPad*%
%ADD17C,2.400000*%
%TD*%
%TA.AperFunction,ComponentPad*%
%ADD18RoundRect,0.249999X-1.550001X0.790001X-1.550001X-0.790001X1.550001X-0.790001X1.550001X0.790001X0*%
%TD*%
%TA.AperFunction,ComponentPad*%
%ADD19O,3.600000X2.080000*%
%TD*%
%TA.AperFunction,ComponentPad*%
%ADD20RoundRect,0.249999X1.550001X-0.790001X1.550001X0.790001X-1.550001X0.790001X-1.550001X-0.790001X0*%
%TD*%
%TA.AperFunction,ComponentPad*%
%ADD21R,1.700000X1.700000*%
%TD*%
%TA.AperFunction,ComponentPad*%
%ADD22C,1.700000*%
%TD*%
%TA.AperFunction,ComponentPad*%
%ADD23R,2.000000X2.000000*%
%TD*%
%TA.AperFunction,ComponentPad*%
%ADD24C,2.000000*%
%TD*%
%TA.AperFunction,ComponentPad*%
%ADD25C,2.600000*%
%TD*%
%TA.AperFunction,ComponentPad*%
%ADD26RoundRect,0.250000X-0.750000X-0.750000X0.750000X-0.750000X0.750000X0.750000X-0.750000X0.750000X0*%
%TD*%
%TA.AperFunction,HeatsinkPad*%
%ADD27C,0.600000*%
%TD*%
%TA.AperFunction,ViaPad*%
%ADD28C,0.600000*%
%TD*%
%TA.AperFunction,ViaPad*%
%ADD29C,0.800000*%
%TD*%
%TA.AperFunction,Conductor*%
%ADD30C,0.200000*%
%TD*%
%TA.AperFunction,Conductor*%
%ADD31C,3.000000*%
%TD*%
%TA.AperFunction,Conductor*%
%ADD32C,8.000000*%
%TD*%
G04 APERTURE END LIST*
D10*
%TO.N,ARM_R_N*%
%TO.C,NT2*%
X230000000Y-127000000D03*
%TO.N,BATT_N*%
X240000000Y-127000000D03*
%TD*%
D11*
%TO.N,V5V*%
%TO.C,J18*%
X110000000Y-285000000D03*
D12*
%TO.N,LED_DATA_OUT*%
X115080000Y-285000000D03*
%TO.N,LOGIC_5V_N*%
X120160000Y-285000000D03*
%TD*%
D13*
%TO.N,MOTION_BUS_P*%
%TO.C,J3*%
X216190000Y-16190000D03*
X216190000Y-18730000D03*
X216190000Y-21270000D03*
X216190000Y-23810000D03*
X223810000Y-16190000D03*
X223810000Y-18730000D03*
X223810000Y-21270000D03*
X223810000Y-23810000D03*
%TD*%
D14*
%TO.N,CHOP_GND*%
%TO.C,U30*%
X320450000Y-65780000D03*
X320450000Y-67000000D03*
X320450000Y-68220000D03*
X321550000Y-65780000D03*
X321550000Y-67000000D03*
X321550000Y-68220000D03*
%TD*%
D15*
%TO.N,MAIN_COMMON*%
%TO.C,BC4*%
X70000000Y-74000000D03*
%TD*%
D16*
%TO.N,MOTION_BUS_P*%
%TO.C,C313*%
X321000000Y-17000000D03*
D17*
%TO.N,CHOPPER_N*%
X316000000Y-17000000D03*
%TD*%
D18*
%TO.N,V5V*%
%TO.C,J11*%
X11000000Y-216000000D03*
D19*
%TO.N,LOGIC_5V_N*%
X11000000Y-221080000D03*
%TD*%
D20*
%TO.N,MOTION_BUS_P*%
%TO.C,J7*%
X349000000Y-63000000D03*
D19*
%TO.N,DRIVE_N*%
X349000000Y-57920000D03*
%TD*%
D10*
%TO.N,LOGIC_BUCK_N*%
%TO.C,NT6*%
X60000000Y-122000000D03*
%TO.N,BATT_N*%
X70000000Y-122000000D03*
%TD*%
D15*
%TO.N,MOTION_BUS_P*%
%TO.C,BC14*%
X272000000Y-20000000D03*
%TD*%
%TO.N,MOTION_BUS_P*%
%TO.C,BC11*%
X195000000Y-42000000D03*
%TD*%
D10*
%TO.N,LIFT_N*%
%TO.C,NT4*%
X310000000Y-122000000D03*
%TO.N,BATT_N*%
X320000000Y-122000000D03*
%TD*%
D15*
%TO.N,SYS_BUS_P*%
%TO.C,BC6*%
X100000000Y-55000000D03*
%TD*%
D10*
%TO.N,PC_N*%
%TO.C,NT5*%
X30000000Y-122000000D03*
%TO.N,BATT_N*%
X40000000Y-122000000D03*
%TD*%
D13*
%TO.N,ARM_L_N*%
%TO.C,J4*%
X216190000Y-111190000D03*
X216190000Y-113730000D03*
X216190000Y-116270000D03*
X216190000Y-118810000D03*
X223810000Y-111190000D03*
X223810000Y-113730000D03*
X223810000Y-116270000D03*
X223810000Y-118810000D03*
%TD*%
D15*
%TO.N,MOTION_COMMON*%
%TO.C,BC10*%
X165000000Y-48000000D03*
%TD*%
%TO.N,BATT_N*%
%TO.C,BC15*%
X27000000Y-110000000D03*
%TD*%
%TO.N,BATT_SENSED_P*%
%TO.C,BC1*%
X43000000Y-20000000D03*
%TD*%
D18*
%TO.N,LIFT_24V_SAMPLE*%
%TO.C,J13*%
X11000000Y-244000000D03*
D19*
%TO.N,LIFT_24V_N*%
X11000000Y-249080000D03*
%TD*%
D20*
%TO.N,MOTION_BUS_P*%
%TO.C,J8*%
X349000000Y-91000000D03*
D19*
%TO.N,LIFT_N*%
X349000000Y-85920000D03*
%TD*%
D16*
%TO.N,MOTION_BUS_P*%
%TO.C,C312*%
X304000000Y-17000000D03*
D17*
%TO.N,CHOPPER_N*%
X299000000Y-17000000D03*
%TD*%
D20*
%TO.N,CHOP_TEMP_ADC*%
%TO.C,J15*%
X349000000Y-169000000D03*
D19*
%TO.N,LOGIC_GND*%
X349000000Y-163920000D03*
%TD*%
D21*
%TO.N,PB_CONNECTOR*%
%TO.C,J20*%
X16000000Y-246000000D03*
D22*
%TO.N,LOGIC_GND*%
X16000000Y-248540000D03*
%TD*%
D23*
%TO.N,MOTION_BUS_P*%
%TO.C,D63*%
X331000000Y-42000000D03*
D24*
%TO.N,CHOP_DRAIN*%
X325920000Y-42000000D03*
%TD*%
D10*
%TO.N,DRIVE_N*%
%TO.C,NT3*%
X280000000Y-122000000D03*
%TO.N,BATT_N*%
X290000000Y-122000000D03*
%TD*%
D21*
%TO.N,LOGIC_GND*%
%TO.C,J21*%
X274000000Y-267000000D03*
D22*
%TO.N,UART_RX_CONNECTOR*%
X274000000Y-269540000D03*
%TO.N,UART_TX_CONNECTOR*%
X274000000Y-272080000D03*
%TO.N,ESP_BOOT_N*%
X274000000Y-274620000D03*
%TO.N,ESP_CHIP_EN*%
X274000000Y-277160000D03*
%TD*%
D15*
%TO.N,SYS_BUS_P*%
%TO.C,BC5*%
X100000000Y-25000000D03*
%TD*%
D21*
%TO.N,I2C_SDA*%
%TO.C,J23*%
X133000000Y-278000000D03*
D22*
%TO.N,I2C_SCL*%
X133000000Y-280540000D03*
%TO.N,LOGIC_GND*%
X133000000Y-283080000D03*
%TD*%
D15*
%TO.N,MOTION_BUS_P*%
%TO.C,BC13*%
X235000000Y-20000000D03*
%TD*%
D20*
%TO.N,MOTION_BUS_P*%
%TO.C,J12*%
X349000000Y-35000000D03*
D19*
%TO.N,CHOP_DRAIN*%
X349000000Y-29920000D03*
%TD*%
D13*
%TO.N,ARM_R_N*%
%TO.C,J6*%
X246190000Y-111190000D03*
X246190000Y-113730000D03*
X246190000Y-116270000D03*
X246190000Y-118810000D03*
X253810000Y-111190000D03*
X253810000Y-113730000D03*
X253810000Y-116270000D03*
X253810000Y-118810000D03*
%TD*%
D18*
%TO.N,PC_BUCK_IN_P*%
%TO.C,J9*%
X11000000Y-160000000D03*
D19*
%TO.N,PC_N*%
X11000000Y-165080000D03*
%TD*%
D10*
%TO.N,ARM_L_N*%
%TO.C,NT1*%
X200000000Y-127000000D03*
%TO.N,BATT_N*%
X210000000Y-127000000D03*
%TD*%
D21*
%TO.N,V3V3*%
%TO.C,J22*%
X257000000Y-234000000D03*
D22*
%TO.N,MOTION_PERMIT_CONNECTOR*%
X257000000Y-236540000D03*
%TO.N,LOGIC_GND*%
X257000000Y-239080000D03*
%TD*%
D15*
%TO.N,MOTION_SENSED_P*%
%TO.C,BC7*%
X135000000Y-25000000D03*
%TD*%
D13*
%TO.N,BATT_FUSED_P*%
%TO.C,J1*%
X11190000Y-41190000D03*
X11190000Y-43730000D03*
X11190000Y-46270000D03*
X11190000Y-48810000D03*
X18810000Y-41190000D03*
X18810000Y-43730000D03*
X18810000Y-46270000D03*
X18810000Y-48810000D03*
%TD*%
D15*
%TO.N,MOTION_BUS_P*%
%TO.C,BC12*%
X195000000Y-72000000D03*
%TD*%
%TO.N,MAIN_COMMON*%
%TO.C,BC3*%
X70000000Y-26000000D03*
%TD*%
D25*
%TO.N,MOTION_TMR*%
%TO.C,C10*%
X150250000Y-141000000D03*
%TO.N,BATT_N*%
X177750000Y-141000000D03*
%TD*%
D15*
%TO.N,MOTION_SENSED_P*%
%TO.C,BC8*%
X135000000Y-65000000D03*
%TD*%
D18*
%TO.N,LOGIC_BUCK_IN_P*%
%TO.C,J10*%
X11000000Y-188000000D03*
D19*
%TO.N,LOGIC_BUCK_N*%
X11000000Y-193080000D03*
%TD*%
D25*
%TO.N,MAIN_TMR*%
%TO.C,C3*%
X38250000Y-141000000D03*
%TO.N,BATT_N*%
X65750000Y-141000000D03*
%TD*%
D10*
%TO.N,CHOPPER_N*%
%TO.C,NT7*%
X340000000Y-122000000D03*
%TO.N,BATT_N*%
X350000000Y-122000000D03*
%TD*%
D15*
%TO.N,BATT_SENSED_P*%
%TO.C,BC2*%
X43000000Y-78000000D03*
%TD*%
%TO.N,MOTION_COMMON*%
%TO.C,BC9*%
X165000000Y-28000000D03*
%TD*%
D13*
%TO.N,MOTION_BUS_P*%
%TO.C,J5*%
X246190000Y-16190000D03*
X246190000Y-18730000D03*
X246190000Y-21270000D03*
X246190000Y-23810000D03*
X253810000Y-16190000D03*
X253810000Y-18730000D03*
X253810000Y-21270000D03*
X253810000Y-23810000D03*
%TD*%
D20*
%TO.N,CHOP_NTC*%
%TO.C,J14*%
X349000000Y-141000000D03*
D19*
%TO.N,CHOP_GND*%
X349000000Y-135920000D03*
%TD*%
D10*
%TO.N,LOGIC_5V_N*%
%TO.C,NT8*%
X90000000Y-122000000D03*
%TO.N,BATT_N*%
X100000000Y-122000000D03*
%TD*%
D26*
%TO.N,V5V*%
%TO.C,C246*%
X132000000Y-270000000D03*
D24*
%TO.N,LOGIC_5V_N*%
X137000000Y-270000000D03*
%TD*%
D13*
%TO.N,BATT_N*%
%TO.C,J2*%
X11190000Y-111190000D03*
X11190000Y-113730000D03*
X11190000Y-116270000D03*
X11190000Y-118810000D03*
X18810000Y-111190000D03*
X18810000Y-113730000D03*
X18810000Y-116270000D03*
X18810000Y-118810000D03*
%TD*%
D27*
%TO.N,LOGIC_GND*%
%TO.C,U10*%
X327900000Y-278240000D03*
X327900000Y-276840000D03*
X327200000Y-278940000D03*
X327200000Y-277540000D03*
X327200000Y-276140000D03*
X326500000Y-278240000D03*
X326500000Y-276840000D03*
X325800000Y-278940000D03*
X325800000Y-277540000D03*
X325800000Y-276140000D03*
X325100000Y-278240000D03*
X325100000Y-276840000D03*
%TD*%
D28*
%TO.N,V3V3*%
X156187300Y-191611000D03*
X162364800Y-81635900D03*
X34134400Y-81635900D03*
X39187800Y-55087900D03*
X231399600Y-222127100D03*
X289412900Y-243764100D03*
X29900000Y-77000000D03*
X337237600Y-162948200D03*
X310035800Y-268439300D03*
X218231400Y-221962200D03*
X337419400Y-274835400D03*
X272286400Y-239167800D03*
X291180300Y-268127100D03*
X270765800Y-241233800D03*
X292798300Y-194079000D03*
X60926500Y-200527900D03*
X214325600Y-205493200D03*
X331824400Y-188638700D03*
X286502700Y-239915100D03*
X63017000Y-54157500D03*
X162364800Y-90714100D03*
X27100000Y-78800000D03*
X213542400Y-192391600D03*
X54972700Y-271118000D03*
%TO.N,LOGIC_GND*%
X308009200Y-243400000D03*
X227649500Y-187903500D03*
X132930100Y-250501200D03*
X96649300Y-278272200D03*
X66713400Y-69662300D03*
X162314800Y-218361700D03*
X168516100Y-78664700D03*
X137518400Y-244238100D03*
X23070600Y-284842300D03*
X34674400Y-276812700D03*
X39962100Y-208929300D03*
X126418300Y-230741500D03*
X293124700Y-278044500D03*
X21022100Y-209444800D03*
X117838500Y-233223200D03*
X39187800Y-70728500D03*
X231399600Y-225256800D03*
X221679100Y-182865000D03*
X278240200Y-197028700D03*
X34674400Y-274835400D03*
X105545800Y-274384600D03*
X293606800Y-272274800D03*
X25709100Y-230250900D03*
X302122400Y-200527900D03*
X82690100Y-217477800D03*
X73386800Y-230719500D03*
X94936800Y-280453400D03*
X75761000Y-236195500D03*
X182979400Y-194834500D03*
X337554200Y-162144800D03*
X320997900Y-256099900D03*
X338683800Y-284144200D03*
X96781900Y-251057000D03*
X34555700Y-209127100D03*
X340664100Y-277087500D03*
X50449900Y-277807700D03*
X282078300Y-189445400D03*
X81101600Y-238153800D03*
X260695800Y-88553000D03*
X131516800Y-280453400D03*
X111755400Y-217477800D03*
X31157500Y-217477800D03*
X194913200Y-87252000D03*
X278012900Y-248084700D03*
X162576500Y-188991600D03*
X19198800Y-99476700D03*
X87277300Y-276742000D03*
X94324700Y-245815300D03*
X264329200Y-242983400D03*
X84726300Y-245112400D03*
X191910100Y-78663600D03*
X297655500Y-242743000D03*
X130203700Y-246329800D03*
X49397900Y-209444800D03*
X81425200Y-251057000D03*
X290600100Y-269598800D03*
X99984400Y-236328100D03*
X138354700Y-233799200D03*
X298944500Y-188665400D03*
X278240200Y-186386000D03*
X37925400Y-212417100D03*
X182979400Y-218361700D03*
X197863900Y-195070900D03*
X85028500Y-233532700D03*
X68021600Y-55244200D03*
X21318700Y-288982300D03*
X231343700Y-183172700D03*
X64046000Y-236320500D03*
X284410100Y-272409500D03*
X26846100Y-236000000D03*
X23405000Y-99497400D03*
X263317700Y-99469700D03*
X269309500Y-245424600D03*
X288055200Y-191193100D03*
X165037900Y-64590000D03*
X25325200Y-210015500D03*
X32048500Y-75293100D03*
X28779300Y-73270700D03*
X282078300Y-199087500D03*
X107711100Y-250253600D03*
X283277100Y-239960900D03*
X136243200Y-249395300D03*
X193023300Y-218361700D03*
X40532600Y-235779700D03*
X116874700Y-247249300D03*
X127312500Y-231177100D03*
X218231400Y-223212000D03*
X43053200Y-224866700D03*
X59974800Y-233019500D03*
X203648300Y-195160800D03*
X31136000Y-236818400D03*
X220621200Y-176277500D03*
X58497700Y-224936200D03*
X224656000Y-222127100D03*
X31150000Y-285800000D03*
X266773500Y-239167800D03*
X135663000Y-209444800D03*
X24176200Y-274835400D03*
X214252700Y-194583300D03*
X299819800Y-193795600D03*
X96229900Y-233532700D03*
X136283700Y-230196900D03*
X46042000Y-289696900D03*
X33340200Y-77725700D03*
X291134000Y-198456400D03*
X317508000Y-285787900D03*
X120464500Y-248718000D03*
X51700000Y-224950000D03*
X188962700Y-94000000D03*
X136113900Y-217477800D03*
X275620100Y-242140100D03*
X104773100Y-215942600D03*
X37942200Y-75229300D03*
X124340400Y-217477800D03*
X196988400Y-96138700D03*
X109266900Y-233223200D03*
X119801000Y-129589400D03*
X141350500Y-250012300D03*
X66962100Y-49363000D03*
X128949999Y-210950000D03*
X331668000Y-285994200D03*
X302497400Y-197555600D03*
X296901800Y-269302000D03*
X31356300Y-235369200D03*
X39074600Y-274676300D03*
X127312400Y-217238900D03*
X148521900Y-245112400D03*
X59993500Y-238203800D03*
X200825700Y-188665400D03*
X279869100Y-245112400D03*
X283502300Y-193349100D03*
X284691700Y-265061200D03*
X87804700Y-215627000D03*
X25213700Y-74440200D03*
%TO.N,BATT_N*%
X160058400Y-92266700D03*
D29*
X160000000Y-116000000D03*
X294000000Y-114000000D03*
X72000000Y-114000000D03*
X80000000Y-126000000D03*
X152000000Y-120000000D03*
X128000000Y-120000000D03*
X180000000Y-122000000D03*
X266000000Y-120000000D03*
X192000000Y-120000000D03*
X262000000Y-120000000D03*
X182000000Y-120000000D03*
X264000000Y-126000000D03*
D28*
X31951700Y-177330800D03*
D29*
X40000000Y-116000000D03*
X134000000Y-118000000D03*
X106000000Y-120000000D03*
X186000000Y-122000000D03*
X250000000Y-126000000D03*
X122000000Y-116000000D03*
X144000000Y-120000000D03*
X80000000Y-116000000D03*
X22000000Y-116000000D03*
X268000000Y-118000000D03*
X326000000Y-126000000D03*
X100000000Y-116000000D03*
X138000000Y-128000000D03*
X296000000Y-116000000D03*
X44000000Y-116000000D03*
X330000000Y-122000000D03*
X300000000Y-128000000D03*
X330000000Y-126000000D03*
X166000000Y-114000000D03*
X150000000Y-118000000D03*
X266000000Y-114000000D03*
X136000000Y-122000000D03*
X302000000Y-128000000D03*
X50000000Y-118000000D03*
X268000000Y-124000000D03*
X250000000Y-128000000D03*
X266000000Y-128000000D03*
X88000000Y-116000000D03*
X172000000Y-116000000D03*
X40000000Y-114000000D03*
X136000000Y-128000000D03*
X194000000Y-124000000D03*
X192000000Y-122000000D03*
X124000000Y-114000000D03*
X264000000Y-120000000D03*
X302000000Y-114000000D03*
X134000000Y-126000000D03*
D28*
X159164200Y-111358900D03*
D29*
X138000000Y-126000000D03*
X186000000Y-120000000D03*
X124000000Y-128000000D03*
X164000000Y-128000000D03*
X130000000Y-128000000D03*
X80000000Y-128000000D03*
X58000000Y-114000000D03*
X224000000Y-124000000D03*
X298000000Y-118000000D03*
X24000000Y-120000000D03*
D28*
X53994200Y-103554000D03*
D29*
X186000000Y-118000000D03*
X148000000Y-124000000D03*
X158000000Y-128000000D03*
X138000000Y-120000000D03*
X282000000Y-128000000D03*
X34000000Y-116000000D03*
D28*
X168998000Y-72925300D03*
D29*
X298000000Y-124000000D03*
D28*
X167012700Y-87662500D03*
D29*
X178000000Y-120000000D03*
D28*
X159047500Y-103148800D03*
D29*
X300000000Y-122000000D03*
X20000000Y-122000000D03*
X42000000Y-116000000D03*
X172000000Y-128000000D03*
X32000000Y-128000000D03*
X302000000Y-126000000D03*
X122000000Y-122000000D03*
X266000000Y-116000000D03*
X102000000Y-116000000D03*
X190000000Y-126000000D03*
X82000000Y-120000000D03*
X116000000Y-118000000D03*
X22000000Y-128000000D03*
X152000000Y-126000000D03*
X148000000Y-126000000D03*
X254000000Y-122000000D03*
X330000000Y-128000000D03*
X66000000Y-116000000D03*
X296000000Y-120000000D03*
X154000000Y-116000000D03*
X272000000Y-128000000D03*
X258000000Y-120000000D03*
X136000000Y-118000000D03*
X140000000Y-122000000D03*
X258000000Y-118000000D03*
X106000000Y-128000000D03*
X270000000Y-128000000D03*
X114000000Y-120000000D03*
X28000000Y-116000000D03*
X144000000Y-122000000D03*
X336000000Y-128000000D03*
X178000000Y-124000000D03*
X192000000Y-124000000D03*
X152000000Y-116000000D03*
X78000000Y-122000000D03*
X174000000Y-124000000D03*
X46000000Y-118000000D03*
X254000000Y-128000000D03*
X166000000Y-122000000D03*
X184000000Y-116000000D03*
D28*
X160032800Y-94147200D03*
D29*
X194000000Y-128000000D03*
X172000000Y-124000000D03*
X78000000Y-126000000D03*
X152000000Y-118000000D03*
X128000000Y-114000000D03*
D28*
X55909500Y-89597800D03*
D29*
X126000000Y-120000000D03*
X332000000Y-118000000D03*
D28*
X106266700Y-78663600D03*
D29*
X292000000Y-114000000D03*
X48000000Y-122000000D03*
X106000000Y-122000000D03*
X188000000Y-118000000D03*
X130000000Y-120000000D03*
X94000000Y-116000000D03*
X164000000Y-122000000D03*
X114000000Y-114000000D03*
X316000000Y-128000000D03*
X50000000Y-124000000D03*
X80000000Y-118000000D03*
X176000000Y-114000000D03*
X220000000Y-124000000D03*
X302000000Y-118000000D03*
X144000000Y-128000000D03*
X104000000Y-114000000D03*
D28*
X155515400Y-94160800D03*
D29*
X76000000Y-126000000D03*
X84000000Y-120000000D03*
X94000000Y-114000000D03*
X118000000Y-128000000D03*
X328000000Y-128000000D03*
X158000000Y-124000000D03*
X270000000Y-122000000D03*
X120000000Y-114000000D03*
X102000000Y-114000000D03*
X58000000Y-116000000D03*
X22000000Y-118000000D03*
X160000000Y-124000000D03*
X220000000Y-128000000D03*
X160000000Y-118000000D03*
X62000000Y-114000000D03*
X178000000Y-116000000D03*
X218000000Y-126000000D03*
X148000000Y-114000000D03*
X162000000Y-122000000D03*
X334000000Y-124000000D03*
X126000000Y-118000000D03*
X160000000Y-120000000D03*
X326000000Y-122000000D03*
X272000000Y-118000000D03*
X262000000Y-122000000D03*
X50000000Y-126000000D03*
X328000000Y-126000000D03*
X324000000Y-128000000D03*
X320000000Y-128000000D03*
D28*
X96649300Y-132165000D03*
D29*
X296000000Y-124000000D03*
X334000000Y-126000000D03*
X176000000Y-124000000D03*
D28*
X66880300Y-111358900D03*
D29*
X166000000Y-118000000D03*
X76000000Y-128000000D03*
D28*
X61692400Y-100098100D03*
D29*
X300000000Y-116000000D03*
X124000000Y-124000000D03*
X334000000Y-122000000D03*
X286000000Y-114000000D03*
X84000000Y-114000000D03*
X192000000Y-116000000D03*
X38000000Y-116000000D03*
X260000000Y-114000000D03*
X252000000Y-128000000D03*
X22000000Y-114000000D03*
X182000000Y-116000000D03*
X268000000Y-114000000D03*
X270000000Y-114000000D03*
X168000000Y-120000000D03*
X166000000Y-120000000D03*
X350000000Y-128000000D03*
X124000000Y-118000000D03*
X140000000Y-128000000D03*
X118000000Y-118000000D03*
X152000000Y-124000000D03*
X312000000Y-128000000D03*
X138000000Y-122000000D03*
X24000000Y-124000000D03*
X86000000Y-114000000D03*
X120000000Y-122000000D03*
X96000000Y-128000000D03*
X182000000Y-122000000D03*
X296000000Y-114000000D03*
X84000000Y-118000000D03*
X190000000Y-128000000D03*
X272000000Y-124000000D03*
X66000000Y-128000000D03*
X292000000Y-128000000D03*
D28*
X36498900Y-170633500D03*
D29*
X302000000Y-122000000D03*
X194000000Y-116000000D03*
X184000000Y-126000000D03*
X274000000Y-122000000D03*
D28*
X67742800Y-97456800D03*
D29*
X154000000Y-122000000D03*
X52000000Y-126000000D03*
X68000000Y-128000000D03*
X328000000Y-122000000D03*
X260000000Y-124000000D03*
X140000000Y-116000000D03*
X264000000Y-114000000D03*
X260000000Y-122000000D03*
X300000000Y-120000000D03*
X328000000Y-118000000D03*
X114000000Y-118000000D03*
X168000000Y-124000000D03*
X116000000Y-124000000D03*
X274000000Y-114000000D03*
X130000000Y-114000000D03*
X280000000Y-128000000D03*
X50000000Y-128000000D03*
X194000000Y-122000000D03*
X116000000Y-114000000D03*
X256000000Y-122000000D03*
X264000000Y-124000000D03*
D28*
X90000000Y-176000000D03*
D29*
X64000000Y-128000000D03*
X260000000Y-118000000D03*
X176000000Y-118000000D03*
X106000000Y-124000000D03*
X180000000Y-128000000D03*
X146000000Y-118000000D03*
X54000000Y-126000000D03*
X270000000Y-126000000D03*
X44000000Y-128000000D03*
X78000000Y-118000000D03*
X256000000Y-128000000D03*
X300000000Y-124000000D03*
X76000000Y-114000000D03*
X270000000Y-116000000D03*
X318000000Y-128000000D03*
X180000000Y-114000000D03*
X178000000Y-128000000D03*
X68000000Y-116000000D03*
X100000000Y-114000000D03*
X48000000Y-128000000D03*
X128000000Y-126000000D03*
X304000000Y-120000000D03*
X158000000Y-118000000D03*
D28*
X35119200Y-180774300D03*
D29*
X334000000Y-128000000D03*
X326000000Y-124000000D03*
X190000000Y-120000000D03*
X146000000Y-116000000D03*
X176000000Y-120000000D03*
X182000000Y-128000000D03*
X176000000Y-128000000D03*
X352000000Y-128000000D03*
X158000000Y-116000000D03*
X192000000Y-128000000D03*
X170000000Y-126000000D03*
X168000000Y-122000000D03*
X168000000Y-126000000D03*
X146000000Y-122000000D03*
X142000000Y-122000000D03*
X150000000Y-128000000D03*
X284000000Y-128000000D03*
X172000000Y-120000000D03*
X304000000Y-124000000D03*
X128000000Y-128000000D03*
D28*
X53934300Y-97055200D03*
D29*
X134000000Y-114000000D03*
D28*
X79352900Y-182365600D03*
D29*
X302000000Y-116000000D03*
X102000000Y-128000000D03*
X150000000Y-114000000D03*
X124000000Y-122000000D03*
X180000000Y-120000000D03*
X266000000Y-124000000D03*
X148000000Y-120000000D03*
X100000000Y-128000000D03*
X350000000Y-116000000D03*
X252000000Y-124000000D03*
X190000000Y-124000000D03*
X172000000Y-114000000D03*
X34000000Y-128000000D03*
X46000000Y-120000000D03*
X304000000Y-122000000D03*
X106000000Y-118000000D03*
X140000000Y-126000000D03*
X88000000Y-114000000D03*
X332000000Y-128000000D03*
X24000000Y-122000000D03*
X158000000Y-126000000D03*
X322000000Y-128000000D03*
X140000000Y-120000000D03*
X296000000Y-126000000D03*
X156000000Y-124000000D03*
X104000000Y-128000000D03*
X96000000Y-116000000D03*
X298000000Y-120000000D03*
X256000000Y-126000000D03*
X160000000Y-126000000D03*
X288000000Y-116000000D03*
X170000000Y-124000000D03*
X304000000Y-118000000D03*
X46000000Y-128000000D03*
D28*
X33972500Y-182694100D03*
D29*
X168000000Y-118000000D03*
X120000000Y-116000000D03*
X154000000Y-128000000D03*
X84000000Y-124000000D03*
X78000000Y-116000000D03*
X172000000Y-122000000D03*
X262000000Y-114000000D03*
X274000000Y-126000000D03*
X128000000Y-122000000D03*
X82000000Y-124000000D03*
X36000000Y-114000000D03*
X116000000Y-126000000D03*
X54000000Y-118000000D03*
X262000000Y-124000000D03*
X40000000Y-128000000D03*
X162000000Y-120000000D03*
X78000000Y-114000000D03*
X162000000Y-114000000D03*
X188000000Y-122000000D03*
X82000000Y-118000000D03*
X134000000Y-116000000D03*
X74000000Y-128000000D03*
X172000000Y-126000000D03*
D28*
X31951700Y-175063300D03*
D29*
X78000000Y-120000000D03*
X156000000Y-114000000D03*
D28*
X81764800Y-177330800D03*
D29*
X82000000Y-116000000D03*
X152000000Y-128000000D03*
X54000000Y-120000000D03*
X126000000Y-122000000D03*
X82000000Y-126000000D03*
X290000000Y-114000000D03*
X32000000Y-116000000D03*
D28*
X68101600Y-129539400D03*
D29*
X298000000Y-116000000D03*
X136000000Y-114000000D03*
X138000000Y-118000000D03*
X258000000Y-122000000D03*
X128000000Y-124000000D03*
X328000000Y-120000000D03*
D28*
X53934300Y-99777700D03*
D29*
X46000000Y-124000000D03*
X82000000Y-122000000D03*
X194000000Y-126000000D03*
X266000000Y-126000000D03*
X122000000Y-124000000D03*
X326000000Y-118000000D03*
X298000000Y-126000000D03*
X22000000Y-122000000D03*
X130000000Y-122000000D03*
X132000000Y-128000000D03*
X256000000Y-124000000D03*
X248000000Y-128000000D03*
X118000000Y-116000000D03*
X168000000Y-114000000D03*
X44000000Y-114000000D03*
X182000000Y-126000000D03*
X166000000Y-128000000D03*
X160000000Y-128000000D03*
X178000000Y-118000000D03*
X258000000Y-116000000D03*
X162000000Y-116000000D03*
X24000000Y-126000000D03*
X270000000Y-124000000D03*
X126000000Y-116000000D03*
X50000000Y-114000000D03*
X274000000Y-120000000D03*
X120000000Y-126000000D03*
X180000000Y-124000000D03*
X90000000Y-114000000D03*
X258000000Y-126000000D03*
X166000000Y-116000000D03*
X292000000Y-116000000D03*
X84000000Y-126000000D03*
X24000000Y-116000000D03*
X176000000Y-126000000D03*
X138000000Y-116000000D03*
X176000000Y-116000000D03*
X192000000Y-114000000D03*
X158000000Y-122000000D03*
X106000000Y-114000000D03*
X48000000Y-124000000D03*
X48000000Y-118000000D03*
X132000000Y-116000000D03*
D28*
X155382500Y-96285900D03*
D29*
X296000000Y-118000000D03*
X272000000Y-114000000D03*
X160000000Y-122000000D03*
X186000000Y-128000000D03*
X144000000Y-126000000D03*
X278000000Y-128000000D03*
X76000000Y-122000000D03*
X266000000Y-122000000D03*
X82000000Y-128000000D03*
X174000000Y-120000000D03*
X144000000Y-114000000D03*
X154000000Y-114000000D03*
X164000000Y-124000000D03*
X66000000Y-114000000D03*
X54000000Y-128000000D03*
X124000000Y-126000000D03*
X302000000Y-120000000D03*
X220000000Y-126000000D03*
X148000000Y-118000000D03*
X272000000Y-126000000D03*
X260000000Y-128000000D03*
X146000000Y-128000000D03*
X114000000Y-122000000D03*
X34000000Y-114000000D03*
X332000000Y-126000000D03*
X68000000Y-114000000D03*
D28*
X97689100Y-170445300D03*
D29*
X104000000Y-116000000D03*
X156000000Y-116000000D03*
X130000000Y-124000000D03*
X296000000Y-128000000D03*
X162000000Y-126000000D03*
X164000000Y-114000000D03*
X174000000Y-114000000D03*
X268000000Y-126000000D03*
X184000000Y-122000000D03*
X150000000Y-116000000D03*
X224000000Y-128000000D03*
X56000000Y-114000000D03*
X164000000Y-118000000D03*
X332000000Y-122000000D03*
X78000000Y-128000000D03*
X78000000Y-124000000D03*
X136000000Y-126000000D03*
X118000000Y-126000000D03*
X288000000Y-128000000D03*
X264000000Y-118000000D03*
X52000000Y-118000000D03*
D28*
X84276100Y-182539300D03*
D29*
X116000000Y-128000000D03*
X182000000Y-118000000D03*
X136000000Y-116000000D03*
D28*
X157133200Y-89875500D03*
D29*
X148000000Y-128000000D03*
X184000000Y-128000000D03*
X46000000Y-122000000D03*
X130000000Y-118000000D03*
X178000000Y-122000000D03*
X146000000Y-114000000D03*
X52000000Y-122000000D03*
X186000000Y-124000000D03*
X38000000Y-114000000D03*
X156000000Y-122000000D03*
X168000000Y-116000000D03*
X180000000Y-126000000D03*
X128000000Y-118000000D03*
X156000000Y-118000000D03*
X132000000Y-114000000D03*
X42000000Y-128000000D03*
X290000000Y-116000000D03*
X190000000Y-114000000D03*
D28*
X25203700Y-63802100D03*
D29*
X124000000Y-120000000D03*
X298000000Y-128000000D03*
X188000000Y-116000000D03*
X152000000Y-122000000D03*
X80000000Y-122000000D03*
X154000000Y-118000000D03*
X274000000Y-128000000D03*
X26000000Y-116000000D03*
X266000000Y-118000000D03*
X158000000Y-120000000D03*
X22000000Y-124000000D03*
X148000000Y-122000000D03*
X134000000Y-122000000D03*
X302000000Y-124000000D03*
X118000000Y-114000000D03*
X72000000Y-128000000D03*
X122000000Y-128000000D03*
X174000000Y-118000000D03*
X332000000Y-120000000D03*
X114000000Y-128000000D03*
X48000000Y-116000000D03*
X264000000Y-122000000D03*
X140000000Y-118000000D03*
X52000000Y-114000000D03*
X274000000Y-116000000D03*
X116000000Y-120000000D03*
X98000000Y-128000000D03*
X50000000Y-116000000D03*
X260000000Y-116000000D03*
X70000000Y-114000000D03*
X126000000Y-126000000D03*
X120000000Y-118000000D03*
X162000000Y-124000000D03*
X70000000Y-128000000D03*
X50000000Y-122000000D03*
X134000000Y-120000000D03*
X188000000Y-120000000D03*
X190000000Y-122000000D03*
X174000000Y-126000000D03*
X352000000Y-116000000D03*
X116000000Y-116000000D03*
X180000000Y-118000000D03*
X298000000Y-114000000D03*
X80000000Y-114000000D03*
X142000000Y-128000000D03*
X122000000Y-118000000D03*
X118000000Y-122000000D03*
X20000000Y-128000000D03*
X304000000Y-128000000D03*
X150000000Y-124000000D03*
X106000000Y-116000000D03*
X126000000Y-128000000D03*
X84000000Y-116000000D03*
X304000000Y-114000000D03*
X74000000Y-114000000D03*
X132000000Y-124000000D03*
X218000000Y-128000000D03*
X84000000Y-122000000D03*
X154000000Y-124000000D03*
D28*
X67045300Y-99922500D03*
D29*
X262000000Y-126000000D03*
X330000000Y-120000000D03*
D28*
X105580000Y-111358900D03*
D29*
X122000000Y-120000000D03*
D28*
X145234600Y-97852400D03*
D29*
X178000000Y-126000000D03*
X276000000Y-128000000D03*
X304000000Y-126000000D03*
X194000000Y-114000000D03*
X54000000Y-114000000D03*
D28*
X157188400Y-87175500D03*
X67446900Y-92606500D03*
D29*
X132000000Y-126000000D03*
X126000000Y-124000000D03*
X134000000Y-128000000D03*
X310000000Y-128000000D03*
X76000000Y-116000000D03*
X190000000Y-116000000D03*
X194000000Y-118000000D03*
X268000000Y-128000000D03*
X42000000Y-114000000D03*
X194000000Y-120000000D03*
X76000000Y-124000000D03*
X48000000Y-120000000D03*
X306000000Y-128000000D03*
X222000000Y-128000000D03*
D28*
X150233500Y-96292600D03*
D29*
X262000000Y-118000000D03*
X286000000Y-128000000D03*
X162000000Y-118000000D03*
X254000000Y-124000000D03*
X188000000Y-128000000D03*
X300000000Y-114000000D03*
X170000000Y-120000000D03*
X184000000Y-120000000D03*
X300000000Y-118000000D03*
X152000000Y-114000000D03*
X22000000Y-126000000D03*
X274000000Y-118000000D03*
X136000000Y-124000000D03*
X114000000Y-124000000D03*
X62000000Y-116000000D03*
X246000000Y-128000000D03*
X308000000Y-128000000D03*
X36000000Y-128000000D03*
X124000000Y-116000000D03*
X274000000Y-124000000D03*
X330000000Y-124000000D03*
X130000000Y-116000000D03*
X146000000Y-126000000D03*
X186000000Y-116000000D03*
D28*
X78988700Y-177087500D03*
D29*
X260000000Y-120000000D03*
X142000000Y-114000000D03*
X114000000Y-116000000D03*
X176000000Y-122000000D03*
D28*
X70363100Y-90352300D03*
D29*
X272000000Y-116000000D03*
X258000000Y-114000000D03*
X142000000Y-126000000D03*
X150000000Y-120000000D03*
X182000000Y-124000000D03*
X188000000Y-124000000D03*
X170000000Y-122000000D03*
X330000000Y-118000000D03*
X258000000Y-128000000D03*
X148000000Y-116000000D03*
X118000000Y-120000000D03*
D28*
X55098800Y-109655600D03*
D29*
X164000000Y-126000000D03*
X36000000Y-116000000D03*
X118000000Y-124000000D03*
X54000000Y-122000000D03*
X188000000Y-114000000D03*
X154000000Y-126000000D03*
D28*
X48414700Y-170565400D03*
D29*
X122000000Y-126000000D03*
X290000000Y-128000000D03*
X46000000Y-114000000D03*
X32000000Y-114000000D03*
X130000000Y-126000000D03*
X86000000Y-116000000D03*
X150000000Y-126000000D03*
X142000000Y-120000000D03*
X114000000Y-126000000D03*
X20000000Y-124000000D03*
X142000000Y-116000000D03*
X48000000Y-114000000D03*
X352000000Y-114000000D03*
X72000000Y-116000000D03*
X76000000Y-118000000D03*
X184000000Y-114000000D03*
X156000000Y-126000000D03*
X74000000Y-116000000D03*
X216000000Y-128000000D03*
X268000000Y-116000000D03*
X262000000Y-128000000D03*
X224000000Y-126000000D03*
X326000000Y-120000000D03*
D28*
X28180600Y-182391000D03*
D29*
X146000000Y-124000000D03*
X272000000Y-122000000D03*
X80000000Y-124000000D03*
X342000000Y-128000000D03*
X158000000Y-114000000D03*
D28*
X98718400Y-174992300D03*
D29*
X154000000Y-120000000D03*
X258000000Y-124000000D03*
X140000000Y-124000000D03*
X268000000Y-120000000D03*
X294000000Y-116000000D03*
X132000000Y-118000000D03*
X46000000Y-126000000D03*
X54000000Y-116000000D03*
X164000000Y-120000000D03*
X126000000Y-114000000D03*
X132000000Y-120000000D03*
X338000000Y-128000000D03*
X92000000Y-114000000D03*
X52000000Y-124000000D03*
X344000000Y-128000000D03*
X140000000Y-114000000D03*
X172000000Y-118000000D03*
X180000000Y-116000000D03*
X224000000Y-122000000D03*
X98000000Y-114000000D03*
X20000000Y-126000000D03*
X160000000Y-114000000D03*
D28*
X177025600Y-132165000D03*
D29*
X84000000Y-128000000D03*
X260000000Y-126000000D03*
X328000000Y-124000000D03*
X340000000Y-128000000D03*
X98000000Y-116000000D03*
X164000000Y-116000000D03*
X184000000Y-118000000D03*
X70000000Y-116000000D03*
X170000000Y-114000000D03*
X270000000Y-120000000D03*
D28*
X84741700Y-171008500D03*
D29*
X174000000Y-116000000D03*
X296000000Y-122000000D03*
X270000000Y-118000000D03*
X96000000Y-114000000D03*
X170000000Y-128000000D03*
X30000000Y-116000000D03*
X288000000Y-114000000D03*
X272000000Y-120000000D03*
X60000000Y-116000000D03*
X150000000Y-122000000D03*
X144000000Y-116000000D03*
X262000000Y-116000000D03*
X138000000Y-124000000D03*
X128000000Y-116000000D03*
X138000000Y-114000000D03*
X252000000Y-126000000D03*
X298000000Y-122000000D03*
X186000000Y-114000000D03*
X22000000Y-120000000D03*
X168000000Y-128000000D03*
X56000000Y-128000000D03*
X116000000Y-122000000D03*
X82000000Y-114000000D03*
X326000000Y-128000000D03*
X182000000Y-114000000D03*
X174000000Y-122000000D03*
X48000000Y-126000000D03*
X170000000Y-118000000D03*
X52000000Y-120000000D03*
X314000000Y-128000000D03*
X334000000Y-118000000D03*
X134000000Y-124000000D03*
X132000000Y-122000000D03*
X106000000Y-126000000D03*
X64000000Y-114000000D03*
X178000000Y-114000000D03*
X50000000Y-120000000D03*
X192000000Y-118000000D03*
X136000000Y-120000000D03*
X186000000Y-126000000D03*
X90000000Y-116000000D03*
X156000000Y-120000000D03*
X144000000Y-118000000D03*
D28*
X171654400Y-87732100D03*
D29*
X52000000Y-128000000D03*
X334000000Y-120000000D03*
X188000000Y-126000000D03*
X92000000Y-116000000D03*
X166000000Y-124000000D03*
X268000000Y-122000000D03*
X64000000Y-116000000D03*
D28*
X48978400Y-175848900D03*
D29*
X264000000Y-116000000D03*
X38000000Y-128000000D03*
X56000000Y-116000000D03*
X350000000Y-114000000D03*
X248000000Y-126000000D03*
D28*
X22994700Y-107532400D03*
D29*
X174000000Y-128000000D03*
X120000000Y-124000000D03*
X156000000Y-128000000D03*
X76000000Y-120000000D03*
X46000000Y-116000000D03*
X222000000Y-126000000D03*
X348000000Y-128000000D03*
X52000000Y-116000000D03*
D28*
X28685000Y-177123800D03*
D29*
X184000000Y-124000000D03*
X170000000Y-116000000D03*
X24000000Y-118000000D03*
X346000000Y-128000000D03*
X162000000Y-128000000D03*
X286000000Y-116000000D03*
X142000000Y-118000000D03*
X60000000Y-114000000D03*
X254000000Y-126000000D03*
X166000000Y-126000000D03*
X300000000Y-126000000D03*
X54000000Y-124000000D03*
X120000000Y-120000000D03*
X264000000Y-128000000D03*
X192000000Y-126000000D03*
X294000000Y-128000000D03*
X304000000Y-116000000D03*
X146000000Y-120000000D03*
X222000000Y-124000000D03*
X142000000Y-124000000D03*
X80000000Y-120000000D03*
X190000000Y-118000000D03*
X332000000Y-124000000D03*
X122000000Y-114000000D03*
X144000000Y-124000000D03*
D28*
%TO.N,MAIN_FAULT_N*%
X68838400Y-100488000D03*
X149872000Y-176750000D03*
X144280000Y-206472000D03*
X296202000Y-195569000D03*
X123451000Y-100488000D03*
%TO.N,AON_3V3*%
X103646000Y-215929000D03*
X127154000Y-212736000D03*
X104402000Y-234000000D03*
X105580000Y-242140000D03*
X129100000Y-210100000D03*
%TO.N,MOTION_TEMP_DIODE*%
X160042000Y-96266600D03*
X161442000Y-76626400D03*
X159769000Y-104190000D03*
%TO.N,CHOP_ACTIVE_N*%
X251968000Y-182694000D03*
X259732000Y-89147500D03*
X171938000Y-182309000D03*
X314970000Y-275222000D03*
X308803000Y-183487000D03*
%TO.N,MAIN_DGATE*%
X79663700Y-42144300D03*
X78787900Y-68830300D03*
X78787900Y-96497400D03*
X79663700Y-16916200D03*
X62929800Y-95861800D03*
D29*
%TO.N,MAIN_COMMON*%
X72000000Y-62000000D03*
X72000000Y-42000000D03*
X72000000Y-66000000D03*
X70000000Y-44000000D03*
X66000000Y-16000000D03*
X72000000Y-16000000D03*
X66000000Y-44000000D03*
X72000000Y-44000000D03*
X66000000Y-54000000D03*
X72000000Y-68000000D03*
X74000000Y-36000000D03*
X74000000Y-84000000D03*
X70000000Y-68000000D03*
X74000000Y-80000000D03*
X68000000Y-36000000D03*
X66000000Y-42000000D03*
X68000000Y-68000000D03*
X74000000Y-60000000D03*
X68000000Y-64000000D03*
X72000000Y-46000000D03*
X70000000Y-52000000D03*
X72000000Y-40000000D03*
X66000000Y-18000000D03*
X70000000Y-66000000D03*
X70000000Y-34000000D03*
X74000000Y-54000000D03*
X66000000Y-20000000D03*
X68000000Y-34000000D03*
X68000000Y-42000000D03*
X66000000Y-48000000D03*
X74000000Y-44000000D03*
D28*
X60262100Y-86922200D03*
D29*
X74000000Y-34000000D03*
X72000000Y-82000000D03*
X68000000Y-32000000D03*
X70000000Y-84000000D03*
X66000000Y-56000000D03*
X72000000Y-52000000D03*
X68000000Y-38000000D03*
X72000000Y-38000000D03*
X68000000Y-80000000D03*
X70000000Y-18000000D03*
X68000000Y-18000000D03*
X68000000Y-84000000D03*
X70000000Y-80000000D03*
X66000000Y-62000000D03*
X72000000Y-48000000D03*
X72000000Y-60000000D03*
X72000000Y-36000000D03*
X70000000Y-32000000D03*
D28*
X61820300Y-97391800D03*
D29*
X70000000Y-48000000D03*
X74000000Y-38000000D03*
X70000000Y-64000000D03*
X70000000Y-40000000D03*
X70000000Y-36000000D03*
X72000000Y-32000000D03*
X72000000Y-18000000D03*
X70000000Y-50000000D03*
X68000000Y-60000000D03*
X66000000Y-36000000D03*
X74000000Y-58000000D03*
X72000000Y-80000000D03*
X74000000Y-56000000D03*
X66000000Y-64000000D03*
X66000000Y-68000000D03*
X72000000Y-84000000D03*
X66000000Y-46000000D03*
X66000000Y-40000000D03*
X68000000Y-20000000D03*
X74000000Y-50000000D03*
X68000000Y-46000000D03*
X74000000Y-62000000D03*
X70000000Y-82000000D03*
X68000000Y-62000000D03*
X72000000Y-34000000D03*
X72000000Y-54000000D03*
D28*
X60399700Y-97518800D03*
D29*
X68000000Y-40000000D03*
X74000000Y-52000000D03*
X74000000Y-20000000D03*
X70000000Y-62000000D03*
X66000000Y-66000000D03*
X74000000Y-48000000D03*
X70000000Y-42000000D03*
X70000000Y-60000000D03*
X74000000Y-64000000D03*
X68000000Y-82000000D03*
X74000000Y-46000000D03*
X68000000Y-16000000D03*
X72000000Y-50000000D03*
X72000000Y-64000000D03*
X66000000Y-50000000D03*
D28*
X69546100Y-97270700D03*
D29*
X72000000Y-56000000D03*
X66000000Y-52000000D03*
X68000000Y-66000000D03*
X70000000Y-38000000D03*
X74000000Y-82000000D03*
X70000000Y-16000000D03*
X74000000Y-32000000D03*
X68000000Y-44000000D03*
X66000000Y-80000000D03*
X70000000Y-20000000D03*
X70000000Y-46000000D03*
X72000000Y-20000000D03*
X66000000Y-38000000D03*
X72000000Y-58000000D03*
D28*
%TO.N,AON_WAKE_EN*%
X119376000Y-113310000D03*
X140907000Y-245762000D03*
X62918800Y-100409000D03*
X140907000Y-193719000D03*
X63007500Y-113298000D03*
X223862000Y-187907000D03*
X224224000Y-184812000D03*
X191936000Y-191586000D03*
X135349000Y-180104000D03*
%TO.N,MAIN_TMR*%
X57230600Y-108387000D03*
%TO.N,MAIN_ILIM*%
X66880300Y-105414000D03*
X54804200Y-103304000D03*
%TO.N,MAIN_HGATE*%
X60248700Y-81392200D03*
X68665700Y-99086000D03*
X60193500Y-57857500D03*
X57367600Y-98343600D03*
X60193500Y-34333100D03*
%TO.N,MAIN_KELVIN_N*%
X33500000Y-40000000D03*
X44000000Y-86900000D03*
X37000000Y-70900000D03*
X34600000Y-40000000D03*
X67800000Y-94700000D03*
D29*
%TO.N,BATT_SENSED_P*%
X44000000Y-84000000D03*
X42000000Y-38000000D03*
X42000000Y-46000000D03*
X44000000Y-54000000D03*
X48000000Y-62000000D03*
X46000000Y-64000000D03*
D28*
X34134400Y-86922200D03*
D29*
X40000000Y-56000000D03*
X48000000Y-84000000D03*
X44000000Y-48000000D03*
X44000000Y-40000000D03*
X42000000Y-60000000D03*
X46000000Y-38000000D03*
X44000000Y-70000000D03*
X42000000Y-56000000D03*
X46000000Y-36000000D03*
X40000000Y-70000000D03*
X42000000Y-66000000D03*
X44000000Y-62000000D03*
X42000000Y-26000000D03*
X42000000Y-42000000D03*
X46000000Y-30000000D03*
X40000000Y-66000000D03*
X44000000Y-50000000D03*
X42000000Y-64000000D03*
X42000000Y-34000000D03*
X44000000Y-68000000D03*
X42000000Y-50000000D03*
X44000000Y-30000000D03*
X48000000Y-64000000D03*
X44000000Y-66000000D03*
X46000000Y-52000000D03*
X46000000Y-26000000D03*
X40000000Y-62000000D03*
X46000000Y-44000000D03*
X44000000Y-38000000D03*
X40000000Y-68000000D03*
X40000000Y-36000000D03*
X40000000Y-50000000D03*
X40000000Y-46000000D03*
D28*
X64870900Y-95275500D03*
D29*
X46000000Y-54000000D03*
X40000000Y-58000000D03*
X44000000Y-72000000D03*
D28*
X70470200Y-95049100D03*
D29*
X46000000Y-42000000D03*
X44000000Y-26000000D03*
X48000000Y-36000000D03*
X42000000Y-72000000D03*
X48000000Y-68000000D03*
X44000000Y-28000000D03*
D28*
X19524000Y-209444800D03*
D29*
X40000000Y-26000000D03*
X42000000Y-28000000D03*
X46000000Y-70000000D03*
X40000000Y-60000000D03*
X46000000Y-48000000D03*
X46000000Y-40000000D03*
X46000000Y-72000000D03*
D28*
X70085300Y-92513300D03*
D29*
X44000000Y-44000000D03*
X46000000Y-50000000D03*
X40000000Y-48000000D03*
X44000000Y-58000000D03*
X40000000Y-38000000D03*
X42000000Y-32000000D03*
X42000000Y-84000000D03*
X42000000Y-48000000D03*
D28*
X64058800Y-93058800D03*
D29*
X46000000Y-66000000D03*
X40000000Y-54000000D03*
X40000000Y-40000000D03*
X40000000Y-84000000D03*
X42000000Y-40000000D03*
X42000000Y-68000000D03*
X42000000Y-62000000D03*
X48000000Y-18000000D03*
X48000000Y-40000000D03*
X40000000Y-64000000D03*
D28*
X21700000Y-206472500D03*
D29*
X40000000Y-72000000D03*
D28*
X21507900Y-115000000D03*
D29*
X40000000Y-42000000D03*
X42000000Y-44000000D03*
X40000000Y-28000000D03*
X48000000Y-32000000D03*
X46000000Y-62000000D03*
X46000000Y-34000000D03*
X46000000Y-56000000D03*
X48000000Y-34000000D03*
X48000000Y-38000000D03*
X40000000Y-30000000D03*
X44000000Y-32000000D03*
X40000000Y-32000000D03*
X48000000Y-66000000D03*
X48000000Y-82000000D03*
D28*
X58452800Y-86922200D03*
D29*
X48000000Y-16000000D03*
X46000000Y-68000000D03*
X40000000Y-44000000D03*
X42000000Y-36000000D03*
X42000000Y-52000000D03*
X44000000Y-64000000D03*
X46000000Y-28000000D03*
X48000000Y-42000000D03*
X46000000Y-58000000D03*
X44000000Y-46000000D03*
X40000000Y-52000000D03*
X44000000Y-36000000D03*
X44000000Y-42000000D03*
X44000000Y-52000000D03*
X46000000Y-46000000D03*
X42000000Y-58000000D03*
X48000000Y-60000000D03*
X44000000Y-60000000D03*
X48000000Y-58000000D03*
X40000000Y-34000000D03*
X46000000Y-32000000D03*
X46000000Y-84000000D03*
D28*
X55243200Y-91785300D03*
X30882900Y-113505300D03*
D29*
X42000000Y-54000000D03*
X42000000Y-70000000D03*
X42000000Y-30000000D03*
X44000000Y-56000000D03*
X44000000Y-34000000D03*
X46000000Y-60000000D03*
%TO.N,SYS_BUS_P*%
X96000000Y-48000000D03*
X102000000Y-64000000D03*
X108000000Y-56000000D03*
X104000000Y-48000000D03*
X106000000Y-36000000D03*
X104000000Y-36000000D03*
X104000000Y-66000000D03*
D28*
X61269700Y-96497400D03*
D29*
X100000000Y-36000000D03*
X96000000Y-30000000D03*
X104000000Y-50000000D03*
X106000000Y-24000000D03*
X104000000Y-62000000D03*
X100000000Y-60000000D03*
X96000000Y-76000000D03*
X96000000Y-64000000D03*
X106000000Y-50000000D03*
X100000000Y-16000000D03*
X106000000Y-74000000D03*
X102000000Y-48000000D03*
D28*
X167518900Y-88491000D03*
D29*
X98000000Y-72000000D03*
X108000000Y-32000000D03*
X106000000Y-60000000D03*
X96000000Y-42000000D03*
X102000000Y-34000000D03*
X98000000Y-78000000D03*
X106000000Y-58000000D03*
X100000000Y-30000000D03*
X104000000Y-70000000D03*
X100000000Y-50000000D03*
X102000000Y-60000000D03*
X106000000Y-44000000D03*
X96000000Y-82000000D03*
X108000000Y-42000000D03*
X104000000Y-72000000D03*
X106000000Y-52000000D03*
X98000000Y-46000000D03*
X96000000Y-34000000D03*
X100000000Y-66000000D03*
X98000000Y-82000000D03*
X108000000Y-62000000D03*
X96000000Y-74000000D03*
X104000000Y-44000000D03*
X104000000Y-30000000D03*
X98000000Y-66000000D03*
X108000000Y-50000000D03*
X106000000Y-72000000D03*
X104000000Y-18000000D03*
X100000000Y-74000000D03*
X108000000Y-80000000D03*
X106000000Y-64000000D03*
X104000000Y-68000000D03*
X106000000Y-18000000D03*
X98000000Y-50000000D03*
X108000000Y-68000000D03*
D28*
X85895400Y-173365200D03*
D29*
X98000000Y-60000000D03*
X102000000Y-46000000D03*
X96000000Y-68000000D03*
X98000000Y-68000000D03*
X104000000Y-60000000D03*
X108000000Y-82000000D03*
D28*
X72322300Y-185090100D03*
D29*
X104000000Y-40000000D03*
X108000000Y-84000000D03*
X104000000Y-74000000D03*
X108000000Y-26000000D03*
X96000000Y-80000000D03*
X106000000Y-16000000D03*
X102000000Y-74000000D03*
X106000000Y-68000000D03*
X108000000Y-54000000D03*
D28*
X164970300Y-90481000D03*
D29*
X108000000Y-36000000D03*
X104000000Y-64000000D03*
X108000000Y-64000000D03*
X96000000Y-72000000D03*
X106000000Y-46000000D03*
D28*
X264097000Y-97899600D03*
D29*
X106000000Y-48000000D03*
X98000000Y-74000000D03*
X100000000Y-68000000D03*
X98000000Y-18000000D03*
X108000000Y-46000000D03*
X108000000Y-20000000D03*
X100000000Y-20000000D03*
X100000000Y-42000000D03*
X100000000Y-46000000D03*
X108000000Y-76000000D03*
X100000000Y-40000000D03*
X102000000Y-66000000D03*
X102000000Y-68000000D03*
X98000000Y-38000000D03*
X98000000Y-32000000D03*
X98000000Y-20000000D03*
X96000000Y-40000000D03*
X98000000Y-44000000D03*
X98000000Y-34000000D03*
X108000000Y-52000000D03*
X102000000Y-50000000D03*
X108000000Y-48000000D03*
X98000000Y-76000000D03*
X96000000Y-20000000D03*
X100000000Y-62000000D03*
X100000000Y-32000000D03*
X108000000Y-74000000D03*
X100000000Y-38000000D03*
X108000000Y-78000000D03*
X102000000Y-20000000D03*
X106000000Y-54000000D03*
X106000000Y-32000000D03*
X98000000Y-84000000D03*
X98000000Y-36000000D03*
X106000000Y-34000000D03*
X104000000Y-20000000D03*
X98000000Y-64000000D03*
X108000000Y-40000000D03*
D28*
X81764800Y-87580500D03*
X37299900Y-173457900D03*
D29*
X96000000Y-60000000D03*
X96000000Y-84000000D03*
X96000000Y-32000000D03*
X106000000Y-42000000D03*
X96000000Y-36000000D03*
X108000000Y-58000000D03*
X106000000Y-70000000D03*
X102000000Y-40000000D03*
X108000000Y-70000000D03*
X106000000Y-56000000D03*
X106000000Y-20000000D03*
X100000000Y-84000000D03*
X106000000Y-84000000D03*
X108000000Y-38000000D03*
X108000000Y-66000000D03*
X108000000Y-18000000D03*
X108000000Y-72000000D03*
X102000000Y-44000000D03*
X100000000Y-64000000D03*
X98000000Y-42000000D03*
X108000000Y-16000000D03*
X108000000Y-44000000D03*
X104000000Y-46000000D03*
X104000000Y-42000000D03*
X98000000Y-40000000D03*
X102000000Y-72000000D03*
X108000000Y-60000000D03*
X100000000Y-48000000D03*
X102000000Y-42000000D03*
X102000000Y-18000000D03*
X108000000Y-24000000D03*
X98000000Y-48000000D03*
D28*
X151096100Y-89617500D03*
X31157500Y-185090100D03*
X121101500Y-84415300D03*
D29*
X106000000Y-62000000D03*
X96000000Y-70000000D03*
X106000000Y-26000000D03*
X102000000Y-38000000D03*
X98000000Y-70000000D03*
X102000000Y-62000000D03*
X102000000Y-16000000D03*
D28*
X151156300Y-84403200D03*
D29*
X100000000Y-70000000D03*
X96000000Y-78000000D03*
X106000000Y-30000000D03*
X96000000Y-38000000D03*
X100000000Y-44000000D03*
X104000000Y-84000000D03*
X104000000Y-38000000D03*
X106000000Y-40000000D03*
X104000000Y-16000000D03*
X100000000Y-72000000D03*
X98000000Y-62000000D03*
X102000000Y-32000000D03*
X104000000Y-32000000D03*
D28*
X196892400Y-91055200D03*
D29*
X98000000Y-80000000D03*
X104000000Y-34000000D03*
X102000000Y-36000000D03*
X108000000Y-34000000D03*
X98000000Y-16000000D03*
X108000000Y-28000000D03*
X108000000Y-30000000D03*
X102000000Y-70000000D03*
X106000000Y-22000000D03*
D28*
X61710500Y-86944200D03*
D29*
X102000000Y-84000000D03*
X96000000Y-44000000D03*
X96000000Y-46000000D03*
X106000000Y-66000000D03*
X96000000Y-16000000D03*
X106000000Y-28000000D03*
X96000000Y-66000000D03*
X100000000Y-34000000D03*
X98000000Y-30000000D03*
D28*
X75310800Y-170804900D03*
D29*
X100000000Y-18000000D03*
D28*
X28628300Y-172375400D03*
X271901000Y-182559000D03*
D29*
X102000000Y-30000000D03*
X108000000Y-22000000D03*
X96000000Y-50000000D03*
X106000000Y-38000000D03*
X96000000Y-62000000D03*
X96000000Y-18000000D03*
D28*
X95663300Y-85247200D03*
%TO.N,CHOP_THERMAL_OK*%
X282153000Y-70934900D03*
X281484000Y-39145500D03*
X270324000Y-84092300D03*
%TO.N,CHOP_GND*%
X302033200Y-69746700D03*
X297877900Y-42950000D03*
X334801300Y-107450200D03*
X278025400Y-63802100D03*
X287555200Y-23548600D03*
X307983400Y-92193200D03*
X297452800Y-24542700D03*
X302747400Y-26122300D03*
X282065800Y-83837900D03*
X334801300Y-135137300D03*
X294226700Y-87580500D03*
X326802600Y-61708500D03*
X283804800Y-30735300D03*
X272203000Y-74889600D03*
X263095800Y-88083300D03*
X282153000Y-72320700D03*
X308009200Y-66406200D03*
X273661700Y-87580500D03*
X333739300Y-116800000D03*
X310986100Y-72719000D03*
X307422600Y-105500200D03*
X317739700Y-60829800D03*
X313886800Y-84608200D03*
X280865800Y-78663600D03*
X304921400Y-93525100D03*
X316939900Y-102442000D03*
X317564700Y-90456200D03*
X287530500Y-28100700D03*
X281370500Y-67724000D03*
X313886800Y-70079100D03*
X270783900Y-79427900D03*
%TO.N,MOTION_ISCP*%
X168900000Y-88700000D03*
X174000000Y-86000000D03*
%TO.N,MOTION_KELVIN_N*%
X172419240Y-95000000D03*
X146500000Y-86400000D03*
X124025000Y-40000000D03*
%TO.N,MOTION_TEMP_FLT_N*%
X197864000Y-185666000D03*
X161926000Y-191035000D03*
X305826000Y-272520000D03*
X164672000Y-93831800D03*
X304238000Y-189405000D03*
D29*
%TO.N,V5V*%
X152000000Y-253450000D03*
X282950000Y-245900000D03*
D28*
X281716000Y-251057000D03*
X108557000Y-273049000D03*
D29*
X15299999Y-229600000D03*
X153100000Y-254550000D03*
X152000000Y-254550000D03*
X139100000Y-253450000D03*
X14200000Y-228500000D03*
X136900000Y-253450000D03*
X150900000Y-254550000D03*
X13100000Y-229600000D03*
X282950000Y-248100000D03*
X138000000Y-254550000D03*
X15299999Y-228500000D03*
X282950000Y-247000000D03*
D28*
X37739500Y-275554000D03*
D29*
X15299999Y-227400000D03*
X284050000Y-245900000D03*
X13100000Y-228500000D03*
X284050000Y-248100000D03*
X139100000Y-254550000D03*
X150900000Y-253450000D03*
D28*
X96929600Y-273913000D03*
D29*
X153100000Y-253450000D03*
X13100000Y-227400000D03*
X138000000Y-253450000D03*
X14200000Y-227400000D03*
X14200000Y-229600000D03*
D28*
X135919000Y-262686000D03*
D29*
X284050000Y-247000000D03*
D28*
X37111300Y-262946000D03*
D29*
X136900000Y-254550000D03*
%TO.N,LOGIC_5V_N*%
X91100000Y-137900000D03*
X91100000Y-139000000D03*
X90000000Y-139000000D03*
X88900000Y-137900000D03*
X90000000Y-137900000D03*
X91100000Y-140100000D03*
X88900000Y-140100000D03*
X90000000Y-140100000D03*
X88900000Y-139000000D03*
D28*
%TO.N,WAKE_RAW_EN*%
X87689200Y-244188000D03*
X130230000Y-232187000D03*
X114070000Y-248568000D03*
X82026900Y-234936000D03*
X129146000Y-243158000D03*
X81795900Y-216246000D03*
X96723200Y-217478000D03*
D29*
%TO.N,MOTION_BUS_P*%
X205000000Y-68000000D03*
X207000000Y-36000000D03*
X205000000Y-26000000D03*
X197000000Y-62000000D03*
X199000000Y-34000000D03*
X205000000Y-72000000D03*
X195000000Y-84000000D03*
X197000000Y-26000000D03*
X203000000Y-16000000D03*
X203000000Y-36000000D03*
D28*
X269750000Y-74242000D03*
D29*
X203000000Y-74000000D03*
X197000000Y-54000000D03*
X195000000Y-18000000D03*
X199000000Y-18000000D03*
X199000000Y-30000000D03*
X205000000Y-18000000D03*
X207000000Y-46000000D03*
X203000000Y-22000000D03*
X197000000Y-28000000D03*
X197000000Y-48000000D03*
X203000000Y-60000000D03*
D28*
X285004000Y-24844200D03*
D29*
X199000000Y-28000000D03*
X203000000Y-48000000D03*
D28*
X352663000Y-48940600D03*
D29*
X199000000Y-62000000D03*
X207000000Y-18000000D03*
D28*
X329555000Y-22892700D03*
D29*
X197000000Y-56000000D03*
X205000000Y-78000000D03*
X197000000Y-66000000D03*
X197000000Y-34000000D03*
X201000000Y-74000000D03*
X197000000Y-84000000D03*
X205000000Y-40000000D03*
X199000000Y-52000000D03*
X207000000Y-60000000D03*
X203000000Y-38000000D03*
X205000000Y-82000000D03*
X195000000Y-30000000D03*
X199000000Y-50000000D03*
X203000000Y-70000000D03*
X203000000Y-64000000D03*
D28*
X340755000Y-51912900D03*
D29*
X205000000Y-24000000D03*
X195000000Y-80000000D03*
X207000000Y-38000000D03*
X205000000Y-22000000D03*
D28*
X319146000Y-56212700D03*
D29*
X197000000Y-52000000D03*
X195000000Y-54000000D03*
X203000000Y-30000000D03*
X205000000Y-32000000D03*
X195000000Y-56000000D03*
X203000000Y-54000000D03*
X201000000Y-28000000D03*
X203000000Y-82000000D03*
X203000000Y-56000000D03*
X201000000Y-58000000D03*
X207000000Y-64000000D03*
X207000000Y-50000000D03*
X195000000Y-52000000D03*
X205000000Y-76000000D03*
X197000000Y-78000000D03*
X205000000Y-54000000D03*
D28*
X272955000Y-204010000D03*
D29*
X201000000Y-32000000D03*
X207000000Y-62000000D03*
X207000000Y-54000000D03*
X205000000Y-42000000D03*
X203000000Y-50000000D03*
X199000000Y-82000000D03*
D28*
X284194000Y-51912900D03*
D29*
X207000000Y-40000000D03*
X201000000Y-44000000D03*
X207000000Y-76000000D03*
X207000000Y-30000000D03*
X205000000Y-48000000D03*
X201000000Y-66000000D03*
X201000000Y-26000000D03*
X199000000Y-60000000D03*
X201000000Y-72000000D03*
X205000000Y-44000000D03*
D28*
X325589000Y-65179200D03*
D29*
X203000000Y-42000000D03*
X207000000Y-24000000D03*
X203000000Y-26000000D03*
X205000000Y-50000000D03*
X203000000Y-68000000D03*
X207000000Y-20000000D03*
X203000000Y-32000000D03*
X207000000Y-78000000D03*
X207000000Y-58000000D03*
X199000000Y-78000000D03*
X207000000Y-42000000D03*
X201000000Y-76000000D03*
X207000000Y-34000000D03*
X203000000Y-44000000D03*
X203000000Y-62000000D03*
X201000000Y-36000000D03*
X199000000Y-64000000D03*
X201000000Y-50000000D03*
X207000000Y-82000000D03*
X199000000Y-26000000D03*
X195000000Y-66000000D03*
X205000000Y-52000000D03*
X201000000Y-54000000D03*
X203000000Y-40000000D03*
X201000000Y-70000000D03*
X207000000Y-66000000D03*
X199000000Y-24000000D03*
X197000000Y-20000000D03*
X201000000Y-46000000D03*
X203000000Y-34000000D03*
X201000000Y-16000000D03*
X203000000Y-78000000D03*
X195000000Y-32000000D03*
X203000000Y-80000000D03*
X205000000Y-84000000D03*
X199000000Y-20000000D03*
X205000000Y-38000000D03*
X197000000Y-18000000D03*
X207000000Y-84000000D03*
X195000000Y-16000000D03*
X195000000Y-24000000D03*
X197000000Y-32000000D03*
X207000000Y-22000000D03*
X207000000Y-68000000D03*
X201000000Y-52000000D03*
X195000000Y-22000000D03*
X195000000Y-20000000D03*
X199000000Y-66000000D03*
X207000000Y-74000000D03*
X203000000Y-24000000D03*
X207000000Y-70000000D03*
X207000000Y-16000000D03*
X201000000Y-38000000D03*
X207000000Y-44000000D03*
X201000000Y-56000000D03*
X199000000Y-54000000D03*
X207000000Y-52000000D03*
X201000000Y-78000000D03*
X203000000Y-20000000D03*
X205000000Y-34000000D03*
X199000000Y-58000000D03*
X197000000Y-36000000D03*
X201000000Y-40000000D03*
X201000000Y-22000000D03*
X205000000Y-20000000D03*
X197000000Y-58000000D03*
X195000000Y-58000000D03*
X197000000Y-50000000D03*
X207000000Y-28000000D03*
X205000000Y-58000000D03*
X199000000Y-36000000D03*
X203000000Y-58000000D03*
X207000000Y-48000000D03*
X205000000Y-30000000D03*
X203000000Y-52000000D03*
X203000000Y-28000000D03*
X205000000Y-46000000D03*
X201000000Y-24000000D03*
X197000000Y-64000000D03*
X199000000Y-56000000D03*
X195000000Y-48000000D03*
X201000000Y-80000000D03*
X195000000Y-28000000D03*
X197000000Y-80000000D03*
X195000000Y-34000000D03*
X205000000Y-74000000D03*
X195000000Y-82000000D03*
X207000000Y-26000000D03*
X201000000Y-20000000D03*
X201000000Y-30000000D03*
X203000000Y-66000000D03*
X201000000Y-82000000D03*
X197000000Y-22000000D03*
X195000000Y-64000000D03*
X197000000Y-60000000D03*
X199000000Y-16000000D03*
X205000000Y-66000000D03*
X199000000Y-32000000D03*
X207000000Y-72000000D03*
X201000000Y-42000000D03*
D28*
X287171000Y-60821300D03*
D29*
X203000000Y-84000000D03*
X195000000Y-50000000D03*
X203000000Y-18000000D03*
X201000000Y-64000000D03*
X203000000Y-76000000D03*
X205000000Y-64000000D03*
X205000000Y-62000000D03*
X205000000Y-80000000D03*
X205000000Y-60000000D03*
X201000000Y-48000000D03*
X205000000Y-28000000D03*
X197000000Y-30000000D03*
X205000000Y-36000000D03*
X205000000Y-16000000D03*
X207000000Y-80000000D03*
X205000000Y-70000000D03*
X195000000Y-36000000D03*
X201000000Y-84000000D03*
X205000000Y-56000000D03*
X197000000Y-16000000D03*
X201000000Y-60000000D03*
X201000000Y-18000000D03*
X195000000Y-78000000D03*
X199000000Y-48000000D03*
X207000000Y-32000000D03*
X197000000Y-82000000D03*
X195000000Y-60000000D03*
X201000000Y-34000000D03*
D28*
X319917000Y-63802100D03*
X290172000Y-75717500D03*
D29*
X201000000Y-68000000D03*
X195000000Y-62000000D03*
X201000000Y-62000000D03*
X199000000Y-84000000D03*
X203000000Y-72000000D03*
X199000000Y-80000000D03*
X207000000Y-56000000D03*
X203000000Y-46000000D03*
X199000000Y-22000000D03*
X195000000Y-26000000D03*
X197000000Y-24000000D03*
D28*
%TO.N,CHOP_10V*%
X290148000Y-69246900D03*
X273206000Y-84850000D03*
X291031000Y-36797600D03*
X276409000Y-72006900D03*
X275263000Y-101342000D03*
D29*
%TO.N,PC_BUCK_IN_P*%
X44300000Y-174800000D03*
D28*
X43065100Y-167833000D03*
D29*
X43200000Y-172800000D03*
X43200000Y-173800000D03*
X43200000Y-174800000D03*
D28*
%TO.N,WAKE_KILL*%
X67167700Y-232256000D03*
X111605000Y-235504000D03*
%TO.N,CHOP_SENSE*%
X273124000Y-72838600D03*
X275734000Y-66572400D03*
%TO.N,CHOP_OV_OK*%
X266127000Y-97943400D03*
X266127000Y-71498600D03*
D29*
%TO.N,CHOPPER_N*%
X298000000Y-40500000D03*
X295000000Y-40500000D03*
X298000000Y-42000000D03*
X295000000Y-45000000D03*
D28*
X320528000Y-45968300D03*
D29*
X295000000Y-43500000D03*
X296500000Y-42000000D03*
X296500000Y-45000000D03*
D28*
X315974000Y-15279600D03*
X334801000Y-13273000D03*
D29*
X296500000Y-40500000D03*
X296500000Y-43500000D03*
X295000000Y-42000000D03*
D28*
X337778000Y-49000000D03*
%TO.N,MOTION_FLT_N*%
X188962700Y-93091900D03*
X165939700Y-97517600D03*
X316939900Y-176749500D03*
X200840800Y-170804900D03*
X163403400Y-94180600D03*
X165707700Y-170804900D03*
X161562600Y-185087500D03*
X317501900Y-269683000D03*
X162141100Y-170804900D03*
%TO.N,AON_RESET_N*%
X140311000Y-239168000D03*
X108385000Y-237691000D03*
X43420900Y-215389000D03*
X105580000Y-215328000D03*
%TO.N,BUTTON_ARM_SET_N*%
X45170500Y-217478000D03*
X56855600Y-224936000D03*
%TO.N,MOTION_BUS_ADC*%
X328053000Y-206472000D03*
X329182000Y-278018000D03*
X288007000Y-203856000D03*
%TO.N,SW_BROWNOUT*%
X133495000Y-217478000D03*
X135349000Y-249344000D03*
%TO.N,ESP_MAIN_HOLD*%
X316940000Y-259823000D03*
X246284000Y-257744000D03*
X92879000Y-231092000D03*
X317714000Y-268777000D03*
%TO.N,ESP_CHIP_EN*%
X331824000Y-251057000D03*
X335393000Y-278057000D03*
X185956000Y-277249000D03*
X186066000Y-216246000D03*
%TO.N,MOTION_LOCAL_OK*%
X189313000Y-219206000D03*
X188328000Y-193080000D03*
%TO.N,MOTION_PERMIT*%
X189259000Y-220446000D03*
X188933000Y-242140000D03*
X270447000Y-242988000D03*
D29*
%TO.N,LOGIC_BUCK_N*%
X58900000Y-163550000D03*
X61100000Y-162450000D03*
X58900000Y-143550000D03*
X60000000Y-162450000D03*
X61100000Y-143550000D03*
X58900000Y-142450000D03*
X58900000Y-162450000D03*
X61100000Y-142450000D03*
X60000000Y-143550000D03*
X60000000Y-163550000D03*
X60000000Y-142450000D03*
X61100000Y-163550000D03*
D28*
%TO.N,CHOP_QUALIFY_N*%
X267510000Y-101828000D03*
X302485000Y-102442000D03*
X269310000Y-40023700D03*
%TO.N,MAIN_LATCH_OK*%
X130621000Y-244287000D03*
X129870000Y-231412000D03*
%TO.N,SW_RESET_N*%
X287767000Y-259974000D03*
X287254000Y-194444000D03*
X93022200Y-274050000D03*
X284037000Y-270964000D03*
X286223000Y-268276000D03*
X290148000Y-248085000D03*
X102603000Y-251057000D03*
D29*
%TO.N,MOTION_COMMON*%
X160000000Y-30000000D03*
X160000000Y-56000000D03*
X160000000Y-46000000D03*
X170000000Y-24000000D03*
X168000000Y-34000000D03*
X168000000Y-22000000D03*
X166000000Y-56000000D03*
X160000000Y-44000000D03*
X170000000Y-32000000D03*
X166000000Y-66000000D03*
X170000000Y-54000000D03*
X164000000Y-36000000D03*
X160000000Y-78000000D03*
X170000000Y-34000000D03*
X162000000Y-66000000D03*
X162000000Y-64000000D03*
X164000000Y-34000000D03*
X168000000Y-68000000D03*
X164000000Y-62000000D03*
X160000000Y-28000000D03*
X166000000Y-38000000D03*
X168000000Y-20000000D03*
X166000000Y-70000000D03*
X160000000Y-26000000D03*
X168000000Y-60000000D03*
X170000000Y-76000000D03*
X162000000Y-72000000D03*
X170000000Y-60000000D03*
X170000000Y-28000000D03*
X162000000Y-62000000D03*
X168000000Y-42000000D03*
X164000000Y-54000000D03*
X160000000Y-60000000D03*
X166000000Y-42000000D03*
X170000000Y-66000000D03*
X170000000Y-74000000D03*
X162000000Y-38000000D03*
X164000000Y-68000000D03*
X170000000Y-36000000D03*
X168000000Y-54000000D03*
X164000000Y-22000000D03*
X160000000Y-20000000D03*
X164000000Y-70000000D03*
X160000000Y-32000000D03*
X160000000Y-68000000D03*
X170000000Y-50000000D03*
X168000000Y-74000000D03*
X166000000Y-68000000D03*
X170000000Y-78000000D03*
X170000000Y-48000000D03*
X168000000Y-76000000D03*
X162000000Y-70000000D03*
X160000000Y-48000000D03*
X170000000Y-46000000D03*
X168000000Y-64000000D03*
X162000000Y-42000000D03*
X170000000Y-42000000D03*
X166000000Y-34000000D03*
X160000000Y-50000000D03*
X160000000Y-52000000D03*
X164000000Y-60000000D03*
X166000000Y-40000000D03*
X168000000Y-58000000D03*
X164000000Y-58000000D03*
X164000000Y-56000000D03*
X160000000Y-76000000D03*
X160000000Y-64000000D03*
X164000000Y-38000000D03*
X170000000Y-68000000D03*
X162000000Y-60000000D03*
X170000000Y-44000000D03*
X162000000Y-40000000D03*
X166000000Y-60000000D03*
D28*
X177282500Y-99734600D03*
D29*
X168000000Y-66000000D03*
X160000000Y-24000000D03*
X160000000Y-62000000D03*
X162000000Y-58000000D03*
X170000000Y-30000000D03*
X162000000Y-54000000D03*
X170000000Y-26000000D03*
X168000000Y-40000000D03*
X162000000Y-22000000D03*
X166000000Y-54000000D03*
X160000000Y-42000000D03*
X160000000Y-22000000D03*
X166000000Y-58000000D03*
X164000000Y-42000000D03*
X162000000Y-78000000D03*
X166000000Y-72000000D03*
X168000000Y-56000000D03*
X162000000Y-68000000D03*
X170000000Y-62000000D03*
X170000000Y-52000000D03*
D28*
X177282500Y-96214400D03*
D29*
X160000000Y-70000000D03*
X160000000Y-34000000D03*
X170000000Y-38000000D03*
X166000000Y-20000000D03*
X170000000Y-64000000D03*
X160000000Y-54000000D03*
X162000000Y-56000000D03*
X168000000Y-62000000D03*
X162000000Y-20000000D03*
X170000000Y-40000000D03*
D28*
X165100000Y-95250000D03*
D29*
X166000000Y-22000000D03*
X166000000Y-36000000D03*
X168000000Y-38000000D03*
X164000000Y-20000000D03*
X164000000Y-40000000D03*
X166000000Y-64000000D03*
D28*
X177269200Y-79383700D03*
D29*
X160000000Y-66000000D03*
X160000000Y-58000000D03*
X160000000Y-36000000D03*
X166000000Y-62000000D03*
X162000000Y-34000000D03*
X164000000Y-72000000D03*
X162000000Y-36000000D03*
X168000000Y-36000000D03*
%TO.N,MOTION_SENSED_P*%
X140000000Y-76000000D03*
X140000000Y-70000000D03*
X140000000Y-42000000D03*
X134000000Y-58000000D03*
X140000000Y-20000000D03*
X136000000Y-38000000D03*
X138000000Y-50000000D03*
X134000000Y-46000000D03*
X138000000Y-56000000D03*
X132000000Y-40000000D03*
X136000000Y-40000000D03*
X140000000Y-32000000D03*
X140000000Y-46000000D03*
X136000000Y-32000000D03*
X138000000Y-32000000D03*
X140000000Y-48000000D03*
X136000000Y-72000000D03*
X136000000Y-30000000D03*
X132000000Y-38000000D03*
X136000000Y-78000000D03*
X140000000Y-50000000D03*
X134000000Y-38000000D03*
X142000000Y-74000000D03*
X132000000Y-42000000D03*
X134000000Y-20000000D03*
X138000000Y-34000000D03*
X132000000Y-74000000D03*
X138000000Y-44000000D03*
X142000000Y-52000000D03*
X132000000Y-34000000D03*
X138000000Y-30000000D03*
X140000000Y-36000000D03*
X136000000Y-34000000D03*
X140000000Y-64000000D03*
X138000000Y-46000000D03*
X132000000Y-72000000D03*
X140000000Y-44000000D03*
X140000000Y-72000000D03*
X136000000Y-74000000D03*
X140000000Y-54000000D03*
X142000000Y-46000000D03*
X136000000Y-48000000D03*
X138000000Y-58000000D03*
X136000000Y-76000000D03*
X142000000Y-62000000D03*
X142000000Y-60000000D03*
X142000000Y-30000000D03*
X138000000Y-40000000D03*
X142000000Y-72000000D03*
X138000000Y-38000000D03*
X140000000Y-22000000D03*
X140000000Y-68000000D03*
X132000000Y-58000000D03*
X138000000Y-74000000D03*
X132000000Y-50000000D03*
X134000000Y-78000000D03*
X140000000Y-52000000D03*
X140000000Y-66000000D03*
X142000000Y-24000000D03*
X142000000Y-34000000D03*
X138000000Y-20000000D03*
X140000000Y-40000000D03*
X136000000Y-56000000D03*
X140000000Y-56000000D03*
X132000000Y-78000000D03*
X132000000Y-54000000D03*
X136000000Y-52000000D03*
X136000000Y-36000000D03*
X134000000Y-32000000D03*
X134000000Y-72000000D03*
X132000000Y-60000000D03*
X140000000Y-26000000D03*
X140000000Y-28000000D03*
X142000000Y-22000000D03*
X142000000Y-38000000D03*
X138000000Y-78000000D03*
X134000000Y-60000000D03*
X138000000Y-54000000D03*
X142000000Y-76000000D03*
X142000000Y-42000000D03*
X142000000Y-36000000D03*
X134000000Y-56000000D03*
X134000000Y-76000000D03*
X132000000Y-32000000D03*
X132000000Y-30000000D03*
X140000000Y-78000000D03*
X134000000Y-42000000D03*
X136000000Y-70000000D03*
X140000000Y-58000000D03*
X142000000Y-20000000D03*
X140000000Y-38000000D03*
X136000000Y-46000000D03*
X142000000Y-26000000D03*
X136000000Y-44000000D03*
X142000000Y-64000000D03*
X132000000Y-20000000D03*
X142000000Y-78000000D03*
X132000000Y-46000000D03*
X140000000Y-34000000D03*
X138000000Y-42000000D03*
X134000000Y-30000000D03*
X134000000Y-52000000D03*
X138000000Y-70000000D03*
X142000000Y-70000000D03*
X138000000Y-52000000D03*
X136000000Y-60000000D03*
X132000000Y-36000000D03*
X142000000Y-56000000D03*
X136000000Y-50000000D03*
X138000000Y-36000000D03*
X142000000Y-32000000D03*
X132000000Y-70000000D03*
X132000000Y-56000000D03*
X134000000Y-48000000D03*
X142000000Y-28000000D03*
X138000000Y-60000000D03*
X138000000Y-76000000D03*
X136000000Y-42000000D03*
X136000000Y-58000000D03*
X132000000Y-44000000D03*
X132000000Y-76000000D03*
X142000000Y-54000000D03*
X140000000Y-24000000D03*
X142000000Y-58000000D03*
X136000000Y-20000000D03*
X134000000Y-70000000D03*
X142000000Y-68000000D03*
X142000000Y-50000000D03*
X134000000Y-40000000D03*
X142000000Y-48000000D03*
X142000000Y-40000000D03*
X134000000Y-44000000D03*
X142000000Y-44000000D03*
X134000000Y-36000000D03*
X142000000Y-66000000D03*
X138000000Y-48000000D03*
X140000000Y-62000000D03*
X138000000Y-72000000D03*
X134000000Y-54000000D03*
X132000000Y-48000000D03*
X140000000Y-74000000D03*
X134000000Y-34000000D03*
X134000000Y-74000000D03*
X140000000Y-30000000D03*
X134000000Y-50000000D03*
X140000000Y-60000000D03*
X136000000Y-54000000D03*
X132000000Y-52000000D03*
D28*
%TO.N,MOTION_ARMED*%
X212748000Y-184511000D03*
X210623000Y-195523000D03*
%TO.N,MOTION_ARMED_SENSE*%
X212580000Y-201358000D03*
X215510000Y-279448000D03*
X313963000Y-279096000D03*
%TO.N,MOTION_GATE_DRIVE*%
X174794100Y-57075100D03*
X174481600Y-105086600D03*
X174794100Y-22388500D03*
X158192200Y-38995700D03*
X155323900Y-74565600D03*
X170886900Y-95882600D03*
X174794100Y-37068800D03*
D29*
%TO.N,LOGIC_BUCK_IN_P*%
X93200000Y-172800000D03*
D28*
X75704700Y-175974000D03*
D29*
X94300000Y-174800000D03*
X93200000Y-173800000D03*
X93200000Y-174800000D03*
D28*
X100358000Y-173129000D03*
X76061200Y-184597000D03*
%TO.N,CHOP_REQUEST*%
X273238000Y-65871000D03*
X275773000Y-69876600D03*
X275263000Y-31106800D03*
%TO.N,TEMP_MOTION_ADC*%
X165944800Y-77780900D03*
X162923200Y-69076800D03*
X314791300Y-282925100D03*
X180002500Y-283213000D03*
%TO.N,MOTION_TMR*%
X153210000Y-102442000D03*
%TO.N,ESP_MOTION_RESET*%
X326157000Y-265346000D03*
X209772000Y-220446000D03*
X207754000Y-193836000D03*
X325871000Y-224306000D03*
X248471000Y-221334000D03*
%TO.N,MOTION_IMON_ADC*%
X317714000Y-280153000D03*
X306224000Y-203500000D03*
%TO.N,CAN_L*%
X43649500Y-288754000D03*
X43038000Y-277177000D03*
%TO.N,CHOP_FAULT_N*%
X168000000Y-183673000D03*
X290148000Y-185666000D03*
X230610000Y-185666000D03*
X299079000Y-270577000D03*
X254663000Y-97255100D03*
%TO.N,CHOP_NTC*%
X283303600Y-74106400D03*
X284194000Y-87580500D03*
X301070500Y-89583300D03*
X305032300Y-138109600D03*
%TO.N,MOTION_IMON_INPUT*%
X290756000Y-197571000D03*
X184027000Y-131339000D03*
X290148000Y-141082000D03*
X148223000Y-98413300D03*
X182979000Y-102442000D03*
%TO.N,ESP_BOOT_N*%
X314098000Y-269574000D03*
%TO.N,PB_PRESSED*%
X54221300Y-225425000D03*
X35711700Y-236000000D03*
%TO.N,CHOP_GATE*%
X266127000Y-45968300D03*
X288070000Y-43722200D03*
X266819000Y-84608200D03*
%TO.N,I2C_SDA*%
X21111900Y-74898200D03*
X135043000Y-263375000D03*
X31157500Y-263716000D03*
X310986000Y-262686000D03*
%TO.N,BUTTON_INT_N*%
X322894000Y-265061000D03*
X69857200Y-234567000D03*
%TO.N,MAIN_FAULT_SET_N*%
X123441000Y-229852000D03*
X126418000Y-217478000D03*
%TO.N,MOTION_GATE_EN*%
X204433400Y-184809800D03*
X195187700Y-138109600D03*
X159164200Y-93344500D03*
X163077300Y-92594500D03*
X163611100Y-126886500D03*
%TO.N,LED_DATA_3V3*%
X317714000Y-272035000D03*
X291994000Y-275364000D03*
X290148000Y-277979000D03*
X99626200Y-276122000D03*
%TO.N,INA_ALERT_N*%
X25203700Y-103235000D03*
X305032000Y-276691000D03*
X302055000Y-111359000D03*
X24944800Y-78404800D03*
%TO.N,TEMP_MAIN_ADC*%
X90695500Y-283752300D03*
X313963000Y-283752300D03*
X69709900Y-55340200D03*
%TO.N,MOTION_CS_P*%
X170000000Y-91500000D03*
X174000000Y-91800000D03*
%TO.N,CHOP_TEMP_ADC*%
X335204000Y-280494000D03*
%TO.N,PB_CONNECTOR*%
X16073600Y-236395000D03*
%TO.N,CHOP_DRAIN*%
X313963000Y-40023700D03*
X325871000Y-39768800D03*
X314151000Y-45968300D03*
%TO.N,ESP_WDI*%
X323644000Y-266221000D03*
X236564000Y-265918000D03*
X231400000Y-226536000D03*
%TO.N,MAIN_KELVIN_P*%
X44000000Y-90100000D03*
X26500000Y-40000000D03*
X73200000Y-95300000D03*
X34500000Y-70300000D03*
X61800000Y-91600000D03*
X25400000Y-40000000D03*
%TO.N,I2C_SCL*%
X135990000Y-272675000D03*
X314987000Y-263055000D03*
X21413200Y-78663600D03*
X24478900Y-263716000D03*
%TO.N,LOGIC_EFUSE_FAULT_N*%
X85874800Y-176633000D03*
X96311200Y-177088000D03*
%TO.N,PC_EFUSE_PGOOD*%
X37433100Y-181337000D03*
X46365200Y-175707000D03*
%TO.N,BATT_FUSED_P*%
X27352300Y-55712400D03*
X27876900Y-69848900D03*
%TO.N,MOTION_KELVIN_P*%
X175300000Y-89400000D03*
X115975000Y-40000000D03*
X175300000Y-95600000D03*
X150000000Y-90100000D03*
%TO.N,MAIN_FAULT_GPIO_N*%
X301136000Y-190968000D03*
X304238000Y-271863000D03*
%TO.N,SYS_BUS_DIV*%
X286294000Y-194580000D03*
X284194000Y-188666000D03*
%TO.N,SYS_BUS_ADC*%
X331349000Y-274627000D03*
X328848000Y-200528000D03*
X290832000Y-194187000D03*
%TO.N,ESP_MOTION_REQUEST*%
X234845000Y-181727000D03*
X326722000Y-266198000D03*
X322894000Y-182694000D03*
%TO.N,CHOP_TEMP_HIGH*%
X290148000Y-87580500D03*
X290148000Y-82274600D03*
%TO.N,PC_UVLO*%
X33033200Y-176787000D03*
X36411400Y-177693000D03*
%TO.N,PB_RELEASED*%
X46042000Y-236196000D03*
X49172700Y-224594000D03*
%TO.N,PB_LTC_N*%
X50562200Y-224875000D03*
X49890000Y-232560000D03*
%TO.N,CAN_STB*%
X299078000Y-273935000D03*
X45877200Y-272210000D03*
%TO.N,PC_DVDT*%
X36541200Y-179990000D03*
X39754200Y-179445000D03*
%TO.N,CAN_TX*%
X139188000Y-276880000D03*
X42010700Y-274100000D03*
X330082000Y-274206000D03*
%TO.N,CAN_RX*%
X332418000Y-275661000D03*
X43038000Y-278332000D03*
X182979000Y-278647000D03*
%TO.N,PC_EFUSE_FAULT_N*%
X43558400Y-177424000D03*
X34119200Y-176703000D03*
%TD*%
%TO.N,V3V3*%
D30*
X162364800Y-90714100D02*
X90558600Y-90714100D01*
X272286400Y-239167800D02*
X285755400Y-239167800D01*
X35271300Y-82772800D02*
X34134400Y-81635900D01*
X327744200Y-192718900D02*
X294158400Y-192718900D01*
X257000000Y-234000000D02*
X255848300Y-234000000D01*
X285755400Y-239167800D02*
X286502700Y-239915100D01*
X156187300Y-191611000D02*
X69843400Y-191611000D01*
X316846800Y-270319000D02*
X332903000Y-270319000D01*
X291180300Y-268127100D02*
X309723600Y-268127100D01*
X219020000Y-222750800D02*
X230775900Y-222750800D01*
X270765800Y-239167800D02*
X270765800Y-241233800D01*
X69843400Y-191611000D02*
X60926500Y-200527900D01*
X294158400Y-192718900D02*
X292798300Y-194079000D01*
X82617300Y-82772800D02*
X35271300Y-82772800D01*
X332903000Y-270319000D02*
X337419400Y-274835400D01*
X243975400Y-222127100D02*
X231399600Y-222127100D01*
X90558600Y-90714100D02*
X82617300Y-82772800D01*
X331824400Y-188638700D02*
X327744200Y-192718900D01*
X310035800Y-268439300D02*
X314967100Y-268439300D01*
X309723600Y-268127100D02*
X310035800Y-268439300D01*
X270765800Y-239167800D02*
X272286400Y-239167800D01*
X218231400Y-221962200D02*
X219020000Y-222750800D01*
X270765800Y-239167800D02*
X265598000Y-234000000D01*
X314967100Y-268439300D02*
X316846800Y-270319000D01*
X63017000Y-54157500D02*
X62086600Y-55087900D01*
X230775900Y-222750800D02*
X231399600Y-222127100D01*
X265598000Y-234000000D02*
X257000000Y-234000000D01*
X255848300Y-234000000D02*
X243975400Y-222127100D01*
X62086600Y-55087900D02*
X39187800Y-55087900D01*
%TO.N,LOGIC_GND*%
X37878400Y-75293100D02*
X37942200Y-75229300D01*
X19219500Y-99497400D02*
X23405000Y-99497400D01*
X196988400Y-96138700D02*
X191101400Y-96138700D01*
X27609800Y-74440200D02*
X28779300Y-73270700D01*
X66713400Y-69662300D02*
X65647200Y-70728500D01*
X65647200Y-70728500D02*
X39187800Y-70728500D01*
X191101400Y-96138700D02*
X188962700Y-94000000D01*
X168553100Y-78701700D02*
X191872000Y-78701700D01*
X32048500Y-75293100D02*
X37878400Y-75293100D01*
X191872000Y-78701700D02*
X191910100Y-78663600D01*
X19198800Y-99476700D02*
X19219500Y-99497400D01*
X168516100Y-78664700D02*
X168553100Y-78701700D01*
X25213700Y-74440200D02*
X27609800Y-74440200D01*
%TO.N,BATT_N*%
X31744700Y-177123800D02*
X31951700Y-177330800D01*
X80432100Y-182539300D02*
X84276100Y-182539300D01*
X97125900Y-171008500D02*
X97689100Y-170445300D01*
X36567000Y-170565400D02*
X36498900Y-170633500D01*
X33669400Y-182391000D02*
X33972500Y-182694100D01*
X67446900Y-92606500D02*
X69701100Y-90352300D01*
X155375800Y-96292600D02*
X155382500Y-96285900D01*
X160032800Y-94147200D02*
X160019200Y-94160800D01*
X79433500Y-182446200D02*
X79352900Y-182365600D01*
X145234600Y-97852400D02*
X146794400Y-96292600D01*
X79433500Y-182446200D02*
X79494500Y-182507200D01*
X28685000Y-177123800D02*
X31744700Y-177123800D01*
X71060600Y-190322700D02*
X71060600Y-190855300D01*
X71296000Y-191090700D02*
X71628600Y-191090700D01*
X167012700Y-87662500D02*
X171584800Y-87662500D01*
X66868600Y-99745800D02*
X67045300Y-99922500D01*
X150233500Y-96292600D02*
X155375800Y-96292600D01*
X69701100Y-90352300D02*
X70363100Y-90352300D01*
X71864000Y-190655300D02*
X76427300Y-186092000D01*
X157188400Y-87175500D02*
X166525700Y-87175500D01*
X160019200Y-94160800D02*
X155515400Y-94160800D01*
X61692400Y-100098100D02*
X62044700Y-99745800D01*
X71060600Y-190855300D02*
X71296000Y-191090700D01*
X84741700Y-171008500D02*
X97125900Y-171008500D01*
X50217000Y-177087500D02*
X78988700Y-177087500D01*
X171584800Y-87662500D02*
X171654400Y-87732100D01*
X76713100Y-185288600D02*
X76094700Y-185288600D01*
X71864000Y-190855300D02*
X71864000Y-190655300D01*
X146794400Y-96292600D02*
X150233500Y-96292600D01*
X62044700Y-99745800D02*
X66868600Y-99745800D01*
X76094700Y-185288600D02*
X71060600Y-190322700D01*
X166525700Y-87175500D02*
X167012700Y-87662500D01*
X79494500Y-182507200D02*
X76713100Y-185288600D01*
X48978400Y-175848900D02*
X50217000Y-177087500D01*
X71628600Y-191090700D02*
X71864000Y-190855300D01*
X76427300Y-186092000D02*
X77045700Y-186092000D01*
X28180600Y-182391000D02*
X33669400Y-182391000D01*
X48414700Y-170565400D02*
X36567000Y-170565400D01*
X80432100Y-182705600D02*
X80432100Y-182539300D01*
X77045700Y-186092000D02*
X80432100Y-182705600D01*
%TO.N,MAIN_FAULT_N*%
X277614000Y-206472000D02*
X288518000Y-195569000D01*
X123451000Y-100488000D02*
X68838400Y-100488000D01*
X144280000Y-206472000D02*
X277614000Y-206472000D01*
X288518000Y-195569000D02*
X296202000Y-195569000D01*
%TO.N,CHOP_ACTIVE_N*%
X172190000Y-182057000D02*
X234324000Y-182057000D01*
X171938000Y-182309000D02*
X172190000Y-182057000D01*
X234324000Y-182057000D02*
X234961000Y-182694000D01*
X252761000Y-183487000D02*
X308803000Y-183487000D01*
X234961000Y-182694000D02*
X251968000Y-182694000D01*
X251968000Y-182694000D02*
X252761000Y-183487000D01*
%TO.N,MAIN_DGATE*%
X63565400Y-96497400D02*
X78787900Y-96497400D01*
X62929800Y-95861800D02*
X63565400Y-96497400D01*
%TO.N,MAIN_COMMON*%
X62487100Y-98058600D02*
X68758200Y-98058600D01*
X61693300Y-97518800D02*
X61820300Y-97391800D01*
X60399700Y-97518800D02*
X61693300Y-97518800D01*
X68758200Y-98058600D02*
X69546100Y-97270700D01*
X61820300Y-97391800D02*
X62487100Y-98058600D01*
%TO.N,AON_WAKE_EN*%
X140907000Y-193719000D02*
X189802000Y-193719000D01*
X119376000Y-113310000D02*
X119364000Y-113298000D01*
X220183000Y-191586000D02*
X191936000Y-191586000D01*
X189802000Y-193719000D02*
X191936000Y-191586000D01*
X223862000Y-187907000D02*
X220183000Y-191586000D01*
X119364000Y-113298000D02*
X63007500Y-113298000D01*
%TO.N,MAIN_ILIM*%
X64569900Y-103104000D02*
X66880300Y-105414000D01*
X55004600Y-103104000D02*
X64569900Y-103104000D01*
X54804200Y-103304000D02*
X55004600Y-103104000D01*
%TO.N,MAIN_HGATE*%
X57769300Y-98745300D02*
X67757000Y-98745300D01*
X68097700Y-99086000D02*
X68665700Y-99086000D01*
X57367600Y-98343600D02*
X57769300Y-98745300D01*
X67757000Y-98745300D02*
X68097700Y-99086000D01*
%TO.N,MAIN_KELVIN_N*%
X44000000Y-87850000D02*
X44000000Y-86900000D01*
X32150000Y-87850000D02*
X60950000Y-87850000D01*
X31150000Y-86850000D02*
X32150000Y-87850000D01*
X31150000Y-40650000D02*
X31150000Y-86850000D01*
X60950000Y-87850000D02*
X67800000Y-94700000D01*
X33500000Y-40000000D02*
X31150000Y-40650000D01*
%TO.N,BATT_SENSED_P*%
X30882900Y-113505300D02*
X29388200Y-115000000D01*
X29388200Y-115000000D02*
X21507900Y-115000000D01*
X21700000Y-207268800D02*
X21700000Y-206472500D01*
X70470200Y-95049100D02*
X70162900Y-95356400D01*
X56516700Y-93058800D02*
X64058800Y-93058800D01*
X64951800Y-95356400D02*
X64870900Y-95275500D01*
X19524000Y-209444800D02*
X21700000Y-207268800D01*
X55243200Y-91785300D02*
X56516700Y-93058800D01*
X70162900Y-95356400D02*
X64951800Y-95356400D01*
%TO.N,SYS_BUS_P*%
X81764800Y-87580500D02*
X62346800Y-87580500D01*
X75310800Y-170804900D02*
X77871100Y-173365200D01*
X163751700Y-89262400D02*
X151451200Y-89262400D01*
X164970300Y-90481000D02*
X163751700Y-89262400D01*
X37299900Y-173457900D02*
X36406800Y-172564800D01*
X170902300Y-88082000D02*
X167927900Y-88082000D01*
X36406800Y-172564700D02*
X28817600Y-172564700D01*
X194346800Y-88509600D02*
X171329900Y-88509600D01*
X151451200Y-89262400D02*
X151096100Y-89617500D01*
X203736800Y-97899600D02*
X264097000Y-97899600D01*
X167927900Y-88082000D02*
X167518900Y-88491000D01*
X28817600Y-172564700D02*
X28628300Y-172375400D01*
X196892400Y-91055200D02*
X203736800Y-97899600D01*
X77871100Y-173365200D02*
X85895400Y-173365200D01*
X62346800Y-87580500D02*
X61710500Y-86944200D01*
X36406800Y-172564800D02*
X36406800Y-172564700D01*
X121101500Y-84415300D02*
X151144200Y-84415300D01*
X171329900Y-88509600D02*
X170902300Y-88082000D01*
X151144200Y-84415300D02*
X151156300Y-84403200D01*
X196892400Y-91055200D02*
X194346800Y-88509600D01*
%TO.N,CHOP_GND*%
X349000000Y-135920000D02*
X346898300Y-135920000D01*
X334801300Y-135137300D02*
X346115600Y-135137300D01*
X346115600Y-135137300D02*
X346898300Y-135920000D01*
%TO.N,MOTION_KELVIN_N*%
X122250000Y-87850000D02*
X165269240Y-87850000D01*
X120150000Y-85750000D02*
X122250000Y-87850000D01*
X120150000Y-40650000D02*
X120150000Y-85750000D01*
X165269240Y-87850000D02*
X172419240Y-95000000D01*
X124025000Y-40000000D02*
X120150000Y-40650000D01*
X146500000Y-87850000D02*
X146500000Y-86400000D01*
%TO.N,MOTION_TEMP_FLT_N*%
X197864000Y-185666000D02*
X168718000Y-185666000D01*
X301940000Y-187106000D02*
X199304000Y-187106000D01*
X304238000Y-189405000D02*
X301940000Y-187106000D01*
X163349000Y-191035000D02*
X161926000Y-191035000D01*
X199304000Y-187106000D02*
X197864000Y-185666000D01*
X168718000Y-185666000D02*
X163349000Y-191035000D01*
%TO.N,V5V*%
X97794100Y-273049000D02*
X96929600Y-273913000D01*
X108557000Y-273049000D02*
X97794100Y-273049000D01*
%TO.N,WAKE_RAW_EN*%
X129146000Y-243158000D02*
X119480000Y-243158000D01*
X109690000Y-244188000D02*
X87689200Y-244188000D01*
X119480000Y-243158000D02*
X114070000Y-248568000D01*
X114070000Y-248568000D02*
X109690000Y-244188000D01*
X95491900Y-216246000D02*
X96723200Y-217478000D01*
X81795900Y-216246000D02*
X95491900Y-216246000D01*
%TO.N,MOTION_BUS_P*%
X349000000Y-63000000D02*
X346821000Y-65179200D01*
X269750000Y-74242000D02*
X271200000Y-75692800D01*
X290148000Y-75692800D02*
X290148000Y-75692900D01*
X290148000Y-75692900D02*
X290172000Y-75717500D01*
X324212000Y-63802100D02*
X319917000Y-63802100D01*
X352663000Y-48940600D02*
X349690000Y-51912900D01*
X325589000Y-65179200D02*
X324212000Y-63802100D01*
X349690000Y-51912900D02*
X340755000Y-51912900D01*
X271200000Y-75692800D02*
X290148000Y-75692800D01*
X346821000Y-65179200D02*
X325589000Y-65179200D01*
%TO.N,WAKE_KILL*%
X103798000Y-232256000D02*
X107047000Y-235504000D01*
X107047000Y-235504000D02*
X111605000Y-235504000D01*
X67167700Y-232256000D02*
X103798000Y-232256000D01*
%TO.N,CHOPPER_N*%
X332795000Y-15279600D02*
X334801000Y-13273000D01*
X315974000Y-15279600D02*
X332795000Y-15279600D01*
%TO.N,MOTION_FLT_N*%
X310995300Y-170804900D02*
X200840800Y-170804900D01*
X188962700Y-93091900D02*
X184537000Y-97517600D01*
X200840800Y-170804900D02*
X165707700Y-170804900D01*
X184537000Y-97517600D02*
X165939700Y-97517600D01*
X316939900Y-176749500D02*
X310995300Y-170804900D01*
X165707700Y-170804900D02*
X162141100Y-170804900D01*
%TO.N,AON_RESET_N*%
X138834000Y-237691000D02*
X108385000Y-237691000D01*
X140311000Y-239168000D02*
X138834000Y-237691000D01*
X43802400Y-215008000D02*
X105260000Y-215008000D01*
X105260000Y-215008000D02*
X105580000Y-215328000D01*
X43420900Y-215389000D02*
X43802400Y-215008000D01*
%TO.N,BUTTON_ARM_SET_N*%
X45170500Y-217478000D02*
X49397200Y-217478000D01*
X49397200Y-217478000D02*
X56855600Y-224936000D01*
%TO.N,MOTION_BUS_ADC*%
X328053000Y-206472000D02*
X290623000Y-206472000D01*
X290623000Y-206472000D02*
X288007000Y-203856000D01*
%TO.N,ESP_MAIN_HOLD*%
X120561000Y-232621000D02*
X129813000Y-232621000D01*
X92879000Y-231092000D02*
X119032000Y-231092000D01*
X142143000Y-232789000D02*
X167098000Y-257744000D01*
X314860000Y-257744000D02*
X246284000Y-257744000D01*
X129813000Y-232621000D02*
X129981000Y-232789000D01*
X129981000Y-232789000D02*
X142143000Y-232789000D01*
X119032000Y-231092000D02*
X120561000Y-232621000D01*
X167098000Y-257744000D02*
X246284000Y-257744000D01*
X316940000Y-259823000D02*
X314860000Y-257744000D01*
%TO.N,ESP_CHIP_EN*%
X274000000Y-277160000D02*
X274132000Y-277292000D01*
X322102000Y-277292000D02*
X323858000Y-275536000D01*
X323858000Y-275536000D02*
X328008000Y-275536000D01*
X274132000Y-277292000D02*
X322102000Y-277292000D01*
X328008000Y-275536000D02*
X330529000Y-278057000D01*
X273911000Y-277249000D02*
X274000000Y-277160000D01*
X185956000Y-277249000D02*
X273911000Y-277249000D01*
X330529000Y-278057000D02*
X335393000Y-278057000D01*
%TO.N,MOTION_PERMIT*%
X188933000Y-242140000D02*
X269599000Y-242140000D01*
X269599000Y-242140000D02*
X270447000Y-242988000D01*
%TO.N,CHOP_QUALIFY_N*%
X268125000Y-102442000D02*
X302485000Y-102442000D01*
X267510000Y-101828000D02*
X268125000Y-102442000D01*
%TO.N,SW_RESET_N*%
X287767000Y-259974000D02*
X111520000Y-259974000D01*
X111520000Y-259974000D02*
X102603000Y-251057000D01*
%TO.N,MOTION_ARMED_SENSE*%
X275783000Y-279365000D02*
X275901000Y-279247000D01*
X275700000Y-279448000D02*
X275783000Y-279365000D01*
X215510000Y-279448000D02*
X275700000Y-279448000D01*
X313812000Y-279247000D02*
X313963000Y-279096000D01*
X275901000Y-279247000D02*
X313812000Y-279247000D01*
X275783000Y-279365000D02*
X275901000Y-279247000D01*
%TO.N,LIFT_N*%
D31*
X349000000Y-85920000D02*
X341500000Y-85920000D01*
D32*
X310000000Y-112000000D02*
X310000000Y-122000000D01*
X341500000Y-85920000D02*
X341500000Y-112000000D01*
X341500000Y-112000000D02*
X310000000Y-112000000D01*
%TO.N,MOTION_GATE_DRIVE*%
D30*
X174794100Y-37068800D02*
X160119100Y-37068800D01*
X160119100Y-37068800D02*
X158192200Y-38995700D01*
%TO.N,LOGIC_BUCK_IN_P*%
X100029000Y-172800000D02*
X100358000Y-173129000D01*
X93200000Y-172800000D02*
X100029000Y-172800000D01*
%TO.N,TEMP_MOTION_ADC*%
X180002500Y-283213000D02*
X180290400Y-282925100D01*
X180290400Y-282925100D02*
X314791300Y-282925100D01*
%TO.N,ESP_MOTION_RESET*%
X210660000Y-221334000D02*
X209772000Y-220446000D01*
X325871000Y-224306000D02*
X322898000Y-221334000D01*
X322898000Y-221334000D02*
X248471000Y-221334000D01*
X248471000Y-221334000D02*
X210660000Y-221334000D01*
%TO.N,CHOP_FAULT_N*%
X230610000Y-185666000D02*
X228616000Y-183673000D01*
X290148000Y-185666000D02*
X230610000Y-185666000D01*
X204067000Y-183375000D02*
X168298000Y-183375000D01*
X168298000Y-183375000D02*
X168000000Y-183673000D01*
X204365000Y-183673000D02*
X204067000Y-183375000D01*
X228616000Y-183673000D02*
X204365000Y-183673000D01*
%TO.N,CHOP_NTC*%
X349000000Y-141000000D02*
X307922700Y-141000000D01*
X307922700Y-141000000D02*
X305032300Y-138109600D01*
X286196800Y-89583300D02*
X301070500Y-89583300D01*
X284194000Y-87580500D02*
X286196800Y-89583300D01*
%TO.N,MOTION_IMON_INPUT*%
X182979000Y-102442000D02*
X178951000Y-98413300D01*
X290148000Y-141082000D02*
X193769000Y-141082000D01*
X178951000Y-98413300D02*
X148223000Y-98413300D01*
X193769000Y-141082000D02*
X184027000Y-131339000D01*
%TO.N,ESP_BOOT_N*%
X310824000Y-269574000D02*
X305778000Y-274620000D01*
X305778000Y-274620000D02*
X274000000Y-274620000D01*
X314098000Y-269574000D02*
X310824000Y-269574000D01*
%TO.N,PB_PRESSED*%
X44808100Y-226904000D02*
X52742700Y-226904000D01*
X52742700Y-226904000D02*
X54221300Y-225425000D01*
X35711700Y-236000000D02*
X44808100Y-226904000D01*
%TO.N,CHOP_GATE*%
X285824000Y-45968300D02*
X288070000Y-43722200D01*
X266127000Y-45968300D02*
X285824000Y-45968300D01*
%TO.N,I2C_SDA*%
X310986000Y-262686000D02*
X310296000Y-263375000D01*
X135043000Y-263375000D02*
X134702000Y-263716000D01*
X310296000Y-263375000D02*
X135043000Y-263375000D01*
X134702000Y-263716000D02*
X31157500Y-263716000D01*
%TO.N,BUTTON_INT_N*%
X320577000Y-265061000D02*
X322894000Y-265061000D01*
X314133000Y-258617000D02*
X320577000Y-265061000D01*
X130793000Y-249436000D02*
X139975000Y-258617000D01*
X139975000Y-258617000D02*
X314133000Y-258617000D01*
X84725600Y-249436000D02*
X130793000Y-249436000D01*
X69857200Y-234567000D02*
X84725600Y-249436000D01*
%TO.N,MOTION_GATE_EN*%
X162327300Y-93344500D02*
X163077300Y-92594500D01*
X195187700Y-138109600D02*
X185779800Y-128701700D01*
X185779800Y-128701700D02*
X175696900Y-128701700D01*
X159164200Y-93344500D02*
X162327300Y-93344500D01*
X175696900Y-128701700D02*
X173881700Y-126886500D01*
X173881700Y-126886500D02*
X163611100Y-126886500D01*
%TO.N,LED_DATA_3V3*%
X307290000Y-275364000D02*
X291994000Y-275364000D01*
X135159000Y-278032000D02*
X133249000Y-276122000D01*
X133249000Y-276122000D02*
X99626200Y-276122000D01*
X216120000Y-278357000D02*
X215796000Y-278032000D01*
X289770000Y-278357000D02*
X216120000Y-278357000D01*
X215796000Y-278032000D02*
X135159000Y-278032000D01*
X315712000Y-274038000D02*
X308617000Y-274038000D01*
X317714000Y-272035000D02*
X315712000Y-274038000D01*
X290148000Y-277979000D02*
X289770000Y-278357000D01*
X308617000Y-274038000D02*
X307290000Y-275364000D01*
%TO.N,INA_ALERT_N*%
X26318700Y-103235000D02*
X25203700Y-103235000D01*
X29429000Y-106345000D02*
X26318700Y-103235000D01*
X297042000Y-106345000D02*
X29429000Y-106345000D01*
X302055000Y-111359000D02*
X297042000Y-106345000D01*
%TO.N,TEMP_MAIN_ADC*%
X91550500Y-282897300D02*
X90695500Y-283752300D01*
X120714800Y-282897300D02*
X91550500Y-282897300D01*
X122077400Y-284259900D02*
X120714800Y-282897300D01*
X313455400Y-284259900D02*
X122077400Y-284259900D01*
X313963000Y-283752300D02*
X313455400Y-284259900D01*
%TO.N,ESP_WDI*%
X236564000Y-265918000D02*
X236692000Y-265790000D01*
X323214000Y-265790000D02*
X323644000Y-266221000D01*
X236692000Y-265790000D02*
X323214000Y-265790000D01*
%TO.N,MAIN_KELVIN_P*%
X61800000Y-89300000D02*
X61800000Y-91600000D01*
X26500000Y-40000000D02*
X30500000Y-40000000D01*
X30500000Y-87500000D02*
X31500000Y-88500000D01*
X61000000Y-88500000D02*
X61800000Y-89300000D01*
X44000000Y-88500000D02*
X44000000Y-90100000D01*
X31500000Y-88500000D02*
X61000000Y-88500000D01*
X30500000Y-40000000D02*
X30500000Y-87500000D01*
%TO.N,I2C_SCL*%
X135274000Y-271959000D02*
X52791600Y-271959000D01*
X135990000Y-272675000D02*
X226859000Y-272675000D01*
X52791600Y-271959000D02*
X52392900Y-272357000D01*
X43488800Y-266103000D02*
X26865900Y-266103000D01*
X135990000Y-272675000D02*
X135274000Y-271959000D01*
X226859000Y-272675000D02*
X235722000Y-263812000D01*
X26865900Y-266103000D02*
X24478900Y-263716000D01*
X52392900Y-272357000D02*
X49743000Y-272357000D01*
X235722000Y-263812000D02*
X314231000Y-263812000D01*
X49743000Y-272357000D02*
X43488800Y-266103000D01*
X314231000Y-263812000D02*
X314987000Y-263055000D01*
%TO.N,LOGIC_EFUSE_FAULT_N*%
X85874800Y-176633000D02*
X95856400Y-176633000D01*
X95856400Y-176633000D02*
X96311200Y-177088000D01*
%TO.N,PC_EFUSE_PGOOD*%
X40735000Y-181337000D02*
X37433100Y-181337000D01*
X46365200Y-175707000D02*
X40735000Y-181337000D01*
%TO.N,MOTION_KELVIN_P*%
X175300000Y-95600000D02*
X175300000Y-89400000D01*
X165000000Y-88500000D02*
X173000000Y-96500000D01*
X173000000Y-96500000D02*
X175300000Y-96500000D01*
X121600000Y-88500000D02*
X165000000Y-88500000D01*
X115975000Y-40000000D02*
X119500000Y-40000000D01*
X175300000Y-96500000D02*
X175300000Y-95600000D01*
X119500000Y-40000000D02*
X119500000Y-86400000D01*
X150000000Y-88500000D02*
X150000000Y-90100000D01*
X119500000Y-86400000D02*
X121600000Y-88500000D01*
%TO.N,SYS_BUS_ADC*%
X323282000Y-194963000D02*
X328848000Y-200528000D01*
X290832000Y-194187000D02*
X291608000Y-194963000D01*
X291608000Y-194963000D02*
X323282000Y-194963000D01*
%TO.N,ESP_MOTION_REQUEST*%
X274030000Y-182694000D02*
X322894000Y-182694000D01*
X234940000Y-181631000D02*
X272967000Y-181631000D01*
X272967000Y-181631000D02*
X274030000Y-182694000D01*
X234845000Y-181727000D02*
X234940000Y-181631000D01*
%TO.N,PC_UVLO*%
X33033200Y-176787000D02*
X33232600Y-176787000D01*
X34138300Y-177693000D02*
X36411400Y-177693000D01*
X33232600Y-176787000D02*
X34138300Y-177693000D01*
%TO.N,CAN_STB*%
X52759000Y-272759000D02*
X53110500Y-272408000D01*
X53110500Y-272408000D02*
X109298000Y-272408000D01*
X110345000Y-273455000D02*
X278204000Y-273455000D01*
X109298000Y-272408000D02*
X110345000Y-273455000D01*
X45877200Y-272210000D02*
X46425900Y-272759000D01*
X278204000Y-273455000D02*
X278684000Y-273935000D01*
X278684000Y-273935000D02*
X299078000Y-273935000D01*
X46425900Y-272759000D02*
X52759000Y-272759000D01*
%TO.N,PC_DVDT*%
X36541200Y-179990000D02*
X39209500Y-179990000D01*
X39209500Y-179990000D02*
X39754200Y-179445000D01*
%TO.N,CAN_TX*%
X329794000Y-274494000D02*
X309845000Y-274494000D01*
X43431100Y-275520000D02*
X42010700Y-274100000D01*
X138742000Y-275520000D02*
X43431100Y-275520000D01*
X139188000Y-275966000D02*
X139188000Y-276880000D01*
X330082000Y-274206000D02*
X329794000Y-274494000D01*
X308373000Y-275966000D02*
X139188000Y-275966000D01*
X309845000Y-274494000D02*
X308373000Y-275966000D01*
X139188000Y-275966000D02*
X138742000Y-275520000D01*
%TO.N,CAN_RX*%
X333945000Y-275661000D02*
X332418000Y-275661000D01*
X183130000Y-278797000D02*
X313410000Y-278797000D01*
X313410000Y-278797000D02*
X313714000Y-278494000D01*
X317573000Y-278494000D02*
X318636000Y-279557000D01*
X313714000Y-278494000D02*
X317573000Y-278494000D01*
X43038000Y-278332000D02*
X46419300Y-281713000D01*
X334756000Y-279557000D02*
X336021000Y-278292000D01*
X318636000Y-279557000D02*
X334756000Y-279557000D01*
X336021000Y-277737000D02*
X333945000Y-275661000D01*
X336021000Y-278292000D02*
X336021000Y-277737000D01*
X179913000Y-281713000D02*
X182979000Y-278647000D01*
X46419300Y-281713000D02*
X179913000Y-281713000D01*
X182979000Y-278647000D02*
X183130000Y-278797000D01*
%TO.N,PC_EFUSE_FAULT_N*%
X42650900Y-176704000D02*
X34119200Y-176704000D01*
X34119200Y-176704000D02*
X34119200Y-176703000D01*
X43558400Y-177424000D02*
X43464400Y-177518000D01*
X43464400Y-177518000D02*
X42650900Y-176704000D01*
%TD*%
%TA.AperFunction,Conductor*%
%TO.N,LIFT_N*%
G36*
X348943039Y-84439685D02*
G01*
X348988794Y-84492489D01*
X349000000Y-84544000D01*
X349000000Y-87296000D01*
X348980315Y-87363039D01*
X348927511Y-87408794D01*
X348876000Y-87420000D01*
X348000000Y-87420000D01*
X348000000Y-89335500D01*
X347980315Y-89402539D01*
X347927511Y-89448294D01*
X347876000Y-89459500D01*
X347399982Y-89459500D01*
X347297203Y-89470000D01*
X347297202Y-89470001D01*
X347214669Y-89497349D01*
X347130667Y-89525185D01*
X347130662Y-89525187D01*
X346981342Y-89617289D01*
X346857289Y-89741342D01*
X346765187Y-89890662D01*
X346765186Y-89890665D01*
X346710001Y-90057202D01*
X346710001Y-90057203D01*
X346710000Y-90057203D01*
X346699500Y-90159982D01*
X346699500Y-91840017D01*
X346710000Y-91942796D01*
X346765185Y-92109332D01*
X346765186Y-92109335D01*
X346857288Y-92258656D01*
X346981344Y-92382712D01*
X347130665Y-92474814D01*
X347297202Y-92529999D01*
X347399990Y-92540500D01*
X347399995Y-92540500D01*
X347876000Y-92540500D01*
X347943039Y-92560185D01*
X347988794Y-92612989D01*
X348000000Y-92664500D01*
X348000000Y-116375500D01*
X347980315Y-116442539D01*
X347927511Y-116488294D01*
X347876000Y-116499500D01*
X334952129Y-116499500D01*
X334952123Y-116499501D01*
X334892516Y-116505908D01*
X334757671Y-116556202D01*
X334757668Y-116556204D01*
X334692415Y-116605053D01*
X334626951Y-116629470D01*
X334558678Y-116614618D01*
X334509272Y-116565213D01*
X334503543Y-116553238D01*
X334448697Y-116420827D01*
X334448690Y-116420814D01*
X334361089Y-116289711D01*
X334361086Y-116289707D01*
X334249592Y-116178213D01*
X334249588Y-116178210D01*
X334118485Y-116090609D01*
X334118472Y-116090602D01*
X333972801Y-116030264D01*
X333972789Y-116030261D01*
X333818145Y-115999500D01*
X333818142Y-115999500D01*
X333660458Y-115999500D01*
X333660455Y-115999500D01*
X333505810Y-116030261D01*
X333505798Y-116030264D01*
X333360127Y-116090602D01*
X333360114Y-116090609D01*
X333229011Y-116178210D01*
X333229007Y-116178213D01*
X333117513Y-116289707D01*
X333117510Y-116289711D01*
X333029909Y-116420814D01*
X333029902Y-116420827D01*
X332969564Y-116566498D01*
X332969561Y-116566510D01*
X332938800Y-116721153D01*
X332938800Y-116876000D01*
X332919115Y-116943039D01*
X332866311Y-116988794D01*
X332814800Y-117000000D01*
X325617030Y-117000000D01*
X325549991Y-116980315D01*
X325504236Y-116927511D01*
X325496657Y-116899883D01*
X325495876Y-116900068D01*
X325494092Y-116892520D01*
X325488990Y-116878842D01*
X325443796Y-116757669D01*
X325443795Y-116757668D01*
X325443793Y-116757664D01*
X325357547Y-116642455D01*
X325357544Y-116642452D01*
X325242335Y-116556206D01*
X325242328Y-116556202D01*
X325107482Y-116505908D01*
X325107483Y-116505908D01*
X325047883Y-116499501D01*
X325047881Y-116499500D01*
X325047873Y-116499500D01*
X325047864Y-116499500D01*
X314952129Y-116499500D01*
X314952123Y-116499501D01*
X314892516Y-116505908D01*
X314757671Y-116556202D01*
X314757664Y-116556206D01*
X314642455Y-116642452D01*
X314642452Y-116642455D01*
X314556206Y-116757664D01*
X314556202Y-116757671D01*
X314505908Y-116892517D01*
X314504126Y-116900062D01*
X314501994Y-116899558D01*
X314479513Y-116953816D01*
X314422117Y-116993658D01*
X314382970Y-117000000D01*
X314000000Y-117000000D01*
X314000000Y-121876000D01*
X313980315Y-121943039D01*
X313927511Y-121988794D01*
X313876000Y-122000000D01*
X306124000Y-122000000D01*
X306056961Y-121980315D01*
X306011206Y-121927511D01*
X306000000Y-121876000D01*
X306000000Y-109124000D01*
X306019685Y-109056961D01*
X306072489Y-109011206D01*
X306124000Y-109000000D01*
X340000000Y-109000000D01*
X340000000Y-86044000D01*
X340019685Y-85976961D01*
X340072489Y-85931206D01*
X340124000Y-85920000D01*
X344000000Y-85920000D01*
X344000000Y-84544000D01*
X344019685Y-84476961D01*
X344072489Y-84431206D01*
X344124000Y-84420000D01*
X348876000Y-84420000D01*
X348943039Y-84439685D01*
G37*
%TD.AperFunction*%
%TD*%
M02*
