M48
; DRILL file KiCad 10.0.6 date 2026-09-10T20:17:36
; FORMAT={-:-/ absolute / metric / decimal}
; #@! TF.CreationDate,2026-09-10T20:17:36+02:00
; #@! TF.GenerationSoftware,Kicad,Pcbnew,10.0.6
; #@! TF.FileFunction,Plated,1,4,PTH
FMAT,2
METRIC
; #@! TA.AperFunction,Plated,PTH,ComponentDrill
T1C0.200
; #@! TA.AperFunction,Plated,PTH,ViaDrill
T2C0.300
; #@! TA.AperFunction,Plated,PTH,ViaDrill
T3C0.400
; #@! TA.AperFunction,Plated,PTH,ComponentDrill
T4C1.000
; #@! TA.AperFunction,Plated,PTH,ComponentDrill
T5C1.100
; #@! TA.AperFunction,Plated,PTH,ComponentDrill
T6C1.200
; #@! TA.AperFunction,Plated,PTH,ComponentDrill
T7C1.400
; #@! TA.AperFunction,Plated,PTH,ComponentDrill
T8C1.475
; #@! TA.AperFunction,Plated,PTH,ComponentDrill
T9C3.200
%
G90
G05
T1
X320.45Y-65.78
X320.45Y-67.0
X320.45Y-68.22
X321.55Y-65.78
X321.55Y-67.0
X321.55Y-68.22
X325.1Y-276.84
X325.1Y-278.24
X325.8Y-276.14
X325.8Y-277.54
X325.8Y-278.94
X326.5Y-276.84
X326.5Y-278.24
X327.2Y-276.14
X327.2Y-277.54
X327.2Y-278.94
X327.9Y-276.84
X327.9Y-278.24
T2
X16.074Y-236.395
X19.199Y-99.477
X19.524Y-209.445
X21.022Y-209.445
X21.112Y-74.898
X21.319Y-288.982
X21.413Y-78.664
X21.508Y-115.0
X21.7Y-206.472
X22.995Y-107.532
X23.071Y-284.842
X23.405Y-99.497
X24.176Y-274.835
X24.479Y-263.716
X24.945Y-78.405
X25.204Y-63.802
X25.204Y-103.235
X25.214Y-74.44
X25.325Y-210.016
X25.4Y-40.0
X25.709Y-230.251
X26.5Y-40.0
X26.846Y-236.0
X27.1Y-78.8
X27.352Y-55.712
X27.877Y-69.849
X28.181Y-182.391
X28.628Y-172.375
X28.685Y-177.124
X28.779Y-73.271
X29.9Y-77.0
X30.883Y-113.505
X31.136Y-236.818
X31.15Y-285.8
X31.157Y-185.09
X31.157Y-217.478
X31.157Y-263.716
X31.356Y-235.369
X31.952Y-175.063
X31.952Y-177.331
X32.048Y-75.293
X33.033Y-176.787
X33.34Y-77.726
X33.5Y-40.0
X33.972Y-182.694
X34.119Y-176.703
X34.134Y-81.636
X34.134Y-86.922
X34.5Y-70.3
X34.556Y-209.127
X34.6Y-40.0
X34.674Y-274.835
X34.674Y-276.813
X35.119Y-180.774
X35.712Y-236.0
X36.411Y-177.693
X36.499Y-170.633
X36.541Y-179.99
X37.0Y-70.9
X37.111Y-262.946
X37.3Y-173.458
X37.433Y-181.337
X37.739Y-275.554
X37.925Y-212.417
X37.942Y-75.229
X39.075Y-274.676
X39.188Y-55.088
X39.188Y-70.728
X39.754Y-179.445
X39.962Y-208.929
X40.533Y-235.78
X42.011Y-274.1
X43.038Y-277.177
X43.038Y-278.332
X43.053Y-224.867
X43.065Y-167.833
X43.421Y-215.389
X43.558Y-177.424
X43.649Y-288.754
X44.0Y-86.9
X44.0Y-90.1
X45.17Y-217.478
X45.877Y-272.21
X46.042Y-236.196
X46.042Y-289.697
X46.365Y-175.707
X48.415Y-170.565
X48.978Y-175.849
X49.173Y-224.594
X49.398Y-209.445
X49.89Y-232.56
X50.45Y-277.808
X50.562Y-224.875
X51.7Y-224.95
X53.934Y-97.055
X53.934Y-99.778
X53.994Y-103.554
X54.221Y-225.425
X54.804Y-103.304
X54.973Y-271.118
X55.099Y-109.656
X55.243Y-91.785
X55.909Y-89.598
X56.856Y-224.936
X57.231Y-108.387
X57.368Y-98.344
X58.453Y-86.922
X58.498Y-224.936
X59.975Y-233.019
X59.993Y-238.204
X60.194Y-34.333
X60.194Y-57.857
X60.249Y-81.392
X60.262Y-86.922
X60.4Y-97.519
X60.926Y-200.528
X61.27Y-96.497
X61.692Y-100.098
X61.71Y-86.944
X61.8Y-91.6
X61.82Y-97.392
X62.919Y-100.409
X62.93Y-95.862
X63.008Y-113.298
X63.017Y-54.157
X64.046Y-236.32
X64.059Y-93.059
X64.871Y-95.275
X66.713Y-69.662
X66.88Y-105.414
X66.88Y-111.359
X66.962Y-49.363
X67.045Y-99.922
X67.168Y-232.256
X67.447Y-92.606
X67.743Y-97.457
X67.8Y-94.7
X68.022Y-55.244
X68.102Y-129.539
X68.666Y-99.086
X68.838Y-100.488
X69.546Y-97.271
X69.71Y-55.34
X69.857Y-234.567
X70.085Y-92.513
X70.363Y-90.352
X70.47Y-95.049
X72.322Y-185.09
X73.2Y-95.3
X73.387Y-230.719
X75.311Y-170.805
X75.705Y-175.974
X75.761Y-236.195
X76.061Y-184.597
X78.788Y-68.83
X78.788Y-96.497
X78.989Y-177.088
X79.353Y-182.366
X79.664Y-16.916
X79.664Y-42.144
X81.102Y-238.154
X81.425Y-251.057
X81.765Y-87.581
X81.765Y-177.331
X81.796Y-216.246
X82.027Y-234.936
X82.69Y-217.478
X84.276Y-182.539
X84.726Y-245.112
X84.742Y-171.008
X85.028Y-233.533
X85.875Y-176.633
X85.895Y-173.365
X87.277Y-276.742
X87.689Y-244.188
X87.805Y-215.627
X90.0Y-176.0
X90.695Y-283.752
X92.879Y-231.092
X93.022Y-274.05
X94.325Y-245.815
X94.937Y-280.453
X95.663Y-85.247
X96.23Y-233.533
X96.311Y-177.088
X96.649Y-132.165
X96.649Y-278.272
X96.723Y-217.478
X96.782Y-251.057
X96.93Y-273.913
X97.689Y-170.445
X98.718Y-174.992
X99.626Y-276.122
X99.984Y-236.328
X100.358Y-173.129
X102.603Y-251.057
X103.646Y-215.929
X104.402Y-234.0
X104.773Y-215.943
X105.546Y-274.385
X105.58Y-111.359
X105.58Y-215.328
X105.58Y-242.14
X106.267Y-78.664
X107.711Y-250.254
X108.385Y-237.691
X108.557Y-273.049
X109.267Y-233.223
X111.605Y-235.504
X111.755Y-217.478
X114.07Y-248.568
X115.975Y-40.0
X116.875Y-247.249
X117.838Y-233.223
X119.376Y-113.31
X119.801Y-129.589
X120.465Y-248.718
X121.102Y-84.415
X123.441Y-229.852
X123.451Y-100.488
X124.025Y-40.0
X124.34Y-217.478
X126.418Y-217.478
X126.418Y-230.742
X127.154Y-212.736
X127.312Y-217.239
X127.312Y-231.177
X128.95Y-210.95
X129.1Y-210.1
X129.146Y-243.158
X129.87Y-231.412
X130.204Y-246.33
X130.23Y-232.187
X130.621Y-244.287
X131.517Y-280.453
X132.93Y-250.501
X133.495Y-217.478
X135.043Y-263.375
X135.349Y-180.104
X135.349Y-249.344
X135.663Y-209.445
X135.919Y-262.686
X135.99Y-272.675
X136.114Y-217.478
X136.243Y-249.395
X136.284Y-230.197
X137.518Y-244.238
X138.355Y-233.799
X139.188Y-276.88
X140.311Y-239.168
X140.907Y-193.719
X140.907Y-245.762
X141.35Y-250.012
X144.28Y-206.472
X145.235Y-97.852
X146.5Y-86.4
X148.223Y-98.413
X148.522Y-245.112
X149.872Y-176.75
X150.0Y-90.1
X150.233Y-96.293
X151.096Y-89.617
X151.156Y-84.403
X153.21Y-102.442
X155.324Y-74.566
X155.382Y-96.286
X155.515Y-94.161
X156.187Y-191.611
X157.133Y-89.876
X157.188Y-87.175
X158.192Y-38.996
X159.047Y-103.149
X159.164Y-93.344
X159.164Y-111.359
X159.769Y-104.19
X160.033Y-94.147
X160.042Y-96.267
X160.058Y-92.267
X161.442Y-76.626
X161.563Y-185.088
X161.926Y-191.035
X162.141Y-170.805
X162.315Y-218.362
X162.365Y-81.636
X162.365Y-90.714
X162.576Y-188.992
X162.923Y-69.077
X163.077Y-92.594
X163.403Y-94.181
X163.611Y-126.886
X164.672Y-93.832
X164.97Y-90.481
X165.038Y-64.59
X165.1Y-95.25
X165.708Y-170.805
X165.94Y-97.518
X165.945Y-77.781
X167.013Y-87.662
X167.519Y-88.491
X168.0Y-183.673
X168.516Y-78.665
X168.9Y-88.7
X168.998Y-72.925
X170.0Y-91.5
X170.887Y-95.883
X171.654Y-87.732
X171.938Y-182.309
X172.419Y-95.0
X174.0Y-86.0
X174.0Y-91.8
X174.482Y-105.087
X174.794Y-22.389
X174.794Y-37.069
X174.794Y-57.075
X175.3Y-89.4
X175.3Y-95.6
X177.026Y-132.165
X177.269Y-79.384
X177.282Y-96.214
X177.282Y-99.735
X180.002Y-283.213
X182.979Y-102.442
X182.979Y-278.647
X182.979Y-194.834
X182.979Y-218.362
X184.027Y-131.339
X185.956Y-277.249
X186.066Y-216.246
X188.328Y-193.08
X188.933Y-242.14
X188.963Y-93.092
X188.963Y-94.0
X189.259Y-220.446
X189.313Y-219.206
X191.91Y-78.664
X191.936Y-191.586
X193.023Y-218.362
X194.913Y-87.252
X195.188Y-138.11
X196.892Y-91.055
X196.988Y-96.139
X197.864Y-195.071
X197.864Y-185.666
X200.826Y-188.665
X200.841Y-170.805
X203.648Y-195.161
X204.433Y-184.81
X207.754Y-193.836
X209.772Y-220.446
X210.623Y-195.523
X212.58Y-201.358
X212.748Y-184.511
X213.542Y-192.392
X214.253Y-194.583
X214.326Y-205.493
X215.51Y-279.448
X218.231Y-221.962
X218.231Y-223.212
X220.621Y-176.278
X221.679Y-182.865
X223.862Y-187.907
X224.224Y-184.812
X224.656Y-222.127
X227.649Y-187.903
X230.61Y-185.666
X231.344Y-183.173
X231.4Y-222.127
X231.4Y-225.257
X231.4Y-226.536
X234.845Y-181.727
X236.564Y-265.918
X246.284Y-257.744
X248.471Y-221.334
X251.968Y-182.694
X254.663Y-97.255
X259.732Y-89.147
X260.696Y-88.553
X263.096Y-88.083
X263.318Y-99.47
X264.097Y-97.9
X264.329Y-242.983
X266.127Y-45.968
X266.127Y-71.499
X266.127Y-97.943
X266.774Y-239.168
X266.819Y-84.608
X267.51Y-101.828
X269.31Y-245.425
X269.31Y-40.024
X269.75Y-74.242
X270.324Y-84.092
X270.447Y-242.988
X270.766Y-241.234
X270.784Y-79.428
X271.901Y-182.559
X272.203Y-74.89
X272.286Y-239.168
X272.955Y-204.01
X273.124Y-72.839
X273.206Y-84.85
X273.238Y-65.871
X273.662Y-87.581
X275.263Y-31.107
X275.263Y-101.342
X275.62Y-242.14
X275.734Y-66.572
X275.773Y-69.877
X276.409Y-72.007
X278.013Y-248.085
X278.025Y-63.802
X278.24Y-186.386
X278.24Y-197.029
X279.869Y-245.112
X280.866Y-78.664
X281.37Y-67.724
X281.484Y-39.145
X281.716Y-251.057
X282.066Y-83.838
X282.078Y-189.445
X282.078Y-199.087
X282.153Y-70.935
X282.153Y-72.321
X283.277Y-239.961
X283.304Y-74.106
X283.502Y-193.349
X283.805Y-30.735
X284.037Y-270.964
X284.194Y-51.913
X284.194Y-87.581
X284.194Y-188.666
X284.41Y-272.409
X284.692Y-265.061
X285.004Y-24.844
X286.223Y-268.276
X286.294Y-194.58
X286.503Y-239.915
X287.171Y-60.821
X287.254Y-194.444
X287.53Y-28.101
X287.555Y-23.549
X287.767Y-259.974
X288.007Y-203.856
X288.055Y-191.193
X288.07Y-43.722
X289.413Y-243.764
X290.148Y-69.247
X290.148Y-82.275
X290.148Y-87.581
X290.148Y-141.082
X290.148Y-185.666
X290.148Y-248.085
X290.148Y-277.979
X290.172Y-75.718
X290.6Y-269.599
X290.756Y-197.571
X290.832Y-194.187
X291.031Y-36.798
X291.134Y-198.456
X291.18Y-268.127
X291.994Y-275.364
X292.798Y-194.079
X293.125Y-278.044
X293.607Y-272.275
X294.227Y-87.581
X296.202Y-195.569
X296.902Y-269.302
X297.453Y-24.543
X297.655Y-242.743
X297.878Y-42.95
X298.945Y-188.665
X299.078Y-273.935
X299.079Y-270.577
X299.82Y-193.796
X301.07Y-89.583
X301.136Y-190.968
X302.033Y-69.747
X302.055Y-111.359
X302.122Y-200.528
X302.485Y-102.442
X302.497Y-197.556
X302.747Y-26.122
X304.238Y-189.405
X304.238Y-271.863
X304.921Y-93.525
X305.032Y-276.691
X305.032Y-138.11
X305.826Y-272.52
X306.224Y-203.5
X307.423Y-105.5
X307.983Y-92.193
X308.009Y-66.406
X308.009Y-243.4
X308.803Y-183.487
X310.036Y-268.439
X310.986Y-262.686
X310.986Y-72.719
X313.887Y-70.079
X313.887Y-84.608
X313.963Y-40.024
X313.963Y-279.096
X313.963Y-283.752
X314.098Y-269.574
X314.151Y-45.968
X314.791Y-282.925
X314.97Y-275.222
X314.987Y-263.055
X315.974Y-15.28
X316.94Y-102.442
X316.94Y-176.749
X316.94Y-259.823
X317.502Y-269.683
X317.508Y-285.788
X317.565Y-90.456
X317.714Y-268.777
X317.714Y-272.035
X317.714Y-280.153
X317.74Y-60.83
X319.146Y-56.213
X319.917Y-63.802
X320.528Y-45.968
X320.998Y-256.1
X322.894Y-182.694
X322.894Y-265.061
X323.644Y-266.221
X325.589Y-65.179
X325.871Y-39.769
X325.871Y-224.306
X326.157Y-265.346
X326.722Y-266.198
X326.803Y-61.708
X328.053Y-206.472
X328.848Y-200.528
X329.182Y-278.018
X329.555Y-22.893
X330.082Y-274.206
X331.349Y-274.627
X331.668Y-285.994
X331.824Y-251.057
X331.824Y-188.639
X332.418Y-275.661
X333.739Y-116.8
X334.801Y-13.273
X334.801Y-107.45
X334.801Y-135.137
X335.204Y-280.494
X335.393Y-278.057
X337.238Y-162.948
X337.419Y-274.835
X337.554Y-162.145
X337.778Y-49.0
X338.684Y-284.144
X340.664Y-277.087
X340.755Y-51.913
X352.663Y-48.941
T3
X13.1Y-227.4
X13.1Y-228.5
X13.1Y-229.6
X14.2Y-227.4
X14.2Y-228.5
X14.2Y-229.6
X15.3Y-227.4
X15.3Y-228.5
X15.3Y-229.6
X20.0Y-122.0
X20.0Y-124.0
X20.0Y-126.0
X20.0Y-128.0
X22.0Y-114.0
X22.0Y-116.0
X22.0Y-118.0
X22.0Y-120.0
X22.0Y-122.0
X22.0Y-124.0
X22.0Y-126.0
X22.0Y-128.0
X24.0Y-116.0
X24.0Y-118.0
X24.0Y-120.0
X24.0Y-122.0
X24.0Y-124.0
X24.0Y-126.0
X26.0Y-116.0
X28.0Y-116.0
X30.0Y-116.0
X32.0Y-114.0
X32.0Y-116.0
X32.0Y-128.0
X34.0Y-114.0
X34.0Y-116.0
X34.0Y-128.0
X36.0Y-114.0
X36.0Y-116.0
X36.0Y-128.0
X38.0Y-114.0
X38.0Y-116.0
X38.0Y-128.0
X40.0Y-26.0
X40.0Y-28.0
X40.0Y-30.0
X40.0Y-32.0
X40.0Y-34.0
X40.0Y-36.0
X40.0Y-38.0
X40.0Y-40.0
X40.0Y-42.0
X40.0Y-44.0
X40.0Y-46.0
X40.0Y-48.0
X40.0Y-50.0
X40.0Y-52.0
X40.0Y-54.0
X40.0Y-56.0
X40.0Y-58.0
X40.0Y-60.0
X40.0Y-62.0
X40.0Y-64.0
X40.0Y-66.0
X40.0Y-68.0
X40.0Y-70.0
X40.0Y-72.0
X40.0Y-84.0
X40.0Y-114.0
X40.0Y-116.0
X40.0Y-128.0
X42.0Y-26.0
X42.0Y-28.0
X42.0Y-30.0
X42.0Y-32.0
X42.0Y-34.0
X42.0Y-36.0
X42.0Y-38.0
X42.0Y-40.0
X42.0Y-42.0
X42.0Y-44.0
X42.0Y-46.0
X42.0Y-48.0
X42.0Y-50.0
X42.0Y-52.0
X42.0Y-54.0
X42.0Y-56.0
X42.0Y-58.0
X42.0Y-60.0
X42.0Y-62.0
X42.0Y-64.0
X42.0Y-66.0
X42.0Y-68.0
X42.0Y-70.0
X42.0Y-72.0
X42.0Y-84.0
X42.0Y-114.0
X42.0Y-116.0
X42.0Y-128.0
X43.2Y-172.8
X43.2Y-173.8
X43.2Y-174.8
X44.0Y-26.0
X44.0Y-28.0
X44.0Y-30.0
X44.0Y-32.0
X44.0Y-34.0
X44.0Y-36.0
X44.0Y-38.0
X44.0Y-40.0
X44.0Y-42.0
X44.0Y-44.0
X44.0Y-46.0
X44.0Y-48.0
X44.0Y-50.0
X44.0Y-52.0
X44.0Y-54.0
X44.0Y-56.0
X44.0Y-58.0
X44.0Y-60.0
X44.0Y-62.0
X44.0Y-64.0
X44.0Y-66.0
X44.0Y-68.0
X44.0Y-70.0
X44.0Y-72.0
X44.0Y-84.0
X44.0Y-114.0
X44.0Y-116.0
X44.0Y-128.0
X44.3Y-174.8
X46.0Y-26.0
X46.0Y-28.0
X46.0Y-30.0
X46.0Y-32.0
X46.0Y-34.0
X46.0Y-36.0
X46.0Y-38.0
X46.0Y-40.0
X46.0Y-42.0
X46.0Y-44.0
X46.0Y-46.0
X46.0Y-48.0
X46.0Y-50.0
X46.0Y-52.0
X46.0Y-54.0
X46.0Y-56.0
X46.0Y-58.0
X46.0Y-60.0
X46.0Y-62.0
X46.0Y-64.0
X46.0Y-66.0
X46.0Y-68.0
X46.0Y-70.0
X46.0Y-72.0
X46.0Y-84.0
X46.0Y-114.0
X46.0Y-116.0
X46.0Y-118.0
X46.0Y-120.0
X46.0Y-122.0
X46.0Y-124.0
X46.0Y-126.0
X46.0Y-128.0
X48.0Y-16.0
X48.0Y-18.0
X48.0Y-32.0
X48.0Y-34.0
X48.0Y-36.0
X48.0Y-38.0
X48.0Y-40.0
X48.0Y-42.0
X48.0Y-58.0
X48.0Y-60.0
X48.0Y-62.0
X48.0Y-64.0
X48.0Y-66.0
X48.0Y-68.0
X48.0Y-82.0
X48.0Y-84.0
X48.0Y-114.0
X48.0Y-116.0
X48.0Y-118.0
X48.0Y-120.0
X48.0Y-122.0
X48.0Y-124.0
X48.0Y-126.0
X48.0Y-128.0
X50.0Y-114.0
X50.0Y-116.0
X50.0Y-118.0
X50.0Y-120.0
X50.0Y-122.0
X50.0Y-124.0
X50.0Y-126.0
X50.0Y-128.0
X52.0Y-114.0
X52.0Y-116.0
X52.0Y-118.0
X52.0Y-120.0
X52.0Y-122.0
X52.0Y-124.0
X52.0Y-126.0
X52.0Y-128.0
X54.0Y-114.0
X54.0Y-116.0
X54.0Y-118.0
X54.0Y-120.0
X54.0Y-122.0
X54.0Y-124.0
X54.0Y-126.0
X54.0Y-128.0
X56.0Y-114.0
X56.0Y-116.0
X56.0Y-128.0
X58.0Y-114.0
X58.0Y-116.0
X58.9Y-142.45
X58.9Y-143.55
X58.9Y-162.45
X58.9Y-163.55
X60.0Y-114.0
X60.0Y-116.0
X60.0Y-142.45
X60.0Y-143.55
X60.0Y-162.45
X60.0Y-163.55
X61.1Y-142.45
X61.1Y-143.55
X61.1Y-162.45
X61.1Y-163.55
X62.0Y-114.0
X62.0Y-116.0
X64.0Y-114.0
X64.0Y-116.0
X64.0Y-128.0
X66.0Y-16.0
X66.0Y-18.0
X66.0Y-20.0
X66.0Y-36.0
X66.0Y-38.0
X66.0Y-40.0
X66.0Y-42.0
X66.0Y-44.0
X66.0Y-46.0
X66.0Y-48.0
X66.0Y-50.0
X66.0Y-52.0
X66.0Y-54.0
X66.0Y-56.0
X66.0Y-62.0
X66.0Y-64.0
X66.0Y-66.0
X66.0Y-68.0
X66.0Y-80.0
X66.0Y-114.0
X66.0Y-116.0
X66.0Y-128.0
X68.0Y-16.0
X68.0Y-18.0
X68.0Y-20.0
X68.0Y-32.0
X68.0Y-34.0
X68.0Y-36.0
X68.0Y-38.0
X68.0Y-40.0
X68.0Y-42.0
X68.0Y-44.0
X68.0Y-46.0
X68.0Y-60.0
X68.0Y-62.0
X68.0Y-64.0
X68.0Y-66.0
X68.0Y-68.0
X68.0Y-80.0
X68.0Y-82.0
X68.0Y-84.0
X68.0Y-114.0
X68.0Y-116.0
X68.0Y-128.0
X70.0Y-16.0
X70.0Y-18.0
X70.0Y-20.0
X70.0Y-32.0
X70.0Y-34.0
X70.0Y-36.0
X70.0Y-38.0
X70.0Y-40.0
X70.0Y-42.0
X70.0Y-44.0
X70.0Y-46.0
X70.0Y-48.0
X70.0Y-50.0
X70.0Y-52.0
X70.0Y-60.0
X70.0Y-62.0
X70.0Y-64.0
X70.0Y-66.0
X70.0Y-68.0
X70.0Y-80.0
X70.0Y-82.0
X70.0Y-84.0
X70.0Y-114.0
X70.0Y-116.0
X70.0Y-128.0
X72.0Y-16.0
X72.0Y-18.0
X72.0Y-20.0
X72.0Y-32.0
X72.0Y-34.0
X72.0Y-36.0
X72.0Y-38.0
X72.0Y-40.0
X72.0Y-42.0
X72.0Y-44.0
X72.0Y-46.0
X72.0Y-48.0
X72.0Y-50.0
X72.0Y-52.0
X72.0Y-54.0
X72.0Y-56.0
X72.0Y-58.0
X72.0Y-60.0
X72.0Y-62.0
X72.0Y-64.0
X72.0Y-66.0
X72.0Y-68.0
X72.0Y-80.0
X72.0Y-82.0
X72.0Y-84.0
X72.0Y-114.0
X72.0Y-116.0
X72.0Y-128.0
X74.0Y-20.0
X74.0Y-32.0
X74.0Y-34.0
X74.0Y-36.0
X74.0Y-38.0
X74.0Y-44.0
X74.0Y-46.0
X74.0Y-48.0
X74.0Y-50.0
X74.0Y-52.0
X74.0Y-54.0
X74.0Y-56.0
X74.0Y-58.0
X74.0Y-60.0
X74.0Y-62.0
X74.0Y-64.0
X74.0Y-80.0
X74.0Y-82.0
X74.0Y-84.0
X74.0Y-114.0
X74.0Y-116.0
X74.0Y-128.0
X76.0Y-114.0
X76.0Y-116.0
X76.0Y-118.0
X76.0Y-120.0
X76.0Y-122.0
X76.0Y-124.0
X76.0Y-126.0
X76.0Y-128.0
X78.0Y-114.0
X78.0Y-116.0
X78.0Y-118.0
X78.0Y-120.0
X78.0Y-122.0
X78.0Y-124.0
X78.0Y-126.0
X78.0Y-128.0
X80.0Y-114.0
X80.0Y-116.0
X80.0Y-118.0
X80.0Y-120.0
X80.0Y-122.0
X80.0Y-124.0
X80.0Y-126.0
X80.0Y-128.0
X82.0Y-114.0
X82.0Y-116.0
X82.0Y-118.0
X82.0Y-120.0
X82.0Y-122.0
X82.0Y-124.0
X82.0Y-126.0
X82.0Y-128.0
X84.0Y-114.0
X84.0Y-116.0
X84.0Y-118.0
X84.0Y-120.0
X84.0Y-122.0
X84.0Y-124.0
X84.0Y-126.0
X84.0Y-128.0
X86.0Y-114.0
X86.0Y-116.0
X88.0Y-114.0
X88.0Y-116.0
X88.9Y-137.9
X88.9Y-139.0
X88.9Y-140.1
X90.0Y-114.0
X90.0Y-116.0
X90.0Y-137.9
X90.0Y-139.0
X90.0Y-140.1
X91.1Y-137.9
X91.1Y-139.0
X91.1Y-140.1
X92.0Y-114.0
X92.0Y-116.0
X93.2Y-172.8
X93.2Y-173.8
X93.2Y-174.8
X94.0Y-114.0
X94.0Y-116.0
X94.3Y-174.8
X96.0Y-16.0
X96.0Y-18.0
X96.0Y-20.0
X96.0Y-30.0
X96.0Y-32.0
X96.0Y-34.0
X96.0Y-36.0
X96.0Y-38.0
X96.0Y-40.0
X96.0Y-42.0
X96.0Y-44.0
X96.0Y-46.0
X96.0Y-48.0
X96.0Y-50.0
X96.0Y-60.0
X96.0Y-62.0
X96.0Y-64.0
X96.0Y-66.0
X96.0Y-68.0
X96.0Y-70.0
X96.0Y-72.0
X96.0Y-74.0
X96.0Y-76.0
X96.0Y-78.0
X96.0Y-80.0
X96.0Y-82.0
X96.0Y-84.0
X96.0Y-114.0
X96.0Y-116.0
X96.0Y-128.0
X98.0Y-16.0
X98.0Y-18.0
X98.0Y-20.0
X98.0Y-30.0
X98.0Y-32.0
X98.0Y-34.0
X98.0Y-36.0
X98.0Y-38.0
X98.0Y-40.0
X98.0Y-42.0
X98.0Y-44.0
X98.0Y-46.0
X98.0Y-48.0
X98.0Y-50.0
X98.0Y-60.0
X98.0Y-62.0
X98.0Y-64.0
X98.0Y-66.0
X98.0Y-68.0
X98.0Y-70.0
X98.0Y-72.0
X98.0Y-74.0
X98.0Y-76.0
X98.0Y-78.0
X98.0Y-80.0
X98.0Y-82.0
X98.0Y-84.0
X98.0Y-114.0
X98.0Y-116.0
X98.0Y-128.0
X100.0Y-16.0
X100.0Y-18.0
X100.0Y-20.0
X100.0Y-30.0
X100.0Y-32.0
X100.0Y-34.0
X100.0Y-36.0
X100.0Y-38.0
X100.0Y-40.0
X100.0Y-42.0
X100.0Y-44.0
X100.0Y-46.0
X100.0Y-48.0
X100.0Y-50.0
X100.0Y-60.0
X100.0Y-62.0
X100.0Y-64.0
X100.0Y-66.0
X100.0Y-68.0
X100.0Y-70.0
X100.0Y-72.0
X100.0Y-74.0
X100.0Y-84.0
X100.0Y-114.0
X100.0Y-116.0
X100.0Y-128.0
X102.0Y-16.0
X102.0Y-18.0
X102.0Y-20.0
X102.0Y-30.0
X102.0Y-32.0
X102.0Y-34.0
X102.0Y-36.0
X102.0Y-38.0
X102.0Y-40.0
X102.0Y-42.0
X102.0Y-44.0
X102.0Y-46.0
X102.0Y-48.0
X102.0Y-50.0
X102.0Y-60.0
X102.0Y-62.0
X102.0Y-64.0
X102.0Y-66.0
X102.0Y-68.0
X102.0Y-70.0
X102.0Y-72.0
X102.0Y-74.0
X102.0Y-84.0
X102.0Y-114.0
X102.0Y-116.0
X102.0Y-128.0
X104.0Y-16.0
X104.0Y-18.0
X104.0Y-20.0
X104.0Y-30.0
X104.0Y-32.0
X104.0Y-34.0
X104.0Y-36.0
X104.0Y-38.0
X104.0Y-40.0
X104.0Y-42.0
X104.0Y-44.0
X104.0Y-46.0
X104.0Y-48.0
X104.0Y-50.0
X104.0Y-60.0
X104.0Y-62.0
X104.0Y-64.0
X104.0Y-66.0
X104.0Y-68.0
X104.0Y-70.0
X104.0Y-72.0
X104.0Y-74.0
X104.0Y-84.0
X104.0Y-114.0
X104.0Y-116.0
X104.0Y-128.0
X106.0Y-16.0
X106.0Y-18.0
X106.0Y-20.0
X106.0Y-22.0
X106.0Y-24.0
X106.0Y-26.0
X106.0Y-28.0
X106.0Y-30.0
X106.0Y-32.0
X106.0Y-34.0
X106.0Y-36.0
X106.0Y-38.0
X106.0Y-40.0
X106.0Y-42.0
X106.0Y-44.0
X106.0Y-46.0
X106.0Y-48.0
X106.0Y-50.0
X106.0Y-52.0
X106.0Y-54.0
X106.0Y-56.0
X106.0Y-58.0
X106.0Y-60.0
X106.0Y-62.0
X106.0Y-64.0
X106.0Y-66.0
X106.0Y-68.0
X106.0Y-70.0
X106.0Y-72.0
X106.0Y-74.0
X106.0Y-84.0
X106.0Y-114.0
X106.0Y-116.0
X106.0Y-118.0
X106.0Y-120.0
X106.0Y-122.0
X106.0Y-124.0
X106.0Y-126.0
X106.0Y-128.0
X108.0Y-16.0
X108.0Y-18.0
X108.0Y-20.0
X108.0Y-22.0
X108.0Y-24.0
X108.0Y-26.0
X108.0Y-28.0
X108.0Y-30.0
X108.0Y-32.0
X108.0Y-34.0
X108.0Y-36.0
X108.0Y-38.0
X108.0Y-40.0
X108.0Y-42.0
X108.0Y-44.0
X108.0Y-46.0
X108.0Y-48.0
X108.0Y-50.0
X108.0Y-52.0
X108.0Y-54.0
X108.0Y-56.0
X108.0Y-58.0
X108.0Y-60.0
X108.0Y-62.0
X108.0Y-64.0
X108.0Y-66.0
X108.0Y-68.0
X108.0Y-70.0
X108.0Y-72.0
X108.0Y-74.0
X108.0Y-76.0
X108.0Y-78.0
X108.0Y-80.0
X108.0Y-82.0
X108.0Y-84.0
X114.0Y-114.0
X114.0Y-116.0
X114.0Y-118.0
X114.0Y-120.0
X114.0Y-122.0
X114.0Y-124.0
X114.0Y-126.0
X114.0Y-128.0
X116.0Y-114.0
X116.0Y-116.0
X116.0Y-118.0
X116.0Y-120.0
X116.0Y-122.0
X116.0Y-124.0
X116.0Y-126.0
X116.0Y-128.0
X118.0Y-114.0
X118.0Y-116.0
X118.0Y-118.0
X118.0Y-120.0
X118.0Y-122.0
X118.0Y-124.0
X118.0Y-126.0
X118.0Y-128.0
X120.0Y-114.0
X120.0Y-116.0
X120.0Y-118.0
X120.0Y-120.0
X120.0Y-122.0
X120.0Y-124.0
X120.0Y-126.0
X122.0Y-114.0
X122.0Y-116.0
X122.0Y-118.0
X122.0Y-120.0
X122.0Y-122.0
X122.0Y-124.0
X122.0Y-126.0
X122.0Y-128.0
X124.0Y-114.0
X124.0Y-116.0
X124.0Y-118.0
X124.0Y-120.0
X124.0Y-122.0
X124.0Y-124.0
X124.0Y-126.0
X124.0Y-128.0
X126.0Y-114.0
X126.0Y-116.0
X126.0Y-118.0
X126.0Y-120.0
X126.0Y-122.0
X126.0Y-124.0
X126.0Y-126.0
X126.0Y-128.0
X128.0Y-114.0
X128.0Y-116.0
X128.0Y-118.0
X128.0Y-120.0
X128.0Y-122.0
X128.0Y-124.0
X128.0Y-126.0
X128.0Y-128.0
X130.0Y-114.0
X130.0Y-116.0
X130.0Y-118.0
X130.0Y-120.0
X130.0Y-122.0
X130.0Y-124.0
X130.0Y-126.0
X130.0Y-128.0
X132.0Y-20.0
X132.0Y-30.0
X132.0Y-32.0
X132.0Y-34.0
X132.0Y-36.0
X132.0Y-38.0
X132.0Y-40.0
X132.0Y-42.0
X132.0Y-44.0
X132.0Y-46.0
X132.0Y-48.0
X132.0Y-50.0
X132.0Y-52.0
X132.0Y-54.0
X132.0Y-56.0
X132.0Y-58.0
X132.0Y-60.0
X132.0Y-70.0
X132.0Y-72.0
X132.0Y-74.0
X132.0Y-76.0
X132.0Y-78.0
X132.0Y-114.0
X132.0Y-116.0
X132.0Y-118.0
X132.0Y-120.0
X132.0Y-122.0
X132.0Y-124.0
X132.0Y-126.0
X132.0Y-128.0
X134.0Y-20.0
X134.0Y-30.0
X134.0Y-32.0
X134.0Y-34.0
X134.0Y-36.0
X134.0Y-38.0
X134.0Y-40.0
X134.0Y-42.0
X134.0Y-44.0
X134.0Y-46.0
X134.0Y-48.0
X134.0Y-50.0
X134.0Y-52.0
X134.0Y-54.0
X134.0Y-56.0
X134.0Y-58.0
X134.0Y-60.0
X134.0Y-70.0
X134.0Y-72.0
X134.0Y-74.0
X134.0Y-76.0
X134.0Y-78.0
X134.0Y-114.0
X134.0Y-116.0
X134.0Y-118.0
X134.0Y-120.0
X134.0Y-122.0
X134.0Y-124.0
X134.0Y-126.0
X134.0Y-128.0
X136.0Y-20.0
X136.0Y-30.0
X136.0Y-32.0
X136.0Y-34.0
X136.0Y-36.0
X136.0Y-38.0
X136.0Y-40.0
X136.0Y-42.0
X136.0Y-44.0
X136.0Y-46.0
X136.0Y-48.0
X136.0Y-50.0
X136.0Y-52.0
X136.0Y-54.0
X136.0Y-56.0
X136.0Y-58.0
X136.0Y-60.0
X136.0Y-70.0
X136.0Y-72.0
X136.0Y-74.0
X136.0Y-76.0
X136.0Y-78.0
X136.0Y-114.0
X136.0Y-116.0
X136.0Y-118.0
X136.0Y-120.0
X136.0Y-122.0
X136.0Y-124.0
X136.0Y-126.0
X136.0Y-128.0
X136.9Y-253.45
X136.9Y-254.55
X138.0Y-20.0
X138.0Y-30.0
X138.0Y-32.0
X138.0Y-34.0
X138.0Y-36.0
X138.0Y-38.0
X138.0Y-40.0
X138.0Y-42.0
X138.0Y-44.0
X138.0Y-46.0
X138.0Y-48.0
X138.0Y-50.0
X138.0Y-52.0
X138.0Y-54.0
X138.0Y-56.0
X138.0Y-58.0
X138.0Y-60.0
X138.0Y-70.0
X138.0Y-72.0
X138.0Y-74.0
X138.0Y-76.0
X138.0Y-78.0
X138.0Y-114.0
X138.0Y-116.0
X138.0Y-118.0
X138.0Y-120.0
X138.0Y-122.0
X138.0Y-124.0
X138.0Y-126.0
X138.0Y-128.0
X138.0Y-253.45
X138.0Y-254.55
X139.1Y-253.45
X139.1Y-254.55
X140.0Y-20.0
X140.0Y-22.0
X140.0Y-24.0
X140.0Y-26.0
X140.0Y-28.0
X140.0Y-30.0
X140.0Y-32.0
X140.0Y-34.0
X140.0Y-36.0
X140.0Y-38.0
X140.0Y-40.0
X140.0Y-42.0
X140.0Y-44.0
X140.0Y-46.0
X140.0Y-48.0
X140.0Y-50.0
X140.0Y-52.0
X140.0Y-54.0
X140.0Y-56.0
X140.0Y-58.0
X140.0Y-60.0
X140.0Y-62.0
X140.0Y-64.0
X140.0Y-66.0
X140.0Y-68.0
X140.0Y-70.0
X140.0Y-72.0
X140.0Y-74.0
X140.0Y-76.0
X140.0Y-78.0
X140.0Y-114.0
X140.0Y-116.0
X140.0Y-118.0
X140.0Y-120.0
X140.0Y-122.0
X140.0Y-124.0
X140.0Y-126.0
X140.0Y-128.0
X142.0Y-20.0
X142.0Y-22.0
X142.0Y-24.0
X142.0Y-26.0
X142.0Y-28.0
X142.0Y-30.0
X142.0Y-32.0
X142.0Y-34.0
X142.0Y-36.0
X142.0Y-38.0
X142.0Y-40.0
X142.0Y-42.0
X142.0Y-44.0
X142.0Y-46.0
X142.0Y-48.0
X142.0Y-50.0
X142.0Y-52.0
X142.0Y-54.0
X142.0Y-56.0
X142.0Y-58.0
X142.0Y-60.0
X142.0Y-62.0
X142.0Y-64.0
X142.0Y-66.0
X142.0Y-68.0
X142.0Y-70.0
X142.0Y-72.0
X142.0Y-74.0
X142.0Y-76.0
X142.0Y-78.0
X142.0Y-114.0
X142.0Y-116.0
X142.0Y-118.0
X142.0Y-120.0
X142.0Y-122.0
X142.0Y-124.0
X142.0Y-126.0
X142.0Y-128.0
X144.0Y-114.0
X144.0Y-116.0
X144.0Y-118.0
X144.0Y-120.0
X144.0Y-122.0
X144.0Y-124.0
X144.0Y-126.0
X144.0Y-128.0
X146.0Y-114.0
X146.0Y-116.0
X146.0Y-118.0
X146.0Y-120.0
X146.0Y-122.0
X146.0Y-124.0
X146.0Y-126.0
X146.0Y-128.0
X148.0Y-114.0
X148.0Y-116.0
X148.0Y-118.0
X148.0Y-120.0
X148.0Y-122.0
X148.0Y-124.0
X148.0Y-126.0
X148.0Y-128.0
X150.0Y-114.0
X150.0Y-116.0
X150.0Y-118.0
X150.0Y-120.0
X150.0Y-122.0
X150.0Y-124.0
X150.0Y-126.0
X150.0Y-128.0
X150.9Y-253.45
X150.9Y-254.55
X152.0Y-114.0
X152.0Y-116.0
X152.0Y-118.0
X152.0Y-120.0
X152.0Y-122.0
X152.0Y-124.0
X152.0Y-126.0
X152.0Y-128.0
X152.0Y-253.45
X152.0Y-254.55
X153.1Y-253.45
X153.1Y-254.55
X154.0Y-114.0
X154.0Y-116.0
X154.0Y-118.0
X154.0Y-120.0
X154.0Y-122.0
X154.0Y-124.0
X154.0Y-126.0
X154.0Y-128.0
X156.0Y-114.0
X156.0Y-116.0
X156.0Y-118.0
X156.0Y-120.0
X156.0Y-122.0
X156.0Y-124.0
X156.0Y-126.0
X156.0Y-128.0
X158.0Y-114.0
X158.0Y-116.0
X158.0Y-118.0
X158.0Y-120.0
X158.0Y-122.0
X158.0Y-124.0
X158.0Y-126.0
X158.0Y-128.0
X160.0Y-20.0
X160.0Y-22.0
X160.0Y-24.0
X160.0Y-26.0
X160.0Y-28.0
X160.0Y-30.0
X160.0Y-32.0
X160.0Y-34.0
X160.0Y-36.0
X160.0Y-42.0
X160.0Y-44.0
X160.0Y-46.0
X160.0Y-48.0
X160.0Y-50.0
X160.0Y-52.0
X160.0Y-54.0
X160.0Y-56.0
X160.0Y-58.0
X160.0Y-60.0
X160.0Y-62.0
X160.0Y-64.0
X160.0Y-66.0
X160.0Y-68.0
X160.0Y-70.0
X160.0Y-76.0
X160.0Y-78.0
X160.0Y-114.0
X160.0Y-116.0
X160.0Y-118.0
X160.0Y-120.0
X160.0Y-122.0
X160.0Y-124.0
X160.0Y-126.0
X160.0Y-128.0
X162.0Y-20.0
X162.0Y-22.0
X162.0Y-34.0
X162.0Y-36.0
X162.0Y-38.0
X162.0Y-40.0
X162.0Y-42.0
X162.0Y-54.0
X162.0Y-56.0
X162.0Y-58.0
X162.0Y-60.0
X162.0Y-62.0
X162.0Y-64.0
X162.0Y-66.0
X162.0Y-68.0
X162.0Y-70.0
X162.0Y-72.0
X162.0Y-78.0
X162.0Y-114.0
X162.0Y-116.0
X162.0Y-118.0
X162.0Y-120.0
X162.0Y-122.0
X162.0Y-124.0
X162.0Y-126.0
X162.0Y-128.0
X164.0Y-20.0
X164.0Y-22.0
X164.0Y-34.0
X164.0Y-36.0
X164.0Y-38.0
X164.0Y-40.0
X164.0Y-42.0
X164.0Y-54.0
X164.0Y-56.0
X164.0Y-58.0
X164.0Y-60.0
X164.0Y-62.0
X164.0Y-68.0
X164.0Y-70.0
X164.0Y-72.0
X164.0Y-114.0
X164.0Y-116.0
X164.0Y-118.0
X164.0Y-120.0
X164.0Y-122.0
X164.0Y-124.0
X164.0Y-126.0
X164.0Y-128.0
X166.0Y-20.0
X166.0Y-22.0
X166.0Y-34.0
X166.0Y-36.0
X166.0Y-38.0
X166.0Y-40.0
X166.0Y-42.0
X166.0Y-54.0
X166.0Y-56.0
X166.0Y-58.0
X166.0Y-60.0
X166.0Y-62.0
X166.0Y-64.0
X166.0Y-66.0
X166.0Y-68.0
X166.0Y-70.0
X166.0Y-72.0
X166.0Y-114.0
X166.0Y-116.0
X166.0Y-118.0
X166.0Y-120.0
X166.0Y-122.0
X166.0Y-124.0
X166.0Y-126.0
X166.0Y-128.0
X168.0Y-20.0
X168.0Y-22.0
X168.0Y-34.0
X168.0Y-36.0
X168.0Y-38.0
X168.0Y-40.0
X168.0Y-42.0
X168.0Y-54.0
X168.0Y-56.0
X168.0Y-58.0
X168.0Y-60.0
X168.0Y-62.0
X168.0Y-64.0
X168.0Y-66.0
X168.0Y-68.0
X168.0Y-74.0
X168.0Y-76.0
X168.0Y-114.0
X168.0Y-116.0
X168.0Y-118.0
X168.0Y-120.0
X168.0Y-122.0
X168.0Y-124.0
X168.0Y-126.0
X168.0Y-128.0
X170.0Y-24.0
X170.0Y-26.0
X170.0Y-28.0
X170.0Y-30.0
X170.0Y-32.0
X170.0Y-34.0
X170.0Y-36.0
X170.0Y-38.0
X170.0Y-40.0
X170.0Y-42.0
X170.0Y-44.0
X170.0Y-46.0
X170.0Y-48.0
X170.0Y-50.0
X170.0Y-52.0
X170.0Y-54.0
X170.0Y-60.0
X170.0Y-62.0
X170.0Y-64.0
X170.0Y-66.0
X170.0Y-68.0
X170.0Y-74.0
X170.0Y-76.0
X170.0Y-78.0
X170.0Y-114.0
X170.0Y-116.0
X170.0Y-118.0
X170.0Y-120.0
X170.0Y-122.0
X170.0Y-124.0
X170.0Y-126.0
X170.0Y-128.0
X172.0Y-114.0
X172.0Y-116.0
X172.0Y-118.0
X172.0Y-120.0
X172.0Y-122.0
X172.0Y-124.0
X172.0Y-126.0
X172.0Y-128.0
X174.0Y-114.0
X174.0Y-116.0
X174.0Y-118.0
X174.0Y-120.0
X174.0Y-122.0
X174.0Y-124.0
X174.0Y-126.0
X174.0Y-128.0
X176.0Y-114.0
X176.0Y-116.0
X176.0Y-118.0
X176.0Y-120.0
X176.0Y-122.0
X176.0Y-124.0
X176.0Y-126.0
X176.0Y-128.0
X178.0Y-114.0
X178.0Y-116.0
X178.0Y-118.0
X178.0Y-120.0
X178.0Y-122.0
X178.0Y-124.0
X178.0Y-126.0
X178.0Y-128.0
X180.0Y-114.0
X180.0Y-116.0
X180.0Y-118.0
X180.0Y-120.0
X180.0Y-122.0
X180.0Y-124.0
X180.0Y-126.0
X180.0Y-128.0
X182.0Y-114.0
X182.0Y-116.0
X182.0Y-118.0
X182.0Y-120.0
X182.0Y-122.0
X182.0Y-124.0
X182.0Y-126.0
X182.0Y-128.0
X184.0Y-114.0
X184.0Y-116.0
X184.0Y-118.0
X184.0Y-120.0
X184.0Y-122.0
X184.0Y-124.0
X184.0Y-126.0
X184.0Y-128.0
X186.0Y-114.0
X186.0Y-116.0
X186.0Y-118.0
X186.0Y-120.0
X186.0Y-122.0
X186.0Y-124.0
X186.0Y-126.0
X186.0Y-128.0
X188.0Y-114.0
X188.0Y-116.0
X188.0Y-118.0
X188.0Y-120.0
X188.0Y-122.0
X188.0Y-124.0
X188.0Y-126.0
X188.0Y-128.0
X190.0Y-114.0
X190.0Y-116.0
X190.0Y-118.0
X190.0Y-120.0
X190.0Y-122.0
X190.0Y-124.0
X190.0Y-126.0
X190.0Y-128.0
X192.0Y-114.0
X192.0Y-116.0
X192.0Y-118.0
X192.0Y-120.0
X192.0Y-122.0
X192.0Y-124.0
X192.0Y-126.0
X192.0Y-128.0
X194.0Y-114.0
X194.0Y-116.0
X194.0Y-118.0
X194.0Y-120.0
X194.0Y-122.0
X194.0Y-124.0
X194.0Y-126.0
X194.0Y-128.0
X195.0Y-16.0
X195.0Y-18.0
X195.0Y-20.0
X195.0Y-22.0
X195.0Y-24.0
X195.0Y-26.0
X195.0Y-28.0
X195.0Y-30.0
X195.0Y-32.0
X195.0Y-34.0
X195.0Y-36.0
X195.0Y-48.0
X195.0Y-50.0
X195.0Y-52.0
X195.0Y-54.0
X195.0Y-56.0
X195.0Y-58.0
X195.0Y-60.0
X195.0Y-62.0
X195.0Y-64.0
X195.0Y-66.0
X195.0Y-78.0
X195.0Y-80.0
X195.0Y-82.0
X195.0Y-84.0
X197.0Y-16.0
X197.0Y-18.0
X197.0Y-20.0
X197.0Y-22.0
X197.0Y-24.0
X197.0Y-26.0
X197.0Y-28.0
X197.0Y-30.0
X197.0Y-32.0
X197.0Y-34.0
X197.0Y-36.0
X197.0Y-48.0
X197.0Y-50.0
X197.0Y-52.0
X197.0Y-54.0
X197.0Y-56.0
X197.0Y-58.0
X197.0Y-60.0
X197.0Y-62.0
X197.0Y-64.0
X197.0Y-66.0
X197.0Y-78.0
X197.0Y-80.0
X197.0Y-82.0
X197.0Y-84.0
X199.0Y-16.0
X199.0Y-18.0
X199.0Y-20.0
X199.0Y-22.0
X199.0Y-24.0
X199.0Y-26.0
X199.0Y-28.0
X199.0Y-30.0
X199.0Y-32.0
X199.0Y-34.0
X199.0Y-36.0
X199.0Y-48.0
X199.0Y-50.0
X199.0Y-52.0
X199.0Y-54.0
X199.0Y-56.0
X199.0Y-58.0
X199.0Y-60.0
X199.0Y-62.0
X199.0Y-64.0
X199.0Y-66.0
X199.0Y-78.0
X199.0Y-80.0
X199.0Y-82.0
X199.0Y-84.0
X201.0Y-16.0
X201.0Y-18.0
X201.0Y-20.0
X201.0Y-22.0
X201.0Y-24.0
X201.0Y-26.0
X201.0Y-28.0
X201.0Y-30.0
X201.0Y-32.0
X201.0Y-34.0
X201.0Y-36.0
X201.0Y-38.0
X201.0Y-40.0
X201.0Y-42.0
X201.0Y-44.0
X201.0Y-46.0
X201.0Y-48.0
X201.0Y-50.0
X201.0Y-52.0
X201.0Y-54.0
X201.0Y-56.0
X201.0Y-58.0
X201.0Y-60.0
X201.0Y-62.0
X201.0Y-64.0
X201.0Y-66.0
X201.0Y-68.0
X201.0Y-70.0
X201.0Y-72.0
X201.0Y-74.0
X201.0Y-76.0
X201.0Y-78.0
X201.0Y-80.0
X201.0Y-82.0
X201.0Y-84.0
X203.0Y-16.0
X203.0Y-18.0
X203.0Y-20.0
X203.0Y-22.0
X203.0Y-24.0
X203.0Y-26.0
X203.0Y-28.0
X203.0Y-30.0
X203.0Y-32.0
X203.0Y-34.0
X203.0Y-36.0
X203.0Y-38.0
X203.0Y-40.0
X203.0Y-42.0
X203.0Y-44.0
X203.0Y-46.0
X203.0Y-48.0
X203.0Y-50.0
X203.0Y-52.0
X203.0Y-54.0
X203.0Y-56.0
X203.0Y-58.0
X203.0Y-60.0
X203.0Y-62.0
X203.0Y-64.0
X203.0Y-66.0
X203.0Y-68.0
X203.0Y-70.0
X203.0Y-72.0
X203.0Y-74.0
X203.0Y-76.0
X203.0Y-78.0
X203.0Y-80.0
X203.0Y-82.0
X203.0Y-84.0
X205.0Y-16.0
X205.0Y-18.0
X205.0Y-20.0
X205.0Y-22.0
X205.0Y-24.0
X205.0Y-26.0
X205.0Y-28.0
X205.0Y-30.0
X205.0Y-32.0
X205.0Y-34.0
X205.0Y-36.0
X205.0Y-38.0
X205.0Y-40.0
X205.0Y-42.0
X205.0Y-44.0
X205.0Y-46.0
X205.0Y-48.0
X205.0Y-50.0
X205.0Y-52.0
X205.0Y-54.0
X205.0Y-56.0
X205.0Y-58.0
X205.0Y-60.0
X205.0Y-62.0
X205.0Y-64.0
X205.0Y-66.0
X205.0Y-68.0
X205.0Y-70.0
X205.0Y-72.0
X205.0Y-74.0
X205.0Y-76.0
X205.0Y-78.0
X205.0Y-80.0
X205.0Y-82.0
X205.0Y-84.0
X207.0Y-16.0
X207.0Y-18.0
X207.0Y-20.0
X207.0Y-22.0
X207.0Y-24.0
X207.0Y-26.0
X207.0Y-28.0
X207.0Y-30.0
X207.0Y-32.0
X207.0Y-34.0
X207.0Y-36.0
X207.0Y-38.0
X207.0Y-40.0
X207.0Y-42.0
X207.0Y-44.0
X207.0Y-46.0
X207.0Y-48.0
X207.0Y-50.0
X207.0Y-52.0
X207.0Y-54.0
X207.0Y-56.0
X207.0Y-58.0
X207.0Y-60.0
X207.0Y-62.0
X207.0Y-64.0
X207.0Y-66.0
X207.0Y-68.0
X207.0Y-70.0
X207.0Y-72.0
X207.0Y-74.0
X207.0Y-76.0
X207.0Y-78.0
X207.0Y-80.0
X207.0Y-82.0
X207.0Y-84.0
X216.0Y-128.0
X218.0Y-126.0
X218.0Y-128.0
X220.0Y-124.0
X220.0Y-126.0
X220.0Y-128.0
X222.0Y-124.0
X222.0Y-126.0
X222.0Y-128.0
X224.0Y-122.0
X224.0Y-124.0
X224.0Y-126.0
X224.0Y-128.0
X246.0Y-128.0
X248.0Y-126.0
X248.0Y-128.0
X250.0Y-126.0
X250.0Y-128.0
X252.0Y-124.0
X252.0Y-126.0
X252.0Y-128.0
X254.0Y-122.0
X254.0Y-124.0
X254.0Y-126.0
X254.0Y-128.0
X256.0Y-122.0
X256.0Y-124.0
X256.0Y-126.0
X256.0Y-128.0
X258.0Y-114.0
X258.0Y-116.0
X258.0Y-118.0
X258.0Y-120.0
X258.0Y-122.0
X258.0Y-124.0
X258.0Y-126.0
X258.0Y-128.0
X260.0Y-114.0
X260.0Y-116.0
X260.0Y-118.0
X260.0Y-120.0
X260.0Y-122.0
X260.0Y-124.0
X260.0Y-126.0
X260.0Y-128.0
X262.0Y-114.0
X262.0Y-116.0
X262.0Y-118.0
X262.0Y-120.0
X262.0Y-122.0
X262.0Y-124.0
X262.0Y-126.0
X262.0Y-128.0
X264.0Y-114.0
X264.0Y-116.0
X264.0Y-118.0
X264.0Y-120.0
X264.0Y-122.0
X264.0Y-124.0
X264.0Y-126.0
X264.0Y-128.0
X266.0Y-114.0
X266.0Y-116.0
X266.0Y-118.0
X266.0Y-120.0
X266.0Y-122.0
X266.0Y-124.0
X266.0Y-126.0
X266.0Y-128.0
X268.0Y-114.0
X268.0Y-116.0
X268.0Y-118.0
X268.0Y-120.0
X268.0Y-122.0
X268.0Y-124.0
X268.0Y-126.0
X268.0Y-128.0
X270.0Y-114.0
X270.0Y-116.0
X270.0Y-118.0
X270.0Y-120.0
X270.0Y-122.0
X270.0Y-124.0
X270.0Y-126.0
X270.0Y-128.0
X272.0Y-114.0
X272.0Y-116.0
X272.0Y-118.0
X272.0Y-120.0
X272.0Y-122.0
X272.0Y-124.0
X272.0Y-126.0
X272.0Y-128.0
X274.0Y-114.0
X274.0Y-116.0
X274.0Y-118.0
X274.0Y-120.0
X274.0Y-122.0
X274.0Y-124.0
X274.0Y-126.0
X274.0Y-128.0
X276.0Y-128.0
X278.0Y-128.0
X280.0Y-128.0
X282.0Y-128.0
X282.95Y-245.9
X282.95Y-247.0
X282.95Y-248.1
X284.0Y-128.0
X284.05Y-245.9
X284.05Y-247.0
X284.05Y-248.1
X286.0Y-114.0
X286.0Y-116.0
X286.0Y-128.0
X288.0Y-114.0
X288.0Y-116.0
X288.0Y-128.0
X290.0Y-114.0
X290.0Y-116.0
X290.0Y-128.0
X292.0Y-114.0
X292.0Y-116.0
X292.0Y-128.0
X294.0Y-114.0
X294.0Y-116.0
X294.0Y-128.0
X295.0Y-40.5
X295.0Y-42.0
X295.0Y-43.5
X295.0Y-45.0
X296.0Y-114.0
X296.0Y-116.0
X296.0Y-118.0
X296.0Y-120.0
X296.0Y-122.0
X296.0Y-124.0
X296.0Y-126.0
X296.0Y-128.0
X296.5Y-40.5
X296.5Y-42.0
X296.5Y-43.5
X296.5Y-45.0
X298.0Y-40.5
X298.0Y-42.0
X298.0Y-114.0
X298.0Y-116.0
X298.0Y-118.0
X298.0Y-120.0
X298.0Y-122.0
X298.0Y-124.0
X298.0Y-126.0
X298.0Y-128.0
X300.0Y-114.0
X300.0Y-116.0
X300.0Y-118.0
X300.0Y-120.0
X300.0Y-122.0
X300.0Y-124.0
X300.0Y-126.0
X300.0Y-128.0
X302.0Y-114.0
X302.0Y-116.0
X302.0Y-118.0
X302.0Y-120.0
X302.0Y-122.0
X302.0Y-124.0
X302.0Y-126.0
X302.0Y-128.0
X304.0Y-114.0
X304.0Y-116.0
X304.0Y-118.0
X304.0Y-120.0
X304.0Y-122.0
X304.0Y-124.0
X304.0Y-126.0
X304.0Y-128.0
X306.0Y-128.0
X308.0Y-128.0
X310.0Y-128.0
X312.0Y-128.0
X314.0Y-128.0
X316.0Y-128.0
X318.0Y-128.0
X320.0Y-128.0
X322.0Y-128.0
X324.0Y-128.0
X326.0Y-118.0
X326.0Y-120.0
X326.0Y-122.0
X326.0Y-124.0
X326.0Y-126.0
X326.0Y-128.0
X328.0Y-118.0
X328.0Y-120.0
X328.0Y-122.0
X328.0Y-124.0
X328.0Y-126.0
X328.0Y-128.0
X330.0Y-118.0
X330.0Y-120.0
X330.0Y-122.0
X330.0Y-124.0
X330.0Y-126.0
X330.0Y-128.0
X332.0Y-118.0
X332.0Y-120.0
X332.0Y-122.0
X332.0Y-124.0
X332.0Y-126.0
X332.0Y-128.0
X334.0Y-118.0
X334.0Y-120.0
X334.0Y-122.0
X334.0Y-124.0
X334.0Y-126.0
X334.0Y-128.0
X336.0Y-128.0
X338.0Y-128.0
X340.0Y-128.0
X342.0Y-128.0
X344.0Y-128.0
X346.0Y-128.0
X348.0Y-128.0
X350.0Y-114.0
X350.0Y-116.0
X350.0Y-128.0
X352.0Y-114.0
X352.0Y-116.0
X352.0Y-128.0
T4
X16.0Y-246.0
X16.0Y-248.54
X132.0Y-270.0
X133.0Y-278.0
X133.0Y-280.54
X133.0Y-283.08
X137.0Y-270.0
X257.0Y-234.0
X257.0Y-236.54
X257.0Y-239.08
X274.0Y-267.0
X274.0Y-269.54
X274.0Y-272.08
X274.0Y-274.62
X274.0Y-277.16
T5
X38.25Y-141.0
X65.75Y-141.0
X150.25Y-141.0
X177.75Y-141.0
X325.92Y-42.0
X331.0Y-42.0
T6
X299.0Y-17.0
X304.0Y-17.0
X316.0Y-17.0
X321.0Y-17.0
T7
X11.0Y-160.0
X11.0Y-165.08
X11.0Y-188.0
X11.0Y-193.08
X11.0Y-216.0
X11.0Y-221.08
X11.0Y-244.0
X11.0Y-249.08
X110.0Y-285.0
X115.08Y-285.0
X120.16Y-285.0
X349.0Y-29.92
X349.0Y-35.0
X349.0Y-57.92
X349.0Y-63.0
X349.0Y-85.92
X349.0Y-91.0
X349.0Y-135.92
X349.0Y-141.0
X349.0Y-163.92
X349.0Y-169.0
T8
X11.19Y-41.19
X11.19Y-43.73
X11.19Y-46.27
X11.19Y-48.81
X11.19Y-111.19
X11.19Y-113.73
X11.19Y-116.27
X11.19Y-118.81
X18.81Y-41.19
X18.81Y-43.73
X18.81Y-46.27
X18.81Y-48.81
X18.81Y-111.19
X18.81Y-113.73
X18.81Y-116.27
X18.81Y-118.81
X216.19Y-16.19
X216.19Y-18.73
X216.19Y-21.27
X216.19Y-23.81
X216.19Y-111.19
X216.19Y-113.73
X216.19Y-116.27
X216.19Y-118.81
X223.81Y-16.19
X223.81Y-18.73
X223.81Y-21.27
X223.81Y-23.81
X223.81Y-111.19
X223.81Y-113.73
X223.81Y-116.27
X223.81Y-118.81
X246.19Y-16.19
X246.19Y-18.73
X246.19Y-21.27
X246.19Y-23.81
X246.19Y-111.19
X246.19Y-113.73
X246.19Y-116.27
X246.19Y-118.81
X253.81Y-16.19
X253.81Y-18.73
X253.81Y-21.27
X253.81Y-23.81
X253.81Y-111.19
X253.81Y-113.73
X253.81Y-116.27
X253.81Y-118.81
T9
X27.0Y-110.0
X30.0Y-122.0
X40.0Y-122.0
X43.0Y-20.0
X43.0Y-78.0
X60.0Y-122.0
X70.0Y-26.0
X70.0Y-74.0
X70.0Y-122.0
X90.0Y-122.0
X100.0Y-25.0
X100.0Y-55.0
X100.0Y-122.0
X135.0Y-25.0
X135.0Y-65.0
X165.0Y-28.0
X165.0Y-48.0
X195.0Y-42.0
X195.0Y-72.0
X200.0Y-127.0
X210.0Y-127.0
X230.0Y-127.0
X235.0Y-20.0
X240.0Y-127.0
X272.0Y-20.0
X280.0Y-122.0
X290.0Y-122.0
X310.0Y-122.0
X320.0Y-122.0
X340.0Y-122.0
X350.0Y-122.0
M30
