<svg xmlns="http://www.w3.org/2000/svg" width="420mm" height="220mm" viewBox="0 0 420 220"><rect width="420" height="220" fill="white"/>
<g font-family="Arial,sans-serif" fill="#17232a"><text x="10" y="12" font-size="6">BB6 — RevA-P1 — MOTION_BUS_P</text>
<text x="10" y="19" font-size="3.4">Engineering prototype – not production qualified. Scale 1:1. F.Cu coordinate view; underside NOT mirrored.</text>
<g transform="translate(15 25)">
<polygon points="188,8 278,8 278,32 202,32 202,87 188,87" fill="#efc17f" stroke="#262626" stroke-width="0.2"/>
<rect x="214.0" y="14.0" width="12.0" height="12.0" rx="1" fill="white" stroke="#262626" stroke-width="0.2"/>
<rect x="244.0" y="14.0" width="12.0" height="12.0" rx="1" fill="white" stroke="#262626" stroke-width="0.2"/>
<circle cx="195" cy="42" r="1.7" fill="white" stroke="#262626" stroke-width="0.2"/>
<circle cx="195" cy="72" r="1.7" fill="white" stroke="#262626" stroke-width="0.2"/>
<circle cx="235" cy="20" r="1.7" fill="white" stroke="#262626" stroke-width="0.2"/>
<circle cx="272" cy="20" r="1.7" fill="white" stroke="#262626" stroke-width="0.2"/>
</g>
<text x="10" y="173" font-size="3.6">Cu-ETP / CW004A; thickness 2.00 +/-0.10 mm; outline +/-0.20 mm; hole centers +/-0.10 mm.</text>
<text x="10" y="180" font-size="3.6">Holes diameter 3.40 +/-0.10 mm. Cutout radius R1. Deburr. Exact vertices/holes: BUSBAR_DIMENSIONS.json.</text>
<text x="10" y="187" font-size="3.6">4 x 0.05 mm Kapton HN underneath; 0.25 mm Cu contact shims. No shunt or FET-bank bypass.</text>
<path d="M10 203H110M10 201V205M110 201V205" fill="none" stroke="black" stroke-width="0.3"/><text x="45" y="200" font-size="3.6">100 mm check</text></g></svg>