M48
; DRILL file KiCad 10.0.6 date 2026-09-14T00:09:38
; FORMAT={-:-/ absolute / metric / decimal}
; #@! TF.CreationDate,2026-09-14T00:09:38+02:00
; #@! TF.GenerationSoftware,Kicad,Pcbnew,10.0.6
; #@! TF.FileFunction,Plated,1,4,PTH
FMAT,2
METRIC
; #@! TA.AperFunction,Plated,PTH,ComponentDrill
T1C0.200
; #@! TA.AperFunction,Plated,PTH,ViaDrill
T2C0.300
; #@! TA.AperFunction,Plated,PTH,ViaDrill
T3C0.400
; #@! TA.AperFunction,Plated,PTH,ComponentDrill
T4C1.000
; #@! TA.AperFunction,Plated,PTH,ComponentDrill
T5C1.100
; #@! TA.AperFunction,Plated,PTH,ComponentDrill
T6C1.200
; #@! TA.AperFunction,Plated,PTH,ComponentDrill
T7C1.400
; #@! TA.AperFunction,Plated,PTH,ComponentDrill
T8C1.475
; #@! TA.AperFunction,Plated,PTH,ComponentDrill
T9C3.200
%
G90
G05
T1
X217.95Y-169.78
X217.95Y-171.0
X217.95Y-172.22
X219.05Y-169.78
X219.05Y-171.0
X219.05Y-172.22
X244.1Y-228.84
X244.1Y-230.24
X244.8Y-228.14
X244.8Y-229.54
X244.8Y-230.94
X245.5Y-228.84
X245.5Y-230.24
X246.2Y-228.14
X246.2Y-229.54
X246.2Y-230.94
X246.9Y-228.84
X246.9Y-230.24
T2
X1.005Y-154.709
X4.371Y-202.136
X7.0Y-183.832
X13.314Y-255.614
X13.484Y-231.768
X13.863Y-154.709
X16.0Y-240.1
X21.0Y-225.0
X21.074Y-221.395
X21.319Y-253.982
X23.071Y-249.842
X24.176Y-239.835
X24.199Y-104.477
X24.524Y-194.445
X26.022Y-194.445
X26.112Y-79.898
X26.413Y-83.664
X26.7Y-191.472
X27.995Y-112.532
X28.181Y-182.391
X28.405Y-104.497
X28.5Y-230.0
X28.628Y-172.375
X28.685Y-177.124
X29.945Y-83.405
X30.204Y-68.802
X30.204Y-108.235
X30.214Y-79.44
X30.325Y-195.016
X30.4Y-45.0
X30.709Y-215.251
X31.15Y-250.8
X31.157Y-185.09
X31.458Y-253.117
X31.5Y-45.0
X31.846Y-221.0
X31.952Y-175.063
X31.952Y-177.331
X32.1Y-83.8
X32.352Y-60.712
X32.877Y-74.849
X33.033Y-176.787
X33.779Y-78.271
X33.972Y-182.694
X34.119Y-176.703
X34.674Y-239.835
X34.674Y-241.813
X34.9Y-82.0
X35.119Y-180.774
X35.8Y-253.4
X36.136Y-221.818
X36.157Y-202.478
X36.356Y-220.369
X36.411Y-177.693
X36.499Y-170.633
X36.541Y-179.99
X36.9Y-253.5
X37.048Y-80.293
X37.3Y-173.458
X37.433Y-181.337
X37.739Y-240.554
X38.34Y-82.726
X38.5Y-45.0
X39.075Y-239.676
X39.134Y-86.636
X39.5Y-75.3
X39.556Y-194.127
X39.6Y-45.0
X39.754Y-179.445
X40.712Y-221.0
X42.0Y-75.9
X42.011Y-239.1
X42.925Y-197.417
X42.942Y-80.229
X43.038Y-242.177
X43.038Y-243.332
X43.065Y-167.833
X43.558Y-177.424
X43.649Y-253.754
X44.188Y-60.088
X44.188Y-75.728
X44.962Y-193.929
X45.533Y-220.78
X45.877Y-237.21
X46.365Y-175.707
X48.053Y-209.867
X48.415Y-170.565
X48.421Y-200.389
X48.978Y-175.849
X49.0Y-91.9
X49.0Y-95.1
X50.17Y-202.478
X50.45Y-242.808
X50.625Y-253.4
X51.042Y-221.196
X54.173Y-209.594
X54.398Y-194.445
X54.89Y-217.56
X54.973Y-236.118
X55.562Y-209.875
X56.7Y-209.95
X58.934Y-102.055
X58.934Y-104.778
X58.994Y-108.554
X59.221Y-210.425
X59.804Y-108.304
X60.099Y-114.656
X60.243Y-96.785
X60.909Y-94.598
X61.856Y-209.936
X62.231Y-113.387
X62.368Y-103.344
X63.498Y-209.936
X64.975Y-218.019
X64.993Y-223.204
X65.194Y-39.333
X65.194Y-62.857
X65.249Y-86.392
X65.262Y-91.922
X65.4Y-102.519
X66.27Y-101.497
X66.692Y-105.098
X66.71Y-91.944
X66.8Y-96.6
X66.82Y-102.392
X67.919Y-105.409
X67.93Y-100.862
X68.007Y-118.298
X68.017Y-59.157
X69.046Y-221.32
X69.059Y-98.059
X69.871Y-100.275
X70.5Y-201.0
X70.5Y-227.35
X71.713Y-74.662
X71.88Y-110.414
X71.88Y-116.359
X71.962Y-54.363
X72.0Y-111.345
X72.045Y-104.922
X72.168Y-217.256
X72.322Y-185.09
X72.447Y-97.606
X72.743Y-102.457
X72.8Y-99.7
X73.0Y-232.2
X73.022Y-60.244
X73.666Y-104.086
X73.8Y-155.05
X73.838Y-105.488
X74.546Y-102.271
X74.71Y-60.34
X74.857Y-219.567
X74.869Y-151.112
X75.085Y-97.513
X75.311Y-170.805
X75.363Y-95.352
X75.47Y-100.049
X75.705Y-175.974
X76.061Y-184.597
X76.716Y-157.057
X78.2Y-100.3
X78.277Y-145.961
X78.387Y-215.719
X78.989Y-177.088
X79.353Y-182.366
X80.761Y-221.195
X81.503Y-145.915
X81.765Y-177.331
X83.788Y-73.83
X83.788Y-101.497
X84.276Y-182.539
X84.664Y-21.916
X84.664Y-47.144
X84.742Y-171.008
X85.148Y-154.085
X85.875Y-176.633
X85.895Y-173.365
X86.0Y-227.35
X86.102Y-223.154
X86.425Y-236.057
X86.765Y-92.581
X86.796Y-201.246
X87.027Y-219.936
X87.277Y-241.742
X87.69Y-202.478
X89.726Y-230.112
X90.0Y-176.0
X90.028Y-218.533
X92.655Y-148.743
X92.689Y-229.188
X92.805Y-200.627
X93.0Y-233.2
X93.022Y-239.05
X94.0Y-227.35
X94.937Y-245.453
X96.311Y-177.088
X96.649Y-243.272
X96.93Y-238.913
X97.689Y-170.445
X97.879Y-216.092
X98.718Y-174.992
X99.325Y-230.815
X99.626Y-241.122
X100.358Y-173.129
X100.663Y-90.247
X101.23Y-218.533
X101.723Y-202.478
X101.782Y-236.057
X103.009Y-149.4
X104.0Y-156.0
X104.984Y-221.328
X105.546Y-239.385
X107.603Y-236.057
X107.801Y-150.589
X108.5Y-111.0
X108.557Y-238.049
X108.646Y-200.929
X108.919Y-157.686
X109.402Y-219.0
X109.773Y-200.943
X109.8Y-232.2
X110.58Y-116.359
X110.58Y-200.328
X110.58Y-227.14
X111.2Y-111.0
X111.267Y-83.664
X111.4Y-197.0
X111.4Y-226.0
X111.8Y-93.2
X111.8Y-235.2
X111.9Y-148.5
X111.9Y-166.0
X112.0Y-239.5
X112.0Y-252.0
X112.1Y-199.0
X112.1Y-205.2
X112.1Y-230.5
X112.711Y-235.254
X113.0Y-245.2
X113.2Y-251.3
X113.385Y-222.691
X113.8Y-230.3
X114.0Y-239.6
X114.267Y-218.223
X114.8Y-233.7
X115.05Y-231.1
X116.605Y-220.504
X116.755Y-202.478
X116.901Y-158.559
X117.955Y-180.01
X119.07Y-233.568
X120.975Y-45.0
X121.0Y-227.35
X121.0Y-230.2
X121.875Y-232.249
X122.838Y-218.223
X123.24Y-162.386
X123.24Y-173.029
X124.376Y-118.31
X125.349Y-183.104
X125.465Y-233.718
X126.101Y-89.415
X126.3Y-232.2
X127.078Y-165.445
X127.078Y-175.088
X127.6Y-194.3
X128.441Y-214.852
X128.451Y-105.488
X128.502Y-169.349
X129.025Y-45.0
X129.194Y-164.666
X129.34Y-202.478
X130.9Y-231.1
X131.0Y-251.3
X131.294Y-170.58
X131.418Y-202.478
X131.418Y-215.742
X131.517Y-245.453
X132.0Y-230.3
X132.0Y-257.0
X132.154Y-197.736
X132.254Y-170.444
X132.312Y-202.239
X132.312Y-216.177
X132.5Y-235.1
X132.55Y-259.1
X132.8Y-229.4
X133.007Y-179.856
X133.055Y-167.193
X133.249Y-241.122
X133.95Y-195.95
X134.1Y-195.1
X134.146Y-228.158
X134.5Y-235.1
X134.87Y-216.412
X135.0Y-232.2
X135.204Y-231.33
X135.23Y-217.187
X135.621Y-229.287
X135.756Y-173.571
X135.832Y-170.187
X136.0Y-257.0
X136.134Y-174.456
X137.798Y-170.079
X137.93Y-235.501
X138.495Y-202.478
X138.5Y-173.571
X139.188Y-245.88
X139.5Y-211.7
X140.349Y-234.344
X140.5Y-144.0
X140.5Y-146.0
X140.663Y-194.445
X140.872Y-180.75
X141.0Y-228.7
X141.114Y-202.478
X141.2Y-211.7
X141.202Y-171.569
X141.243Y-234.395
X141.284Y-215.197
X142.0Y-230.8
X142.518Y-229.238
X143.355Y-218.799
X143.945Y-164.665
X144.82Y-169.796
X145.311Y-224.168
X145.588Y-179.5
X145.907Y-230.762
X146.136Y-166.968
X146.2Y-177.088
X146.35Y-235.012
X146.4Y-223.4
X147.2Y-174.0
X147.8Y-213.5
X147.8Y-230.7
X148.0Y-227.35
X148.315Y-186.362
X149.1Y-226.5
X149.28Y-191.472
X150.235Y-102.852
X150.4Y-213.5
X151.2Y-224.8
X151.2Y-227.97
X151.5Y-91.4
X152.0Y-228.6
X152.163Y-201.255
X153.223Y-103.413
X153.522Y-230.112
X154.187Y-221.611
X155.0Y-95.1
X155.233Y-101.293
X156.096Y-94.617
X156.156Y-89.403
X156.4Y-208.0
X156.4Y-209.8
X157.232Y-193.147
X158.196Y-192.553
X158.21Y-107.442
X158.5Y-207.4
X158.5Y-209.8
X158.9Y-219.8
X159.5Y-258.5
X159.563Y-215.087
X159.926Y-221.035
X160.324Y-79.566
X160.382Y-101.286
X160.515Y-99.161
X160.576Y-218.992
X160.596Y-192.083
X160.818Y-203.47
X160.9Y-223.0
X160.9Y-224.95
X162.133Y-94.876
X162.188Y-92.175
X163.192Y-43.996
X163.6Y-222.2
X163.627Y-175.499
X163.627Y-201.943
X164.047Y-108.149
X164.164Y-98.344
X164.164Y-116.359
X164.319Y-188.608
X164.769Y-109.19
X165.01Y-205.828
X165.033Y-99.147
X165.042Y-101.267
X165.058Y-97.267
X166.0Y-213.673
X166.442Y-81.626
X167.0Y-126.0
X167.25Y-178.242
X167.365Y-86.636
X167.365Y-95.714
X167.824Y-188.092
X167.923Y-74.077
X168.077Y-97.594
X168.284Y-183.428
X168.3Y-212.5
X168.403Y-99.181
X169.0Y-220.0
X169.1Y-211.7
X169.672Y-98.832
X169.703Y-178.89
X169.938Y-212.309
X169.97Y-95.481
X170.0Y-210.0
X170.038Y-69.59
X170.1Y-100.25
X170.624Y-176.839
X170.706Y-188.85
X170.738Y-169.871
X170.94Y-102.518
X170.945Y-82.781
X170.979Y-209.834
X170.979Y-213.2
X170.979Y-233.362
X171.162Y-191.581
X172.0Y-166.0
X172.013Y-92.662
X172.2Y-210.95
X172.519Y-93.491
X172.763Y-205.342
X173.234Y-170.572
X173.273Y-173.877
X173.5Y-213.0
X173.516Y-83.665
X173.9Y-93.7
X173.909Y-176.007
X173.998Y-77.925
X174.066Y-231.246
X174.5Y-214.8
X174.7Y-165.7
X175.0Y-96.5
X175.5Y-169.0
X175.525Y-167.802
X175.887Y-100.883
X176.056Y-236.143
X176.328Y-208.08
X176.654Y-92.732
X177.0Y-126.0
X177.0Y-213.25
X177.0Y-233.0
X177.2Y-211.85
X177.259Y-235.446
X177.313Y-234.206
X177.419Y-100.0
X178.2Y-212.5
X178.366Y-182.664
X178.87Y-171.724
X179.0Y-91.0
X179.0Y-96.8
X179.0Y-239.1
X179.482Y-110.087
X179.566Y-187.838
X179.653Y-174.935
X179.653Y-176.321
X179.7Y-208.6
X179.794Y-27.389
X179.794Y-42.069
X179.794Y-62.075
X180.1Y-210.0
X180.3Y-94.4
X180.3Y-100.6
X180.804Y-178.106
X180.841Y-201.8
X180.841Y-207.4
X181.023Y-233.362
X181.1Y-169.871
X181.621Y-226.278
X181.694Y-191.581
X182.0Y-230.5
X182.269Y-84.384
X182.282Y-101.214
X182.282Y-104.735
X182.679Y-232.865
X182.979Y-250.647
X183.027Y-120.339
X183.3Y-233.95
X184.1Y-231.2
X184.671Y-164.821
X184.862Y-237.907
X185.224Y-234.812
X185.46Y-221.0
X185.534Y-219.336
X185.6Y-230.7
X185.864Y-210.071
X185.864Y-213.2
X185.864Y-200.666
X186.5Y-235.3
X186.517Y-159.8
X187.648Y-186.275
X187.648Y-191.581
X187.672Y-179.718
X187.979Y-107.442
X188.0Y-233.0
X188.649Y-237.903
X188.826Y-203.665
X188.826Y-213.2
X189.2Y-230.7
X189.5Y-187.912
X190.052Y-220.572
X190.329Y-224.983
X191.648Y-210.161
X191.648Y-213.2
X191.727Y-191.581
X192.344Y-233.173
X192.773Y-221.168
X193.0Y-239.1
X193.963Y-98.092
X193.963Y-99.0
X194.7Y-189.0
X195.309Y-227.425
X195.754Y-208.836
X195.845Y-231.727
X196.2Y-213.25
X196.447Y-224.988
X196.766Y-223.234
X196.91Y-83.664
X197.588Y-187.912
X198.0Y-202.5
X198.286Y-221.168
X198.57Y-193.583
X198.623Y-210.523
X199.533Y-173.747
X199.7Y-230.7
X199.9Y-213.25
X199.913Y-92.252
X199.985Y-206.442
X200.58Y-216.358
X200.58Y-230.9
X200.7Y-212.7
X201.542Y-207.392
X201.62Y-224.14
X201.892Y-96.055
X201.988Y-101.139
X202.0Y-230.7
X202.253Y-209.583
X202.253Y-213.2
X202.326Y-220.493
X202.421Y-197.525
X203.7Y-194.3
X203.7Y-195.8
X203.7Y-203.0
X204.5Y-203.9
X204.5Y-210.5
X204.5Y-230.05
X204.923Y-209.5
X205.037Y-220.964
X205.188Y-110.11
X205.41Y-222.409
X205.483Y-196.193
X205.509Y-170.406
X205.692Y-215.061
X205.8Y-218.2
X206.231Y-236.962
X206.231Y-238.212
X206.5Y-146.0
X206.5Y-155.2
X206.5Y-167.4
X207.223Y-218.276
X208.3Y-212.7
X208.486Y-176.719
X209.03Y-222.95
X210.0Y-230.7
X210.8Y-223.6
X211.0Y-228.6
X211.387Y-174.079
X211.387Y-188.608
X211.6Y-219.599
X212.18Y-218.127
X212.2Y-211.2
X212.656Y-237.127
X212.9Y-212.8
X213.4Y-218.2
X214.334Y-213.1
X214.44Y-206.442
X214.5Y-215.65
X214.5Y-257.0
X214.607Y-222.275
X215.002Y-236.143
X215.065Y-194.456
X215.24Y-164.83
X215.4Y-258.5
X215.46Y-231.0
X215.46Y-233.0
X215.6Y-212.8
X216.284Y-226.3
X216.284Y-237.0
X216.284Y-242.5
X216.284Y-257.744
X216.646Y-160.213
X216.7Y-215.0
X217.0Y-216.3
X217.4Y-254.3
X217.417Y-167.802
X217.75Y-218.4
X217.902Y-219.302
X218.058Y-161.492
X218.8Y-232.5
X219.4Y-237.127
X219.4Y-240.257
X219.4Y-241.536
X219.8Y-219.0
X219.8Y-228.01
X220.087Y-158.194
X221.25Y-226.56
X221.895Y-163.017
X223.0Y-211.778
X223.089Y-169.179
X224.303Y-165.708
X225.0Y-220.0
X226.032Y-188.151
X226.032Y-194.528
X227.0Y-223.2
X227.0Y-226.5
X227.0Y-228.3
X228.278Y-162.07
X228.8Y-226.55
X229.036Y-220.439
X229.05Y-171.878
X229.824Y-226.57
X229.986Y-214.686
X230.0Y-223.0
X230.0Y-228.3
X230.7Y-224.0
X230.7Y-226.57
X230.7Y-227.85
X231.05Y-162.5
X231.976Y-187.963
X231.977Y-223.863
X232.231Y-199.871
X232.3Y-224.63
X232.855Y-155.484
X232.963Y-231.096
X232.963Y-234.4
X232.963Y-235.752
X233.098Y-221.574
X233.6Y-224.56
X233.791Y-234.925
X233.97Y-227.222
X233.987Y-215.055
X234.7Y-217.2
X235.202Y-165.031
X235.94Y-211.823
X236.502Y-221.683
X236.508Y-237.788
X236.714Y-220.777
X236.714Y-232.153
X237.0Y-223.2
X237.8Y-218.0
X237.8Y-221.5
X239.0Y-160.862
X239.998Y-208.1
X241.265Y-157.805
X241.894Y-217.061
X242.644Y-218.221
X243.899Y-161.53
X245.157Y-217.346
X245.722Y-218.198
X245.878Y-176.747
X247.156Y-159.004
X247.457Y-171.453
X248.182Y-230.018
X248.451Y-161.555
X249.082Y-226.206
X249.107Y-203.555
X250.349Y-226.627
X250.668Y-237.994
X251.418Y-227.661
X254.204Y-232.494
X254.393Y-230.057
X256.419Y-226.835
X256.72Y-189.974
X257.0Y-221.806
X257.684Y-236.144
X258.727Y-208.801
X259.664Y-229.087
X261.0Y-206.92
X261.554Y-221.145
X262.238Y-233.948
X262.944Y-230.088
X268.0Y-218.698
T3
X30.0Y-118.0
X30.0Y-123.0
X30.0Y-128.0
X34.0Y-128.0
X38.0Y-118.0
X38.0Y-128.0
X40.0Y-176.0
X40.0Y-245.0
X40.0Y-246.0
X40.0Y-247.0
X42.0Y-118.0
X42.0Y-123.0
X42.0Y-128.0
X43.2Y-172.8
X43.2Y-173.8
X43.2Y-174.8
X44.3Y-174.8
X45.0Y-31.0
X45.0Y-33.0
X45.0Y-35.0
X45.0Y-37.0
X45.0Y-39.0
X45.0Y-41.0
X45.0Y-43.0
X45.0Y-45.0
X45.0Y-47.0
X45.0Y-49.0
X45.0Y-51.0
X45.0Y-53.0
X45.0Y-55.0
X45.0Y-57.0
X45.0Y-59.0
X45.0Y-61.0
X45.0Y-63.0
X45.0Y-65.0
X45.0Y-67.0
X45.0Y-69.0
X45.0Y-71.0
X45.0Y-73.0
X45.0Y-75.0
X45.0Y-77.0
X45.0Y-89.0
X45.0Y-180.8
X45.0Y-181.8
X46.0Y-118.0
X46.0Y-123.0
X46.0Y-128.0
X46.0Y-180.8
X46.0Y-181.8
X47.0Y-31.0
X47.0Y-33.0
X47.0Y-35.0
X47.0Y-37.0
X47.0Y-39.0
X47.0Y-41.0
X47.0Y-43.0
X47.0Y-45.0
X47.0Y-47.0
X47.0Y-49.0
X47.0Y-51.0
X47.0Y-53.0
X47.0Y-55.0
X47.0Y-57.0
X47.0Y-59.0
X47.0Y-61.0
X47.0Y-63.0
X47.0Y-65.0
X47.0Y-67.0
X47.0Y-69.0
X47.0Y-71.0
X47.0Y-73.0
X47.0Y-75.0
X47.0Y-77.0
X47.0Y-89.0
X47.0Y-180.8
X47.0Y-181.8
X47.0Y-245.0
X47.0Y-246.0
X48.0Y-180.8
X48.0Y-181.8
X49.0Y-31.0
X49.0Y-33.0
X49.0Y-35.0
X49.0Y-37.0
X49.0Y-39.0
X49.0Y-41.0
X49.0Y-43.0
X49.0Y-45.0
X49.0Y-47.0
X49.0Y-49.0
X49.0Y-51.0
X49.0Y-53.0
X49.0Y-55.0
X49.0Y-57.0
X49.0Y-59.0
X49.0Y-61.0
X49.0Y-63.0
X49.0Y-65.0
X49.0Y-67.0
X49.0Y-69.0
X49.0Y-71.0
X49.0Y-73.0
X49.0Y-75.0
X49.0Y-77.0
X49.0Y-89.0
X49.0Y-180.8
X49.0Y-181.8
X50.0Y-118.0
X50.0Y-123.0
X50.0Y-128.0
X50.0Y-180.8
X50.0Y-181.8
X51.0Y-31.0
X51.0Y-33.0
X51.0Y-35.0
X51.0Y-37.0
X51.0Y-39.0
X51.0Y-41.0
X51.0Y-43.0
X51.0Y-45.0
X51.0Y-47.0
X51.0Y-49.0
X51.0Y-51.0
X51.0Y-53.0
X51.0Y-55.0
X51.0Y-57.0
X51.0Y-59.0
X51.0Y-61.0
X51.0Y-63.0
X51.0Y-65.0
X51.0Y-67.0
X51.0Y-69.0
X51.0Y-71.0
X51.0Y-73.0
X51.0Y-75.0
X51.0Y-77.0
X51.0Y-89.0
X51.0Y-180.8
X51.0Y-181.8
X52.0Y-180.8
X52.0Y-181.8
X53.0Y-21.0
X53.0Y-23.0
X53.0Y-37.0
X53.0Y-39.0
X53.0Y-40.0
X53.0Y-41.0
X53.0Y-43.0
X53.0Y-45.0
X53.0Y-47.0
X53.0Y-63.0
X53.0Y-65.0
X53.0Y-67.0
X53.0Y-69.0
X53.0Y-71.0
X53.0Y-73.0
X53.0Y-87.0
X53.0Y-89.0
X53.0Y-180.8
X53.0Y-181.8
X54.0Y-118.0
X54.0Y-123.0
X54.0Y-128.0
X54.0Y-180.8
X54.0Y-181.8
X55.0Y-180.8
X55.0Y-181.8
X58.0Y-123.0
X58.0Y-128.0
X62.0Y-118.0
X62.0Y-123.0
X62.0Y-128.0
X66.0Y-118.0
X66.0Y-123.0
X66.0Y-128.0
X70.0Y-123.0
X70.0Y-128.0
X71.0Y-21.0
X71.0Y-23.0
X71.0Y-25.0
X71.0Y-41.0
X71.0Y-43.0
X71.0Y-45.0
X71.0Y-47.0
X71.0Y-49.0
X71.0Y-51.0
X71.0Y-53.0
X71.0Y-55.0
X71.0Y-57.0
X71.0Y-59.0
X71.0Y-61.0
X71.0Y-67.0
X71.0Y-69.0
X71.0Y-71.0
X71.0Y-73.0
X71.0Y-85.0
X73.0Y-21.0
X73.0Y-23.0
X73.0Y-25.0
X73.0Y-37.0
X73.0Y-39.0
X73.0Y-41.0
X73.0Y-43.0
X73.0Y-45.0
X73.0Y-47.0
X73.0Y-49.0
X73.0Y-51.0
X73.0Y-65.0
X73.0Y-67.0
X73.0Y-69.0
X73.0Y-71.0
X73.0Y-73.0
X73.0Y-85.0
X73.0Y-87.0
X73.0Y-89.0
X74.0Y-123.0
X74.0Y-128.0
X75.0Y-21.0
X75.0Y-23.0
X75.0Y-25.0
X75.0Y-37.0
X75.0Y-39.0
X75.0Y-41.0
X75.0Y-43.0
X75.0Y-45.0
X75.0Y-47.0
X75.0Y-49.0
X75.0Y-51.0
X75.0Y-53.0
X75.0Y-55.0
X75.0Y-57.0
X75.0Y-65.0
X75.0Y-67.0
X75.0Y-69.0
X75.0Y-71.0
X75.0Y-73.0
X75.0Y-85.0
X75.0Y-87.0
X75.0Y-89.0
X77.0Y-21.0
X77.0Y-23.0
X77.0Y-25.0
X77.0Y-37.0
X77.0Y-39.0
X77.0Y-41.0
X77.0Y-43.0
X77.0Y-45.0
X77.0Y-47.0
X77.0Y-49.0
X77.0Y-51.0
X77.0Y-53.0
X77.0Y-55.0
X77.0Y-57.0
X77.0Y-59.0
X77.0Y-61.0
X77.0Y-63.0
X77.0Y-65.0
X77.0Y-67.0
X77.0Y-69.0
X77.0Y-71.0
X77.0Y-73.0
X77.0Y-85.0
X77.0Y-87.0
X77.0Y-89.0
X77.95Y-151.9
X77.95Y-153.0
X77.95Y-154.1
X78.0Y-123.0
X78.0Y-128.0
X79.0Y-25.0
X79.0Y-37.0
X79.0Y-39.0
X79.0Y-41.0
X79.0Y-43.0
X79.0Y-49.0
X79.0Y-51.0
X79.0Y-53.0
X79.0Y-55.0
X79.0Y-57.0
X79.0Y-59.0
X79.0Y-61.0
X79.0Y-63.0
X79.0Y-65.0
X79.0Y-67.0
X79.0Y-69.0
X79.0Y-85.0
X79.0Y-87.0
X79.0Y-89.0
X79.05Y-151.9
X79.05Y-153.0
X79.05Y-154.1
X81.0Y-184.2
X81.0Y-195.5
X81.0Y-196.5
X82.0Y-123.0
X82.0Y-128.0
X82.0Y-184.2
X83.0Y-184.2
X84.0Y-184.2
X84.0Y-195.5
X84.0Y-196.5
X84.0Y-204.5
X84.0Y-205.5
X84.0Y-206.5
X84.0Y-207.5
X86.0Y-123.0
X86.0Y-128.0
X87.0Y-195.5
X87.0Y-196.5
X90.0Y-123.0
X90.0Y-128.0
X92.0Y-205.5
X92.0Y-206.5
X92.0Y-207.5
X93.2Y-172.8
X93.2Y-173.8
X93.2Y-174.8
X94.0Y-123.0
X94.0Y-128.0
X94.3Y-174.8
X98.0Y-123.0
X98.0Y-128.0
X101.0Y-21.0
X101.0Y-23.0
X101.0Y-25.0
X101.0Y-35.0
X101.0Y-37.0
X101.0Y-39.0
X101.0Y-41.0
X101.0Y-43.0
X101.0Y-45.0
X101.0Y-47.0
X101.0Y-49.0
X101.0Y-51.0
X101.0Y-53.0
X101.0Y-55.0
X101.0Y-65.0
X101.0Y-67.0
X101.0Y-69.0
X101.0Y-71.0
X101.0Y-73.0
X101.0Y-75.0
X101.0Y-77.0
X101.0Y-79.0
X101.0Y-81.0
X101.0Y-83.0
X101.0Y-85.0
X101.0Y-87.0
X101.0Y-89.0
X102.0Y-123.0
X102.0Y-128.0
X103.0Y-21.0
X103.0Y-23.0
X103.0Y-25.0
X103.0Y-35.0
X103.0Y-37.0
X103.0Y-39.0
X103.0Y-41.0
X103.0Y-43.0
X103.0Y-45.0
X103.0Y-47.0
X103.0Y-49.0
X103.0Y-51.0
X103.0Y-53.0
X103.0Y-55.0
X103.0Y-65.0
X103.0Y-67.0
X103.0Y-69.0
X103.0Y-71.0
X103.0Y-73.0
X103.0Y-75.0
X103.0Y-77.0
X103.0Y-79.0
X103.0Y-81.0
X103.0Y-83.0
X103.0Y-85.0
X103.0Y-87.0
X103.0Y-89.0
X105.0Y-21.0
X105.0Y-23.0
X105.0Y-25.0
X105.0Y-35.0
X105.0Y-37.0
X105.0Y-39.0
X105.0Y-41.0
X105.0Y-43.0
X105.0Y-45.0
X105.0Y-47.0
X105.0Y-49.0
X105.0Y-51.0
X105.0Y-53.0
X105.0Y-55.0
X105.0Y-65.0
X105.0Y-67.0
X105.0Y-69.0
X105.0Y-71.0
X105.0Y-73.0
X105.0Y-75.0
X105.0Y-77.0
X105.0Y-79.0
X105.0Y-89.0
X106.0Y-123.0
X106.0Y-128.0
X107.0Y-21.0
X107.0Y-23.0
X107.0Y-25.0
X107.0Y-35.0
X107.0Y-37.0
X107.0Y-39.0
X107.0Y-41.0
X107.0Y-43.0
X107.0Y-45.0
X107.0Y-47.0
X107.0Y-49.0
X107.0Y-51.0
X107.0Y-53.0
X107.0Y-55.0
X107.0Y-65.0
X107.0Y-67.0
X107.0Y-69.0
X107.0Y-71.0
X107.0Y-73.0
X107.0Y-75.0
X107.0Y-77.0
X107.0Y-79.0
X107.0Y-89.0
X109.0Y-21.0
X109.0Y-23.0
X109.0Y-25.0
X109.0Y-35.0
X109.0Y-37.0
X109.0Y-39.0
X109.0Y-41.0
X109.0Y-43.0
X109.0Y-45.0
X109.0Y-47.0
X109.0Y-49.0
X109.0Y-51.0
X109.0Y-53.0
X109.0Y-55.0
X109.0Y-65.0
X109.0Y-67.0
X109.0Y-69.0
X109.0Y-71.0
X109.0Y-73.0
X109.0Y-75.0
X109.0Y-77.0
X109.0Y-79.0
X109.0Y-89.0
X110.0Y-123.0
X110.0Y-128.0
X111.0Y-21.0
X111.0Y-23.0
X111.0Y-25.0
X111.0Y-27.0
X111.0Y-29.0
X111.0Y-31.0
X111.0Y-33.0
X111.0Y-35.0
X111.0Y-37.0
X111.0Y-39.0
X111.0Y-41.0
X111.0Y-43.0
X111.0Y-45.0
X111.0Y-47.0
X111.0Y-49.0
X111.0Y-51.0
X111.0Y-53.0
X111.0Y-55.0
X111.0Y-57.0
X111.0Y-59.0
X111.0Y-61.0
X111.0Y-63.0
X111.0Y-65.0
X111.0Y-67.0
X111.0Y-69.0
X111.0Y-71.0
X111.0Y-73.0
X111.0Y-75.0
X111.0Y-77.0
X111.0Y-79.0
X111.0Y-89.0
X112.0Y-153.658
X113.0Y-21.0
X113.0Y-23.0
X113.0Y-25.0
X113.0Y-27.0
X113.0Y-29.0
X113.0Y-31.0
X113.0Y-33.0
X113.0Y-35.0
X113.0Y-37.0
X113.0Y-39.0
X113.0Y-41.0
X113.0Y-43.0
X113.0Y-45.0
X113.0Y-47.0
X113.0Y-49.0
X113.0Y-51.0
X113.0Y-53.0
X113.0Y-55.0
X113.0Y-57.0
X113.0Y-59.0
X113.0Y-61.0
X113.0Y-63.0
X113.0Y-65.0
X113.0Y-67.0
X113.0Y-69.0
X113.0Y-71.0
X113.0Y-73.0
X113.0Y-75.0
X113.0Y-77.0
X113.0Y-79.0
X113.0Y-81.0
X113.0Y-83.0
X113.0Y-85.0
X113.0Y-87.0
X113.0Y-89.0
X122.0Y-123.0
X122.0Y-128.0
X126.0Y-118.0
X126.0Y-123.0
X126.0Y-128.0
X130.0Y-118.0
X130.0Y-123.0
X130.0Y-128.0
X134.0Y-118.0
X134.0Y-123.0
X134.0Y-128.0
X137.0Y-25.0
X137.0Y-35.0
X137.0Y-37.0
X137.0Y-39.0
X137.0Y-41.0
X137.0Y-43.0
X137.0Y-45.0
X137.0Y-47.0
X137.0Y-49.0
X137.0Y-51.0
X137.0Y-53.0
X137.0Y-55.0
X137.0Y-57.0
X137.0Y-59.0
X137.0Y-61.0
X137.0Y-63.0
X137.0Y-65.0
X137.0Y-75.0
X137.0Y-77.0
X137.0Y-79.0
X137.0Y-81.0
X137.0Y-83.0
X138.0Y-118.0
X138.0Y-123.0
X138.0Y-128.0
X139.0Y-25.0
X139.0Y-35.0
X139.0Y-37.0
X139.0Y-39.0
X139.0Y-41.0
X139.0Y-43.0
X139.0Y-45.0
X139.0Y-47.0
X139.0Y-49.0
X139.0Y-51.0
X139.0Y-53.0
X139.0Y-55.0
X139.0Y-57.0
X139.0Y-59.0
X139.0Y-61.0
X139.0Y-63.0
X139.0Y-65.0
X139.0Y-75.0
X139.0Y-77.0
X139.0Y-79.0
X139.0Y-81.0
X139.0Y-83.0
X141.0Y-25.0
X141.0Y-35.0
X141.0Y-37.0
X141.0Y-39.0
X141.0Y-41.0
X141.0Y-43.0
X141.0Y-45.0
X141.0Y-47.0
X141.0Y-49.0
X141.0Y-51.0
X141.0Y-53.0
X141.0Y-55.0
X141.0Y-57.0
X141.0Y-59.0
X141.0Y-61.0
X141.0Y-63.0
X141.0Y-65.0
X141.0Y-75.0
X141.0Y-77.0
X141.0Y-79.0
X141.0Y-81.0
X141.0Y-83.0
X142.0Y-118.0
X142.0Y-123.0
X142.0Y-128.0
X143.0Y-25.0
X143.0Y-35.0
X143.0Y-37.0
X143.0Y-39.0
X143.0Y-41.0
X143.0Y-43.0
X143.0Y-45.0
X143.0Y-47.0
X143.0Y-49.0
X143.0Y-51.0
X143.0Y-53.0
X143.0Y-55.0
X143.0Y-57.0
X143.0Y-59.0
X143.0Y-61.0
X143.0Y-63.0
X143.0Y-65.0
X143.0Y-75.0
X143.0Y-77.0
X143.0Y-79.0
X143.0Y-81.0
X143.0Y-83.0
X145.0Y-25.0
X145.0Y-27.0
X145.0Y-29.0
X145.0Y-31.0
X145.0Y-33.0
X145.0Y-35.0
X145.0Y-37.0
X145.0Y-39.0
X145.0Y-41.0
X145.0Y-43.0
X145.0Y-45.0
X145.0Y-47.0
X145.0Y-49.0
X145.0Y-51.0
X145.0Y-53.0
X145.0Y-55.0
X145.0Y-57.0
X145.0Y-59.0
X145.0Y-61.0
X145.0Y-63.0
X145.0Y-65.0
X145.0Y-67.0
X145.0Y-69.0
X145.0Y-71.0
X145.0Y-73.0
X145.0Y-75.0
X145.0Y-77.0
X145.0Y-79.0
X145.0Y-81.0
X145.0Y-83.0
X146.0Y-118.0
X146.0Y-123.0
X146.0Y-128.0
X147.0Y-25.0
X147.0Y-27.0
X147.0Y-29.0
X147.0Y-31.0
X147.0Y-33.0
X147.0Y-35.0
X147.0Y-37.0
X147.0Y-39.0
X147.0Y-41.0
X147.0Y-43.0
X147.0Y-45.0
X147.0Y-47.0
X147.0Y-49.0
X147.0Y-51.0
X147.0Y-53.0
X147.0Y-55.0
X147.0Y-57.0
X147.0Y-59.0
X147.0Y-61.0
X147.0Y-63.0
X147.0Y-65.0
X147.0Y-67.0
X147.0Y-69.0
X147.0Y-71.0
X147.0Y-73.0
X147.0Y-75.0
X147.0Y-77.0
X147.0Y-79.0
X147.0Y-81.0
X147.0Y-83.0
X150.0Y-118.0
X150.0Y-123.0
X150.0Y-128.0
X154.0Y-118.0
X154.0Y-123.0
X154.0Y-128.0
X158.0Y-118.0
X158.0Y-123.0
X158.0Y-128.0
X162.0Y-118.0
X162.0Y-123.0
X162.0Y-128.0
X165.0Y-25.0
X165.0Y-27.0
X165.0Y-29.0
X165.0Y-31.0
X165.0Y-33.0
X165.0Y-35.0
X165.0Y-37.0
X165.0Y-39.0
X165.0Y-41.0
X165.0Y-47.0
X165.0Y-49.0
X165.0Y-51.0
X165.0Y-53.0
X165.0Y-55.0
X165.0Y-57.0
X165.0Y-59.0
X165.0Y-61.0
X165.0Y-63.0
X165.0Y-65.0
X165.0Y-67.0
X165.0Y-69.0
X165.0Y-71.0
X165.0Y-73.0
X165.0Y-75.0
X165.0Y-81.0
X165.0Y-83.0
X166.0Y-119.0
X166.0Y-123.0
X166.0Y-128.0
X167.0Y-25.0
X167.0Y-27.0
X167.0Y-39.0
X167.0Y-41.0
X167.0Y-43.0
X167.0Y-45.0
X167.0Y-47.0
X167.0Y-59.0
X167.0Y-61.0
X167.0Y-63.0
X167.0Y-65.0
X167.0Y-67.0
X167.0Y-69.0
X167.0Y-71.0
X167.0Y-73.0
X167.0Y-75.0
X167.0Y-77.0
X167.0Y-83.0
X169.0Y-25.0
X169.0Y-27.0
X169.0Y-39.0
X169.0Y-41.0
X169.0Y-43.0
X169.0Y-45.0
X169.0Y-47.0
X169.0Y-59.0
X169.0Y-61.0
X169.0Y-63.0
X169.0Y-65.0
X169.0Y-67.0
X169.0Y-73.0
X169.0Y-75.0
X169.0Y-77.0
X170.0Y-118.0
X170.0Y-123.0
X170.0Y-128.0
X171.0Y-25.0
X171.0Y-27.0
X171.0Y-39.0
X171.0Y-41.0
X171.0Y-43.0
X171.0Y-45.0
X171.0Y-47.0
X171.0Y-59.0
X171.0Y-61.0
X171.0Y-63.0
X171.0Y-65.0
X171.0Y-67.0
X171.0Y-69.0
X171.0Y-71.0
X171.0Y-73.0
X171.0Y-75.0
X171.0Y-77.0
X173.0Y-25.0
X173.0Y-27.0
X173.0Y-39.0
X173.0Y-41.0
X173.0Y-43.0
X173.0Y-45.0
X173.0Y-47.0
X173.0Y-59.0
X173.0Y-61.0
X173.0Y-63.0
X173.0Y-65.0
X173.0Y-67.0
X173.0Y-69.0
X173.0Y-71.0
X173.0Y-73.0
X173.0Y-79.0
X173.0Y-81.0
X174.0Y-118.0
X174.0Y-123.0
X174.0Y-128.0
X175.0Y-29.0
X175.0Y-31.0
X175.0Y-33.0
X175.0Y-35.0
X175.0Y-37.0
X175.0Y-39.0
X175.0Y-41.0
X175.0Y-43.0
X175.0Y-45.0
X175.0Y-47.0
X175.0Y-49.0
X175.0Y-51.0
X175.0Y-53.0
X175.0Y-55.0
X175.0Y-57.0
X175.0Y-59.0
X175.0Y-65.0
X175.0Y-67.0
X175.0Y-69.0
X175.0Y-71.0
X175.0Y-73.0
X175.0Y-79.0
X175.0Y-81.0
X175.0Y-83.0
X178.0Y-118.0
X178.0Y-123.0
X178.0Y-128.0
X182.0Y-118.0
X182.0Y-128.0
X184.671Y-158.89
X186.0Y-118.0
X186.0Y-123.0
X186.0Y-128.0
X190.0Y-118.0
X190.0Y-123.0
X190.0Y-128.0
X194.0Y-118.0
X194.0Y-123.0
X194.0Y-128.0
X198.0Y-118.0
X198.0Y-123.0
X198.0Y-128.0
X200.0Y-21.0
X200.0Y-23.0
X200.0Y-25.0
X200.0Y-27.0
X200.0Y-29.0
X200.0Y-31.0
X200.0Y-33.0
X200.0Y-35.0
X200.0Y-37.0
X200.0Y-39.0
X200.0Y-41.0
X200.0Y-53.0
X200.0Y-55.0
X200.0Y-57.0
X200.0Y-59.0
X200.0Y-61.0
X200.0Y-63.0
X200.0Y-65.0
X200.0Y-67.0
X200.0Y-69.0
X200.0Y-71.0
X200.0Y-83.0
X200.0Y-85.0
X200.0Y-87.0
X200.0Y-89.0
X202.0Y-21.0
X202.0Y-23.0
X202.0Y-25.0
X202.0Y-27.0
X202.0Y-29.0
X202.0Y-31.0
X202.0Y-33.0
X202.0Y-35.0
X202.0Y-37.0
X202.0Y-39.0
X202.0Y-41.0
X202.0Y-53.0
X202.0Y-55.0
X202.0Y-57.0
X202.0Y-59.0
X202.0Y-61.0
X202.0Y-63.0
X202.0Y-65.0
X202.0Y-67.0
X202.0Y-69.0
X202.0Y-71.0
X202.0Y-83.0
X202.0Y-85.0
X202.0Y-87.0
X202.0Y-89.0
X202.0Y-118.0
X202.0Y-123.0
X202.0Y-128.0
X204.0Y-21.0
X204.0Y-23.0
X204.0Y-25.0
X204.0Y-27.0
X204.0Y-29.0
X204.0Y-31.0
X204.0Y-33.0
X204.0Y-35.0
X204.0Y-37.0
X204.0Y-39.0
X204.0Y-41.0
X204.0Y-53.0
X204.0Y-55.0
X204.0Y-57.0
X204.0Y-59.0
X204.0Y-61.0
X204.0Y-63.0
X204.0Y-65.0
X204.0Y-67.0
X204.0Y-69.0
X204.0Y-71.0
X204.0Y-83.0
X204.0Y-85.0
X204.0Y-87.0
X204.0Y-89.0
X206.0Y-21.0
X206.0Y-23.0
X206.0Y-25.0
X206.0Y-27.0
X206.0Y-29.0
X206.0Y-31.0
X206.0Y-33.0
X206.0Y-35.0
X206.0Y-37.0
X206.0Y-39.0
X206.0Y-41.0
X206.0Y-43.0
X206.0Y-45.0
X206.0Y-47.0
X206.0Y-49.0
X206.0Y-51.0
X206.0Y-53.0
X206.0Y-55.0
X206.0Y-57.0
X206.0Y-59.0
X206.0Y-61.0
X206.0Y-63.0
X206.0Y-65.0
X206.0Y-67.0
X206.0Y-69.0
X206.0Y-71.0
X206.0Y-73.0
X206.0Y-75.0
X206.0Y-77.0
X206.0Y-79.0
X206.0Y-81.0
X206.0Y-83.0
X206.0Y-85.0
X206.0Y-87.0
X206.0Y-89.0
X206.0Y-118.0
X206.0Y-123.0
X206.0Y-128.0
X208.0Y-21.0
X208.0Y-23.0
X208.0Y-25.0
X208.0Y-27.0
X208.0Y-29.0
X208.0Y-31.0
X208.0Y-33.0
X208.0Y-35.0
X208.0Y-37.0
X208.0Y-39.0
X208.0Y-41.0
X208.0Y-43.0
X208.0Y-45.0
X208.0Y-47.0
X208.0Y-49.0
X208.0Y-51.0
X208.0Y-53.0
X208.0Y-55.0
X208.0Y-57.0
X208.0Y-59.0
X208.0Y-61.0
X208.0Y-63.0
X208.0Y-65.0
X208.0Y-67.0
X208.0Y-69.0
X208.0Y-71.0
X208.0Y-73.0
X208.0Y-75.0
X208.0Y-77.0
X208.0Y-79.0
X208.0Y-81.0
X208.0Y-83.0
X208.0Y-85.0
X208.0Y-87.0
X208.0Y-89.0
X210.0Y-21.0
X210.0Y-23.0
X210.0Y-25.0
X210.0Y-27.0
X210.0Y-29.0
X210.0Y-31.0
X210.0Y-33.0
X210.0Y-35.0
X210.0Y-37.0
X210.0Y-39.0
X210.0Y-41.0
X210.0Y-43.0
X210.0Y-45.0
X210.0Y-47.0
X210.0Y-49.0
X210.0Y-51.0
X210.0Y-53.0
X210.0Y-55.0
X210.0Y-57.0
X210.0Y-59.0
X210.0Y-61.0
X210.0Y-63.0
X210.0Y-65.0
X210.0Y-67.0
X210.0Y-69.0
X210.0Y-71.0
X210.0Y-73.0
X210.0Y-75.0
X210.0Y-77.0
X210.0Y-79.0
X210.0Y-81.0
X210.0Y-83.0
X210.0Y-85.0
X210.0Y-87.0
X210.0Y-89.0
X212.0Y-21.0
X212.0Y-23.0
X212.0Y-25.0
X212.0Y-27.0
X212.0Y-29.0
X212.0Y-31.0
X212.0Y-33.0
X212.0Y-35.0
X212.0Y-37.0
X212.0Y-39.0
X212.0Y-41.0
X212.0Y-43.0
X212.0Y-45.0
X212.0Y-47.0
X212.0Y-49.0
X212.0Y-51.0
X212.0Y-53.0
X212.0Y-55.0
X212.0Y-57.0
X212.0Y-59.0
X212.0Y-61.0
X212.0Y-63.0
X212.0Y-65.0
X212.0Y-67.0
X212.0Y-69.0
X212.0Y-71.0
X212.0Y-73.0
X212.0Y-75.0
X212.0Y-77.0
X212.0Y-79.0
X212.0Y-81.0
X212.0Y-83.0
X212.0Y-85.0
X212.0Y-87.0
X212.0Y-89.0
X222.0Y-118.0
X222.0Y-123.0
X222.0Y-128.0
X226.0Y-118.0
X226.0Y-123.0
X226.0Y-128.0
X227.0Y-169.0
X227.0Y-170.5
X228.5Y-169.0
X228.5Y-170.5
X230.0Y-118.0
X230.0Y-123.0
X230.0Y-128.0
X230.0Y-169.0
X230.0Y-170.5
X230.0Y-172.0
X231.5Y-169.0
X231.5Y-170.5
X231.5Y-172.0
X234.0Y-118.0
X234.0Y-123.0
X234.0Y-128.0
X238.0Y-62.0
X238.0Y-66.0
X238.0Y-70.0
X238.0Y-74.0
X238.0Y-78.0
X238.0Y-82.0
X238.0Y-86.0
X238.0Y-90.0
X238.0Y-94.0
X238.0Y-98.0
X238.0Y-118.0
X242.0Y-62.0
X242.0Y-66.0
X242.0Y-70.0
X242.0Y-74.0
X242.0Y-78.0
X242.0Y-82.0
X242.0Y-86.0
X242.0Y-90.0
X242.0Y-94.0
X242.0Y-98.0
X242.0Y-118.0
X246.0Y-118.0
X250.0Y-128.0
X252.0Y-96.0
X252.0Y-100.0
X252.0Y-104.0
X252.0Y-108.0
X252.0Y-112.0
X252.0Y-116.0
X252.0Y-120.0
X254.0Y-96.0
X254.0Y-100.0
X254.0Y-104.0
X254.0Y-108.0
X254.0Y-112.0
X254.0Y-116.0
X254.0Y-120.0
X254.0Y-128.0
T4
X23.0Y-230.0
X23.0Y-232.54
X133.0Y-247.0
X133.0Y-249.54
X133.0Y-252.08
X149.0Y-245.0
X154.0Y-245.0
X178.0Y-255.0
X180.54Y-255.0
X183.08Y-255.0
X185.62Y-255.0
X188.16Y-255.0
X213.0Y-228.0
X213.0Y-230.54
X213.0Y-233.08
T5
X34.25Y-151.0
X61.75Y-151.0
X124.25Y-151.0
X151.75Y-151.0
X230.0Y-199.92
X230.0Y-205.0
T6
X255.0Y-173.0
X255.0Y-178.0
X255.0Y-190.0
X255.0Y-195.0
T7
X11.0Y-159.0
X11.0Y-164.08
X11.0Y-185.0
X11.0Y-190.08
X11.0Y-211.0
X11.0Y-216.08
X11.0Y-237.0
X11.0Y-242.08
X110.0Y-249.0
X115.08Y-249.0
X120.16Y-249.0
X269.0Y-102.92
X269.0Y-108.0
X269.0Y-128.92
X269.0Y-134.0
X269.0Y-154.92
X269.0Y-160.0
X269.0Y-180.92
X269.0Y-186.0
X269.0Y-206.92
X269.0Y-212.0
T8
X16.19Y-46.19
X16.19Y-48.73
X16.19Y-51.27
X16.19Y-53.81
X16.19Y-108.19
X16.19Y-110.73
X16.19Y-113.27
X16.19Y-115.81
X23.81Y-46.19
X23.81Y-48.73
X23.81Y-51.27
X23.81Y-53.81
X23.81Y-108.19
X23.81Y-110.73
X23.81Y-113.27
X23.81Y-115.81
X218.19Y-14.19
X218.19Y-16.73
X218.19Y-19.27
X218.19Y-21.81
X225.81Y-14.19
X225.81Y-16.73
X225.81Y-19.27
X225.81Y-21.81
X248.19Y-14.19
X248.19Y-16.73
X248.19Y-19.27
X248.19Y-21.81
X255.81Y-14.19
X255.81Y-16.73
X255.81Y-19.27
X255.81Y-21.81
X259.19Y-46.19
X259.19Y-53.81
X259.19Y-78.19
X259.19Y-85.81
X261.73Y-46.19
X261.73Y-53.81
X261.73Y-78.19
X261.73Y-85.81
X264.27Y-46.19
X264.27Y-53.81
X264.27Y-78.19
X264.27Y-85.81
X266.81Y-46.19
X266.81Y-53.81
X266.81Y-78.19
X266.81Y-85.81
T9
X21.0Y-138.0
X31.0Y-138.0
X35.0Y-122.0
X48.0Y-25.0
X48.0Y-83.0
X51.0Y-138.0
X61.0Y-138.0
X75.0Y-31.0
X75.0Y-79.0
X81.0Y-138.0
X91.0Y-138.0
X105.0Y-30.0
X105.0Y-60.0
X123.0Y-138.0
X133.0Y-138.0
X140.0Y-30.0
X140.0Y-70.0
X153.0Y-138.0
X163.0Y-138.0
X170.0Y-33.0
X170.0Y-53.0
X183.0Y-138.0
X193.0Y-138.0
X200.0Y-47.0
X200.0Y-77.0
X213.0Y-138.0
X222.0Y-35.0
X223.0Y-138.0
X243.0Y-138.0
X252.0Y-35.0
X253.0Y-138.0
M30
