%TF.GenerationSoftware,KiCad,Pcbnew,10.0.6*%
%TF.CreationDate,2026-09-14T00:09:38+02:00*%
%TF.ProjectId,HomeMy_PMU_RevA,486f6d65-4d79-45f5-904d-555f52657641,A.2-280x260*%
%TF.SameCoordinates,Original*%
%TF.FileFunction,Soldermask,Top*%
%TF.FilePolarity,Negative*%
%FSLAX46Y46*%
G04 Gerber Fmt 4.6, Leading zero omitted, Abs format (unit mm)*
G04 Created by KiCad (PCBNEW 10.0.6) date 2026-09-14 00:09:38*
%MOMM*%
%LPD*%
G01*
G04 APERTURE LIST*
G04 Aperture macros list*
%AMRoundRect*
0 Rectangle with rounded corners*
0 $1 Rounding radius*
0 $2 $3 $4 $5 $6 $7 $8 $9 X,Y pos of 4 corners*
0 Add a 4 corners polygon primitive as box body*
4,1,4,$2,$3,$4,$5,$6,$7,$8,$9,$2,$3,0*
0 Add four circle primitives for the rounded corners*
1,1,$1+$1,$2,$3*
1,1,$1+$1,$4,$5*
1,1,$1+$1,$6,$7*
1,1,$1+$1,$8,$9*
0 Add four rect primitives between the rounded corners*
20,1,$1+$1,$2,$3,$4,$5,0*
20,1,$1+$1,$4,$5,$6,$7,0*
20,1,$1+$1,$6,$7,$8,$9,0*
20,1,$1+$1,$8,$9,$2,$3,0*%
%AMFreePoly0*
4,1,30,0.400000,-4.000000,-0.400000,-4.000000,-2.400000,-4.000000,-2.400000,-3.200000,-0.400000,-3.200000,-0.400000,-2.800000,-2.400000,-2.800000,-2.400000,-2.000000,-0.400000,-2.000000,-0.400000,-1.600000,-2.400000,-1.600000,-2.400000,-0.800000,-0.400000,-0.800000,-0.400000,-0.400000,-2.400000,-0.400000,-2.400000,0.400000,-0.400000,0.400000,-0.400000,0.800000,-2.400000,0.800000,-2.400000,1.600000,
-0.400000,1.600000,-0.400000,2.000000,-2.400000,2.000000,-2.400000,2.800000,-0.400000,2.800000,-0.400000,3.200000,-2.400000,3.200000,-2.400000,4.000000,0.400000,4.000000,0.400000,-4.000000,0.400000,-4.000000,$1*%
%AMFreePoly1*
4,1,13,2.850000,-5.050000,1.450000,-5.050000,1.450000,-4.350000,-1.450000,-4.350000,-1.450000,-4.850000,-5.150000,-4.850000,-5.150000,4.850000,-1.450000,4.850000,-1.450000,4.350000,1.450000,4.350000,1.450000,5.050000,2.850000,5.050000,2.850000,-5.050000,2.850000,-5.050000,$1*%
G04 Aperture macros list end*
%ADD10RoundRect,0.250000X-0.250000X-0.475000X0.250000X-0.475000X0.250000X0.475000X-0.250000X0.475000X0*%
%ADD11RoundRect,0.100000X-5.000000X-5.000000X5.000000X-5.000000X5.000000X5.000000X-5.000000X5.000000X0*%
%ADD12RoundRect,0.150000X-0.512500X-0.150000X0.512500X-0.150000X0.512500X0.150000X-0.512500X0.150000X0*%
%ADD13RoundRect,0.250000X0.450000X-0.262500X0.450000X0.262500X-0.450000X0.262500X-0.450000X-0.262500X0*%
%ADD14RoundRect,0.150000X-0.587500X-0.150000X0.587500X-0.150000X0.587500X0.150000X-0.587500X0.150000X0*%
%ADD15RoundRect,0.150000X-0.675000X-0.150000X0.675000X-0.150000X0.675000X0.150000X-0.675000X0.150000X0*%
%ADD16R,0.600000X0.250000*%
%ADD17R,0.250000X0.600000*%
%ADD18R,2.100000X2.100000*%
%ADD19RoundRect,0.249999X-0.790001X-1.550001X0.790001X-1.550001X0.790001X1.550001X-0.790001X1.550001X0*%
%ADD20O,2.080000X3.600000*%
%ADD21C,2.100000*%
%ADD22RoundRect,0.250000X-0.262500X-0.450000X0.262500X-0.450000X0.262500X0.450000X-0.262500X0.450000X0*%
%ADD23RoundRect,0.250000X1.075000X-0.362500X1.075000X0.362500X-1.075000X0.362500X-1.075000X-0.362500X0*%
%ADD24R,1.880000X1.980000*%
%ADD25RoundRect,0.125000X-0.600000X-0.125000X0.600000X-0.125000X0.600000X0.125000X-0.600000X0.125000X0*%
%ADD26RoundRect,0.250000X-0.312500X-0.625000X0.312500X-0.625000X0.312500X0.625000X-0.312500X0.625000X0*%
%ADD27C,2.000000*%
%ADD28RoundRect,0.112500X-0.187500X-0.112500X0.187500X-0.112500X0.187500X0.112500X-0.187500X0.112500X0*%
%ADD29RoundRect,0.250000X0.262500X0.450000X-0.262500X0.450000X-0.262500X-0.450000X0.262500X-0.450000X0*%
%ADD30C,8.200000*%
%ADD31RoundRect,0.250000X0.475000X-0.250000X0.475000X0.250000X-0.475000X0.250000X-0.475000X-0.250000X0*%
%ADD32RoundRect,0.250001X0.949999X-0.949999X0.949999X0.949999X-0.949999X0.949999X-0.949999X-0.949999X0*%
%ADD33C,2.400000*%
%ADD34RoundRect,0.087500X-0.537500X-0.087500X0.537500X-0.087500X0.537500X0.087500X-0.537500X0.087500X0*%
%ADD35RoundRect,0.249999X-1.550001X0.790001X-1.550001X-0.790001X1.550001X-0.790001X1.550001X0.790001X0*%
%ADD36O,3.600000X2.080000*%
%ADD37RoundRect,0.249999X1.550001X-0.790001X1.550001X0.790001X-1.550001X0.790001X-1.550001X-0.790001X0*%
%ADD38RoundRect,0.250000X0.650000X-0.325000X0.650000X0.325000X-0.650000X0.325000X-0.650000X-0.325000X0*%
%ADD39RoundRect,0.250000X-0.450000X0.262500X-0.450000X-0.262500X0.450000X-0.262500X0.450000X0.262500X0*%
%ADD40R,1.900000X1.200000*%
%ADD41R,7.250000X10.800000*%
%ADD42RoundRect,0.150000X0.150000X-0.512500X0.150000X0.512500X-0.150000X0.512500X-0.150000X-0.512500X0*%
%ADD43RoundRect,0.200000X0.275000X-0.200000X0.275000X0.200000X-0.275000X0.200000X-0.275000X-0.200000X0*%
%ADD44RoundRect,0.250000X1.000000X-1.400000X1.000000X1.400000X-1.000000X1.400000X-1.000000X-1.400000X0*%
%ADD45RoundRect,0.225000X-0.250000X0.225000X-0.250000X-0.225000X0.250000X-0.225000X0.250000X0.225000X0*%
%ADD46C,3.200000*%
%ADD47RoundRect,0.150000X-0.150000X-0.700000X0.150000X-0.700000X0.150000X0.700000X-0.150000X0.700000X0*%
%ADD48RoundRect,0.250000X-0.250000X-1.150000X0.250000X-1.150000X0.250000X1.150000X-0.250000X1.150000X0*%
%ADD49RoundRect,0.225000X0.250000X-0.225000X0.250000X0.225000X-0.250000X0.225000X-0.250000X-0.225000X0*%
%ADD50RoundRect,0.225000X-0.225000X-0.250000X0.225000X-0.250000X0.225000X0.250000X-0.225000X0.250000X0*%
%ADD51RoundRect,0.250000X0.250000X0.475000X-0.250000X0.475000X-0.250000X-0.475000X0.250000X-0.475000X0*%
%ADD52RoundRect,0.250000X-0.475000X0.250000X-0.475000X-0.250000X0.475000X-0.250000X0.475000X0.250000X0*%
%ADD53R,1.700000X1.700000*%
%ADD54C,1.700000*%
%ADD55R,2.000000X2.000000*%
%ADD56RoundRect,0.250000X-0.325000X-0.650000X0.325000X-0.650000X0.325000X0.650000X-0.325000X0.650000X0*%
%ADD57R,0.600000X0.310000*%
%ADD58R,1.500000X1.750000*%
%ADD59RoundRect,0.250000X1.100000X-0.325000X1.100000X0.325000X-1.100000X0.325000X-1.100000X-0.325000X0*%
%ADD60RoundRect,0.150000X0.825000X0.150000X-0.825000X0.150000X-0.825000X-0.150000X0.825000X-0.150000X0*%
%ADD61R,2.550000X5.600000*%
%ADD62R,2.550000X0.800000*%
%ADD63RoundRect,0.100000X-0.637500X-0.100000X0.637500X-0.100000X0.637500X0.100000X-0.637500X0.100000X0*%
%ADD64RoundRect,0.250000X-0.325000X-1.100000X0.325000X-1.100000X0.325000X1.100000X-0.325000X1.100000X0*%
%ADD65RoundRect,0.150000X-0.150000X0.587500X-0.150000X-0.587500X0.150000X-0.587500X0.150000X0.587500X0*%
%ADD66R,1.450000X0.300000*%
%ADD67R,1.000000X1.000000*%
%ADD68RoundRect,0.150000X0.150000X-0.587500X0.150000X0.587500X-0.150000X0.587500X-0.150000X-0.587500X0*%
%ADD69RoundRect,0.087500X-0.662500X-0.087500X0.662500X-0.087500X0.662500X0.087500X-0.662500X0.087500X0*%
%ADD70RoundRect,0.112500X0.112500X-0.187500X0.112500X0.187500X-0.112500X0.187500X-0.112500X-0.187500X0*%
%ADD71R,4.930000X1.190000*%
%ADD72R,4.930000X5.040000*%
%ADD73C,2.600000*%
%ADD74RoundRect,0.375000X-0.625000X-0.375000X0.625000X-0.375000X0.625000X0.375000X-0.625000X0.375000X0*%
%ADD75RoundRect,0.500000X-0.500000X-1.400000X0.500000X-1.400000X0.500000X1.400000X-0.500000X1.400000X0*%
%ADD76RoundRect,0.125000X-0.537500X-0.125000X0.537500X-0.125000X0.537500X0.125000X-0.537500X0.125000X0*%
%ADD77RoundRect,0.062500X-0.350000X-0.062500X0.350000X-0.062500X0.350000X0.062500X-0.350000X0.062500X0*%
%ADD78RoundRect,0.062500X-0.062500X-0.350000X0.062500X-0.350000X0.062500X0.350000X-0.062500X0.350000X0*%
%ADD79R,2.700000X2.700000*%
%ADD80RoundRect,0.150000X-0.825000X-0.150000X0.825000X-0.150000X0.825000X0.150000X-0.825000X0.150000X0*%
%ADD81R,0.800000X2.800000*%
%ADD82FreePoly0,270.000000*%
%ADD83FreePoly1,270.000000*%
%ADD84RoundRect,0.250000X-0.750000X-0.750000X0.750000X-0.750000X0.750000X0.750000X-0.750000X0.750000X0*%
%ADD85RoundRect,0.250000X-1.400000X-1.000000X1.400000X-1.000000X1.400000X1.000000X-1.400000X1.000000X0*%
%ADD86RoundRect,0.250000X-0.300000X0.300000X-0.300000X-0.300000X0.300000X-0.300000X0.300000X0.300000X0*%
%ADD87R,1.500000X0.900000*%
%ADD88R,0.900000X1.500000*%
%ADD89C,0.600000*%
%ADD90R,3.900000X3.900000*%
G04 APERTURE END LIST*
D10*
%TO.C,C225*%
X181087500Y-210000000D03*
X182987500Y-210000000D03*
%TD*%
D11*
%TO.C,NT2*%
X243000000Y-138000000D03*
X253000000Y-138000000D03*
%TD*%
D12*
%TO.C,U53*%
X132862500Y-194050000D03*
X132862500Y-195000000D03*
X132862500Y-195950000D03*
X135137500Y-195950000D03*
X135137500Y-194050000D03*
%TD*%
D13*
%TO.C,R59*%
X155000000Y-104912500D03*
X155000000Y-103087500D03*
%TD*%
D14*
%TO.C,Q11*%
X174062500Y-75050000D03*
X174062500Y-76950000D03*
X175937500Y-76000000D03*
%TD*%
D15*
%TO.C,U35*%
X151375000Y-190365000D03*
X151375000Y-191635000D03*
X157625000Y-191635000D03*
X157625000Y-190365000D03*
%TD*%
D16*
%TO.C,U1*%
X68100000Y-101750000D03*
X68100000Y-102250000D03*
X68100000Y-102750000D03*
X68100000Y-103250000D03*
X68100000Y-103750000D03*
X68100000Y-104250000D03*
D17*
X68750000Y-104900000D03*
X69250000Y-104900000D03*
X69750000Y-104900000D03*
X70250000Y-104900000D03*
X70750000Y-104900000D03*
X71250000Y-104900000D03*
D16*
X71900000Y-104250000D03*
X71900000Y-103750000D03*
X71900000Y-103250000D03*
X71900000Y-102750000D03*
X71900000Y-102250000D03*
X71900000Y-101750000D03*
D17*
X71250000Y-101100000D03*
X70750000Y-101100000D03*
X70250000Y-101100000D03*
X69750000Y-101100000D03*
X69250000Y-101100000D03*
X68750000Y-101100000D03*
D18*
X70000000Y-103000000D03*
%TD*%
D13*
%TO.C,R48*%
X50000000Y-176912500D03*
X50000000Y-175087500D03*
%TD*%
%TO.C,R317*%
X169500000Y-192912500D03*
X169500000Y-191087500D03*
%TD*%
%TO.C,R63*%
X203000000Y-101912500D03*
X203000000Y-100087500D03*
%TD*%
D10*
%TO.C,C12*%
X174050000Y-95200000D03*
X175950000Y-95200000D03*
%TD*%
D13*
%TO.C,R230*%
X157000000Y-220912500D03*
X157000000Y-219087500D03*
%TD*%
D19*
%TO.C,J18*%
X110000000Y-249000000D03*
D20*
X115080000Y-249000000D03*
X120160000Y-249000000D03*
%TD*%
D12*
%TO.C,U64*%
X82862500Y-218050000D03*
X82862500Y-219000000D03*
X82862500Y-219950000D03*
X85137500Y-219950000D03*
X85137500Y-218050000D03*
%TD*%
D10*
%TO.C,C303*%
X204550000Y-177000000D03*
X206450000Y-177000000D03*
%TD*%
D21*
%TO.C,J3*%
X218190000Y-14190000D03*
X218190000Y-16730000D03*
X218190000Y-19270000D03*
X218190000Y-21810000D03*
X225810000Y-14190000D03*
X225810000Y-16730000D03*
X225810000Y-19270000D03*
X225810000Y-21810000D03*
%TD*%
D10*
%TO.C,C228*%
X189087500Y-233000000D03*
X190987500Y-233000000D03*
%TD*%
D22*
%TO.C,R245*%
X20087500Y-250000000D03*
X21912500Y-250000000D03*
%TD*%
D23*
%TO.C,R200*%
X22000000Y-194312500D03*
X22000000Y-189687500D03*
%TD*%
D24*
%TO.C,U30*%
X218500000Y-171000000D03*
D25*
X216300000Y-170025000D03*
X216300000Y-170675000D03*
X216300000Y-171325000D03*
X216300000Y-171975000D03*
X220700000Y-171975000D03*
X220700000Y-171325000D03*
X220700000Y-170675000D03*
X220700000Y-170025000D03*
%TD*%
D26*
%TO.C,R243*%
X28537500Y-237000000D03*
X31462500Y-237000000D03*
%TD*%
D27*
%TO.C,TP14*%
X198000000Y-201000000D03*
%TD*%
D13*
%TO.C,R47*%
X50000000Y-171912500D03*
X50000000Y-170087500D03*
%TD*%
D10*
%TO.C,C219*%
X126350000Y-202250000D03*
X128250000Y-202250000D03*
%TD*%
%TO.C,C224*%
X178087500Y-233000000D03*
X179987500Y-233000000D03*
%TD*%
%TO.C,C26*%
X84050000Y-169000000D03*
X85950000Y-169000000D03*
%TD*%
D28*
%TO.C,D64*%
X217450000Y-160000000D03*
X219550000Y-160000000D03*
%TD*%
D29*
%TO.C,R208*%
X89912500Y-235000000D03*
X88087500Y-235000000D03*
%TD*%
D10*
%TO.C,C218*%
X138350000Y-215250000D03*
X140250000Y-215250000D03*
%TD*%
D30*
%TO.C,BC4*%
X75000000Y-79000000D03*
%TD*%
D13*
%TO.C,R35*%
X155000000Y-92912500D03*
X155000000Y-91087500D03*
%TD*%
D10*
%TO.C,C240*%
X258050000Y-226000000D03*
X259950000Y-226000000D03*
%TD*%
D22*
%TO.C,R213*%
X115087500Y-222000000D03*
X116912500Y-222000000D03*
%TD*%
D31*
%TO.C,C6*%
X64000000Y-102950000D03*
X64000000Y-101050000D03*
%TD*%
D13*
%TO.C,R6*%
X83350000Y-72412500D03*
X83350000Y-70587500D03*
%TD*%
D27*
%TO.C,TP11*%
X40000000Y-169000000D03*
%TD*%
D12*
%TO.C,U21*%
X91862500Y-230050000D03*
X91862500Y-231000000D03*
X91862500Y-231950000D03*
X94137500Y-231950000D03*
X94137500Y-231000000D03*
X94137500Y-230050000D03*
%TD*%
D13*
%TO.C,R331*%
X182500000Y-162912500D03*
X182500000Y-161087500D03*
%TD*%
D27*
%TO.C,TP5*%
X84000000Y-64000000D03*
%TD*%
D13*
%TO.C,R52*%
X81000000Y-175912500D03*
X81000000Y-174087500D03*
%TD*%
D22*
%TO.C,R310*%
X164587500Y-172000000D03*
X166412500Y-172000000D03*
%TD*%
D13*
%TO.C,R4*%
X83350000Y-22412500D03*
X83350000Y-20587500D03*
%TD*%
D32*
%TO.C,C313*%
X255000000Y-195000000D03*
D33*
X255000000Y-190000000D03*
%TD*%
D13*
%TO.C,R262*%
X88000000Y-200912500D03*
X88000000Y-199087500D03*
%TD*%
D31*
%TO.C,C202*%
X29000000Y-217950000D03*
X29000000Y-216050000D03*
%TD*%
D27*
%TO.C,TP22*%
X180000000Y-198000000D03*
%TD*%
D13*
%TO.C,R16*%
X79850000Y-72412500D03*
X79850000Y-70587500D03*
%TD*%
D34*
%TO.C,U18*%
X46600000Y-208250000D03*
X46600000Y-208750000D03*
X46600000Y-209250000D03*
X46600000Y-209750000D03*
X49400000Y-209750000D03*
X49400000Y-209250000D03*
X49400000Y-208750000D03*
X49400000Y-208250000D03*
%TD*%
D35*
%TO.C,J11*%
X11000000Y-211000000D03*
D36*
X11000000Y-216080000D03*
%TD*%
D31*
%TO.C,C239*%
X260000000Y-234950000D03*
X260000000Y-233050000D03*
%TD*%
D37*
%TO.C,J7*%
X269000000Y-108000000D03*
D36*
X269000000Y-102920000D03*
%TD*%
D13*
%TO.C,R249*%
X111000000Y-244912500D03*
X111000000Y-243087500D03*
%TD*%
%TO.C,R257*%
X129000000Y-176912500D03*
X129000000Y-175087500D03*
%TD*%
D38*
%TO.C,C300*%
X224500000Y-167475000D03*
X224500000Y-164525000D03*
%TD*%
D12*
%TO.C,U57*%
X136862500Y-232050000D03*
X136862500Y-233000000D03*
X136862500Y-233950000D03*
X139137500Y-233950000D03*
X139137500Y-233000000D03*
X139137500Y-232050000D03*
%TD*%
D39*
%TO.C,R224*%
X42000000Y-76987500D03*
X42000000Y-78812500D03*
%TD*%
D13*
%TO.C,R28*%
X57000000Y-102912500D03*
X57000000Y-101087500D03*
%TD*%
D22*
%TO.C,R211*%
X99087500Y-216000000D03*
X100912500Y-216000000D03*
%TD*%
D10*
%TO.C,C256*%
X113087500Y-203000000D03*
X114987500Y-203000000D03*
%TD*%
D13*
%TO.C,R250*%
X117000000Y-156912500D03*
X117000000Y-155087500D03*
%TD*%
D12*
%TO.C,U29*%
X173862500Y-232050000D03*
X173862500Y-233000000D03*
X173862500Y-233950000D03*
X176137500Y-233950000D03*
X176137500Y-233000000D03*
X176137500Y-232050000D03*
%TD*%
D11*
%TO.C,NT6*%
X51000000Y-138000000D03*
X61000000Y-138000000D03*
%TD*%
D22*
%TO.C,R330*%
X196587500Y-206000000D03*
X198412500Y-206000000D03*
%TD*%
D13*
%TO.C,R255*%
X117000000Y-175912500D03*
X117000000Y-174087500D03*
%TD*%
%TO.C,R54*%
X77000000Y-178912500D03*
X77000000Y-177087500D03*
%TD*%
D27*
%TO.C,TP33*%
X216000000Y-256000000D03*
%TD*%
D30*
%TO.C,BC14*%
X252000000Y-35000000D03*
%TD*%
D27*
%TO.C,TP2*%
X58000000Y-90000000D03*
%TD*%
D12*
%TO.C,U25*%
X143862500Y-228050000D03*
X143862500Y-229000000D03*
X143862500Y-229950000D03*
X146137500Y-229950000D03*
X146137500Y-229000000D03*
X146137500Y-228050000D03*
%TD*%
D14*
%TO.C,U26*%
X98062500Y-150050000D03*
X98062500Y-151950000D03*
X99937500Y-151000000D03*
%TD*%
D10*
%TO.C,C255*%
X97087500Y-202050000D03*
X98987500Y-202050000D03*
%TD*%
D13*
%TO.C,R15*%
X79850000Y-47412500D03*
X79850000Y-45587500D03*
%TD*%
D30*
%TO.C,BC11*%
X200000000Y-47000000D03*
%TD*%
D40*
%TO.C,Q7*%
X160650000Y-40000000D03*
X160650000Y-38000000D03*
X160650000Y-36000000D03*
X160650000Y-34000000D03*
X160650000Y-32000000D03*
X160650000Y-30000000D03*
X149350000Y-30000000D03*
X149350000Y-32000000D03*
X149350000Y-34000000D03*
X149350000Y-36000000D03*
X149350000Y-38000000D03*
X149350000Y-40000000D03*
D41*
X155000000Y-35000000D03*
%TD*%
D13*
%TO.C,R40*%
X36000000Y-183912500D03*
X36000000Y-182087500D03*
%TD*%
D22*
%TO.C,R240*%
X199087500Y-215000000D03*
X200912500Y-215000000D03*
%TD*%
D11*
%TO.C,NT4*%
X183000000Y-138000000D03*
X193000000Y-138000000D03*
%TD*%
D10*
%TO.C,C232*%
X138087500Y-204050000D03*
X139987500Y-204050000D03*
%TD*%
%TO.C,C227*%
X137087500Y-194050000D03*
X138987500Y-194050000D03*
%TD*%
D27*
%TO.C,TP18*%
X126000000Y-181000000D03*
%TD*%
D13*
%TO.C,R9*%
X178350000Y-27412500D03*
X178350000Y-25587500D03*
%TD*%
D22*
%TO.C,R323*%
X159587500Y-187000000D03*
X161412500Y-187000000D03*
%TD*%
D27*
%TO.C,TP12*%
X74000000Y-176000000D03*
%TD*%
D13*
%TO.C,R264*%
X204000000Y-224912500D03*
X204000000Y-223087500D03*
%TD*%
D42*
%TO.C,U33*%
X240050000Y-163137500D03*
X241000000Y-163137500D03*
X241950000Y-163137500D03*
X241950000Y-160862500D03*
X241000000Y-160862500D03*
X240050000Y-160862500D03*
%TD*%
D13*
%TO.C,R45*%
X24000000Y-185912500D03*
X24000000Y-184087500D03*
%TD*%
D43*
%TO.C,TH21*%
X169000000Y-70825000D03*
X169000000Y-69175000D03*
%TD*%
D30*
%TO.C,BC6*%
X105000000Y-60000000D03*
%TD*%
D27*
%TO.C,TP24*%
X166000000Y-113000000D03*
%TD*%
%TO.C,TP16*%
X146000000Y-185000000D03*
%TD*%
D13*
%TO.C,R29*%
X65000000Y-106912500D03*
X65000000Y-105087500D03*
%TD*%
D11*
%TO.C,NT5*%
X21000000Y-138000000D03*
X31000000Y-138000000D03*
%TD*%
D13*
%TO.C,R308*%
X165500000Y-177912500D03*
X165500000Y-176087500D03*
%TD*%
D44*
%TO.C,D60*%
X251600000Y-212000000D03*
X258400000Y-212000000D03*
%TD*%
D27*
%TO.C,TP27*%
X187500000Y-171000000D03*
%TD*%
D21*
%TO.C,J4*%
X259190000Y-53810000D03*
X261730000Y-53810000D03*
X264270000Y-53810000D03*
X266810000Y-53810000D03*
X259190000Y-46190000D03*
X261730000Y-46190000D03*
X264270000Y-46190000D03*
X266810000Y-46190000D03*
%TD*%
D13*
%TO.C,R235*%
X191000000Y-206912500D03*
X191000000Y-205087500D03*
%TD*%
D45*
%TO.C,C308*%
X245000000Y-158225000D03*
X245000000Y-159775000D03*
%TD*%
D30*
%TO.C,BC10*%
X170000000Y-53000000D03*
%TD*%
D10*
%TO.C,C251*%
X144050000Y-174000000D03*
X145950000Y-174000000D03*
%TD*%
D12*
%TO.C,U56*%
X127862500Y-232050000D03*
X127862500Y-233000000D03*
X127862500Y-233950000D03*
X130137500Y-233950000D03*
X130137500Y-232050000D03*
%TD*%
D10*
%TO.C,C215*%
X33087500Y-220050000D03*
X34987500Y-220050000D03*
%TD*%
D46*
%TO.C,H3*%
X202000000Y-251000000D03*
%TD*%
D47*
%TO.C,J17*%
X48125000Y-251950000D03*
X49375000Y-251950000D03*
X50625000Y-251950000D03*
X51875000Y-251950000D03*
D48*
X46275000Y-248600000D03*
X53725000Y-248600000D03*
%TD*%
D10*
%TO.C,C4*%
X70050000Y-98900000D03*
X71950000Y-98900000D03*
%TD*%
D31*
%TO.C,C7*%
X60000000Y-102950000D03*
X60000000Y-101050000D03*
%TD*%
D22*
%TO.C,R328*%
X205587500Y-204000000D03*
X207412500Y-204000000D03*
%TD*%
D31*
%TO.C,C243*%
X191000000Y-223950000D03*
X191000000Y-222050000D03*
%TD*%
D39*
%TO.C,R318*%
X235500000Y-162087500D03*
X235500000Y-163912500D03*
%TD*%
D10*
%TO.C,C257*%
X87087500Y-218050000D03*
X88987500Y-218050000D03*
%TD*%
D22*
%TO.C,R231*%
X163087500Y-214000000D03*
X164912500Y-214000000D03*
%TD*%
D13*
%TO.C,R254*%
X117000000Y-180912500D03*
X117000000Y-179087500D03*
%TD*%
D31*
%TO.C,C25*%
X84000000Y-179950000D03*
X84000000Y-178050000D03*
%TD*%
D12*
%TO.C,U63*%
X108862500Y-202050000D03*
X108862500Y-203000000D03*
X108862500Y-203950000D03*
X111137500Y-203950000D03*
X111137500Y-203000000D03*
X111137500Y-202050000D03*
%TD*%
D13*
%TO.C,R46*%
X28000000Y-185912500D03*
X28000000Y-184087500D03*
%TD*%
D30*
%TO.C,BC15*%
X35000000Y-122000000D03*
%TD*%
D13*
%TO.C,R229*%
X157000000Y-216912500D03*
X157000000Y-215087500D03*
%TD*%
D49*
%TO.C,C307*%
X200500000Y-199775000D03*
X200500000Y-198225000D03*
%TD*%
D30*
%TO.C,BC1*%
X48000000Y-25000000D03*
%TD*%
D10*
%TO.C,C253*%
X170050000Y-84000000D03*
X171950000Y-84000000D03*
%TD*%
D13*
%TO.C,R60*%
X152000000Y-104912500D03*
X152000000Y-103087500D03*
%TD*%
%TO.C,R307*%
X169500000Y-171912500D03*
X169500000Y-170087500D03*
%TD*%
D35*
%TO.C,J13*%
X11000000Y-237000000D03*
D36*
X11000000Y-242080000D03*
%TD*%
D10*
%TO.C,C206*%
X34050000Y-81000000D03*
X35950000Y-81000000D03*
%TD*%
D22*
%TO.C,R220*%
X230087500Y-221000000D03*
X231912500Y-221000000D03*
%TD*%
D40*
%TO.C,Q8*%
X160650000Y-75000000D03*
X160650000Y-73000000D03*
X160650000Y-71000000D03*
X160650000Y-69000000D03*
X160650000Y-67000000D03*
X160650000Y-65000000D03*
X149350000Y-65000000D03*
X149350000Y-67000000D03*
X149350000Y-69000000D03*
X149350000Y-71000000D03*
X149350000Y-73000000D03*
X149350000Y-75000000D03*
D41*
X155000000Y-70000000D03*
%TD*%
D22*
%TO.C,R322*%
X159587500Y-207000000D03*
X161412500Y-207000000D03*
%TD*%
D31*
%TO.C,C5*%
X74200000Y-100850000D03*
X74200000Y-98950000D03*
%TD*%
D12*
%TO.C,U28*%
X161862500Y-219050000D03*
X161862500Y-220000000D03*
X161862500Y-220950000D03*
X164137500Y-220950000D03*
X164137500Y-220000000D03*
X164137500Y-219050000D03*
%TD*%
D13*
%TO.C,R44*%
X27000000Y-178912500D03*
X27000000Y-177087500D03*
%TD*%
D50*
%TO.C,C304*%
X174725000Y-183000000D03*
X176275000Y-183000000D03*
%TD*%
D13*
%TO.C,R58*%
X100000000Y-176912500D03*
X100000000Y-175087500D03*
%TD*%
D22*
%TO.C,R312*%
X182587500Y-186000000D03*
X184412500Y-186000000D03*
%TD*%
D12*
%TO.C,U20*%
X28862500Y-220050000D03*
X28862500Y-221000000D03*
X28862500Y-221950000D03*
X31137500Y-221950000D03*
X31137500Y-220050000D03*
%TD*%
D27*
%TO.C,TP17*%
X91000000Y-213000000D03*
%TD*%
D51*
%TO.C,C236*%
X38475000Y-241635000D03*
X36575000Y-241635000D03*
%TD*%
D39*
%TO.C,R321*%
X246000000Y-169087500D03*
X246000000Y-170912500D03*
%TD*%
D37*
%TO.C,J8*%
X269000000Y-134000000D03*
D36*
X269000000Y-128920000D03*
%TD*%
D13*
%TO.C,R226*%
X233000000Y-215912500D03*
X233000000Y-214087500D03*
%TD*%
D32*
%TO.C,C312*%
X255000000Y-178000000D03*
D33*
X255000000Y-173000000D03*
%TD*%
D10*
%TO.C,C208*%
X47525000Y-242904999D03*
X49425000Y-242904999D03*
%TD*%
D22*
%TO.C,R221*%
X240087500Y-215000000D03*
X241912500Y-215000000D03*
%TD*%
D34*
%TO.C,U23*%
X133600000Y-215250000D03*
X133600000Y-215750000D03*
X133600000Y-216250000D03*
X133600000Y-216750000D03*
X136400000Y-216750000D03*
X136400000Y-216250000D03*
X136400000Y-215750000D03*
X136400000Y-215250000D03*
%TD*%
D27*
%TO.C,TP26*%
X233000000Y-167000000D03*
%TD*%
D13*
%TO.C,R39*%
X161000000Y-97912500D03*
X161000000Y-96087500D03*
%TD*%
D22*
%TO.C,R247*%
X92087500Y-245000000D03*
X93912500Y-245000000D03*
%TD*%
%TO.C,R261*%
X168087500Y-80000000D03*
X169912500Y-80000000D03*
%TD*%
%TO.C,R305*%
X229087500Y-164000000D03*
X230912500Y-164000000D03*
%TD*%
D40*
%TO.C,Q3*%
X65650000Y-85000000D03*
X65650000Y-83000000D03*
X65650000Y-81000000D03*
X65650000Y-79000000D03*
X65650000Y-77000000D03*
X65650000Y-75000000D03*
X54350000Y-75000000D03*
X54350000Y-77000000D03*
X54350000Y-79000000D03*
X54350000Y-81000000D03*
X54350000Y-83000000D03*
X54350000Y-85000000D03*
D41*
X60000000Y-80000000D03*
%TD*%
D10*
%TO.C,C233*%
X42087500Y-220050000D03*
X43987500Y-220050000D03*
%TD*%
D26*
%TO.C,R332*%
X221537500Y-212000000D03*
X224462500Y-212000000D03*
%TD*%
D13*
%TO.C,R228*%
X28000000Y-86912500D03*
X28000000Y-85087500D03*
%TD*%
D27*
%TO.C,TP20*%
X64000000Y-113000000D03*
%TD*%
D10*
%TO.C,C231*%
X141087500Y-233000000D03*
X142987500Y-233000000D03*
%TD*%
D43*
%TO.C,TH20*%
X73000000Y-55825000D03*
X73000000Y-54175000D03*
%TD*%
D13*
%TO.C,R13*%
X70150000Y-89412500D03*
X70150000Y-87587500D03*
%TD*%
%TO.C,R258*%
X145000000Y-178912500D03*
X145000000Y-177087500D03*
%TD*%
D52*
%TO.C,C11*%
X174000000Y-97550000D03*
X174000000Y-99450000D03*
%TD*%
D37*
%TO.C,J15*%
X269000000Y-186000000D03*
D36*
X269000000Y-180920000D03*
%TD*%
D50*
%TO.C,C310*%
X258225000Y-222000000D03*
X259775000Y-222000000D03*
%TD*%
D53*
%TO.C,J20*%
X23000000Y-230000000D03*
D54*
X23000000Y-232540000D03*
%TD*%
D10*
%TO.C,C235*%
X198087500Y-224050000D03*
X199987500Y-224050000D03*
%TD*%
D55*
%TO.C,D63*%
X230000000Y-205000000D03*
D27*
X230000000Y-199920000D03*
%TD*%
D12*
%TO.C,U15*%
X31862500Y-194050000D03*
X31862500Y-195000000D03*
X31862500Y-195950000D03*
X34137500Y-195950000D03*
X34137500Y-194050000D03*
%TD*%
D13*
%TO.C,R263*%
X204000000Y-216912500D03*
X204000000Y-215087500D03*
%TD*%
D10*
%TO.C,C238*%
X89050000Y-148000000D03*
X90950000Y-148000000D03*
%TD*%
D56*
%TO.C,C29*%
X177525000Y-106000000D03*
X180475000Y-106000000D03*
%TD*%
D10*
%TO.C,C217*%
X111087500Y-218050000D03*
X112987500Y-218050000D03*
%TD*%
D22*
%TO.C,R218*%
X103087500Y-155000000D03*
X104912500Y-155000000D03*
%TD*%
D13*
%TO.C,R56*%
X78000000Y-185912500D03*
X78000000Y-184087500D03*
%TD*%
D27*
%TO.C,TP13*%
X107000000Y-157000000D03*
%TD*%
%TO.C,TP19*%
X143000000Y-181000000D03*
%TD*%
D13*
%TO.C,R14*%
X79850000Y-22412500D03*
X79850000Y-20587500D03*
%TD*%
D57*
%TO.C,U51*%
X211600000Y-238025000D03*
X211600000Y-238675000D03*
X211600000Y-239325000D03*
X211600000Y-239975000D03*
X214400000Y-239975000D03*
X214400000Y-239325000D03*
X214400000Y-238675000D03*
X214400000Y-238025000D03*
D58*
X213000000Y-239000000D03*
%TD*%
D22*
%TO.C,R329*%
X210587500Y-207000000D03*
X212412500Y-207000000D03*
%TD*%
%TO.C,R210*%
X98087500Y-235000000D03*
X99912500Y-235000000D03*
%TD*%
D11*
%TO.C,NT3*%
X153000000Y-138000000D03*
X163000000Y-138000000D03*
%TD*%
D53*
%TO.C,J21*%
X178000000Y-255000000D03*
D54*
X180540000Y-255000000D03*
X183080000Y-255000000D03*
X185620000Y-255000000D03*
X188160000Y-255000000D03*
%TD*%
D22*
%TO.C,R203*%
X32087500Y-204000000D03*
X33912500Y-204000000D03*
%TD*%
D56*
%TO.C,C2*%
X70525000Y-95000000D03*
X73475000Y-95000000D03*
%TD*%
D22*
%TO.C,R306*%
X221087500Y-162000000D03*
X222912500Y-162000000D03*
%TD*%
D30*
%TO.C,BC5*%
X105000000Y-30000000D03*
%TD*%
D31*
%TO.C,C237*%
X75000000Y-156950000D03*
X75000000Y-155050000D03*
%TD*%
D10*
%TO.C,C214*%
X62350000Y-208250000D03*
X64250000Y-208250000D03*
%TD*%
D59*
%TO.C,C22*%
X46000000Y-172475000D03*
X46000000Y-169525000D03*
%TD*%
D13*
%TO.C,R219*%
X257000000Y-230912500D03*
X257000000Y-229087500D03*
%TD*%
D22*
%TO.C,R64*%
X56087500Y-109000000D03*
X57912500Y-109000000D03*
%TD*%
D14*
%TO.C,Q43*%
X163562500Y-206050000D03*
X163562500Y-207950000D03*
X165437500Y-207000000D03*
%TD*%
D13*
%TO.C,R18*%
X165150000Y-79412500D03*
X165150000Y-77587500D03*
%TD*%
%TO.C,R237*%
X190000000Y-239912500D03*
X190000000Y-238087500D03*
%TD*%
D27*
%TO.C,TP29*%
X196000000Y-189000000D03*
%TD*%
D39*
%TO.C,R21*%
X67700000Y-96587500D03*
X67700000Y-98412500D03*
%TD*%
D10*
%TO.C,C242*%
X36050000Y-84000000D03*
X37950000Y-84000000D03*
%TD*%
D22*
%TO.C,R202*%
X36087500Y-200000000D03*
X37912500Y-200000000D03*
%TD*%
D13*
%TO.C,R1*%
X66650000Y-39412500D03*
X66650000Y-37587500D03*
%TD*%
D34*
%TO.C,U24*%
X121600000Y-202250000D03*
X121600000Y-202750000D03*
X121600000Y-203250000D03*
X121600000Y-203750000D03*
X124400000Y-203750000D03*
X124400000Y-203250000D03*
X124400000Y-202750000D03*
X124400000Y-202250000D03*
%TD*%
D53*
%TO.C,J23*%
X133000000Y-247000000D03*
D54*
X133000000Y-249540000D03*
X133000000Y-252080000D03*
%TD*%
D10*
%TO.C,C229*%
X118350000Y-232250000D03*
X120250000Y-232250000D03*
%TD*%
D13*
%TO.C,R326*%
X213500000Y-195912500D03*
X213500000Y-194087500D03*
%TD*%
D60*
%TO.C,U31*%
X201975000Y-178905000D03*
X201975000Y-177635000D03*
X201975000Y-176365000D03*
X201975000Y-175095000D03*
X197025000Y-175095000D03*
X197025000Y-176365000D03*
X197025000Y-177635000D03*
X197025000Y-178905000D03*
%TD*%
D13*
%TO.C,R238*%
X189000000Y-227912500D03*
X189000000Y-226087500D03*
%TD*%
D27*
%TO.C,TP39*%
X85000000Y-175000000D03*
%TD*%
D22*
%TO.C,R34*%
X176087500Y-110000000D03*
X177912500Y-110000000D03*
%TD*%
D27*
%TO.C,TP38*%
X39000000Y-181000000D03*
%TD*%
D30*
%TO.C,BC13*%
X222000000Y-35000000D03*
%TD*%
D37*
%TO.C,J12*%
X269000000Y-160000000D03*
D36*
X269000000Y-154920000D03*
%TD*%
D46*
%TO.C,H1*%
X9000000Y-9000000D03*
%TD*%
D10*
%TO.C,C212*%
X50887500Y-195000000D03*
X52787500Y-195000000D03*
%TD*%
D22*
%TO.C,R302*%
X185587500Y-167000000D03*
X187412500Y-167000000D03*
%TD*%
D39*
%TO.C,R320*%
X240400000Y-165587500D03*
X240400000Y-167412500D03*
%TD*%
D27*
%TO.C,TP1*%
X29000000Y-56000000D03*
%TD*%
D13*
%TO.C,R206*%
X77000000Y-224912500D03*
X77000000Y-223087500D03*
%TD*%
%TO.C,R61*%
X149000000Y-104912500D03*
X149000000Y-103087500D03*
%TD*%
D34*
%TO.C,U27*%
X194600000Y-209250000D03*
X194600000Y-209750000D03*
X194600000Y-210250000D03*
X194600000Y-210750000D03*
X197400000Y-210750000D03*
X197400000Y-210250000D03*
X197400000Y-209750000D03*
X197400000Y-209250000D03*
%TD*%
D31*
%TO.C,C244*%
X33000000Y-241950000D03*
X33000000Y-240050000D03*
%TD*%
D21*
%TO.C,J6*%
X259190000Y-85810000D03*
X261730000Y-85810000D03*
X264270000Y-85810000D03*
X266810000Y-85810000D03*
X259190000Y-78190000D03*
X261730000Y-78190000D03*
X264270000Y-78190000D03*
X266810000Y-78190000D03*
%TD*%
D13*
%TO.C,R327*%
X204500000Y-200912500D03*
X204500000Y-199087500D03*
%TD*%
%TO.C,R222*%
X239000000Y-210912500D03*
X239000000Y-209087500D03*
%TD*%
%TO.C,R25*%
X59000000Y-96912500D03*
X59000000Y-95087500D03*
%TD*%
%TO.C,R207*%
X84000000Y-224912500D03*
X84000000Y-223087500D03*
%TD*%
D51*
%TO.C,C211*%
X67912500Y-218025000D03*
X66012500Y-218025000D03*
%TD*%
D22*
%TO.C,R24*%
X67087500Y-110000000D03*
X68912500Y-110000000D03*
%TD*%
D31*
%TO.C,C31*%
X192000000Y-100950000D03*
X192000000Y-99050000D03*
%TD*%
D13*
%TO.C,R215*%
X129000000Y-192912500D03*
X129000000Y-191087500D03*
%TD*%
D35*
%TO.C,J9*%
X11000000Y-159000000D03*
D36*
X11000000Y-164080000D03*
%TD*%
D61*
%TO.C,RSH2*%
X120975000Y-50850000D03*
D62*
X120975000Y-46750000D03*
X129025000Y-46750000D03*
D61*
X129025000Y-50850000D03*
%TD*%
D50*
%TO.C,C305*%
X175725000Y-172000000D03*
X177275000Y-172000000D03*
%TD*%
D13*
%TO.C,R259*%
X146000000Y-165912500D03*
X146000000Y-164087500D03*
%TD*%
%TO.C,R309*%
X170500000Y-181912500D03*
X170500000Y-180087500D03*
%TD*%
D63*
%TO.C,U60*%
X134137500Y-170050000D03*
X134137500Y-170700000D03*
X134137500Y-171350000D03*
X134137500Y-172000000D03*
X134137500Y-172650000D03*
X134137500Y-173300000D03*
X134137500Y-173950000D03*
X139862500Y-173950000D03*
X139862500Y-173300000D03*
X139862500Y-172650000D03*
X139862500Y-172000000D03*
X139862500Y-171350000D03*
X139862500Y-170700000D03*
X139862500Y-170050000D03*
%TD*%
D39*
%TO.C,R319*%
X243000000Y-165587500D03*
X243000000Y-167412500D03*
%TD*%
D11*
%TO.C,NT1*%
X213000000Y-138000000D03*
X223000000Y-138000000D03*
%TD*%
D13*
%TO.C,R303*%
X182500000Y-172912500D03*
X182500000Y-171087500D03*
%TD*%
%TO.C,R234*%
X183000000Y-227912500D03*
X183000000Y-226087500D03*
%TD*%
D64*
%TO.C,C301*%
X211025000Y-165000000D03*
X213975000Y-165000000D03*
%TD*%
D13*
%TO.C,R11*%
X70150000Y-39412500D03*
X70150000Y-37587500D03*
%TD*%
D10*
%TO.C,C209*%
X101087500Y-240050000D03*
X102987500Y-240050000D03*
%TD*%
D53*
%TO.C,J22*%
X213000000Y-228000000D03*
D54*
X213000000Y-230540000D03*
X213000000Y-233080000D03*
%TD*%
D65*
%TO.C,Q41*%
X233950000Y-156062500D03*
X232050000Y-156062500D03*
X233000000Y-157937500D03*
%TD*%
D13*
%TO.C,R20*%
X174850000Y-62412500D03*
X174850000Y-60587500D03*
%TD*%
D10*
%TO.C,C247*%
X124050000Y-166000000D03*
X125950000Y-166000000D03*
%TD*%
D66*
%TO.C,U2*%
X166800000Y-96750000D03*
X166800000Y-97250000D03*
X166800000Y-97750000D03*
X166800000Y-98250000D03*
X166800000Y-98750000D03*
X166800000Y-99250000D03*
X166800000Y-99750000D03*
X166800000Y-100250000D03*
X166800000Y-100750000D03*
X166800000Y-101250000D03*
X171200000Y-101250000D03*
X171200000Y-100750000D03*
X171200000Y-100250000D03*
X171200000Y-99750000D03*
X171200000Y-99250000D03*
X171200000Y-98250000D03*
X171200000Y-97750000D03*
X171200000Y-97250000D03*
X171200000Y-96750000D03*
%TD*%
D13*
%TO.C,R2*%
X66650000Y-64412500D03*
X66650000Y-62587500D03*
%TD*%
D30*
%TO.C,BC7*%
X140000000Y-30000000D03*
%TD*%
D63*
%TO.C,U32*%
X172637500Y-175050000D03*
X172637500Y-175700000D03*
X172637500Y-176350000D03*
X172637500Y-177000000D03*
X172637500Y-177650000D03*
X172637500Y-178300000D03*
X172637500Y-178950000D03*
X178362500Y-178950000D03*
X178362500Y-178300000D03*
X178362500Y-177650000D03*
X178362500Y-177000000D03*
X178362500Y-176350000D03*
X178362500Y-175700000D03*
X178362500Y-175050000D03*
%TD*%
D27*
%TO.C,TP6*%
X102000000Y-113000000D03*
%TD*%
D22*
%TO.C,R260*%
X73087500Y-59000000D03*
X74912500Y-59000000D03*
%TD*%
D13*
%TO.C,R256*%
X121000000Y-173912500D03*
X121000000Y-172087500D03*
%TD*%
D22*
%TO.C,R248*%
X102087500Y-243000000D03*
X103912500Y-243000000D03*
%TD*%
D46*
%TO.C,H4*%
X64000000Y-251000000D03*
%TD*%
D67*
%TO.C,NT10*%
X228000000Y-172500000D03*
X228000000Y-173500000D03*
%TD*%
D39*
%TO.C,R223*%
X38000000Y-75587500D03*
X38000000Y-77412500D03*
%TD*%
D27*
%TO.C,TP30*%
X218000000Y-215000000D03*
%TD*%
D50*
%TO.C,C306*%
X165725000Y-183000000D03*
X167275000Y-183000000D03*
%TD*%
D13*
%TO.C,R316*%
X169500000Y-188912500D03*
X169500000Y-187087500D03*
%TD*%
D10*
%TO.C,C204*%
X75050000Y-216000000D03*
X76950000Y-216000000D03*
%TD*%
D13*
%TO.C,R53*%
X73000000Y-171912500D03*
X73000000Y-170087500D03*
%TD*%
D61*
%TO.C,RSH1*%
X30975000Y-50850000D03*
D62*
X30975000Y-46750000D03*
X39025000Y-46750000D03*
D61*
X39025000Y-50850000D03*
%TD*%
D13*
%TO.C,R324*%
X264000000Y-231912500D03*
X264000000Y-230087500D03*
%TD*%
D68*
%TO.C,D40*%
X24050000Y-241937500D03*
X25950000Y-241937500D03*
X25000000Y-240062500D03*
%TD*%
D27*
%TO.C,TP28*%
X198500000Y-187000000D03*
%TD*%
%TO.C,TP10*%
X220000000Y-155000000D03*
%TD*%
%TO.C,TP25*%
X183000000Y-122000000D03*
%TD*%
D13*
%TO.C,R315*%
X190500000Y-192912500D03*
X190500000Y-191087500D03*
%TD*%
D69*
%TO.C,U11*%
X27900000Y-79000000D03*
X27900000Y-79500000D03*
X27900000Y-80000000D03*
X27900000Y-80500000D03*
X27900000Y-81000000D03*
X32100000Y-81000000D03*
X32100000Y-80500000D03*
X32100000Y-80000000D03*
X32100000Y-79500000D03*
X32100000Y-79000000D03*
%TD*%
D12*
%TO.C,U36*%
X207362500Y-194050000D03*
X207362500Y-195000000D03*
X207362500Y-195950000D03*
X209637500Y-195950000D03*
X209637500Y-195000000D03*
X209637500Y-194050000D03*
%TD*%
D13*
%TO.C,R32*%
X179000000Y-93912500D03*
X179000000Y-92087500D03*
%TD*%
D10*
%TO.C,C21*%
X34050000Y-169000000D03*
X35950000Y-169000000D03*
%TD*%
D12*
%TO.C,U58*%
X133862500Y-204050000D03*
X133862500Y-205000000D03*
X133862500Y-205950000D03*
X136137500Y-205950000D03*
X136137500Y-204050000D03*
%TD*%
D10*
%TO.C,C248*%
X130050000Y-167000000D03*
X131950000Y-167000000D03*
%TD*%
D13*
%TO.C,R41*%
X27000000Y-171912500D03*
X27000000Y-170087500D03*
%TD*%
D21*
%TO.C,J1*%
X16190000Y-46190000D03*
X16190000Y-48730000D03*
X16190000Y-51270000D03*
X16190000Y-53810000D03*
X23810000Y-46190000D03*
X23810000Y-48730000D03*
X23810000Y-51270000D03*
X23810000Y-53810000D03*
%TD*%
D51*
%TO.C,C203*%
X67950000Y-223000000D03*
X66050000Y-223000000D03*
%TD*%
D40*
%TO.C,Q10*%
X179350000Y-65000000D03*
X179350000Y-67000000D03*
X179350000Y-69000000D03*
X179350000Y-71000000D03*
X179350000Y-73000000D03*
X179350000Y-75000000D03*
X190650000Y-75000000D03*
X190650000Y-73000000D03*
X190650000Y-71000000D03*
X190650000Y-69000000D03*
X190650000Y-67000000D03*
X190650000Y-65000000D03*
D41*
X185000000Y-70000000D03*
%TD*%
D22*
%TO.C,R205*%
X24087500Y-221000000D03*
X25912500Y-221000000D03*
%TD*%
D30*
%TO.C,BC12*%
X200000000Y-77000000D03*
%TD*%
D56*
%TO.C,C245*%
X19525000Y-254000000D03*
X22475000Y-254000000D03*
%TD*%
D70*
%TO.C,D65*%
X162500000Y-202050000D03*
X162500000Y-199950000D03*
%TD*%
D71*
%TO.C,D2*%
X108000000Y-87870000D03*
D72*
X108000000Y-84055000D03*
%TD*%
D56*
%TO.C,C9*%
X177525000Y-102000000D03*
X180475000Y-102000000D03*
%TD*%
D13*
%TO.C,R217*%
X94000000Y-151912500D03*
X94000000Y-150087500D03*
%TD*%
D14*
%TO.C,Q42*%
X162562500Y-190050000D03*
X162562500Y-191950000D03*
X164437500Y-191000000D03*
%TD*%
D13*
%TO.C,R26*%
X63000000Y-97912500D03*
X63000000Y-96087500D03*
%TD*%
D10*
%TO.C,C250*%
X132050000Y-178000000D03*
X133950000Y-178000000D03*
%TD*%
D13*
%TO.C,R301*%
X213500000Y-176912500D03*
X213500000Y-175087500D03*
%TD*%
D10*
%TO.C,C234*%
X141812500Y-170050000D03*
X143712500Y-170050000D03*
%TD*%
D12*
%TO.C,U50*%
X176862500Y-209050000D03*
X176862500Y-210000000D03*
X176862500Y-210950000D03*
X179137500Y-210950000D03*
X179137500Y-210000000D03*
X179137500Y-209050000D03*
%TD*%
D52*
%TO.C,C309*%
X248000000Y-158050000D03*
X248000000Y-159950000D03*
%TD*%
D14*
%TO.C,Q21*%
X89062500Y-240050000D03*
X89062500Y-241950000D03*
X90937500Y-241000000D03*
%TD*%
D39*
%TO.C,R23*%
X77000000Y-101087500D03*
X77000000Y-102912500D03*
%TD*%
D30*
%TO.C,BC3*%
X75000000Y-31000000D03*
%TD*%
D51*
%TO.C,C200*%
X28950000Y-194000000D03*
X27050000Y-194000000D03*
%TD*%
D13*
%TO.C,R253*%
X130000000Y-170912500D03*
X130000000Y-169087500D03*
%TD*%
D27*
%TO.C,TP40*%
X89000000Y-171000000D03*
%TD*%
D73*
%TO.C,C10*%
X124250000Y-151000000D03*
X151750000Y-151000000D03*
%TD*%
D23*
%TO.C,R201*%
X22000000Y-203312500D03*
X22000000Y-198687500D03*
%TD*%
D74*
%TO.C,U12*%
X79850000Y-145700000D03*
X79850000Y-148000000D03*
D75*
X86150000Y-148000000D03*
D74*
X79850000Y-150300000D03*
%TD*%
D15*
%TO.C,U34*%
X151375000Y-202365000D03*
X151375000Y-203635000D03*
X157625000Y-203635000D03*
X157625000Y-202365000D03*
%TD*%
D30*
%TO.C,BC8*%
X140000000Y-70000000D03*
%TD*%
D34*
%TO.C,U55*%
X113600000Y-232250000D03*
X113600000Y-232750000D03*
X113600000Y-233250000D03*
X113600000Y-233750000D03*
X116400000Y-233750000D03*
X116400000Y-233250000D03*
X116400000Y-232750000D03*
X116400000Y-232250000D03*
%TD*%
D12*
%TO.C,U59*%
X37862500Y-220050000D03*
X37862500Y-221000000D03*
X37862500Y-221950000D03*
X40137500Y-221950000D03*
X40137500Y-220050000D03*
%TD*%
D13*
%TO.C,R246*%
X95000000Y-237912500D03*
X95000000Y-236087500D03*
%TD*%
D76*
%TO.C,U16*%
X69862500Y-218025000D03*
X69862500Y-218675000D03*
X69862500Y-219325000D03*
X69862500Y-219975000D03*
X72137500Y-219975000D03*
X72137500Y-219325000D03*
X72137500Y-218675000D03*
X72137500Y-218025000D03*
%TD*%
D12*
%TO.C,U22*%
X106862500Y-218050000D03*
X106862500Y-219000000D03*
X106862500Y-219950000D03*
X109137500Y-219950000D03*
X109137500Y-218050000D03*
%TD*%
%TO.C,U61*%
X193862500Y-224050000D03*
X193862500Y-225000000D03*
X193862500Y-225950000D03*
X196137500Y-225950000D03*
X196137500Y-224050000D03*
%TD*%
D13*
%TO.C,R216*%
X145000000Y-236912500D03*
X145000000Y-235087500D03*
%TD*%
D51*
%TO.C,C226*%
X209650000Y-238025000D03*
X207750000Y-238025000D03*
%TD*%
D27*
%TO.C,TP35*%
X23000000Y-225000000D03*
%TD*%
D63*
%TO.C,U65*%
X207137500Y-219050000D03*
X207137500Y-219700000D03*
X207137500Y-220350000D03*
X207137500Y-221000000D03*
X207137500Y-221650000D03*
X207137500Y-222300000D03*
X207137500Y-222950000D03*
X212862500Y-222950000D03*
X212862500Y-222300000D03*
X212862500Y-221650000D03*
X212862500Y-221000000D03*
X212862500Y-220350000D03*
X212862500Y-219700000D03*
X212862500Y-219050000D03*
%TD*%
D27*
%TO.C,TP36*%
X27000000Y-230000000D03*
%TD*%
D22*
%TO.C,R313*%
X176587500Y-188000000D03*
X178412500Y-188000000D03*
%TD*%
D47*
%TO.C,J16*%
X33125000Y-251950000D03*
X34375000Y-251950000D03*
X35625000Y-251950000D03*
X36875000Y-251950000D03*
D48*
X31275000Y-248600000D03*
X38725000Y-248600000D03*
%TD*%
D26*
%TO.C,R244*%
X28537500Y-245000000D03*
X31462500Y-245000000D03*
%TD*%
D31*
%TO.C,C1*%
X77000000Y-97950000D03*
X77000000Y-96050000D03*
%TD*%
D27*
%TO.C,TP9*%
X163000000Y-60000000D03*
%TD*%
D13*
%TO.C,R55*%
X74000000Y-185912500D03*
X74000000Y-184087500D03*
%TD*%
%TO.C,R242*%
X49000000Y-235912500D03*
X49000000Y-234087500D03*
%TD*%
D10*
%TO.C,C30*%
X196050000Y-93000000D03*
X197950000Y-93000000D03*
%TD*%
D13*
%TO.C,R212*%
X103000000Y-219912500D03*
X103000000Y-218087500D03*
%TD*%
D35*
%TO.C,J10*%
X11000000Y-185000000D03*
D36*
X11000000Y-190080000D03*
%TD*%
D13*
%TO.C,R304*%
X177500000Y-169912500D03*
X177500000Y-168087500D03*
%TD*%
%TO.C,R209*%
X98000000Y-227912500D03*
X98000000Y-226087500D03*
%TD*%
D77*
%TO.C,U4*%
X88037500Y-174750000D03*
X88037500Y-175250000D03*
X88037500Y-175750000D03*
X88037500Y-176250000D03*
X88037500Y-176750000D03*
X88037500Y-177250000D03*
D78*
X88750000Y-177962500D03*
X89250000Y-177962500D03*
X89750000Y-177962500D03*
X90250000Y-177962500D03*
X90750000Y-177962500D03*
X91250000Y-177962500D03*
D77*
X91962500Y-177250000D03*
X91962500Y-176750000D03*
X91962500Y-176250000D03*
X91962500Y-175750000D03*
X91962500Y-175250000D03*
X91962500Y-174750000D03*
D78*
X91250000Y-174037500D03*
X90750000Y-174037500D03*
X90250000Y-174037500D03*
X89750000Y-174037500D03*
X89250000Y-174037500D03*
X88750000Y-174037500D03*
D79*
X90000000Y-176000000D03*
%TD*%
D40*
%TO.C,Q4*%
X84350000Y-25000000D03*
X84350000Y-27000000D03*
X84350000Y-29000000D03*
X84350000Y-31000000D03*
X84350000Y-33000000D03*
X84350000Y-35000000D03*
X95650000Y-35000000D03*
X95650000Y-33000000D03*
X95650000Y-31000000D03*
X95650000Y-29000000D03*
X95650000Y-27000000D03*
X95650000Y-25000000D03*
D41*
X90000000Y-30000000D03*
%TD*%
D67*
%TO.C,NT9*%
X107500000Y-149000000D03*
X108500000Y-149000000D03*
%TD*%
D52*
%TO.C,C241*%
X35000000Y-77250000D03*
X35000000Y-79150000D03*
%TD*%
D70*
%TO.C,D66*%
X166500000Y-202050000D03*
X166500000Y-199950000D03*
%TD*%
D13*
%TO.C,R42*%
X31000000Y-175912500D03*
X31000000Y-174087500D03*
%TD*%
D10*
%TO.C,C222*%
X199350000Y-209250000D03*
X201250000Y-209250000D03*
%TD*%
D50*
%TO.C,C311*%
X207725000Y-190000000D03*
X209275000Y-190000000D03*
%TD*%
D13*
%TO.C,R236*%
X218000000Y-241912500D03*
X218000000Y-240087500D03*
%TD*%
D29*
%TO.C,R225*%
X41912500Y-81000000D03*
X40087500Y-81000000D03*
%TD*%
D10*
%TO.C,C210*%
X36087500Y-194050000D03*
X37987500Y-194050000D03*
%TD*%
D13*
%TO.C,R300*%
X213500000Y-172912500D03*
X213500000Y-171087500D03*
%TD*%
%TO.C,R5*%
X83350000Y-47412500D03*
X83350000Y-45587500D03*
%TD*%
D40*
%TO.C,Q6*%
X84350000Y-75000000D03*
X84350000Y-77000000D03*
X84350000Y-79000000D03*
X84350000Y-81000000D03*
X84350000Y-83000000D03*
X84350000Y-85000000D03*
X95650000Y-85000000D03*
X95650000Y-83000000D03*
X95650000Y-81000000D03*
X95650000Y-79000000D03*
X95650000Y-77000000D03*
X95650000Y-75000000D03*
D41*
X90000000Y-80000000D03*
%TD*%
D13*
%TO.C,R251*%
X117000000Y-161912500D03*
X117000000Y-160087500D03*
%TD*%
D34*
%TO.C,U19*%
X57600000Y-208250000D03*
X57600000Y-208750000D03*
X57600000Y-209250000D03*
X57600000Y-209750000D03*
X60400000Y-209750000D03*
X60400000Y-209250000D03*
X60400000Y-208750000D03*
X60400000Y-208250000D03*
%TD*%
D14*
%TO.C,Q20*%
X144062500Y-215050000D03*
X144062500Y-216950000D03*
X145937500Y-216000000D03*
%TD*%
D13*
%TO.C,R50*%
X86000000Y-183912500D03*
X86000000Y-182087500D03*
%TD*%
D10*
%TO.C,C205*%
X254699999Y-235990000D03*
X256599999Y-235990000D03*
%TD*%
D27*
%TO.C,TP3*%
X49000000Y-96000000D03*
%TD*%
D13*
%TO.C,R19*%
X174850000Y-27412500D03*
X174850000Y-25587500D03*
%TD*%
%TO.C,R36*%
X161000000Y-92912500D03*
X161000000Y-91087500D03*
%TD*%
D27*
%TO.C,TP21*%
X203000000Y-111000000D03*
%TD*%
D31*
%TO.C,C20*%
X34000000Y-179950000D03*
X34000000Y-178050000D03*
%TD*%
D14*
%TO.C,Q44*%
X206562500Y-207050000D03*
X206562500Y-208950000D03*
X208437500Y-208000000D03*
%TD*%
D73*
%TO.C,C3*%
X34250000Y-151000000D03*
X61750000Y-151000000D03*
%TD*%
D40*
%TO.C,Q9*%
X179350000Y-30000000D03*
X179350000Y-32000000D03*
X179350000Y-34000000D03*
X179350000Y-36000000D03*
X179350000Y-38000000D03*
X179350000Y-40000000D03*
X190650000Y-40000000D03*
X190650000Y-38000000D03*
X190650000Y-36000000D03*
X190650000Y-34000000D03*
X190650000Y-32000000D03*
X190650000Y-30000000D03*
D41*
X185000000Y-35000000D03*
%TD*%
D11*
%TO.C,NT7*%
X123000000Y-138000000D03*
X133000000Y-138000000D03*
%TD*%
D13*
%TO.C,R12*%
X70150000Y-64412500D03*
X70150000Y-62587500D03*
%TD*%
%TO.C,R17*%
X165150000Y-44412500D03*
X165150000Y-42587500D03*
%TD*%
D51*
%TO.C,C207*%
X77750000Y-150300000D03*
X75850000Y-150300000D03*
%TD*%
D30*
%TO.C,BC2*%
X48000000Y-83000000D03*
%TD*%
D22*
%TO.C,R311*%
X199587500Y-194000000D03*
X201412500Y-194000000D03*
%TD*%
D12*
%TO.C,U62*%
X92862500Y-202050000D03*
X92862500Y-203000000D03*
X92862500Y-203950000D03*
X95137500Y-203950000D03*
X95137500Y-202050000D03*
%TD*%
D10*
%TO.C,C252*%
X73050000Y-62000000D03*
X74950000Y-62000000D03*
%TD*%
%TO.C,C249*%
X124050000Y-175000000D03*
X125950000Y-175000000D03*
%TD*%
D27*
%TO.C,TP4*%
X49000000Y-90800000D03*
%TD*%
D13*
%TO.C,R325*%
X213500000Y-191912500D03*
X213500000Y-190087500D03*
%TD*%
D80*
%TO.C,U13*%
X40525000Y-239095000D03*
X40525000Y-240365000D03*
X40525000Y-241635000D03*
X40525000Y-242905000D03*
X45475000Y-242905000D03*
X45475000Y-241635000D03*
X45475000Y-240365000D03*
X45475000Y-239095000D03*
%TD*%
D13*
%TO.C,R227*%
X235700000Y-215912500D03*
X235700000Y-214087500D03*
%TD*%
D10*
%TO.C,C216*%
X96087500Y-231000000D03*
X97987500Y-231000000D03*
%TD*%
D40*
%TO.C,Q5*%
X84350000Y-50000000D03*
X84350000Y-52000000D03*
X84350000Y-54000000D03*
X84350000Y-56000000D03*
X84350000Y-58000000D03*
X84350000Y-60000000D03*
X95650000Y-60000000D03*
X95650000Y-58000000D03*
X95650000Y-56000000D03*
X95650000Y-54000000D03*
X95650000Y-52000000D03*
X95650000Y-50000000D03*
D41*
X90000000Y-55000000D03*
%TD*%
D12*
%TO.C,U54*%
X184862500Y-232050000D03*
X184862500Y-233000000D03*
X184862500Y-233950000D03*
X187137500Y-233950000D03*
X187137500Y-233000000D03*
X187137500Y-232050000D03*
%TD*%
D13*
%TO.C,R62*%
X203000000Y-96912500D03*
X203000000Y-95087500D03*
%TD*%
D81*
%TO.C,Q40*%
X241200000Y-170750000D03*
D82*
X236400000Y-171750000D03*
D83*
X237000000Y-179800000D03*
%TD*%
D50*
%TO.C,C302*%
X203725000Y-172000000D03*
X205275000Y-172000000D03*
%TD*%
D27*
%TO.C,TP15*%
X104000000Y-124000000D03*
%TD*%
%TO.C,TP23*%
X191000000Y-201000000D03*
%TD*%
D12*
%TO.C,U5*%
X195862500Y-98050000D03*
X195862500Y-99000000D03*
X195862500Y-99950000D03*
X198137500Y-99950000D03*
X198137500Y-99000000D03*
X198137500Y-98050000D03*
%TD*%
D22*
%TO.C,R33*%
X161087500Y-108000000D03*
X162912500Y-108000000D03*
%TD*%
D13*
%TO.C,R3*%
X66650000Y-89412500D03*
X66650000Y-87587500D03*
%TD*%
D27*
%TO.C,TP7*%
X155000000Y-96000000D03*
%TD*%
D30*
%TO.C,BC9*%
X170000000Y-33000000D03*
%TD*%
D13*
%TO.C,R233*%
X218000000Y-236912500D03*
X218000000Y-235087500D03*
%TD*%
D22*
%TO.C,R22*%
X61087500Y-109000000D03*
X62912500Y-109000000D03*
%TD*%
D31*
%TO.C,C28*%
X146000000Y-104950000D03*
X146000000Y-103050000D03*
%TD*%
D12*
%TO.C,U14*%
X96862500Y-240050000D03*
X96862500Y-241000000D03*
X96862500Y-241950000D03*
X99137500Y-241950000D03*
X99137500Y-240050000D03*
%TD*%
D10*
%TO.C,C230*%
X132087500Y-232050000D03*
X133987500Y-232050000D03*
%TD*%
D22*
%TO.C,R232*%
X167087500Y-214000000D03*
X168912500Y-214000000D03*
%TD*%
D21*
%TO.C,J5*%
X248190000Y-14190000D03*
X248190000Y-16730000D03*
X248190000Y-19270000D03*
X248190000Y-21810000D03*
X255810000Y-14190000D03*
X255810000Y-16730000D03*
X255810000Y-19270000D03*
X255810000Y-21810000D03*
%TD*%
D13*
%TO.C,R51*%
X77000000Y-171912500D03*
X77000000Y-170087500D03*
%TD*%
D37*
%TO.C,J14*%
X269000000Y-212000000D03*
D36*
X269000000Y-206920000D03*
%TD*%
D31*
%TO.C,C13*%
X166000000Y-108950000D03*
X166000000Y-107050000D03*
%TD*%
D11*
%TO.C,NT8*%
X81000000Y-138000000D03*
X91000000Y-138000000D03*
%TD*%
D27*
%TO.C,TP31*%
X138000000Y-247000000D03*
%TD*%
D14*
%TO.C,U17*%
X47062500Y-194050000D03*
X47062500Y-195950000D03*
X48937500Y-195000000D03*
%TD*%
D13*
%TO.C,R31*%
X162000000Y-103912500D03*
X162000000Y-102087500D03*
%TD*%
%TO.C,R241*%
X37000000Y-238912500D03*
X37000000Y-237087500D03*
%TD*%
D10*
%TO.C,C223*%
X166087500Y-220000000D03*
X167987500Y-220000000D03*
%TD*%
%TO.C,C220*%
X148087500Y-229000000D03*
X149987500Y-229000000D03*
%TD*%
D13*
%TO.C,R214*%
X121000000Y-220912500D03*
X121000000Y-219087500D03*
%TD*%
D40*
%TO.C,Q1*%
X65650000Y-35000000D03*
X65650000Y-33000000D03*
X65650000Y-31000000D03*
X65650000Y-29000000D03*
X65650000Y-27000000D03*
X65650000Y-25000000D03*
X54350000Y-25000000D03*
X54350000Y-27000000D03*
X54350000Y-29000000D03*
X54350000Y-31000000D03*
X54350000Y-33000000D03*
X54350000Y-35000000D03*
D41*
X60000000Y-30000000D03*
%TD*%
D84*
%TO.C,C246*%
X149000000Y-245000000D03*
D27*
X154000000Y-245000000D03*
%TD*%
D13*
%TO.C,R57*%
X100000000Y-171912500D03*
X100000000Y-170087500D03*
%TD*%
D10*
%TO.C,C8*%
X173050000Y-92000000D03*
X174950000Y-92000000D03*
%TD*%
D22*
%TO.C,R239*%
X187087500Y-221000000D03*
X188912500Y-221000000D03*
%TD*%
D71*
%TO.C,D1*%
X35000000Y-72870000D03*
D72*
X35000000Y-69055000D03*
%TD*%
D27*
%TO.C,TP34*%
X214000000Y-214000000D03*
%TD*%
D10*
%TO.C,C258*%
X214812500Y-219050000D03*
X216712500Y-219050000D03*
%TD*%
D85*
%TO.C,D61*%
X225000000Y-185600000D03*
X225000000Y-192400000D03*
%TD*%
D21*
%TO.C,J2*%
X16190000Y-108190000D03*
X16190000Y-110730000D03*
X16190000Y-113270000D03*
X16190000Y-115810000D03*
X23810000Y-108190000D03*
X23810000Y-110730000D03*
X23810000Y-113270000D03*
X23810000Y-115810000D03*
%TD*%
D10*
%TO.C,C201*%
X39850000Y-197000000D03*
X41750000Y-197000000D03*
%TD*%
D13*
%TO.C,R252*%
X121000000Y-164912500D03*
X121000000Y-163087500D03*
%TD*%
D40*
%TO.C,Q2*%
X65650000Y-60000000D03*
X65650000Y-58000000D03*
X65650000Y-56000000D03*
X65650000Y-54000000D03*
X65650000Y-52000000D03*
X65650000Y-50000000D03*
X54350000Y-50000000D03*
X54350000Y-52000000D03*
X54350000Y-54000000D03*
X54350000Y-56000000D03*
X54350000Y-58000000D03*
X54350000Y-60000000D03*
D41*
X60000000Y-55000000D03*
%TD*%
D13*
%TO.C,R30*%
X179000000Y-99912500D03*
X179000000Y-98087500D03*
%TD*%
D27*
%TO.C,TP32*%
X183000000Y-249000000D03*
%TD*%
D31*
%TO.C,C254*%
X89000000Y-205950000D03*
X89000000Y-204050000D03*
%TD*%
D13*
%TO.C,R314*%
X190500000Y-187912500D03*
X190500000Y-186087500D03*
%TD*%
%TO.C,R7*%
X161650000Y-44412500D03*
X161650000Y-42587500D03*
%TD*%
D27*
%TO.C,TP37*%
X35000000Y-175000000D03*
%TD*%
D13*
%TO.C,R43*%
X23000000Y-171912500D03*
X23000000Y-170087500D03*
%TD*%
%TO.C,R10*%
X178350000Y-62412500D03*
X178350000Y-60587500D03*
%TD*%
%TO.C,R204*%
X25000000Y-215912500D03*
X25000000Y-214087500D03*
%TD*%
D86*
%TO.C,D62*%
X246000000Y-172600000D03*
X246000000Y-175400000D03*
%TD*%
D10*
%TO.C,C213*%
X51350000Y-208250000D03*
X53250000Y-208250000D03*
%TD*%
D59*
%TO.C,C27*%
X96000000Y-172475000D03*
X96000000Y-169525000D03*
%TD*%
D13*
%TO.C,R27*%
X53000000Y-96912500D03*
X53000000Y-95087500D03*
%TD*%
%TO.C,R8*%
X161650000Y-79412500D03*
X161650000Y-77587500D03*
%TD*%
D87*
%TO.C,U10*%
X252750000Y-237260000D03*
X252750000Y-235990000D03*
X252750000Y-234720000D03*
X252750000Y-233450000D03*
X252750000Y-232180000D03*
X252750000Y-230910000D03*
X252750000Y-229640000D03*
X252750000Y-228370000D03*
X252750000Y-227100000D03*
X252750000Y-225830000D03*
X252750000Y-224560000D03*
X252750000Y-223290000D03*
X252750000Y-222020000D03*
X252750000Y-220750000D03*
D88*
X250985000Y-219500000D03*
X249715000Y-219500000D03*
X248445000Y-219500000D03*
X247175000Y-219500000D03*
X245905000Y-219500000D03*
X244635000Y-219500000D03*
X243365000Y-219500000D03*
X242095000Y-219500000D03*
X240825000Y-219500000D03*
X239555000Y-219500000D03*
X238285000Y-219500000D03*
X237015000Y-219500000D03*
D87*
X235250000Y-220750000D03*
X235250000Y-222020000D03*
X235250000Y-223290000D03*
X235250000Y-224560000D03*
X235250000Y-225830000D03*
X235250000Y-227100000D03*
X235250000Y-228370000D03*
X235250000Y-229640000D03*
X235250000Y-230910000D03*
X235250000Y-232180000D03*
X235250000Y-233450000D03*
X235250000Y-234720000D03*
X235250000Y-235990000D03*
X235250000Y-237260000D03*
D89*
X246900000Y-230240000D03*
X246900000Y-228840000D03*
X246200000Y-230940000D03*
X246200000Y-229540000D03*
X246200000Y-228140000D03*
X245500000Y-230240000D03*
D90*
X245500000Y-229540000D03*
D89*
X245500000Y-228840000D03*
X244800000Y-230940000D03*
X244800000Y-229540000D03*
X244800000Y-228140000D03*
X244100000Y-230240000D03*
X244100000Y-228840000D03*
%TD*%
D27*
%TO.C,TP8*%
X151500000Y-90500000D03*
%TD*%
D46*
%TO.C,H2*%
X271000000Y-9000000D03*
%TD*%
D77*
%TO.C,U3*%
X38037500Y-174750000D03*
X38037500Y-175250000D03*
X38037500Y-175750000D03*
X38037500Y-176250000D03*
X38037500Y-176750000D03*
X38037500Y-177250000D03*
D78*
X38750000Y-177962500D03*
X39250000Y-177962500D03*
X39750000Y-177962500D03*
X40250000Y-177962500D03*
X40750000Y-177962500D03*
X41250000Y-177962500D03*
D77*
X41962500Y-177250000D03*
X41962500Y-176750000D03*
X41962500Y-176250000D03*
X41962500Y-175750000D03*
X41962500Y-175250000D03*
X41962500Y-174750000D03*
D78*
X41250000Y-174037500D03*
X40750000Y-174037500D03*
X40250000Y-174037500D03*
X39750000Y-174037500D03*
X39250000Y-174037500D03*
X38750000Y-174037500D03*
D79*
X40000000Y-176000000D03*
%TD*%
D10*
%TO.C,C221*%
X101887499Y-151000000D03*
X103787499Y-151000000D03*
%TD*%
M02*
